999
dxfrw 0.6.3
  0
SECTION
  2
HEADER
  9
$ACADVER
  1
AC1021
  9
$DWGCODEPAGE
  3
ANSI_1252
  9
$INSBASE
 10
0
 20
0
 30
0
  9
$EXTMIN
 10
0
 20
10.2066
 30
0
  9
$EXTMAX
 10
439.19595
 20
160
 30
0
  9
$LIMMIN
 10
0
 20
0
  9
$LIMMAX
 10
420
 20
297
  9
$ORTHOMODE
 70
    0
  9
$REGENMODE
 70
    1
  9
$FILLMODE
 70
    0
  9
$QTEXTMODE
 70
    0
  9
$MIRRTEXT
 70
    0
  9
$LTSCALE
 40
1
  9
$ATTMODE
 70
    0
  9
$TEXTSIZE
 40
2.5
  9
$TRACEWID
 40
15.68
  9
$TEXTSTYLE
  7
STANDARD
  9
$CLAYER
  8
0
  9
$CELTYPE
  6
BYLAYER
  9
$CECOLOR
 62
  256
  9
$CELTSCALE
 40
1
  9
$DISPSILH
 70
    0
  9
$DIMSCALE
 40
1
  9
$DIMASZ
 40
2.5
  9
$DIMEXO
 40
0.625
  9
$DIMDLI
 40
3.75
  9
$DIMRND
 40
0
  9
$DIMDLE
 40
0
  9
$DIMEXE
 40
1.25
  9
$DIMTP
 40
0
  9
$DIMTM
 40
0
  9
$DIMTXT
 40
2.5
  9
$DIMCEN
 40
2.5
  9
$DIMTSZ
 40
0
  9
$DIMTOL
 70
    0
  9
$DIMLIM
 70
    0
  9
$DIMTIH
 70
    0
  9
$DIMTOH
 70
    0
  9
$DIMSE1
 70
    0
  9
$DIMSE2
 70
    0
  9
$DIMTAD
 70
    1
  9
$DIMZIN
 70
    1
  9
$DIMBLK
  1

  9
$DIMASO
 70
    1
  9
$DIMSHO
 70
    1
  9
$DIMPOST
  1

  9
$DIMAPOST
  1

  9
$DIMALT
 70
    0
  9
$DIMALTD
 70
    3
  9
$DIMALTF
 40
0.03937
  9
$DIMLFAC
 40
1
  9
$DIMTOFL
 70
    1
  9
$DIMTVP
 40
0
  9
$DIMTIX
 70
    0
  9
$DIMSOXD
 70
    0
  9
$DIMSAH
 70
    0
  9
$DIMBLK1
  1

  9
$DIMBLK2
  1

  9
$DIMSTYLE
  2
Standard
  9
$DIMCLRD
 70
    0
  9
$DIMCLRE
 70
    0
  9
$DIMCLRT
 70
    0
  9
$DIMTFAC
 40
1
  9
$DIMGAP
 40
0.625
  9
$DIMJUST
 70
    0
  9
$DIMSD1
 70
    0
  9
$DIMSD2
 70
    0
  9
$DIMTOLJ
 70
    0
  9
$DIMTZIN
 70
    8
  9
$DIMALTZ
 70
    0
  9
$DIMALTTZ
 70
    0
  9
$DIMUPT
 70
    0
  9
$DIMDEC
 70
    4
  9
$DIMTDEC
 70
    2
  9
$DIMALTU
 70
    2
  9
$DIMALTTD
 70
    3
  9
$DIMTXSTY
  7
standard
  9
$DIMAUNIT
 70
    0
  9
$DIMADEC
 70
    2
  9
$DIMALTRND
 40
0
  9
$DIMAZIN
 70
    0
  9
$DIMDSEP
 70
    0
  9
$DIMATFIT
 70
    3
  9
$DIMFRAC
 70
    0
  9
$DIMLDRBLK
  1
STANDARD
  9
$DIMLUNIT
 70
    2
  9
$DIMLWD
 70
   -2
  9
$DIMLWE
 70
   -2
  9
$DIMTMOVE
 70
    0
  9
$DIMFXL
 40
1
  9
$DIMFXLON
 70
    0
  9
$DIMJOGANG
 40
0.7854
  9
$DIMTFILL
 70
    0
  9
$DIMTFILLCLR
 70
    0
  9
$DIMARCSYM
 70
    0
  9
$DIMLTYPE
  6

  9
$DIMLTEX1
  6

  9
$DIMLTEX2
  6

  9
$LUNITS
 70
    2
  9
$LUPREC
 70
    4
  9
$SKETCHINC
 40
1
  9
$FILLETRAD
 40
0
  9
$AUNITS
 70
    0
  9
$AUPREC
 70
    2
  9
$MENU
  1
.
  9
$ELEVATION
 40
0
  9
$PELEVATION
 40
0
  9
$THICKNESS
 40
0
  9
$LIMCHECK
 70
    0
  9
$CHAMFERA
 40
0
  9
$CHAMFERB
 40
0
  9
$CHAMFERC
 40
0
  9
$CHAMFERD
 40
0
  9
$SKPOLY
 70
    0
  9
$USRTIMER
 70
    1
  9
$ANGBASE
 50
0
  9
$ANGDIR
 70
    0
  9
$PDMODE
 70
   34
  9
$PDSIZE
 40
0
  9
$PLINEWID
 40
0
  9
$SPLFRAME
 70
    1
  9
$SPLINETYPE
 70
    2
  9
$SPLINESEGS
 70
    8
  9
$HANDSEED
  5
20000
  9
$SURFTAB1
 70
    6
  9
$SURFTAB2
 70
    6
  9
$SURFTYPE
 70
    6
  9
$SURFU
 70
    6
  9
$SURFV
 70
    6
  9
$UCSBASE
  2

  9
$UCSNAME
  2

  9
$UCSORG
 10
0
 20
0
 30
0
  9
$UCSXDIR
 10
1
 20
0
 30
0
  9
$UCSYDIR
 10
0
 20
1
 30
0
  9
$UCSORTHOREF
  2

  9
$UCSORTHOVIEW
 70
    0
  9
$UCSORGTOP
 10
0
 20
0
 30
0
  9
$UCSORGBOTTOM
 10
0
 20
0
 30
0
  9
$UCSORGLEFT
 10
0
 20
0
 30
0
  9
$UCSORGRIGHT
 10
0
 20
0
 30
0
  9
$UCSORGFRONT
 10
0
 20
0
 30
0
  9
$UCSORGBACK
 10
0
 20
0
 30
0
  9
$PUCSBASE
  2

  9
$PUCSNAME
  2

  9
$PUCSORG
 10
0
 20
0
 30
0
  9
$PUCSXDIR
 10
1
 20
0
 30
0
  9
$PUCSYDIR
 10
0
 20
1
 30
0
  9
$PUCSORTHOREF
  2

  9
$PUCSORTHOVIEW
 70
    0
  9
$PUCSORGTOP
 10
0
 20
0
 30
0
  9
$PUCSORGBOTTOM
 10
0
 20
0
 30
0
  9
$PUCSORGLEFT
 10
0
 20
0
 30
0
  9
$PUCSORGRIGHT
 10
0
 20
0
 30
0
  9
$PUCSORGFRONT
 10
0
 20
0
 30
0
  9
$PUCSORGBACK
 10
0
 20
0
 30
0
  9
$USERI1
 70
    0
  9
$USERI2
 70
    0
  9
$USERI3
 70
    0
  9
$USERI4
 70
    0
  9
$USERI5
 70
    0
  9
$USERR1
 40
0
  9
$USERR2
 40
0
  9
$USERR3
 40
0
  9
$USERR4
 40
0
  9
$USERR5
 40
0
  9
$WORLDVIEW
 70
    1
  9
$SHADEDGE
 70
    3
  9
$SHADEDIF
 70
   70
  9
$TILEMODE
 70
    1
  9
$MAXACTVP
 70
   64
  9
$PINSBASE
 10
0
 20
0
 30
0
  9
$PLIMCHECK
 70
    0
  9
$PEXTMIN
 10
0
 20
0
 30
0
  9
$PEXTMAX
 10
0
 20
0
 30
0
  9
$GRIDMODE
 70
    1
  9
$SNAPSTYLE
 70
    0
  9
$GRIDUNIT
 10
0.01
 20
0.01
  9
$PLIMMIN
 10
0
 20
0
  9
$PLIMMAX
 10
210
 20
297
  9
$UNITMODE
 70
    0
  9
$VISRETAIN
 70
    1
  9
$PLINEGEN
 70
    0
  9
$PSLTSCALE
 70
    1
  9
$TREEDEPTH
 70
 3020
  9
$CMLSTYLE
  2
Standard
  9
$CMLJUST
 70
    0
  9
$CMLSCALE
 40
20
  9
$PROXYGRAPHICS
 70
    1
  9
$MEASUREMENT
 70
    1
  9
$CELWEIGHT
370
   -1
  9
$ENDCAPS
280
    0
  9
$JOINSTYLE
280
    0
  9
$LWDISPLAY
290
    0
  9
$INSUNITS
 70
    4
  9
$HYPERLINKBASE
  1

  9
$STYLESHEET
  1

  9
$XEDIT
290
    1
  9
$CEPSNTYPE
380
    0
  9
$PSTYLEMODE
290
    1
  9
$EXTNAMES
290
    1
  9
$PSVPSCALE
 40
1
  9
$OLESTARTUP
290
    0
  9
$SORTENTS
280
  127
  9
$INDEXCTL
280
    0
  9
$HIDETEXT
280
    1
  9
$XCLIPFRAME
290
    0
  9
$HALOGAP
280
    0
  9
$OBSCOLOR
 70
  257
  9
$OBSLTYPE
280
    0
  9
$INTERSECTIONDISPLAY
280
    0
  9
$INTERSECTIONCOLOR
 70
  257
  9
$DIMASSOC
280
    1
  9
$PROJECTNAME
  1

  9
$CAMERADISPLAY
290
    0
  9
$LENSLENGTH
 40
50
  9
$CAMERAHEIGHT
 40
0
  9
$STEPSPERSEC
 40
2
  9
$STEPSIZE
 40
50
  9
$3DDWFPREC
 40
2
  9
$PSOLWIDTH
 40
5
  9
$PSOLHEIGHT
 40
80
  9
$LOFTANG1
 40
1.570796326794897
  9
$LOFTANG2
 40
1.570796326794897
  9
$LOFTMAG1
 40
0
  9
$LOFTMAG2
 40
0
  9
$LOFTPARAM
 70
    7
  9
$LOFTNORMALS
280
    1
  9
$LATITUDE
 40
1
  9
$LONGITUDE
 40
1
  9
$NORTHDIRECTION
 40
0
  9
$TIMEZONE
 70
-8000
  9
$LIGHTGLYPHDISPLAY
280
    1
  9
$TILEMODELIGHTSYNCH
280
    1
  9
$SOLIDHIST
280
    1
  9
$SHOWHIST
280
    1
  9
$DWFFRAME
280
    2
  9
$DGNFRAME
280
    0
  9
$REALWORLDSCALE
290
    1
  9
$INTERFERECOLOR
 62
    1
  9
$CSHADOW
280
    0
  9
$SHADOWPLANELOCATION
 40
0
  0
ENDSEC
  0
SECTION
  2
CLASSES
  0
ENDSEC
  0
SECTION
  2
TABLES
  0
TABLE
  2
VPORT
  5
8
330
0
100
AcDbSymbolTable
 70
    1
  0
VPORT
  5
31
330
2
100
AcDbSymbolTableRecord
100
AcDbViewportTableRecord
  2
*ACTIVE
 70
    0
 10
0
 20
0
 11
1
 21
1
 12
334.2961066760615
 22
169.6499130102322
 13
0
 23
0
 14
10
 24
10
 15
0.01
 25
0.01
 16
0
 26
0
 36
1
 17
0
 27
0
 37
0
 40
476.0681547674774
 41
1.608608608608609
 42
50
 43
0
 44
0
 50
0
 51
0
 71
    0
 72
  100
 73
    1
 74
    3
 75
    0
 76
    1
 77
    0
 78
    0
281
    0
 65
    1
110
0
120
0
130
0
111
1
121
0
131
0
112
0
122
1
132
0
 79
    0
146
0
348
10020
 60
    3
 61
    5
292
1
282
    1
141
0
142
0
 63
  250
421
3358443
  0
ENDTAB
  0
TABLE
  2
LTYPE
  5
5
330
0
100
AcDbSymbolTable
 70
    4
  0
LTYPE
  5
14
330
5
100
AcDbSymbolTableRecord
100
AcDbLinetypeTableRecord
  2
ByBlock
 70
    0
  3

 72
   65
 73
    0
 40
0
  0
LTYPE
  5
15
330
5
100
AcDbSymbolTableRecord
100
AcDbLinetypeTableRecord
  2
ByLayer
 70
    0
  3

 72
   65
 73
    0
 40
0
  0
LTYPE
  5
16
330
5
100
AcDbSymbolTableRecord
100
AcDbLinetypeTableRecord
  2
Continuous
 70
    0
  3
Solid line
 72
   65
 73
    0
 40
0
  0
LTYPE
  5
32
330
5
100
AcDbSymbolTableRecord
100
AcDbLinetypeTableRecord
  2
DOT
 70
    0
  3
Dot . . . . . . . . . . . . . . . . . . . . . .
 72
   65
 73
    2
 40
6.35
 49
0
 74
    0
 49
-6.35
 74
    0
  0
LTYPE
  5
33
330
5
100
AcDbSymbolTableRecord
100
AcDbLinetypeTableRecord
  2
DOTTINY
 70
    0
  3
Dot (.15x) .....................................
 72
   65
 73
    2
 40
0.9525
 49
0
 74
    0
 49
-0.9525
 74
    0
  0
LTYPE
  5
34
330
5
100
AcDbSymbolTableRecord
100
AcDbLinetypeTableRecord
  2
DOT2
 70
    0
  3
Dot (.5x) .....................................
 72
   65
 73
    2
 40
3.175
 49
0
 74
    0
 49
-3.175
 74
    0
  0
LTYPE
  5
35
330
5
100
AcDbSymbolTableRecord
100
AcDbLinetypeTableRecord
  2
DOTX2
 70
    0
  3
Dot (2x) .  .  .  .  .  .  .  .  .  .  .  .  .
 72
   65
 73
    2
 40
12.7
 49
0
 74
    0
 49
-12.7
 74
    0
  0
LTYPE
  5
36
330
5
100
AcDbSymbolTableRecord
100
AcDbLinetypeTableRecord
  2
DASHED
 70
    0
  3
Dashed _ _ _ _ _ _ _ _ _ _ _ _ _ _ _ _ _
 72
   65
 73
    2
 40
19.05
 49
12.7
 74
    0
 49
-6.35
 74
    0
  0
LTYPE
  5
37
330
5
100
AcDbSymbolTableRecord
100
AcDbLinetypeTableRecord
  2
DASHEDTINY
 70
    0
  3
Dashed (.15x) _ _ _ _ _ _ _ _ _ _ _ _ _ _ _ _ _
 72
   65
 73
    2
 40
2.8575
 49
1.905
 74
    0
 49
-0.9525
 74
    0
  0
LTYPE
  5
38
330
5
100
AcDbSymbolTableRecord
100
AcDbLinetypeTableRecord
  2
DASHED2
 70
    0
  3
Dashed (.5x) _ _ _ _ _ _ _ _ _ _ _ _ _ _ _ _ _
 72
   65
 73
    2
 40
9.524999999999999
 49
6.35
 74
    0
 49
-3.175
 74
    0
  0
LTYPE
  5
39
330
5
100
AcDbSymbolTableRecord
100
AcDbLinetypeTableRecord
  2
DASHEDX2
 70
    0
  3
Dashed (2x) ____  ____  ____  ____  ____  ___
 72
   65
 73
    2
 40
38.09999999999999
 49
25.4
 74
    0
 49
-12.7
 74
    0
  0
LTYPE
  5
3A
330
5
100
AcDbSymbolTableRecord
100
AcDbLinetypeTableRecord
  2
DASHDOT
 70
    0
  3
Dash dot __ . __ . __ . __ . __ . __ . __ . __
 72
   65
 73
    4
 40
25.4
 49
12.7
 74
    0
 49
-6.35
 74
    0
 49
0
 74
    0
 49
-6.35
 74
    0
  0
LTYPE
  5
3B
330
5
100
AcDbSymbolTableRecord
100
AcDbLinetypeTableRecord
  2
DASHDOTTINY
 70
    0
  3
Dash dot (.15x) _._._._._._._._._._._._._._._.
 72
   65
 73
    4
 40
3.81
 49
1.905
 74
    0
 49
-0.9525
 74
    0
 49
0
 74
    0
 49
-0.9525
 74
    0
  0
LTYPE
  5
3C
330
5
100
AcDbSymbolTableRecord
100
AcDbLinetypeTableRecord
  2
DASHDOT2
 70
    0
  3
Dash dot (.5x) _._._._._._._._._._._._._._._.
 72
   65
 73
    4
 40
12.7
 49
6.35
 74
    0
 49
-3.175
 74
    0
 49
0
 74
    0
 49
-3.175
 74
    0
  0
LTYPE
  5
3D
330
5
100
AcDbSymbolTableRecord
100
AcDbLinetypeTableRecord
  2
DASHDOTX2
 70
    0
  3
Dash dot (2x) ____  .  ____  .  ____  .  ___
 72
   65
 73
    4
 40
50.8
 49
25.4
 74
    0
 49
-12.7
 74
    0
 49
0
 74
    0
 49
-12.7
 74
    0
  0
LTYPE
  5
3E
330
5
100
AcDbSymbolTableRecord
100
AcDbLinetypeTableRecord
  2
DIVIDE
 70
    0
  3
Divide ____ . . ____ . . ____ . . ____ . . ____
 72
   65
 73
    6
 40
31.75
 49
12.7
 74
    0
 49
-6.35
 74
    0
 49
0
 74
    0
 49
-6.35
 74
    0
 49
0
 74
    0
 49
-6.35
 74
    0
  0
LTYPE
  5
3F
330
5
100
AcDbSymbolTableRecord
100
AcDbLinetypeTableRecord
  2
DIVIDETINY
 70
    0
  3
Divide (.15x) __..__..__..__..__..__..__..__.._
 72
   65
 73
    6
 40
4.7625
 49
1.905
 74
    0
 49
-0.9525
 74
    0
 49
0
 74
    0
 49
-0.9525
 74
    0
 49
0
 74
    0
 49
-0.9525
 74
    0
  0
LTYPE
  5
40
330
5
100
AcDbSymbolTableRecord
100
AcDbLinetypeTableRecord
  2
DIVIDE2
 70
    0
  3
Divide (.5x) __..__..__..__..__..__..__..__.._
 72
   65
 73
    6
 40
15.875
 49
6.35
 74
    0
 49
-3.175
 74
    0
 49
0
 74
    0
 49
-3.175
 74
    0
 49
0
 74
    0
 49
-3.175
 74
    0
  0
LTYPE
  5
41
330
5
100
AcDbSymbolTableRecord
100
AcDbLinetypeTableRecord
  2
DIVIDEX2
 70
    0
  3
Divide (2x) ________  .  .  ________  .  .  _
 72
   65
 73
    6
 40
63.5
 49
25.4
 74
    0
 49
-12.7
 74
    0
 49
0
 74
    0
 49
-12.7
 74
    0
 49
0
 74
    0
 49
-12.7
 74
    0
  0
LTYPE
  5
42
330
5
100
AcDbSymbolTableRecord
100
AcDbLinetypeTableRecord
  2
BORDER
 70
    0
  3
Border __ __ . __ __ . __ __ . __ __ . __ __ .
 72
   65
 73
    6
 40
44.45
 49
12.7
 74
    0
 49
-6.35
 74
    0
 49
12.7
 74
    0
 49
-6.35
 74
    0
 49
0
 74
    0
 49
-6.35
 74
    0
  0
LTYPE
  5
43
330
5
100
AcDbSymbolTableRecord
100
AcDbLinetypeTableRecord
  2
BORDERTINY
 70
    0
  3
Border (.15x) __.__.__.__.__.__.__.__.__.__.__.
 72
   65
 73
    6
 40
6.6675
 49
1.905
 74
    0
 49
-0.9525
 74
    0
 49
1.905
 74
    0
 49
-0.9525
 74
    0
 49
0
 74
    0
 49
-0.9525
 74
    0
  0
LTYPE
  5
44
330
5
100
AcDbSymbolTableRecord
100
AcDbLinetypeTableRecord
  2
BORDER2
 70
    0
  3
Border (.5x) __.__.__.__.__.__.__.__.__.__.__.
 72
   65
 73
    6
 40
22.225
 49
6.35
 74
    0
 49
-3.175
 74
    0
 49
6.35
 74
    0
 49
-3.175
 74
    0
 49
0
 74
    0
 49
-3.175
 74
    0
  0
LTYPE
  5
45
330
5
100
AcDbSymbolTableRecord
100
AcDbLinetypeTableRecord
  2
BORDERX2
 70
    0
  3
Border (2x) ____  ____  .  ____  ____  .  ___
 72
   65
 73
    6
 40
88.89999999999999
 49
25.4
 74
    0
 49
-12.7
 74
    0
 49
25.4
 74
    0
 49
-12.7
 74
    0
 49
0
 74
    0
 49
-12.7
 74
    0
  0
LTYPE
  5
46
330
5
100
AcDbSymbolTableRecord
100
AcDbLinetypeTableRecord
  2
CENTER
 70
    0
  3
Center ____ _ ____ _ ____ _ ____ _ ____ _ ____
 72
   65
 73
    4
 40
50.8
 49
31.75
 74
    0
 49
-6.35
 74
    0
 49
6.35
 74
    0
 49
-6.35
 74
    0
  0
LTYPE
  5
47
330
5
100
AcDbSymbolTableRecord
100
AcDbLinetypeTableRecord
  2
CENTERTINY
 70
    0
  3
Center (.15x) ___ _ ___ _ ___ _ ___ _ ___ _ ___
 72
   65
 73
    4
 40
7.619999999999999
 49
4.7625
 74
    0
 49
-0.9525
 74
    0
 49
0.9525
 74
    0
 49
-0.9525
 74
    0
  0
LTYPE
  5
48
330
5
100
AcDbSymbolTableRecord
100
AcDbLinetypeTableRecord
  2
CENTER2
 70
    0
  3
Center (.5x) ___ _ ___ _ ___ _ ___ _ ___ _ ___
 72
   65
 73
    4
 40
28.575
 49
19.05
 74
    0
 49
-3.175
 74
    0
 49
3.175
 74
    0
 49
-3.175
 74
    0
  0
LTYPE
  5
49
330
5
100
AcDbSymbolTableRecord
100
AcDbLinetypeTableRecord
  2
CENTERX2
 70
    0
  3
Center (2x) ________  __  ________  __  _____
 72
   65
 73
    4
 40
101.6
 49
63.5
 74
    0
 49
-12.7
 74
    0
 49
12.7
 74
    0
 49
-12.7
 74
    0
  0
ENDTAB
  0
TABLE
  2
LAYER
  5
2
330
0
100
AcDbSymbolTable
 70
    1
  0
LAYER
  5
10
330
2
100
AcDbSymbolTableRecord
100
AcDbLayerTableRecord
  2
0
 70
    0
 62
    7
  6
CONTINUOUS
370
   -3
390
F
  0
ENDTAB
  0
TABLE
  2
STYLE
  5
3
330
0
100
AcDbSymbolTable
 70
    3
  0
STYLE
  5
4A
330
2
100
AcDbSymbolTableRecord
100
AcDbTextStyleTableRecord
  2
Standard
 70
    0
 40
0
 41
1
 50
0
 71
    0
 42
1
  3
txt
  4

  0
ENDTAB
  0
TABLE
  2
VIEW
  5
6
330
0
100
AcDbSymbolTable
 70
    0
  0
ENDTAB
  0
TABLE
  2
UCS
  5
7
330
0
100
AcDbSymbolTable
 70
    0
  0
ENDTAB
  0
TABLE
  2
APPID
  5
9
330
0
100
AcDbSymbolTable
 70
    1
  0
APPID
  5
12
330
9
100
AcDbSymbolTableRecord
100
AcDbRegAppTableRecord
  2
ACAD
 70
    0
  0
APPID
  5
4B
330
9
100
AcDbSymbolTableRecord
100
AcDbRegAppTableRecord
  2
LibreCad
 70
    0
  0
ENDTAB
  0
TABLE
  2
DIMSTYLE
  5
A
330
0
100
AcDbSymbolTable
 70
    1
100
AcDbDimStyleTable
 71
    1
  0
DIMSTYLE
105
4C
330
A
100
AcDbSymbolTableRecord
100
AcDbDimStyleTableRecord
  2
Standard
 70
    0
 40
1
 41
2.5
 42
0.625
 43
0.38
 44
1.25
 45
0
 46
0
 47
0
 48
0
 49
1
140
2.5
141
0.09
142
0
143
25.4
144
1
145
0
146
1
147
0.625
148
0
 71
    0
 72
    0
 73
    0
 74
    1
 75
    0
 76
    0
 77
    0
 78
    1
 79
    0
170
    0
171
    2
172
    0
173
    0
174
    0
175
    0
176
    0
177
    0
178
    0
179
    2
271
    4
272
    4
273
    2
274
    2
275
    0
276
    0
277
    2
278
    0
279
    0
280
    0
281
    0
282
    0
283
    1
284
    0
285
    0
286
    0
288
    0
289
    3
340
standard
341

371
   -2
372
   -2
  0
ENDTAB
  0
TABLE
  2
BLOCK_RECORD
  5
1
330
0
100
AcDbSymbolTable
 70
    2
  0
BLOCK_RECORD
  5
1F
330
1
100
AcDbSymbolTableRecord
100
AcDbBlockTableRecord
  2
*Model_Space
 70
    0
280
    1
281
    0
  0
BLOCK_RECORD
  5
1E
330
1
100
AcDbSymbolTableRecord
100
AcDbBlockTableRecord
  2
*Paper_Space
 70
    0
280
    1
281
    0
  0
ENDTAB
  0
ENDSEC
  0
SECTION
  2
BLOCKS
  0
BLOCK
  5
20
330
1F
100
AcDbEntity
  8
0
100
AcDbBlockBegin
  2
*Model_Space
 70
    0
 10
0
 20
0
 30
0
  3
*Model_Space
  1

  0
ENDBLK
  5
21
330
1F
100
AcDbEntity
  8
0
100
AcDbBlockEnd
  0
BLOCK
  5
1C
330
1B
100
AcDbEntity
  8
0
100
AcDbBlockBegin
  2
*Paper_Space
 70
    0
 10
0
 20
0
 30
0
  3
*Paper_Space
  1

  0
ENDBLK
  5
1D
330
1F
100
AcDbEntity
  8
0
100
AcDbBlockEnd
  0
ENDSEC
  0
SECTION
  2
ENTITIES
  0
LINE
  5
4D
100
AcDbEntity
  8
0
  6
ByLayer
 62
    0
370
   -1
100
AcDbLine
 10
373.56795
 20
32.69970000000002
 11
373.56795
 21
28.00060000000002
  0
LINE
  5
4E
100
AcDbEntity
  8
0
  6
ByLayer
 62
    0
370
   -1
100
AcDbLine
 10
373.56795
 20
28.00060000000002
 11
372.04395
 21
28.00060000000002
  0
LINE
  5
4F
100
AcDbEntity
  8
0
  6
ByLayer
 62
    0
370
   -1
100
AcDbLine
 10
372.04395
 20
28.00060000000002
 11
372.04395
 21
31.22940000000003
  0
LINE
  5
50
100
AcDbEntity
  8
0
  6
ByLayer
 62
    0
370
   -1
100
AcDbLine
 10
372.04395
 20
31.22940000000003
 11
370.31895
 21
31.22940000000003
  0
LINE
  5
51
100
AcDbEntity
  8
0
  6
ByLayer
 62
    0
370
   -1
100
AcDbLine
 10
370.31895
 20
31.22940000000003
 11
370.31895
 21
32.14990000000002
  0
LINE
  5
52
100
AcDbEntity
  8
0
  6
ByLayer
 62
    0
370
   -1
100
AcDbLine
 10
370.31895
 20
32.14990000000002
 11
367.02095
 21
32.14990000000002
  0
LINE
  5
53
100
AcDbEntity
  8
0
  6
ByLayer
 62
    0
370
   -1
100
AcDbLine
 10
367.02095
 20
32.14990000000002
 11
367.02095
 21
31.22940000000003
  0
LINE
  5
54
100
AcDbEntity
  8
0
  6
ByLayer
 62
    0
370
   -1
100
AcDbLine
 10
367.02095
 20
31.22940000000003
 11
365.29495
 21
31.22940000000003
  0
LINE
  5
55
100
AcDbEntity
  8
0
  6
ByLayer
 62
    0
370
   -1
100
AcDbLine
 10
365.29495
 20
31.22940000000003
 11
365.29495
 21
28.00060000000002
  0
LINE
  5
56
100
AcDbEntity
  8
0
  6
ByLayer
 62
    0
370
   -1
100
AcDbLine
 10
365.29495
 20
28.00060000000002
 11
364.46995
 21
28.00060000000002
  0
LINE
  5
57
100
AcDbEntity
  8
0
  6
ByLayer
 62
    0
370
   -1
100
AcDbLine
 10
364.46995
 20
28.00060000000002
 11
364.46995
 21
25.19900000000001
  0
LINE
  5
58
100
AcDbEntity
  8
0
  6
ByLayer
 62
    0
370
   -1
100
AcDbLine
 10
364.46995
 20
25.19900000000001
 11
365.29495
 21
25.19900000000001
  0
LINE
  5
59
100
AcDbEntity
  8
0
  6
ByLayer
 62
    0
370
   -1
100
AcDbLine
 10
365.29495
 20
25.19900000000001
 11
365.29495
 21
18.92898000000002
  0
LINE
  5
5A
100
AcDbEntity
  8
0
  6
ByLayer
 62
    0
370
   -1
100
AcDbLine
 10
365.29495
 20
18.92898000000002
 11
367.02095
 21
18.92898000000002
  0
LINE
  5
5B
100
AcDbEntity
  8
0
  6
ByLayer
 62
    0
370
   -1
100
AcDbLine
 10
367.02095
 20
18.92898000000002
 11
367.02095
 21
17.94921000000002
  0
LINE
  5
5C
100
AcDbEntity
  8
0
  6
ByLayer
 62
    0
370
   -1
100
AcDbLine
 10
367.02095
 20
17.94921000000002
 11
370.31895
 21
17.94921000000002
  0
LINE
  5
5D
100
AcDbEntity
  8
0
  6
ByLayer
 62
    0
370
   -1
100
AcDbLine
 10
370.31895
 20
17.94921000000002
 11
370.31895
 21
18.92898000000002
  0
LINE
  5
5E
100
AcDbEntity
  8
0
  6
ByLayer
 62
    0
370
   -1
100
AcDbLine
 10
370.31895
 20
18.92898000000002
 11
372.04395
 21
18.92898000000002
  0
LINE
  5
5F
100
AcDbEntity
  8
0
  6
ByLayer
 62
    0
370
   -1
100
AcDbLine
 10
372.04395
 20
18.92898000000002
 11
372.04395
 21
23.39930000000001
  0
LINE
  5
60
100
AcDbEntity
  8
0
  6
ByLayer
 62
    0
370
   -1
100
AcDbLine
 10
372.04395
 20
23.39930000000001
 11
373.56795
 21
23.39930000000001
  0
LINE
  5
61
100
AcDbEntity
  8
0
  6
ByLayer
 62
    0
370
   -1
100
AcDbLine
 10
373.56795
 20
23.39930000000001
 11
373.56795
 21
18.69886000000002
  0
LINE
  5
62
100
AcDbEntity
  8
0
  6
ByLayer
 62
    0
370
   -1
100
AcDbLine
 10
373.56795
 20
18.69886000000002
 11
387.56995
 21
18.69886000000002
  0
LINE
  5
63
100
AcDbEntity
  8
0
  6
ByLayer
 62
    0
370
   -1
100
AcDbLine
 10
387.56995
 20
18.69886000000002
 11
387.56995
 21
23.39930000000001
  0
LINE
  5
64
100
AcDbEntity
  8
0
  6
ByLayer
 62
    0
370
   -1
100
AcDbLine
 10
387.56995
 20
23.39930000000001
 11
389.09395
 21
23.39930000000001
  0
LINE
  5
65
100
AcDbEntity
  8
0
  6
ByLayer
 62
    0
370
   -1
100
AcDbLine
 10
389.09395
 20
23.39930000000001
 11
389.09395
 21
18.92898000000002
  0
LINE
  5
66
100
AcDbEntity
  8
0
  6
ByLayer
 62
    0
370
   -1
100
AcDbLine
 10
389.09395
 20
18.92898000000002
 11
390.81895
 21
18.92898000000002
  0
LINE
  5
67
100
AcDbEntity
  8
0
  6
ByLayer
 62
    0
370
   -1
100
AcDbLine
 10
390.81895
 20
18.92898000000002
 11
390.81895
 21
17.94921000000002
  0
LINE
  5
68
100
AcDbEntity
  8
0
  6
ByLayer
 62
    0
370
   -1
100
AcDbLine
 10
390.81895
 20
17.94921000000002
 11
394.12095
 21
17.94921000000002
  0
LINE
  5
69
100
AcDbEntity
  8
0
  6
ByLayer
 62
    0
370
   -1
100
AcDbLine
 10
394.12095
 20
17.94921000000002
 11
394.12095
 21
18.92898000000002
  0
LINE
  5
6A
100
AcDbEntity
  8
0
  6
ByLayer
 62
    0
370
   -1
100
AcDbLine
 10
394.12095
 20
18.92898000000002
 11
395.84295
 21
18.92898000000002
  0
LINE
  5
6B
100
AcDbEntity
  8
0
  6
ByLayer
 62
    0
370
   -1
100
AcDbLine
 10
395.84295
 20
18.92898000000002
 11
395.84295
 21
25.19900000000001
  0
LINE
  5
6C
100
AcDbEntity
  8
0
  6
ByLayer
 62
    0
370
   -1
100
AcDbLine
 10
395.84295
 20
25.19900000000001
 11
396.67195
 21
25.19900000000001
  0
LINE
  5
6D
100
AcDbEntity
  8
0
  6
ByLayer
 62
    0
370
   -1
100
AcDbLine
 10
396.67195
 20
25.19900000000001
 11
396.67195
 21
28.00060000000002
  0
LINE
  5
6E
100
AcDbEntity
  8
0
  6
ByLayer
 62
    0
370
   -1
100
AcDbLine
 10
396.67195
 20
28.00060000000002
 11
395.84295
 21
28.00060000000002
  0
LINE
  5
6F
100
AcDbEntity
  8
0
  6
ByLayer
 62
    0
370
   -1
100
AcDbLine
 10
395.84295
 20
28.00060000000002
 11
395.84295
 21
31.22940000000003
  0
LINE
  5
70
100
AcDbEntity
  8
0
  6
ByLayer
 62
    0
370
   -1
100
AcDbLine
 10
395.84295
 20
31.22940000000003
 11
394.12095
 21
31.22940000000003
  0
LINE
  5
71
100
AcDbEntity
  8
0
  6
ByLayer
 62
    0
370
   -1
100
AcDbLine
 10
394.12095
 20
31.22940000000003
 11
394.12095
 21
32.14990000000002
  0
LINE
  5
72
100
AcDbEntity
  8
0
  6
ByLayer
 62
    0
370
   -1
100
AcDbLine
 10
394.12095
 20
32.14990000000002
 11
390.81895
 21
32.14990000000002
  0
LINE
  5
73
100
AcDbEntity
  8
0
  6
ByLayer
 62
    0
370
   -1
100
AcDbLine
 10
390.81895
 20
32.14990000000002
 11
390.81895
 21
31.22940000000003
  0
LINE
  5
74
100
AcDbEntity
  8
0
  6
ByLayer
 62
    0
370
   -1
100
AcDbLine
 10
390.81895
 20
31.22940000000003
 11
389.09395
 21
31.22940000000003
  0
LINE
  5
75
100
AcDbEntity
  8
0
  6
ByLayer
 62
    0
370
   -1
100
AcDbLine
 10
389.09395
 20
31.22940000000003
 11
389.09395
 21
28.00060000000002
  0
LINE
  5
76
100
AcDbEntity
  8
0
  6
ByLayer
 62
    0
370
   -1
100
AcDbLine
 10
389.09395
 20
28.00060000000002
 11
387.56995
 21
28.00060000000002
  0
LINE
  5
77
100
AcDbEntity
  8
0
  6
ByLayer
 62
    0
370
   -1
100
AcDbLine
 10
387.56995
 20
28.00060000000002
 11
387.56995
 21
32.69970000000002
  0
LINE
  5
78
100
AcDbEntity
  8
0
  6
ByLayer
 62
    0
370
   -1
100
AcDbLine
 10
387.56995
 20
32.69970000000002
 11
373.56795
 21
32.69970000000002
  0
LINE
  5
79
100
AcDbEntity
  8
0
  6
ByLayer
 62
    0
370
   -1
100
AcDbLine
 10
137.34995
 20
32.69970000000002
 11
137.34995
 21
28.00060000000002
  0
LINE
  5
7A
100
AcDbEntity
  8
0
  6
ByLayer
 62
    0
370
   -1
100
AcDbLine
 10
137.34995
 20
28.00060000000002
 11
95.34595
 21
28.00060000000002
  0
LINE
  5
7B
100
AcDbEntity
  8
0
  6
ByLayer
 62
    0
370
   -1
100
AcDbLine
 10
95.34595
 20
28.00060000000002
 11
95.34595
 21
31.22940000000003
  0
LINE
  5
7C
100
AcDbEntity
  8
0
  6
ByLayer
 62
    0
370
   -1
100
AcDbLine
 10
95.34595
 20
31.22940000000003
 11
93.62085
 21
31.22940000000003
  0
LINE
  5
7D
100
AcDbEntity
  8
0
  6
ByLayer
 62
    0
370
   -1
100
AcDbLine
 10
93.62085
 20
31.22940000000003
 11
93.62085
 21
32.14990000000002
  0
LINE
  5
7E
100
AcDbEntity
  8
0
  6
ByLayer
 62
    0
370
   -1
100
AcDbLine
 10
93.62085
 20
32.14990000000002
 11
90.32035
 21
32.14990000000002
  0
LINE
  5
7F
100
AcDbEntity
  8
0
  6
ByLayer
 62
    0
370
   -1
100
AcDbLine
 10
90.32035
 20
32.14990000000002
 11
90.32035
 21
31.22940000000003
  0
LINE
  5
80
100
AcDbEntity
  8
0
  6
ByLayer
 62
    0
370
   -1
100
AcDbLine
 10
90.32035
 20
31.22940000000003
 11
88.59525000000001
 21
31.22940000000003
  0
LINE
  5
81
100
AcDbEntity
  8
0
  6
ByLayer
 62
    0
370
   -1
100
AcDbLine
 10
88.59525000000001
 20
31.22940000000003
 11
88.59525000000001
 21
28.00060000000002
  0
LINE
  5
82
100
AcDbEntity
  8
0
  6
ByLayer
 62
    0
370
   -1
100
AcDbLine
 10
88.59525000000001
 20
28.00060000000002
 11
87.76975
 21
28.00060000000002
  0
LINE
  5
83
100
AcDbEntity
  8
0
  6
ByLayer
 62
    0
370
   -1
100
AcDbLine
 10
87.76975
 20
28.00060000000002
 11
87.76975
 21
25.19900000000001
  0
LINE
  5
84
100
AcDbEntity
  8
0
  6
ByLayer
 62
    0
370
   -1
100
AcDbLine
 10
87.76975
 20
25.19900000000001
 11
88.59525000000001
 21
25.19900000000001
  0
LINE
  5
85
100
AcDbEntity
  8
0
  6
ByLayer
 62
    0
370
   -1
100
AcDbLine
 10
88.59525000000001
 20
25.19900000000001
 11
88.59525000000001
 21
18.92898000000002
  0
LINE
  5
86
100
AcDbEntity
  8
0
  6
ByLayer
 62
    0
370
   -1
100
AcDbLine
 10
88.59525000000001
 20
18.92898000000002
 11
90.32035
 21
18.92898000000002
  0
LINE
  5
87
100
AcDbEntity
  8
0
  6
ByLayer
 62
    0
370
   -1
100
AcDbLine
 10
90.32035
 20
18.92898000000002
 11
90.32035
 21
17.94921000000002
  0
LINE
  5
88
100
AcDbEntity
  8
0
  6
ByLayer
 62
    0
370
   -1
100
AcDbLine
 10
90.32035
 20
17.94921000000002
 11
93.62085
 21
17.94921000000002
  0
LINE
  5
89
100
AcDbEntity
  8
0
  6
ByLayer
 62
    0
370
   -1
100
AcDbLine
 10
93.62085
 20
17.94921000000002
 11
93.62085
 21
18.92898000000002
  0
LINE
  5
8A
100
AcDbEntity
  8
0
  6
ByLayer
 62
    0
370
   -1
100
AcDbLine
 10
93.62085
 20
18.92898000000002
 11
95.34595
 21
18.92898000000002
  0
LINE
  5
8B
100
AcDbEntity
  8
0
  6
ByLayer
 62
    0
370
   -1
100
AcDbLine
 10
95.34595
 20
18.92898000000002
 11
95.34595
 21
23.39930000000001
  0
LINE
  5
8C
100
AcDbEntity
  8
0
  6
ByLayer
 62
    0
370
   -1
100
AcDbLine
 10
95.34595
 20
23.39930000000001
 11
137.34995
 21
23.39930000000001
  0
LINE
  5
8D
100
AcDbEntity
  8
0
  6
ByLayer
 62
    0
370
   -1
100
AcDbLine
 10
137.34995
 20
23.39930000000001
 11
137.34995
 21
18.69886000000002
  0
LINE
  5
8E
100
AcDbEntity
  8
0
  6
ByLayer
 62
    0
370
   -1
100
AcDbLine
 10
137.34995
 20
18.69886000000002
 11
151.35095
 21
18.69886000000002
  0
LINE
  5
8F
100
AcDbEntity
  8
0
  6
ByLayer
 62
    0
370
   -1
100
AcDbLine
 10
151.35095
 20
18.69886000000002
 11
151.35095
 21
23.39930000000001
  0
LINE
  5
90
100
AcDbEntity
  8
0
  6
ByLayer
 62
    0
370
   -1
100
AcDbLine
 10
151.35095
 20
23.39930000000001
 11
193.35495
 21
23.39930000000001
  0
LINE
  5
91
100
AcDbEntity
  8
0
  6
ByLayer
 62
    0
370
   -1
100
AcDbLine
 10
193.35495
 20
23.39930000000001
 11
193.35495
 21
18.92898000000002
  0
LINE
  5
92
100
AcDbEntity
  8
0
  6
ByLayer
 62
    0
370
   -1
100
AcDbLine
 10
193.35495
 20
18.92898000000002
 11
195.07995
 21
18.92898000000002
  0
LINE
  5
93
100
AcDbEntity
  8
0
  6
ByLayer
 62
    0
370
   -1
100
AcDbLine
 10
195.07995
 20
18.92898000000002
 11
195.07995
 21
17.94921000000002
  0
LINE
  5
94
100
AcDbEntity
  8
0
  6
ByLayer
 62
    0
370
   -1
100
AcDbLine
 10
195.07995
 20
17.94921000000002
 11
198.38095
 21
17.94921000000002
  0
LINE
  5
95
100
AcDbEntity
  8
0
  6
ByLayer
 62
    0
370
   -1
100
AcDbLine
 10
198.38095
 20
17.94921000000002
 11
198.38095
 21
18.92898000000002
  0
LINE
  5
96
100
AcDbEntity
  8
0
  6
ByLayer
 62
    0
370
   -1
100
AcDbLine
 10
198.38095
 20
18.92898000000002
 11
200.10595
 21
18.92898000000002
  0
LINE
  5
97
100
AcDbEntity
  8
0
  6
ByLayer
 62
    0
370
   -1
100
AcDbLine
 10
200.10595
 20
18.92898000000002
 11
200.10595
 21
25.19900000000001
  0
LINE
  5
98
100
AcDbEntity
  8
0
  6
ByLayer
 62
    0
370
   -1
100
AcDbLine
 10
200.10595
 20
25.19900000000001
 11
200.92995
 21
25.19900000000001
  0
LINE
  5
99
100
AcDbEntity
  8
0
  6
ByLayer
 62
    0
370
   -1
100
AcDbLine
 10
200.92995
 20
25.19900000000001
 11
200.92995
 21
28.00060000000002
  0
LINE
  5
9A
100
AcDbEntity
  8
0
  6
ByLayer
 62
    0
370
   -1
100
AcDbLine
 10
200.92995
 20
28.00060000000002
 11
200.10595
 21
28.00060000000002
  0
LINE
  5
9B
100
AcDbEntity
  8
0
  6
ByLayer
 62
    0
370
   -1
100
AcDbLine
 10
200.10595
 20
28.00060000000002
 11
200.10595
 21
31.22940000000003
  0
LINE
  5
9C
100
AcDbEntity
  8
0
  6
ByLayer
 62
    0
370
   -1
100
AcDbLine
 10
200.10595
 20
31.22940000000003
 11
198.38095
 21
31.22940000000003
  0
LINE
  5
9D
100
AcDbEntity
  8
0
  6
ByLayer
 62
    0
370
   -1
100
AcDbLine
 10
198.38095
 20
31.22940000000003
 11
198.38095
 21
32.14990000000002
  0
LINE
  5
9E
100
AcDbEntity
  8
0
  6
ByLayer
 62
    0
370
   -1
100
AcDbLine
 10
198.38095
 20
32.14990000000002
 11
195.07995
 21
32.14990000000002
  0
LINE
  5
9F
100
AcDbEntity
  8
0
  6
ByLayer
 62
    0
370
   -1
100
AcDbLine
 10
195.07995
 20
32.14990000000002
 11
195.07995
 21
31.22940000000003
  0
LINE
  5
A0
100
AcDbEntity
  8
0
  6
ByLayer
 62
    0
370
   -1
100
AcDbLine
 10
195.07995
 20
31.22940000000003
 11
193.35495
 21
31.22940000000003
  0
LINE
  5
A1
100
AcDbEntity
  8
0
  6
ByLayer
 62
    0
370
   -1
100
AcDbLine
 10
193.35495
 20
31.22940000000003
 11
193.35495
 21
28.00060000000002
  0
LINE
  5
A2
100
AcDbEntity
  8
0
  6
ByLayer
 62
    0
370
   -1
100
AcDbLine
 10
193.35495
 20
28.00060000000002
 11
151.35095
 21
28.00060000000002
  0
LINE
  5
A3
100
AcDbEntity
  8
0
  6
ByLayer
 62
    0
370
   -1
100
AcDbLine
 10
151.35095
 20
28.00060000000002
 11
151.35095
 21
32.69970000000002
  0
LINE
  5
A4
100
AcDbEntity
  8
0
  6
ByLayer
 62
    0
370
   -1
100
AcDbLine
 10
151.35095
 20
32.69970000000002
 11
137.34995
 21
32.69970000000002
  0
LINE
  5
A5
100
AcDbEntity
  8
0
  6
ByLayer
 62
    0
370
   -1
100
AcDbLine
 10
402.14295
 20
32.69970000000002
 11
416.14495
 21
32.69970000000002
  0
LINE
  5
A6
100
AcDbEntity
  8
0
  6
ByLayer
 62
    0
370
   -1
100
AcDbLine
 10
416.14495
 20
32.69970000000002
 11
416.14495
 21
18.69886000000002
  0
LINE
  5
A7
100
AcDbEntity
  8
0
  6
ByLayer
 62
    0
370
   -1
100
AcDbLine
 10
416.14495
 20
18.69886000000002
 11
402.14295
 21
18.69886000000002
  0
LINE
  5
A8
100
AcDbEntity
  8
0
  6
ByLayer
 62
    0
370
   -1
100
AcDbLine
 10
402.14295
 20
18.69886000000002
 11
402.14295
 21
32.69970000000002
  0
LINE
  5
A9
100
AcDbEntity
  8
0
  6
ByLayer
 62
    0
370
   -1
100
AcDbLine
 10
336.42295
 20
32.69970000000002
 11
350.42195
 21
32.69970000000002
  0
LINE
  5
AA
100
AcDbEntity
  8
0
  6
ByLayer
 62
    0
370
   -1
100
AcDbLine
 10
350.42195
 20
32.69970000000002
 11
350.42195
 21
18.69886000000002
  0
LINE
  5
AB
100
AcDbEntity
  8
0
  6
ByLayer
 62
    0
370
   -1
100
AcDbLine
 10
350.42195
 20
18.69886000000002
 11
336.42295
 21
18.69886000000002
  0
LINE
  5
AC
100
AcDbEntity
  8
0
  6
ByLayer
 62
    0
370
   -1
100
AcDbLine
 10
336.42295
 20
18.69886000000002
 11
336.42295
 21
32.69970000000002
  0
LINE
  5
AD
100
AcDbEntity
  8
0
  6
ByLayer
 62
    0
370
   -1
100
AcDbLine
 10
317.37295
 20
32.69970000000002
 11
331.37195
 21
32.69970000000002
  0
LINE
  5
AE
100
AcDbEntity
  8
0
  6
ByLayer
 62
    0
370
   -1
100
AcDbLine
 10
331.37195
 20
32.69970000000002
 11
331.37195
 21
18.69886000000002
  0
LINE
  5
AF
100
AcDbEntity
  8
0
  6
ByLayer
 62
    0
370
   -1
100
AcDbLine
 10
331.37195
 20
18.69886000000002
 11
317.37295
 21
18.69886000000002
  0
LINE
  5
B0
100
AcDbEntity
  8
0
  6
ByLayer
 62
    0
370
   -1
100
AcDbLine
 10
317.37295
 20
18.69886000000002
 11
317.37295
 21
32.69970000000002
  0
LINE
  5
B1
100
AcDbEntity
  8
0
  6
ByLayer
 62
    0
370
   -1
100
AcDbLine
 10
298.32295
 20
32.69970000000002
 11
312.32195
 21
32.69970000000002
  0
LINE
  5
B2
100
AcDbEntity
  8
0
  6
ByLayer
 62
    0
370
   -1
100
AcDbLine
 10
312.32195
 20
32.69970000000002
 11
312.32195
 21
18.69886000000002
  0
LINE
  5
B3
100
AcDbEntity
  8
0
  6
ByLayer
 62
    0
370
   -1
100
AcDbLine
 10
312.32195
 20
18.69886000000002
 11
298.32295
 21
18.69886000000002
  0
LINE
  5
B4
100
AcDbEntity
  8
0
  6
ByLayer
 62
    0
370
   -1
100
AcDbLine
 10
298.32295
 20
18.69886000000002
 11
298.32295
 21
32.69970000000002
  0
LINE
  5
B5
100
AcDbEntity
  8
0
  6
ByLayer
 62
    0
370
   -1
100
AcDbLine
 10
265.93795
 20
32.69970000000002
 11
279.93695
 21
32.69970000000002
  0
LINE
  5
B6
100
AcDbEntity
  8
0
  6
ByLayer
 62
    0
370
   -1
100
AcDbLine
 10
279.93695
 20
32.69970000000002
 11
279.93695
 21
18.69886000000002
  0
LINE
  5
B7
100
AcDbEntity
  8
0
  6
ByLayer
 62
    0
370
   -1
100
AcDbLine
 10
279.93695
 20
18.69886000000002
 11
265.93795
 21
18.69886000000002
  0
LINE
  5
B8
100
AcDbEntity
  8
0
  6
ByLayer
 62
    0
370
   -1
100
AcDbLine
 10
265.93795
 20
18.69886000000002
 11
265.93795
 21
32.69970000000002
  0
LINE
  5
B9
100
AcDbEntity
  8
0
  6
ByLayer
 62
    0
370
   -1
100
AcDbLine
 10
239.74395
 20
32.69970000000002
 11
253.74195
 21
32.69970000000002
  0
LINE
  5
BA
100
AcDbEntity
  8
0
  6
ByLayer
 62
    0
370
   -1
100
AcDbLine
 10
253.74195
 20
32.69970000000002
 11
253.74195
 21
18.69886000000002
  0
LINE
  5
BB
100
AcDbEntity
  8
0
  6
ByLayer
 62
    0
370
   -1
100
AcDbLine
 10
253.74195
 20
18.69886000000002
 11
239.74395
 21
18.69886000000002
  0
LINE
  5
BC
100
AcDbEntity
  8
0
  6
ByLayer
 62
    0
370
   -1
100
AcDbLine
 10
239.74395
 20
18.69886000000002
 11
239.74395
 21
32.69970000000002
  0
LINE
  5
BD
100
AcDbEntity
  8
0
  6
ByLayer
 62
    0
370
   -1
100
AcDbLine
 10
213.54995
 20
32.69970000000002
 11
227.55095
 21
32.69970000000002
  0
LINE
  5
BE
100
AcDbEntity
  8
0
  6
ByLayer
 62
    0
370
   -1
100
AcDbLine
 10
227.55095
 20
32.69970000000002
 11
227.55095
 21
18.69886000000002
  0
LINE
  5
BF
100
AcDbEntity
  8
0
  6
ByLayer
 62
    0
370
   -1
100
AcDbLine
 10
227.55095
 20
18.69886000000002
 11
213.54995
 21
18.69886000000002
  0
LINE
  5
C0
100
AcDbEntity
  8
0
  6
ByLayer
 62
    0
370
   -1
100
AcDbLine
 10
213.54995
 20
18.69886000000002
 11
213.54995
 21
32.69970000000002
  0
LINE
  5
C1
100
AcDbEntity
  8
0
  6
ByLayer
 62
    0
370
   -1
100
AcDbLine
 10
61.15015
 20
32.69970000000002
 11
75.15085000000001
 21
32.69970000000002
  0
LINE
  5
C2
100
AcDbEntity
  8
0
  6
ByLayer
 62
    0
370
   -1
100
AcDbLine
 10
75.15085000000001
 20
32.69970000000002
 11
75.15085000000001
 21
18.69886000000002
  0
LINE
  5
C3
100
AcDbEntity
  8
0
  6
ByLayer
 62
    0
370
   -1
100
AcDbLine
 10
75.15085000000001
 20
18.69886000000002
 11
61.15015
 21
18.69886000000002
  0
LINE
  5
C4
100
AcDbEntity
  8
0
  6
ByLayer
 62
    0
370
   -1
100
AcDbLine
 10
61.15015
 20
18.69886000000002
 11
61.15015
 21
32.69970000000002
  0
LINE
  5
C5
100
AcDbEntity
  8
0
  6
ByLayer
 62
    0
370
   -1
100
AcDbLine
 10
34.95645
 20
32.69970000000002
 11
48.95575
 21
32.69970000000002
  0
LINE
  5
C6
100
AcDbEntity
  8
0
  6
ByLayer
 62
    0
370
   -1
100
AcDbLine
 10
48.95575
 20
32.69970000000002
 11
48.95575
 21
18.69886000000002
  0
LINE
  5
C7
100
AcDbEntity
  8
0
  6
ByLayer
 62
    0
370
   -1
100
AcDbLine
 10
48.95575
 20
18.69886000000002
 11
34.95645
 21
18.69886000000002
  0
LINE
  5
C8
100
AcDbEntity
  8
0
  6
ByLayer
 62
    0
370
   -1
100
AcDbLine
 10
34.95645
 20
18.69886000000002
 11
34.95645
 21
32.69970000000002
  0
LINE
  5
C9
100
AcDbEntity
  8
0
  6
ByLayer
 62
    0
370
   -1
100
AcDbLine
 10
8.761150000000001
 20
32.69970000000002
 11
22.76205
 21
32.69970000000002
  0
LINE
  5
CA
100
AcDbEntity
  8
0
  6
ByLayer
 62
    0
370
   -1
100
AcDbLine
 10
22.76205
 20
32.69970000000002
 11
22.76205
 21
18.69886000000002
  0
LINE
  5
CB
100
AcDbEntity
  8
0
  6
ByLayer
 62
    0
370
   -1
100
AcDbLine
 10
22.76205
 20
18.69886000000002
 11
8.761150000000001
 21
18.69886000000002
  0
LINE
  5
CC
100
AcDbEntity
  8
0
  6
ByLayer
 62
    0
370
   -1
100
AcDbLine
 10
8.761150000000001
 20
18.69886000000002
 11
8.761150000000001
 21
32.69970000000002
  0
LINE
  5
CD
100
AcDbEntity
  8
0
  6
ByLayer
 62
    0
370
   -1
100
AcDbLine
 10
427.69495
 20
51.32540000000002
 11
427.69495
 21
50.49990000000003
  0
LINE
  5
CE
100
AcDbEntity
  8
0
  6
ByLayer
 62
    0
370
   -1
100
AcDbLine
 10
427.69495
 20
50.49990000000003
 11
421.42595
 21
50.49990000000003
  0
LINE
  5
CF
100
AcDbEntity
  8
0
  6
ByLayer
 62
    0
370
   -1
100
AcDbLine
 10
421.42595
 20
50.49990000000003
 11
421.42595
 21
48.77590000000002
  0
LINE
  5
D0
100
AcDbEntity
  8
0
  6
ByLayer
 62
    0
370
   -1
100
AcDbLine
 10
421.42595
 20
48.77590000000002
 11
420.44495
 21
48.77590000000002
  0
LINE
  5
D1
100
AcDbEntity
  8
0
  6
ByLayer
 62
    0
370
   -1
100
AcDbLine
 10
420.44495
 20
48.77590000000002
 11
420.44495
 21
45.47570000000002
  0
LINE
  5
D2
100
AcDbEntity
  8
0
  6
ByLayer
 62
    0
370
   -1
100
AcDbLine
 10
420.44495
 20
45.47570000000002
 11
421.42595
 21
45.47570000000002
  0
LINE
  5
D3
100
AcDbEntity
  8
0
  6
ByLayer
 62
    0
370
   -1
100
AcDbLine
 10
421.42595
 20
45.47570000000002
 11
421.42595
 21
43.75020000000002
  0
LINE
  5
D4
100
AcDbEntity
  8
0
  6
ByLayer
 62
    0
370
   -1
100
AcDbLine
 10
421.42595
 20
43.75020000000002
 11
425.89595
 21
43.75020000000002
  0
LINE
  5
D5
100
AcDbEntity
  8
0
  6
ByLayer
 62
    0
370
   -1
100
AcDbLine
 10
425.89595
 20
43.75020000000002
 11
425.89595
 21
42.22470000000001
  0
LINE
  5
D6
100
AcDbEntity
  8
0
  6
ByLayer
 62
    0
370
   -1
100
AcDbLine
 10
425.89595
 20
42.22470000000001
 11
421.19695
 21
42.22470000000001
  0
LINE
  5
D7
100
AcDbEntity
  8
0
  6
ByLayer
 62
    0
370
   -1
100
AcDbLine
 10
421.19695
 20
42.22470000000001
 11
421.19695
 21
28.22520000000003
  0
LINE
  5
D8
100
AcDbEntity
  8
0
  6
ByLayer
 62
    0
370
   -1
100
AcDbLine
 10
421.19695
 20
28.22520000000003
 11
425.89595
 21
28.22520000000003
  0
LINE
  5
D9
100
AcDbEntity
  8
0
  6
ByLayer
 62
    0
370
   -1
100
AcDbLine
 10
425.89595
 20
28.22520000000003
 11
425.89595
 21
26.69970000000001
  0
LINE
  5
DA
100
AcDbEntity
  8
0
  6
ByLayer
 62
    0
370
   -1
100
AcDbLine
 10
425.89595
 20
26.69970000000001
 11
421.42595
 21
26.69970000000001
  0
LINE
  5
DB
100
AcDbEntity
  8
0
  6
ByLayer
 62
    0
370
   -1
100
AcDbLine
 10
421.42595
 20
26.69970000000001
 11
421.42595
 21
24.97580000000002
  0
LINE
  5
DC
100
AcDbEntity
  8
0
  6
ByLayer
 62
    0
370
   -1
100
AcDbLine
 10
421.42595
 20
24.97580000000002
 11
420.44495
 21
24.97580000000002
  0
LINE
  5
DD
100
AcDbEntity
  8
0
  6
ByLayer
 62
    0
370
   -1
100
AcDbLine
 10
420.44495
 20
24.97580000000002
 11
420.44495
 21
21.67400000000004
  0
LINE
  5
DE
100
AcDbEntity
  8
0
  6
ByLayer
 62
    0
370
   -1
100
AcDbLine
 10
420.44495
 20
21.67400000000004
 11
421.42595
 21
21.67400000000004
  0
LINE
  5
DF
100
AcDbEntity
  8
0
  6
ByLayer
 62
    0
370
   -1
100
AcDbLine
 10
421.42595
 20
21.67400000000004
 11
421.42595
 21
19.94870000000003
  0
LINE
  5
E0
100
AcDbEntity
  8
0
  6
ByLayer
 62
    0
370
   -1
100
AcDbLine
 10
421.42595
 20
19.94870000000003
 11
427.69495
 21
19.94870000000003
  0
LINE
  5
E1
100
AcDbEntity
  8
0
  6
ByLayer
 62
    0
370
   -1
100
AcDbLine
 10
427.69495
 20
19.94870000000003
 11
427.69495
 21
19.12467000000001
  0
LINE
  5
E2
100
AcDbEntity
  8
0
  6
ByLayer
 62
    0
370
   -1
100
AcDbLine
 10
427.69495
 20
19.12467000000001
 11
430.49595
 21
19.12467000000001
  0
LINE
  5
E3
100
AcDbEntity
  8
0
  6
ByLayer
 62
    0
370
   -1
100
AcDbLine
 10
430.49595
 20
19.12467000000001
 11
430.49595
 21
19.94870000000003
  0
LINE
  5
E4
100
AcDbEntity
  8
0
  6
ByLayer
 62
    0
370
   -1
100
AcDbLine
 10
430.49595
 20
19.94870000000003
 11
433.72695
 21
19.94870000000003
  0
LINE
  5
E5
100
AcDbEntity
  8
0
  6
ByLayer
 62
    0
370
   -1
100
AcDbLine
 10
433.72695
 20
19.94870000000003
 11
433.72695
 21
21.67400000000004
  0
LINE
  5
E6
100
AcDbEntity
  8
0
  6
ByLayer
 62
    0
370
   -1
100
AcDbLine
 10
433.72695
 20
21.67400000000004
 11
434.64495
 21
21.67400000000004
  0
LINE
  5
E7
100
AcDbEntity
  8
0
  6
ByLayer
 62
    0
370
   -1
100
AcDbLine
 10
434.64495
 20
21.67400000000004
 11
434.64495
 21
24.97580000000002
  0
LINE
  5
E8
100
AcDbEntity
  8
0
  6
ByLayer
 62
    0
370
   -1
100
AcDbLine
 10
434.64495
 20
24.97580000000002
 11
433.72695
 21
24.97580000000002
  0
LINE
  5
E9
100
AcDbEntity
  8
0
  6
ByLayer
 62
    0
370
   -1
100
AcDbLine
 10
433.72695
 20
24.97580000000002
 11
433.72695
 21
26.69970000000001
  0
LINE
  5
EA
100
AcDbEntity
  8
0
  6
ByLayer
 62
    0
370
   -1
100
AcDbLine
 10
433.72695
 20
26.69970000000001
 11
430.49595
 21
26.69970000000001
  0
LINE
  5
EB
100
AcDbEntity
  8
0
  6
ByLayer
 62
    0
370
   -1
100
AcDbLine
 10
430.49595
 20
26.69970000000001
 11
430.49595
 21
28.22520000000003
  0
LINE
  5
EC
100
AcDbEntity
  8
0
  6
ByLayer
 62
    0
370
   -1
100
AcDbLine
 10
430.49595
 20
28.22520000000003
 11
435.19495
 21
28.22520000000003
  0
LINE
  5
ED
100
AcDbEntity
  8
0
  6
ByLayer
 62
    0
370
   -1
100
AcDbLine
 10
435.19495
 20
28.22520000000003
 11
435.19495
 21
42.22470000000001
  0
LINE
  5
EE
100
AcDbEntity
  8
0
  6
ByLayer
 62
    0
370
   -1
100
AcDbLine
 10
435.19495
 20
42.22470000000001
 11
430.49595
 21
42.22470000000001
  0
LINE
  5
EF
100
AcDbEntity
  8
0
  6
ByLayer
 62
    0
370
   -1
100
AcDbLine
 10
430.49595
 20
42.22470000000001
 11
430.49595
 21
43.75020000000002
  0
LINE
  5
F0
100
AcDbEntity
  8
0
  6
ByLayer
 62
    0
370
   -1
100
AcDbLine
 10
430.49595
 20
43.75020000000002
 11
433.72695
 21
43.75020000000002
  0
LINE
  5
F1
100
AcDbEntity
  8
0
  6
ByLayer
 62
    0
370
   -1
100
AcDbLine
 10
433.72695
 20
43.75020000000002
 11
433.72695
 21
45.47570000000002
  0
LINE
  5
F2
100
AcDbEntity
  8
0
  6
ByLayer
 62
    0
370
   -1
100
AcDbLine
 10
433.72695
 20
45.47570000000002
 11
434.64495
 21
45.47570000000002
  0
LINE
  5
F3
100
AcDbEntity
  8
0
  6
ByLayer
 62
    0
370
   -1
100
AcDbLine
 10
434.64495
 20
45.47570000000002
 11
434.64495
 21
48.77590000000002
  0
LINE
  5
F4
100
AcDbEntity
  8
0
  6
ByLayer
 62
    0
370
   -1
100
AcDbLine
 10
434.64495
 20
48.77590000000002
 11
433.72695
 21
48.77590000000002
  0
LINE
  5
F5
100
AcDbEntity
  8
0
  6
ByLayer
 62
    0
370
   -1
100
AcDbLine
 10
433.72695
 20
48.77590000000002
 11
433.72695
 21
50.49990000000003
  0
LINE
  5
F6
100
AcDbEntity
  8
0
  6
ByLayer
 62
    0
370
   -1
100
AcDbLine
 10
433.72695
 20
50.49990000000003
 11
430.49595
 21
50.49990000000003
  0
LINE
  5
F7
100
AcDbEntity
  8
0
  6
ByLayer
 62
    0
370
   -1
100
AcDbLine
 10
430.49595
 20
50.49990000000003
 11
430.49595
 21
51.32540000000002
  0
LINE
  5
F8
100
AcDbEntity
  8
0
  6
ByLayer
 62
    0
370
   -1
100
AcDbLine
 10
430.49595
 20
51.32540000000002
 11
427.69495
 21
51.32540000000002
  0
LINE
  5
F9
100
AcDbEntity
  8
0
  6
ByLayer
 62
    0
370
   -1
100
AcDbLine
 10
254.02995
 20
51.74980000000002
 11
254.02995
 21
47.04910000000001
  0
LINE
  5
FA
100
AcDbEntity
  8
0
  6
ByLayer
 62
    0
370
   -1
100
AcDbLine
 10
254.02995
 20
47.04910000000001
 11
252.50595
 21
47.04910000000001
  0
LINE
  5
FB
100
AcDbEntity
  8
0
  6
ByLayer
 62
    0
370
   -1
100
AcDbLine
 10
252.50595
 20
47.04910000000001
 11
252.50595
 21
50.28090000000002
  0
LINE
  5
FC
100
AcDbEntity
  8
0
  6
ByLayer
 62
    0
370
   -1
100
AcDbLine
 10
252.50595
 20
50.28090000000002
 11
250.78095
 21
50.28090000000002
  0
LINE
  5
FD
100
AcDbEntity
  8
0
  6
ByLayer
 62
    0
370
   -1
100
AcDbLine
 10
250.78095
 20
50.28090000000002
 11
250.78095
 21
51.19990000000001
  0
LINE
  5
FE
100
AcDbEntity
  8
0
  6
ByLayer
 62
    0
370
   -1
100
AcDbLine
 10
250.78095
 20
51.19990000000001
 11
247.48095
 21
51.19990000000001
  0
LINE
  5
FF
100
AcDbEntity
  8
0
  6
ByLayer
 62
    0
370
   -1
100
AcDbLine
 10
247.48095
 20
51.19990000000001
 11
247.48095
 21
50.28090000000002
  0
LINE
  5
100
100
AcDbEntity
  8
0
  6
ByLayer
 62
    0
370
   -1
100
AcDbLine
 10
247.48095
 20
50.28090000000002
 11
245.75595
 21
50.28090000000002
  0
LINE
  5
101
100
AcDbEntity
  8
0
  6
ByLayer
 62
    0
370
   -1
100
AcDbLine
 10
245.75595
 20
50.28090000000002
 11
245.75595
 21
47.04910000000001
  0
LINE
  5
102
100
AcDbEntity
  8
0
  6
ByLayer
 62
    0
370
   -1
100
AcDbLine
 10
245.75595
 20
47.04910000000001
 11
244.93195
 21
47.04910000000001
  0
LINE
  5
103
100
AcDbEntity
  8
0
  6
ByLayer
 62
    0
370
   -1
100
AcDbLine
 10
244.93195
 20
47.04910000000001
 11
244.93195
 21
44.25040000000001
  0
LINE
  5
104
100
AcDbEntity
  8
0
  6
ByLayer
 62
    0
370
   -1
100
AcDbLine
 10
244.93195
 20
44.25040000000001
 11
245.75595
 21
44.25040000000001
  0
LINE
  5
105
100
AcDbEntity
  8
0
  6
ByLayer
 62
    0
370
   -1
100
AcDbLine
 10
245.75595
 20
44.25040000000001
 11
245.75595
 21
37.98040000000002
  0
LINE
  5
106
100
AcDbEntity
  8
0
  6
ByLayer
 62
    0
370
   -1
100
AcDbLine
 10
245.75595
 20
37.98040000000002
 11
247.48095
 21
37.98040000000002
  0
LINE
  5
107
100
AcDbEntity
  8
0
  6
ByLayer
 62
    0
370
   -1
100
AcDbLine
 10
247.48095
 20
37.98040000000002
 11
247.48095
 21
37.00060000000002
  0
LINE
  5
108
100
AcDbEntity
  8
0
  6
ByLayer
 62
    0
370
   -1
100
AcDbLine
 10
247.48095
 20
37.00060000000002
 11
250.78095
 21
37.00060000000002
  0
LINE
  5
109
100
AcDbEntity
  8
0
  6
ByLayer
 62
    0
370
   -1
100
AcDbLine
 10
250.78095
 20
37.00060000000002
 11
250.78095
 21
37.98040000000002
  0
LINE
  5
10A
100
AcDbEntity
  8
0
  6
ByLayer
 62
    0
370
   -1
100
AcDbLine
 10
250.78095
 20
37.98040000000002
 11
252.50595
 21
37.98040000000002
  0
LINE
  5
10B
100
AcDbEntity
  8
0
  6
ByLayer
 62
    0
370
   -1
100
AcDbLine
 10
252.50595
 20
37.98040000000002
 11
252.50595
 21
42.45070000000001
  0
LINE
  5
10C
100
AcDbEntity
  8
0
  6
ByLayer
 62
    0
370
   -1
100
AcDbLine
 10
252.50595
 20
42.45070000000001
 11
254.02995
 21
42.45070000000001
  0
LINE
  5
10D
100
AcDbEntity
  8
0
  6
ByLayer
 62
    0
370
   -1
100
AcDbLine
 10
254.02995
 20
42.45070000000001
 11
254.02995
 21
37.75020000000002
  0
LINE
  5
10E
100
AcDbEntity
  8
0
  6
ByLayer
 62
    0
370
   -1
100
AcDbLine
 10
254.02995
 20
37.75020000000002
 11
268.03095
 21
37.75020000000002
  0
LINE
  5
10F
100
AcDbEntity
  8
0
  6
ByLayer
 62
    0
370
   -1
100
AcDbLine
 10
268.03095
 20
37.75020000000002
 11
268.03095
 21
42.45070000000001
  0
LINE
  5
110
100
AcDbEntity
  8
0
  6
ByLayer
 62
    0
370
   -1
100
AcDbLine
 10
268.03095
 20
42.45070000000001
 11
269.55595
 21
42.45070000000001
  0
LINE
  5
111
100
AcDbEntity
  8
0
  6
ByLayer
 62
    0
370
   -1
100
AcDbLine
 10
269.55595
 20
42.45070000000001
 11
269.55595
 21
37.98040000000002
  0
LINE
  5
112
100
AcDbEntity
  8
0
  6
ByLayer
 62
    0
370
   -1
100
AcDbLine
 10
269.55595
 20
37.98040000000002
 11
271.28195
 21
37.98040000000002
  0
LINE
  5
113
100
AcDbEntity
  8
0
  6
ByLayer
 62
    0
370
   -1
100
AcDbLine
 10
271.28195
 20
37.98040000000002
 11
271.28195
 21
37.00060000000002
  0
LINE
  5
114
100
AcDbEntity
  8
0
  6
ByLayer
 62
    0
370
   -1
100
AcDbLine
 10
271.28195
 20
37.00060000000002
 11
274.58195
 21
37.00060000000002
  0
LINE
  5
115
100
AcDbEntity
  8
0
  6
ByLayer
 62
    0
370
   -1
100
AcDbLine
 10
274.58195
 20
37.00060000000002
 11
274.58195
 21
37.98040000000002
  0
LINE
  5
116
100
AcDbEntity
  8
0
  6
ByLayer
 62
    0
370
   -1
100
AcDbLine
 10
274.58195
 20
37.98040000000002
 11
276.30595
 21
37.98040000000002
  0
LINE
  5
117
100
AcDbEntity
  8
0
  6
ByLayer
 62
    0
370
   -1
100
AcDbLine
 10
276.30595
 20
37.98040000000002
 11
276.30595
 21
44.25040000000001
  0
LINE
  5
118
100
AcDbEntity
  8
0
  6
ByLayer
 62
    0
370
   -1
100
AcDbLine
 10
276.30595
 20
44.25040000000001
 11
277.13095
 21
44.25040000000001
  0
LINE
  5
119
100
AcDbEntity
  8
0
  6
ByLayer
 62
    0
370
   -1
100
AcDbLine
 10
277.13095
 20
44.25040000000001
 11
277.13095
 21
47.04910000000001
  0
LINE
  5
11A
100
AcDbEntity
  8
0
  6
ByLayer
 62
    0
370
   -1
100
AcDbLine
 10
277.13095
 20
47.04910000000001
 11
276.30595
 21
47.04910000000001
  0
LINE
  5
11B
100
AcDbEntity
  8
0
  6
ByLayer
 62
    0
370
   -1
100
AcDbLine
 10
276.30595
 20
47.04910000000001
 11
276.30595
 21
50.28090000000002
  0
LINE
  5
11C
100
AcDbEntity
  8
0
  6
ByLayer
 62
    0
370
   -1
100
AcDbLine
 10
276.30595
 20
50.28090000000002
 11
274.58195
 21
50.28090000000002
  0
LINE
  5
11D
100
AcDbEntity
  8
0
  6
ByLayer
 62
    0
370
   -1
100
AcDbLine
 10
274.58195
 20
50.28090000000002
 11
274.58195
 21
51.19990000000001
  0
LINE
  5
11E
100
AcDbEntity
  8
0
  6
ByLayer
 62
    0
370
   -1
100
AcDbLine
 10
274.58195
 20
51.19990000000001
 11
271.28195
 21
51.19990000000001
  0
LINE
  5
11F
100
AcDbEntity
  8
0
  6
ByLayer
 62
    0
370
   -1
100
AcDbLine
 10
271.28195
 20
51.19990000000001
 11
271.28195
 21
50.28090000000002
  0
LINE
  5
120
100
AcDbEntity
  8
0
  6
ByLayer
 62
    0
370
   -1
100
AcDbLine
 10
271.28195
 20
50.28090000000002
 11
269.55595
 21
50.28090000000002
  0
LINE
  5
121
100
AcDbEntity
  8
0
  6
ByLayer
 62
    0
370
   -1
100
AcDbLine
 10
269.55595
 20
50.28090000000002
 11
269.55595
 21
47.04910000000001
  0
LINE
  5
122
100
AcDbEntity
  8
0
  6
ByLayer
 62
    0
370
   -1
100
AcDbLine
 10
269.55595
 20
47.04910000000001
 11
268.03095
 21
47.04910000000001
  0
LINE
  5
123
100
AcDbEntity
  8
0
  6
ByLayer
 62
    0
370
   -1
100
AcDbLine
 10
268.03095
 20
47.04910000000001
 11
268.03095
 21
51.74980000000002
  0
LINE
  5
124
100
AcDbEntity
  8
0
  6
ByLayer
 62
    0
370
   -1
100
AcDbLine
 10
268.03095
 20
51.74980000000002
 11
254.02995
 21
51.74980000000002
  0
LINE
  5
125
100
AcDbEntity
  8
0
  6
ByLayer
 62
    0
370
   -1
100
AcDbLine
 10
15.90625
 20
51.74980000000002
 11
15.90625
 21
47.04910000000001
  0
LINE
  5
126
100
AcDbEntity
  8
0
  6
ByLayer
 62
    0
370
   -1
100
AcDbLine
 10
15.90625
 20
47.04910000000001
 11
14.38085
 21
47.04910000000001
  0
LINE
  5
127
100
AcDbEntity
  8
0
  6
ByLayer
 62
    0
370
   -1
100
AcDbLine
 10
14.38085
 20
47.04910000000001
 11
14.38085
 21
50.28090000000002
  0
LINE
  5
128
100
AcDbEntity
  8
0
  6
ByLayer
 62
    0
370
   -1
100
AcDbLine
 10
14.38085
 20
50.28090000000002
 11
12.65685
 21
50.28090000000002
  0
LINE
  5
129
100
AcDbEntity
  8
0
  6
ByLayer
 62
    0
370
   -1
100
AcDbLine
 10
12.65685
 20
50.28090000000002
 11
12.65685
 21
51.19990000000001
  0
LINE
  5
12A
100
AcDbEntity
  8
0
  6
ByLayer
 62
    0
370
   -1
100
AcDbLine
 10
12.65685
 20
51.19990000000001
 11
9.356450000000001
 21
51.19990000000001
  0
LINE
  5
12B
100
AcDbEntity
  8
0
  6
ByLayer
 62
    0
370
   -1
100
AcDbLine
 10
9.356450000000001
 20
51.19990000000001
 11
9.356450000000001
 21
50.28090000000002
  0
LINE
  5
12C
100
AcDbEntity
  8
0
  6
ByLayer
 62
    0
370
   -1
100
AcDbLine
 10
9.356450000000001
 20
50.28090000000002
 11
7.631150000000002
 21
50.28090000000002
  0
LINE
  5
12D
100
AcDbEntity
  8
0
  6
ByLayer
 62
    0
370
   -1
100
AcDbLine
 10
7.631150000000002
 20
50.28090000000002
 11
7.631150000000002
 21
47.04910000000001
  0
LINE
  5
12E
100
AcDbEntity
  8
0
  6
ByLayer
 62
    0
370
   -1
100
AcDbLine
 10
7.631150000000002
 20
47.04910000000001
 11
6.807120000000001
 21
47.04910000000001
  0
LINE
  5
12F
100
AcDbEntity
  8
0
  6
ByLayer
 62
    0
370
   -1
100
AcDbLine
 10
6.807120000000001
 20
47.04910000000001
 11
6.807120000000001
 21
44.25040000000001
  0
LINE
  5
130
100
AcDbEntity
  8
0
  6
ByLayer
 62
    0
370
   -1
100
AcDbLine
 10
6.807120000000001
 20
44.25040000000001
 11
7.631150000000002
 21
44.25040000000001
  0
LINE
  5
131
100
AcDbEntity
  8
0
  6
ByLayer
 62
    0
370
   -1
100
AcDbLine
 10
7.631150000000002
 20
44.25040000000001
 11
7.631150000000002
 21
37.98040000000002
  0
LINE
  5
132
100
AcDbEntity
  8
0
  6
ByLayer
 62
    0
370
   -1
100
AcDbLine
 10
7.631150000000002
 20
37.98040000000002
 11
9.356450000000001
 21
37.98040000000002
  0
LINE
  5
133
100
AcDbEntity
  8
0
  6
ByLayer
 62
    0
370
   -1
100
AcDbLine
 10
9.356450000000001
 20
37.98040000000002
 11
9.356450000000001
 21
37.00060000000002
  0
LINE
  5
134
100
AcDbEntity
  8
0
  6
ByLayer
 62
    0
370
   -1
100
AcDbLine
 10
9.356450000000001
 20
37.00060000000002
 11
12.65685
 21
37.00060000000002
  0
LINE
  5
135
100
AcDbEntity
  8
0
  6
ByLayer
 62
    0
370
   -1
100
AcDbLine
 10
12.65685
 20
37.00060000000002
 11
12.65685
 21
37.98040000000002
  0
LINE
  5
136
100
AcDbEntity
  8
0
  6
ByLayer
 62
    0
370
   -1
100
AcDbLine
 10
12.65685
 20
37.98040000000002
 11
14.38085
 21
37.98040000000002
  0
LINE
  5
137
100
AcDbEntity
  8
0
  6
ByLayer
 62
    0
370
   -1
100
AcDbLine
 10
14.38085
 20
37.98040000000002
 11
14.38085
 21
42.45070000000001
  0
LINE
  5
138
100
AcDbEntity
  8
0
  6
ByLayer
 62
    0
370
   -1
100
AcDbLine
 10
14.38085
 20
42.45070000000001
 11
15.90625
 21
42.45070000000001
  0
LINE
  5
139
100
AcDbEntity
  8
0
  6
ByLayer
 62
    0
370
   -1
100
AcDbLine
 10
15.90625
 20
42.45070000000001
 11
15.90625
 21
37.75020000000002
  0
LINE
  5
13A
100
AcDbEntity
  8
0
  6
ByLayer
 62
    0
370
   -1
100
AcDbLine
 10
15.90625
 20
37.75020000000002
 11
29.90575
 21
37.75020000000002
  0
LINE
  5
13B
100
AcDbEntity
  8
0
  6
ByLayer
 62
    0
370
   -1
100
AcDbLine
 10
29.90575
 20
37.75020000000002
 11
29.90575
 21
42.45070000000001
  0
LINE
  5
13C
100
AcDbEntity
  8
0
  6
ByLayer
 62
    0
370
   -1
100
AcDbLine
 10
29.90575
 20
42.45070000000001
 11
31.43125
 21
42.45070000000001
  0
LINE
  5
13D
100
AcDbEntity
  8
0
  6
ByLayer
 62
    0
370
   -1
100
AcDbLine
 10
31.43125
 20
42.45070000000001
 11
31.43125
 21
37.98040000000002
  0
LINE
  5
13E
100
AcDbEntity
  8
0
  6
ByLayer
 62
    0
370
   -1
100
AcDbLine
 10
31.43125
 20
37.98040000000002
 11
33.15655
 21
37.98040000000002
  0
LINE
  5
13F
100
AcDbEntity
  8
0
  6
ByLayer
 62
    0
370
   -1
100
AcDbLine
 10
33.15655
 20
37.98040000000002
 11
33.15655
 21
37.00060000000002
  0
LINE
  5
140
100
AcDbEntity
  8
0
  6
ByLayer
 62
    0
370
   -1
100
AcDbLine
 10
33.15655
 20
37.00060000000002
 11
36.45715
 21
37.00060000000002
  0
LINE
  5
141
100
AcDbEntity
  8
0
  6
ByLayer
 62
    0
370
   -1
100
AcDbLine
 10
36.45715
 20
37.00060000000002
 11
36.45715
 21
37.98040000000002
  0
LINE
  5
142
100
AcDbEntity
  8
0
  6
ByLayer
 62
    0
370
   -1
100
AcDbLine
 10
36.45715
 20
37.98040000000002
 11
38.18085
 21
37.98040000000002
  0
LINE
  5
143
100
AcDbEntity
  8
0
  6
ByLayer
 62
    0
370
   -1
100
AcDbLine
 10
38.18085
 20
37.98040000000002
 11
38.18085
 21
44.25040000000001
  0
LINE
  5
144
100
AcDbEntity
  8
0
  6
ByLayer
 62
    0
370
   -1
100
AcDbLine
 10
38.18085
 20
44.25040000000001
 11
39.00635
 21
44.25040000000001
  0
LINE
  5
145
100
AcDbEntity
  8
0
  6
ByLayer
 62
    0
370
   -1
100
AcDbLine
 10
39.00635
 20
44.25040000000001
 11
39.00635
 21
47.04910000000001
  0
LINE
  5
146
100
AcDbEntity
  8
0
  6
ByLayer
 62
    0
370
   -1
100
AcDbLine
 10
39.00635
 20
47.04910000000001
 11
38.18085
 21
47.04910000000001
  0
LINE
  5
147
100
AcDbEntity
  8
0
  6
ByLayer
 62
    0
370
   -1
100
AcDbLine
 10
38.18085
 20
47.04910000000001
 11
38.18085
 21
50.28090000000002
  0
LINE
  5
148
100
AcDbEntity
  8
0
  6
ByLayer
 62
    0
370
   -1
100
AcDbLine
 10
38.18085
 20
50.28090000000002
 11
36.45715
 21
50.28090000000002
  0
LINE
  5
149
100
AcDbEntity
  8
0
  6
ByLayer
 62
    0
370
   -1
100
AcDbLine
 10
36.45715
 20
50.28090000000002
 11
36.45715
 21
51.19990000000001
  0
LINE
  5
14A
100
AcDbEntity
  8
0
  6
ByLayer
 62
    0
370
   -1
100
AcDbLine
 10
36.45715
 20
51.19990000000001
 11
33.15655
 21
51.19990000000001
  0
LINE
  5
14B
100
AcDbEntity
  8
0
  6
ByLayer
 62
    0
370
   -1
100
AcDbLine
 10
33.15655
 20
51.19990000000001
 11
33.15655
 21
50.28090000000002
  0
LINE
  5
14C
100
AcDbEntity
  8
0
  6
ByLayer
 62
    0
370
   -1
100
AcDbLine
 10
33.15655
 20
50.28090000000002
 11
31.43125
 21
50.28090000000002
  0
LINE
  5
14D
100
AcDbEntity
  8
0
  6
ByLayer
 62
    0
370
   -1
100
AcDbLine
 10
31.43125
 20
50.28090000000002
 11
31.43125
 21
47.04910000000001
  0
LINE
  5
14E
100
AcDbEntity
  8
0
  6
ByLayer
 62
    0
370
   -1
100
AcDbLine
 10
31.43125
 20
47.04910000000001
 11
29.90575
 21
47.04910000000001
  0
LINE
  5
14F
100
AcDbEntity
  8
0
  6
ByLayer
 62
    0
370
   -1
100
AcDbLine
 10
29.90575
 20
47.04910000000001
 11
29.90575
 21
51.74980000000002
  0
LINE
  5
150
100
AcDbEntity
  8
0
  6
ByLayer
 62
    0
370
   -1
100
AcDbLine
 10
29.90575
 20
51.74980000000002
 11
15.90625
 21
51.74980000000002
  0
LINE
  5
151
100
AcDbEntity
  8
0
  6
ByLayer
 62
    0
370
   -1
100
AcDbLine
 10
402.14695
 20
51.74980000000002
 11
416.14495
 21
51.74980000000002
  0
LINE
  5
152
100
AcDbEntity
  8
0
  6
ByLayer
 62
    0
370
   -1
100
AcDbLine
 10
416.14495
 20
51.74980000000002
 11
416.14495
 21
37.75020000000002
  0
LINE
  5
153
100
AcDbEntity
  8
0
  6
ByLayer
 62
    0
370
   -1
100
AcDbLine
 10
416.14495
 20
37.75020000000002
 11
402.14695
 21
37.75020000000002
  0
LINE
  5
154
100
AcDbEntity
  8
0
  6
ByLayer
 62
    0
370
   -1
100
AcDbLine
 10
402.14695
 20
37.75020000000002
 11
402.14695
 21
51.74980000000002
  0
LINE
  5
155
100
AcDbEntity
  8
0
  6
ByLayer
 62
    0
370
   -1
100
AcDbLine
 10
383.09695
 20
51.74980000000002
 11
397.09495
 21
51.74980000000002
  0
LINE
  5
156
100
AcDbEntity
  8
0
  6
ByLayer
 62
    0
370
   -1
100
AcDbLine
 10
397.09495
 20
51.74980000000002
 11
397.09495
 21
37.75020000000002
  0
LINE
  5
157
100
AcDbEntity
  8
0
  6
ByLayer
 62
    0
370
   -1
100
AcDbLine
 10
397.09495
 20
37.75020000000002
 11
383.09695
 21
37.75020000000002
  0
LINE
  5
158
100
AcDbEntity
  8
0
  6
ByLayer
 62
    0
370
   -1
100
AcDbLine
 10
383.09695
 20
37.75020000000002
 11
383.09695
 21
51.74980000000002
  0
LINE
  5
159
100
AcDbEntity
  8
0
  6
ByLayer
 62
    0
370
   -1
100
AcDbLine
 10
364.04695
 20
51.74980000000002
 11
378.04495
 21
51.74980000000002
  0
LINE
  5
15A
100
AcDbEntity
  8
0
  6
ByLayer
 62
    0
370
   -1
100
AcDbLine
 10
378.04495
 20
51.74980000000002
 11
378.04495
 21
37.75020000000002
  0
LINE
  5
15B
100
AcDbEntity
  8
0
  6
ByLayer
 62
    0
370
   -1
100
AcDbLine
 10
378.04495
 20
37.75020000000002
 11
364.04695
 21
37.75020000000002
  0
LINE
  5
15C
100
AcDbEntity
  8
0
  6
ByLayer
 62
    0
370
   -1
100
AcDbLine
 10
364.04695
 20
37.75020000000002
 11
364.04695
 21
51.74980000000002
  0
LINE
  5
15D
100
AcDbEntity
  8
0
  6
ByLayer
 62
    0
370
   -1
100
AcDbLine
 10
317.37295
 20
51.74980000000002
 11
331.37195
 21
51.74980000000002
  0
LINE
  5
15E
100
AcDbEntity
  8
0
  6
ByLayer
 62
    0
370
   -1
100
AcDbLine
 10
331.37195
 20
51.74980000000002
 11
331.37195
 21
37.75020000000002
  0
LINE
  5
15F
100
AcDbEntity
  8
0
  6
ByLayer
 62
    0
370
   -1
100
AcDbLine
 10
331.37195
 20
37.75020000000002
 11
317.37295
 21
37.75020000000002
  0
LINE
  5
160
100
AcDbEntity
  8
0
  6
ByLayer
 62
    0
370
   -1
100
AcDbLine
 10
317.37295
 20
37.75020000000002
 11
317.37295
 21
51.74980000000002
  0
LINE
  5
161
100
AcDbEntity
  8
0
  6
ByLayer
 62
    0
370
   -1
100
AcDbLine
 10
218.31295
 20
51.74980000000002
 11
232.31195
 21
51.74980000000002
  0
LINE
  5
162
100
AcDbEntity
  8
0
  6
ByLayer
 62
    0
370
   -1
100
AcDbLine
 10
232.31195
 20
51.74980000000002
 11
232.31195
 21
37.75020000000002
  0
LINE
  5
163
100
AcDbEntity
  8
0
  6
ByLayer
 62
    0
370
   -1
100
AcDbLine
 10
232.31195
 20
37.75020000000002
 11
218.31295
 21
37.75020000000002
  0
LINE
  5
164
100
AcDbEntity
  8
0
  6
ByLayer
 62
    0
370
   -1
100
AcDbLine
 10
218.31295
 20
37.75020000000002
 11
218.31295
 21
51.74980000000002
  0
LINE
  5
165
100
AcDbEntity
  8
0
  6
ByLayer
 62
    0
370
   -1
100
AcDbLine
 10
199.26295
 20
51.74980000000002
 11
213.26195
 21
51.74980000000002
  0
LINE
  5
166
100
AcDbEntity
  8
0
  6
ByLayer
 62
    0
370
   -1
100
AcDbLine
 10
213.26195
 20
51.74980000000002
 11
213.26195
 21
37.75020000000002
  0
LINE
  5
167
100
AcDbEntity
  8
0
  6
ByLayer
 62
    0
370
   -1
100
AcDbLine
 10
213.26195
 20
37.75020000000002
 11
199.26295
 21
37.75020000000002
  0
LINE
  5
168
100
AcDbEntity
  8
0
  6
ByLayer
 62
    0
370
   -1
100
AcDbLine
 10
199.26295
 20
37.75020000000002
 11
199.26295
 21
51.74980000000002
  0
LINE
  5
169
100
AcDbEntity
  8
0
  6
ByLayer
 62
    0
370
   -1
100
AcDbLine
 10
180.21295
 20
51.74980000000002
 11
194.21195
 21
51.74980000000002
  0
LINE
  5
16A
100
AcDbEntity
  8
0
  6
ByLayer
 62
    0
370
   -1
100
AcDbLine
 10
194.21195
 20
51.74980000000002
 11
194.21195
 21
37.75020000000002
  0
LINE
  5
16B
100
AcDbEntity
  8
0
  6
ByLayer
 62
    0
370
   -1
100
AcDbLine
 10
194.21195
 20
37.75020000000002
 11
180.21295
 21
37.75020000000002
  0
LINE
  5
16C
100
AcDbEntity
  8
0
  6
ByLayer
 62
    0
370
   -1
100
AcDbLine
 10
180.21295
 20
37.75020000000002
 11
180.21295
 21
51.74980000000002
  0
LINE
  5
16D
100
AcDbEntity
  8
0
  6
ByLayer
 62
    0
370
   -1
100
AcDbLine
 10
161.16295
 20
51.74980000000002
 11
175.16195
 21
51.74980000000002
  0
LINE
  5
16E
100
AcDbEntity
  8
0
  6
ByLayer
 62
    0
370
   -1
100
AcDbLine
 10
175.16195
 20
51.74980000000002
 11
175.16195
 21
37.75020000000002
  0
LINE
  5
16F
100
AcDbEntity
  8
0
  6
ByLayer
 62
    0
370
   -1
100
AcDbLine
 10
175.16195
 20
37.75020000000002
 11
161.16295
 21
37.75020000000002
  0
LINE
  5
170
100
AcDbEntity
  8
0
  6
ByLayer
 62
    0
370
   -1
100
AcDbLine
 10
161.16295
 20
37.75020000000002
 11
161.16295
 21
51.74980000000002
  0
LINE
  5
171
100
AcDbEntity
  8
0
  6
ByLayer
 62
    0
370
   -1
100
AcDbLine
 10
142.11295
 20
51.74980000000002
 11
156.11195
 21
51.74980000000002
  0
LINE
  5
172
100
AcDbEntity
  8
0
  6
ByLayer
 62
    0
370
   -1
100
AcDbLine
 10
156.11195
 20
51.74980000000002
 11
156.11195
 21
37.75020000000002
  0
LINE
  5
173
100
AcDbEntity
  8
0
  6
ByLayer
 62
    0
370
   -1
100
AcDbLine
 10
156.11195
 20
37.75020000000002
 11
142.11295
 21
37.75020000000002
  0
LINE
  5
174
100
AcDbEntity
  8
0
  6
ByLayer
 62
    0
370
   -1
100
AcDbLine
 10
142.11295
 20
37.75020000000002
 11
142.11295
 21
51.74980000000002
  0
LINE
  5
175
100
AcDbEntity
  8
0
  6
ByLayer
 62
    0
370
   -1
100
AcDbLine
 10
123.06095
 20
51.74980000000002
 11
137.06195
 21
51.74980000000002
  0
LINE
  5
176
100
AcDbEntity
  8
0
  6
ByLayer
 62
    0
370
   -1
100
AcDbLine
 10
137.06195
 20
51.74980000000002
 11
137.06195
 21
37.75020000000002
  0
LINE
  5
177
100
AcDbEntity
  8
0
  6
ByLayer
 62
    0
370
   -1
100
AcDbLine
 10
137.06195
 20
37.75020000000002
 11
123.06095
 21
37.75020000000002
  0
LINE
  5
178
100
AcDbEntity
  8
0
  6
ByLayer
 62
    0
370
   -1
100
AcDbLine
 10
123.06095
 20
37.75020000000002
 11
123.06095
 21
51.74980000000002
  0
LINE
  5
179
100
AcDbEntity
  8
0
  6
ByLayer
 62
    0
370
   -1
100
AcDbLine
 10
104.01295
 20
51.74980000000002
 11
118.01195
 21
51.74980000000002
  0
LINE
  5
17A
100
AcDbEntity
  8
0
  6
ByLayer
 62
    0
370
   -1
100
AcDbLine
 10
118.01195
 20
51.74980000000002
 11
118.01195
 21
37.75020000000002
  0
LINE
  5
17B
100
AcDbEntity
  8
0
  6
ByLayer
 62
    0
370
   -1
100
AcDbLine
 10
118.01195
 20
37.75020000000002
 11
104.01295
 21
37.75020000000002
  0
LINE
  5
17C
100
AcDbEntity
  8
0
  6
ByLayer
 62
    0
370
   -1
100
AcDbLine
 10
104.01295
 20
37.75020000000002
 11
104.01295
 21
51.74980000000002
  0
LINE
  5
17D
100
AcDbEntity
  8
0
  6
ByLayer
 62
    0
370
   -1
100
AcDbLine
 10
84.96265000000001
 20
51.74980000000002
 11
98.96195
 21
51.74980000000002
  0
LINE
  5
17E
100
AcDbEntity
  8
0
  6
ByLayer
 62
    0
370
   -1
100
AcDbLine
 10
98.96195
 20
51.74980000000002
 11
98.96195
 21
37.75020000000002
  0
LINE
  5
17F
100
AcDbEntity
  8
0
  6
ByLayer
 62
    0
370
   -1
100
AcDbLine
 10
98.96195
 20
37.75020000000002
 11
84.96265000000001
 21
37.75020000000002
  0
LINE
  5
180
100
AcDbEntity
  8
0
  6
ByLayer
 62
    0
370
   -1
100
AcDbLine
 10
84.96265000000001
 20
37.75020000000002
 11
84.96265000000001
 21
51.74980000000002
  0
LINE
  5
181
100
AcDbEntity
  8
0
  6
ByLayer
 62
    0
370
   -1
100
AcDbLine
 10
65.91265000000001
 20
51.74980000000002
 11
79.91195
 21
51.74980000000002
  0
LINE
  5
182
100
AcDbEntity
  8
0
  6
ByLayer
 62
    0
370
   -1
100
AcDbLine
 10
79.91195
 20
51.74980000000002
 11
79.91195
 21
37.75020000000002
  0
LINE
  5
183
100
AcDbEntity
  8
0
  6
ByLayer
 62
    0
370
   -1
100
AcDbLine
 10
79.91195
 20
37.75020000000002
 11
65.91265000000001
 21
37.75020000000002
  0
LINE
  5
184
100
AcDbEntity
  8
0
  6
ByLayer
 62
    0
370
   -1
100
AcDbLine
 10
65.91265000000001
 20
37.75020000000002
 11
65.91265000000001
 21
51.74980000000002
  0
LINE
  5
185
100
AcDbEntity
  8
0
  6
ByLayer
 62
    0
370
   -1
100
AcDbLine
 10
46.86265
 20
51.74980000000002
 11
60.86195
 21
51.74980000000002
  0
LINE
  5
186
100
AcDbEntity
  8
0
  6
ByLayer
 62
    0
370
   -1
100
AcDbLine
 10
60.86195
 20
51.74980000000002
 11
60.86195
 21
37.75020000000002
  0
LINE
  5
187
100
AcDbEntity
  8
0
  6
ByLayer
 62
    0
370
   -1
100
AcDbLine
 10
60.86195
 20
37.75020000000002
 11
46.86265
 21
37.75020000000002
  0
LINE
  5
188
100
AcDbEntity
  8
0
  6
ByLayer
 62
    0
370
   -1
100
AcDbLine
 10
46.86265
 20
37.75020000000002
 11
46.86265
 21
51.74980000000002
  0
LINE
  5
189
100
AcDbEntity
  8
0
  6
ByLayer
 62
    0
370
   -1
100
AcDbLine
 10
258.79395
 20
70.79980000000002
 11
258.79395
 21
66.09910000000002
  0
LINE
  5
18A
100
AcDbEntity
  8
0
  6
ByLayer
 62
    0
370
   -1
100
AcDbLine
 10
258.79395
 20
66.09910000000002
 11
257.26795
 21
66.09910000000002
  0
LINE
  5
18B
100
AcDbEntity
  8
0
  6
ByLayer
 62
    0
370
   -1
100
AcDbLine
 10
257.26795
 20
66.09910000000002
 11
257.26795
 21
69.32950000000002
  0
LINE
  5
18C
100
AcDbEntity
  8
0
  6
ByLayer
 62
    0
370
   -1
100
AcDbLine
 10
257.26795
 20
69.32950000000002
 11
255.54295
 21
69.32950000000002
  0
LINE
  5
18D
100
AcDbEntity
  8
0
  6
ByLayer
 62
    0
370
   -1
100
AcDbLine
 10
255.54295
 20
69.32950000000002
 11
255.54295
 21
70.24990000000003
  0
LINE
  5
18E
100
AcDbEntity
  8
0
  6
ByLayer
 62
    0
370
   -1
100
AcDbLine
 10
255.54295
 20
70.24990000000003
 11
252.24295
 21
70.24990000000003
  0
LINE
  5
18F
100
AcDbEntity
  8
0
  6
ByLayer
 62
    0
370
   -1
100
AcDbLine
 10
252.24295
 20
70.24990000000003
 11
252.24295
 21
69.32950000000002
  0
LINE
  5
190
100
AcDbEntity
  8
0
  6
ByLayer
 62
    0
370
   -1
100
AcDbLine
 10
252.24295
 20
69.32950000000002
 11
250.51895
 21
69.32950000000002
  0
LINE
  5
191
100
AcDbEntity
  8
0
  6
ByLayer
 62
    0
370
   -1
100
AcDbLine
 10
250.51895
 20
69.32950000000002
 11
250.51895
 21
66.09910000000002
  0
LINE
  5
192
100
AcDbEntity
  8
0
  6
ByLayer
 62
    0
370
   -1
100
AcDbLine
 10
250.51895
 20
66.09910000000002
 11
249.69295
 21
66.09910000000002
  0
LINE
  5
193
100
AcDbEntity
  8
0
  6
ByLayer
 62
    0
370
   -1
100
AcDbLine
 10
249.69295
 20
66.09910000000002
 11
249.69295
 21
63.29910000000001
  0
LINE
  5
194
100
AcDbEntity
  8
0
  6
ByLayer
 62
    0
370
   -1
100
AcDbLine
 10
249.69295
 20
63.29910000000001
 11
250.51895
 21
63.29910000000001
  0
LINE
  5
195
100
AcDbEntity
  8
0
  6
ByLayer
 62
    0
370
   -1
100
AcDbLine
 10
250.51895
 20
63.29910000000001
 11
250.51895
 21
57.03020000000002
  0
LINE
  5
196
100
AcDbEntity
  8
0
  6
ByLayer
 62
    0
370
   -1
100
AcDbLine
 10
250.51895
 20
57.03020000000002
 11
252.24295
 21
57.03020000000002
  0
LINE
  5
197
100
AcDbEntity
  8
0
  6
ByLayer
 62
    0
370
   -1
100
AcDbLine
 10
252.24295
 20
57.03020000000002
 11
252.24295
 21
56.04910000000001
  0
LINE
  5
198
100
AcDbEntity
  8
0
  6
ByLayer
 62
    0
370
   -1
100
AcDbLine
 10
252.24295
 20
56.04910000000001
 11
255.54295
 21
56.04910000000001
  0
LINE
  5
199
100
AcDbEntity
  8
0
  6
ByLayer
 62
    0
370
   -1
100
AcDbLine
 10
255.54295
 20
56.04910000000001
 11
255.54295
 21
57.03020000000002
  0
LINE
  5
19A
100
AcDbEntity
  8
0
  6
ByLayer
 62
    0
370
   -1
100
AcDbLine
 10
255.54295
 20
57.03020000000002
 11
257.26795
 21
57.03020000000002
  0
LINE
  5
19B
100
AcDbEntity
  8
0
  6
ByLayer
 62
    0
370
   -1
100
AcDbLine
 10
257.26795
 20
57.03020000000002
 11
257.26795
 21
61.50060000000002
  0
LINE
  5
19C
100
AcDbEntity
  8
0
  6
ByLayer
 62
    0
370
   -1
100
AcDbLine
 10
257.26795
 20
61.50060000000002
 11
258.79395
 21
61.50060000000002
  0
LINE
  5
19D
100
AcDbEntity
  8
0
  6
ByLayer
 62
    0
370
   -1
100
AcDbLine
 10
258.79395
 20
61.50060000000002
 11
258.79395
 21
56.79880000000003
  0
LINE
  5
19E
100
AcDbEntity
  8
0
  6
ByLayer
 62
    0
370
   -1
100
AcDbLine
 10
258.79395
 20
56.79880000000003
 11
272.79295
 21
56.79880000000003
  0
LINE
  5
19F
100
AcDbEntity
  8
0
  6
ByLayer
 62
    0
370
   -1
100
AcDbLine
 10
272.79295
 20
56.79880000000003
 11
272.79295
 21
61.50060000000002
  0
LINE
  5
1A0
100
AcDbEntity
  8
0
  6
ByLayer
 62
    0
370
   -1
100
AcDbLine
 10
272.79295
 20
61.50060000000002
 11
274.31895
 21
61.50060000000002
  0
LINE
  5
1A1
100
AcDbEntity
  8
0
  6
ByLayer
 62
    0
370
   -1
100
AcDbLine
 10
274.31895
 20
61.50060000000002
 11
274.31895
 21
57.03020000000002
  0
LINE
  5
1A2
100
AcDbEntity
  8
0
  6
ByLayer
 62
    0
370
   -1
100
AcDbLine
 10
274.31895
 20
57.03020000000002
 11
276.04395
 21
57.03020000000002
  0
LINE
  5
1A3
100
AcDbEntity
  8
0
  6
ByLayer
 62
    0
370
   -1
100
AcDbLine
 10
276.04395
 20
57.03020000000002
 11
276.04395
 21
56.04910000000001
  0
LINE
  5
1A4
100
AcDbEntity
  8
0
  6
ByLayer
 62
    0
370
   -1
100
AcDbLine
 10
276.04395
 20
56.04910000000001
 11
279.34295
 21
56.04910000000001
  0
LINE
  5
1A5
100
AcDbEntity
  8
0
  6
ByLayer
 62
    0
370
   -1
100
AcDbLine
 10
279.34295
 20
56.04910000000001
 11
279.34295
 21
57.03020000000002
  0
LINE
  5
1A6
100
AcDbEntity
  8
0
  6
ByLayer
 62
    0
370
   -1
100
AcDbLine
 10
279.34295
 20
57.03020000000002
 11
281.06795
 21
57.03020000000002
  0
LINE
  5
1A7
100
AcDbEntity
  8
0
  6
ByLayer
 62
    0
370
   -1
100
AcDbLine
 10
281.06795
 20
57.03020000000002
 11
281.06795
 21
63.29910000000001
  0
LINE
  5
1A8
100
AcDbEntity
  8
0
  6
ByLayer
 62
    0
370
   -1
100
AcDbLine
 10
281.06795
 20
63.29910000000001
 11
281.89395
 21
63.29910000000001
  0
LINE
  5
1A9
100
AcDbEntity
  8
0
  6
ByLayer
 62
    0
370
   -1
100
AcDbLine
 10
281.89395
 20
63.29910000000001
 11
281.89395
 21
66.09910000000002
  0
LINE
  5
1AA
100
AcDbEntity
  8
0
  6
ByLayer
 62
    0
370
   -1
100
AcDbLine
 10
281.89395
 20
66.09910000000002
 11
281.06795
 21
66.09910000000002
  0
LINE
  5
1AB
100
AcDbEntity
  8
0
  6
ByLayer
 62
    0
370
   -1
100
AcDbLine
 10
281.06795
 20
66.09910000000002
 11
281.06795
 21
69.32950000000002
  0
LINE
  5
1AC
100
AcDbEntity
  8
0
  6
ByLayer
 62
    0
370
   -1
100
AcDbLine
 10
281.06795
 20
69.32950000000002
 11
279.34295
 21
69.32950000000002
  0
LINE
  5
1AD
100
AcDbEntity
  8
0
  6
ByLayer
 62
    0
370
   -1
100
AcDbLine
 10
279.34295
 20
69.32950000000002
 11
279.34295
 21
70.24990000000003
  0
LINE
  5
1AE
100
AcDbEntity
  8
0
  6
ByLayer
 62
    0
370
   -1
100
AcDbLine
 10
279.34295
 20
70.24990000000003
 11
276.04395
 21
70.24990000000003
  0
LINE
  5
1AF
100
AcDbEntity
  8
0
  6
ByLayer
 62
    0
370
   -1
100
AcDbLine
 10
276.04395
 20
70.24990000000003
 11
276.04395
 21
69.32950000000002
  0
LINE
  5
1B0
100
AcDbEntity
  8
0
  6
ByLayer
 62
    0
370
   -1
100
AcDbLine
 10
276.04395
 20
69.32950000000002
 11
274.31895
 21
69.32950000000002
  0
LINE
  5
1B1
100
AcDbEntity
  8
0
  6
ByLayer
 62
    0
370
   -1
100
AcDbLine
 10
274.31895
 20
69.32950000000002
 11
274.31895
 21
66.09910000000002
  0
LINE
  5
1B2
100
AcDbEntity
  8
0
  6
ByLayer
 62
    0
370
   -1
100
AcDbLine
 10
274.31895
 20
66.09910000000002
 11
272.79295
 21
66.09910000000002
  0
LINE
  5
1B3
100
AcDbEntity
  8
0
  6
ByLayer
 62
    0
370
   -1
100
AcDbLine
 10
272.79295
 20
66.09910000000002
 11
272.79295
 21
70.79980000000002
  0
LINE
  5
1B4
100
AcDbEntity
  8
0
  6
ByLayer
 62
    0
370
   -1
100
AcDbLine
 10
272.79295
 20
70.79980000000002
 11
258.79395
 21
70.79980000000002
  0
LINE
  5
1B5
100
AcDbEntity
  8
0
  6
ByLayer
 62
    0
370
   -1
100
AcDbLine
 10
421.19695
 20
70.79980000000002
 11
435.19495
 21
70.79980000000002
  0
LINE
  5
1B6
100
AcDbEntity
  8
0
  6
ByLayer
 62
    0
370
   -1
100
AcDbLine
 10
435.19495
 20
70.79980000000002
 11
435.19495
 21
56.79880000000003
  0
LINE
  5
1B7
100
AcDbEntity
  8
0
  6
ByLayer
 62
    0
370
   -1
100
AcDbLine
 10
435.19495
 20
56.79880000000003
 11
421.19695
 21
56.79880000000003
  0
LINE
  5
1B8
100
AcDbEntity
  8
0
  6
ByLayer
 62
    0
370
   -1
100
AcDbLine
 10
421.19695
 20
56.79880000000003
 11
421.19695
 21
70.79980000000002
  0
LINE
  5
1B9
100
AcDbEntity
  8
0
  6
ByLayer
 62
    0
370
   -1
100
AcDbLine
 10
402.14695
 20
70.79980000000002
 11
416.14495
 21
70.79980000000002
  0
LINE
  5
1BA
100
AcDbEntity
  8
0
  6
ByLayer
 62
    0
370
   -1
100
AcDbLine
 10
416.14495
 20
70.79980000000002
 11
416.14495
 21
56.79880000000003
  0
LINE
  5
1BB
100
AcDbEntity
  8
0
  6
ByLayer
 62
    0
370
   -1
100
AcDbLine
 10
416.14495
 20
56.79880000000003
 11
402.14695
 21
56.79880000000003
  0
LINE
  5
1BC
100
AcDbEntity
  8
0
  6
ByLayer
 62
    0
370
   -1
100
AcDbLine
 10
402.14695
 20
56.79880000000003
 11
402.14695
 21
70.79980000000002
  0
LINE
  5
1BD
100
AcDbEntity
  8
0
  6
ByLayer
 62
    0
370
   -1
100
AcDbLine
 10
383.09695
 20
70.79980000000002
 11
397.09495
 21
70.79980000000002
  0
LINE
  5
1BE
100
AcDbEntity
  8
0
  6
ByLayer
 62
    0
370
   -1
100
AcDbLine
 10
397.09495
 20
70.79980000000002
 11
397.09495
 21
56.79880000000003
  0
LINE
  5
1BF
100
AcDbEntity
  8
0
  6
ByLayer
 62
    0
370
   -1
100
AcDbLine
 10
397.09495
 20
56.79880000000003
 11
383.09695
 21
56.79880000000003
  0
LINE
  5
1C0
100
AcDbEntity
  8
0
  6
ByLayer
 62
    0
370
   -1
100
AcDbLine
 10
383.09695
 20
56.79880000000003
 11
383.09695
 21
70.79980000000002
  0
LINE
  5
1C1
100
AcDbEntity
  8
0
  6
ByLayer
 62
    0
370
   -1
100
AcDbLine
 10
364.04695
 20
70.79980000000002
 11
378.04495
 21
70.79980000000002
  0
LINE
  5
1C2
100
AcDbEntity
  8
0
  6
ByLayer
 62
    0
370
   -1
100
AcDbLine
 10
378.04495
 20
70.79980000000002
 11
378.04495
 21
56.79880000000003
  0
LINE
  5
1C3
100
AcDbEntity
  8
0
  6
ByLayer
 62
    0
370
   -1
100
AcDbLine
 10
378.04495
 20
56.79880000000003
 11
364.04695
 21
56.79880000000003
  0
LINE
  5
1C4
100
AcDbEntity
  8
0
  6
ByLayer
 62
    0
370
   -1
100
AcDbLine
 10
364.04695
 20
56.79880000000003
 11
364.04695
 21
70.79980000000002
  0
LINE
  5
1C5
100
AcDbEntity
  8
0
  6
ByLayer
 62
    0
370
   -1
100
AcDbLine
 10
227.83795
 20
70.79980000000002
 11
241.83695
 21
70.79980000000002
  0
LINE
  5
1C6
100
AcDbEntity
  8
0
  6
ByLayer
 62
    0
370
   -1
100
AcDbLine
 10
241.83695
 20
70.79980000000002
 11
241.83695
 21
56.79880000000003
  0
LINE
  5
1C7
100
AcDbEntity
  8
0
  6
ByLayer
 62
    0
370
   -1
100
AcDbLine
 10
241.83695
 20
56.79880000000003
 11
227.83795
 21
56.79880000000003
  0
LINE
  5
1C8
100
AcDbEntity
  8
0
  6
ByLayer
 62
    0
370
   -1
100
AcDbLine
 10
227.83795
 20
56.79880000000003
 11
227.83795
 21
70.79980000000002
  0
LINE
  5
1C9
100
AcDbEntity
  8
0
  6
ByLayer
 62
    0
370
   -1
100
AcDbLine
 10
208.78795
 20
70.79980000000002
 11
222.78695
 21
70.79980000000002
  0
LINE
  5
1CA
100
AcDbEntity
  8
0
  6
ByLayer
 62
    0
370
   -1
100
AcDbLine
 10
222.78695
 20
70.79980000000002
 11
222.78695
 21
56.79880000000003
  0
LINE
  5
1CB
100
AcDbEntity
  8
0
  6
ByLayer
 62
    0
370
   -1
100
AcDbLine
 10
222.78695
 20
56.79880000000003
 11
208.78795
 21
56.79880000000003
  0
LINE
  5
1CC
100
AcDbEntity
  8
0
  6
ByLayer
 62
    0
370
   -1
100
AcDbLine
 10
208.78795
 20
56.79880000000003
 11
208.78795
 21
70.79980000000002
  0
LINE
  5
1CD
100
AcDbEntity
  8
0
  6
ByLayer
 62
    0
370
   -1
100
AcDbLine
 10
189.73795
 20
70.79980000000002
 11
203.73695
 21
70.79980000000002
  0
LINE
  5
1CE
100
AcDbEntity
  8
0
  6
ByLayer
 62
    0
370
   -1
100
AcDbLine
 10
203.73695
 20
70.79980000000002
 11
203.73695
 21
56.79880000000003
  0
LINE
  5
1CF
100
AcDbEntity
  8
0
  6
ByLayer
 62
    0
370
   -1
100
AcDbLine
 10
203.73695
 20
56.79880000000003
 11
189.73795
 21
56.79880000000003
  0
LINE
  5
1D0
100
AcDbEntity
  8
0
  6
ByLayer
 62
    0
370
   -1
100
AcDbLine
 10
189.73795
 20
56.79880000000003
 11
189.73795
 21
70.79980000000002
  0
LINE
  5
1D1
100
AcDbEntity
  8
0
  6
ByLayer
 62
    0
370
   -1
100
AcDbLine
 10
170.68795
 20
70.79980000000002
 11
184.68695
 21
70.79980000000002
  0
LINE
  5
1D2
100
AcDbEntity
  8
0
  6
ByLayer
 62
    0
370
   -1
100
AcDbLine
 10
184.68695
 20
70.79980000000002
 11
184.68695
 21
56.79880000000003
  0
LINE
  5
1D3
100
AcDbEntity
  8
0
  6
ByLayer
 62
    0
370
   -1
100
AcDbLine
 10
184.68695
 20
56.79880000000003
 11
170.68795
 21
56.79880000000003
  0
LINE
  5
1D4
100
AcDbEntity
  8
0
  6
ByLayer
 62
    0
370
   -1
100
AcDbLine
 10
170.68795
 20
56.79880000000003
 11
170.68795
 21
70.79980000000002
  0
LINE
  5
1D5
100
AcDbEntity
  8
0
  6
ByLayer
 62
    0
370
   -1
100
AcDbLine
 10
151.63795
 20
70.79980000000002
 11
165.63695
 21
70.79980000000002
  0
LINE
  5
1D6
100
AcDbEntity
  8
0
  6
ByLayer
 62
    0
370
   -1
100
AcDbLine
 10
165.63695
 20
70.79980000000002
 11
165.63695
 21
56.79880000000003
  0
LINE
  5
1D7
100
AcDbEntity
  8
0
  6
ByLayer
 62
    0
370
   -1
100
AcDbLine
 10
165.63695
 20
56.79880000000003
 11
151.63795
 21
56.79880000000003
  0
LINE
  5
1D8
100
AcDbEntity
  8
0
  6
ByLayer
 62
    0
370
   -1
100
AcDbLine
 10
151.63795
 20
56.79880000000003
 11
151.63795
 21
70.79980000000002
  0
LINE
  5
1D9
100
AcDbEntity
  8
0
  6
ByLayer
 62
    0
370
   -1
100
AcDbLine
 10
132.58795
 20
70.79980000000002
 11
146.58695
 21
70.79980000000002
  0
LINE
  5
1DA
100
AcDbEntity
  8
0
  6
ByLayer
 62
    0
370
   -1
100
AcDbLine
 10
146.58695
 20
70.79980000000002
 11
146.58695
 21
56.79880000000003
  0
LINE
  5
1DB
100
AcDbEntity
  8
0
  6
ByLayer
 62
    0
370
   -1
100
AcDbLine
 10
146.58695
 20
56.79880000000003
 11
132.58795
 21
56.79880000000003
  0
LINE
  5
1DC
100
AcDbEntity
  8
0
  6
ByLayer
 62
    0
370
   -1
100
AcDbLine
 10
132.58795
 20
56.79880000000003
 11
132.58795
 21
70.79980000000002
  0
LINE
  5
1DD
100
AcDbEntity
  8
0
  6
ByLayer
 62
    0
370
   -1
100
AcDbLine
 10
113.53795
 20
70.79980000000002
 11
127.53695
 21
70.79980000000002
  0
LINE
  5
1DE
100
AcDbEntity
  8
0
  6
ByLayer
 62
    0
370
   -1
100
AcDbLine
 10
127.53695
 20
70.79980000000002
 11
127.53695
 21
56.79880000000003
  0
LINE
  5
1DF
100
AcDbEntity
  8
0
  6
ByLayer
 62
    0
370
   -1
100
AcDbLine
 10
127.53695
 20
56.79880000000003
 11
113.53795
 21
56.79880000000003
  0
LINE
  5
1E0
100
AcDbEntity
  8
0
  6
ByLayer
 62
    0
370
   -1
100
AcDbLine
 10
113.53795
 20
56.79880000000003
 11
113.53795
 21
70.79980000000002
  0
LINE
  5
1E1
100
AcDbEntity
  8
0
  6
ByLayer
 62
    0
370
   -1
100
AcDbLine
 10
94.48765
 20
70.79980000000002
 11
108.48695
 21
70.79980000000002
  0
LINE
  5
1E2
100
AcDbEntity
  8
0
  6
ByLayer
 62
    0
370
   -1
100
AcDbLine
 10
108.48695
 20
70.79980000000002
 11
108.48695
 21
56.79880000000003
  0
LINE
  5
1E3
100
AcDbEntity
  8
0
  6
ByLayer
 62
    0
370
   -1
100
AcDbLine
 10
108.48695
 20
56.79880000000003
 11
94.48765
 21
56.79880000000003
  0
LINE
  5
1E4
100
AcDbEntity
  8
0
  6
ByLayer
 62
    0
370
   -1
100
AcDbLine
 10
94.48765
 20
56.79880000000003
 11
94.48765
 21
70.79980000000002
  0
LINE
  5
1E5
100
AcDbEntity
  8
0
  6
ByLayer
 62
    0
370
   -1
100
AcDbLine
 10
75.43765
 20
70.79980000000002
 11
89.43695000000001
 21
70.79980000000002
  0
LINE
  5
1E6
100
AcDbEntity
  8
0
  6
ByLayer
 62
    0
370
   -1
100
AcDbLine
 10
89.43695000000001
 20
70.79980000000002
 11
89.43695000000001
 21
56.79880000000003
  0
LINE
  5
1E7
100
AcDbEntity
  8
0
  6
ByLayer
 62
    0
370
   -1
100
AcDbLine
 10
89.43695000000001
 20
56.79880000000003
 11
75.43765
 21
56.79880000000003
  0
LINE
  5
1E8
100
AcDbEntity
  8
0
  6
ByLayer
 62
    0
370
   -1
100
AcDbLine
 10
75.43765
 20
56.79880000000003
 11
75.43765
 21
70.79980000000002
  0
LINE
  5
1E9
100
AcDbEntity
  8
0
  6
ByLayer
 62
    0
370
   -1
100
AcDbLine
 10
56.38765
 20
70.79980000000002
 11
70.38695000000001
 21
70.79980000000002
  0
LINE
  5
1EA
100
AcDbEntity
  8
0
  6
ByLayer
 62
    0
370
   -1
100
AcDbLine
 10
70.38695000000001
 20
70.79980000000002
 11
70.38695000000001
 21
56.79880000000003
  0
LINE
  5
1EB
100
AcDbEntity
  8
0
  6
ByLayer
 62
    0
370
   -1
100
AcDbLine
 10
70.38695000000001
 20
56.79880000000003
 11
56.38765
 21
56.79880000000003
  0
LINE
  5
1EC
100
AcDbEntity
  8
0
  6
ByLayer
 62
    0
370
   -1
100
AcDbLine
 10
56.38765
 20
56.79880000000003
 11
56.38765
 21
70.79980000000002
  0
LINE
  5
1ED
100
AcDbEntity
  8
0
  6
ByLayer
 62
    0
370
   -1
100
AcDbLine
 10
37.33765
 20
70.79980000000002
 11
51.33695
 21
70.79980000000002
  0
LINE
  5
1EE
100
AcDbEntity
  8
0
  6
ByLayer
 62
    0
370
   -1
100
AcDbLine
 10
51.33695
 20
70.79980000000002
 11
51.33695
 21
56.79880000000003
  0
LINE
  5
1EF
100
AcDbEntity
  8
0
  6
ByLayer
 62
    0
370
   -1
100
AcDbLine
 10
51.33695
 20
56.79880000000003
 11
37.33765
 21
56.79880000000003
  0
LINE
  5
1F0
100
AcDbEntity
  8
0
  6
ByLayer
 62
    0
370
   -1
100
AcDbLine
 10
37.33765
 20
56.79880000000003
 11
37.33765
 21
70.79980000000002
  0
LINE
  5
1F1
100
AcDbEntity
  8
0
  6
ByLayer
 62
    0
370
   -1
100
AcDbLine
 10
11.14375
 20
70.79980000000002
 11
25.14325
 21
70.79980000000002
  0
LINE
  5
1F2
100
AcDbEntity
  8
0
  6
ByLayer
 62
    0
370
   -1
100
AcDbLine
 10
25.14325
 20
70.79980000000002
 11
25.14325
 21
56.79880000000003
  0
LINE
  5
1F3
100
AcDbEntity
  8
0
  6
ByLayer
 62
    0
370
   -1
100
AcDbLine
 10
25.14325
 20
56.79880000000003
 11
11.14375
 21
56.79880000000003
  0
LINE
  5
1F4
100
AcDbEntity
  8
0
  6
ByLayer
 62
    0
370
   -1
100
AcDbLine
 10
11.14375
 20
56.79880000000003
 11
11.14375
 21
70.79980000000002
  0
LINE
  5
1F5
100
AcDbEntity
  8
0
  6
ByLayer
 62
    0
370
   -1
100
AcDbLine
 10
421.19695
 20
89.84980000000002
 11
435.19495
 21
89.84980000000002
  0
LINE
  5
1F6
100
AcDbEntity
  8
0
  6
ByLayer
 62
    0
370
   -1
100
AcDbLine
 10
435.19495
 20
89.84980000000002
 11
435.19495
 21
75.84880000000003
  0
LINE
  5
1F7
100
AcDbEntity
  8
0
  6
ByLayer
 62
    0
370
   -1
100
AcDbLine
 10
435.19495
 20
75.84880000000003
 11
421.19695
 21
75.84880000000003
  0
LINE
  5
1F8
100
AcDbEntity
  8
0
  6
ByLayer
 62
    0
370
   -1
100
AcDbLine
 10
421.19695
 20
75.84880000000003
 11
421.19695
 21
89.84980000000002
  0
LINE
  5
1F9
100
AcDbEntity
  8
0
  6
ByLayer
 62
    0
370
   -1
100
AcDbLine
 10
402.14695
 20
89.84980000000002
 11
416.14495
 21
89.84980000000002
  0
LINE
  5
1FA
100
AcDbEntity
  8
0
  6
ByLayer
 62
    0
370
   -1
100
AcDbLine
 10
416.14495
 20
89.84980000000002
 11
416.14495
 21
75.84880000000003
  0
LINE
  5
1FB
100
AcDbEntity
  8
0
  6
ByLayer
 62
    0
370
   -1
100
AcDbLine
 10
416.14495
 20
75.84880000000003
 11
402.14695
 21
75.84880000000003
  0
LINE
  5
1FC
100
AcDbEntity
  8
0
  6
ByLayer
 62
    0
370
   -1
100
AcDbLine
 10
402.14695
 20
75.84880000000003
 11
402.14695
 21
89.84980000000002
  0
LINE
  5
1FD
100
AcDbEntity
  8
0
  6
ByLayer
 62
    0
370
   -1
100
AcDbLine
 10
383.09695
 20
89.84980000000002
 11
397.09495
 21
89.84980000000002
  0
LINE
  5
1FE
100
AcDbEntity
  8
0
  6
ByLayer
 62
    0
370
   -1
100
AcDbLine
 10
397.09495
 20
89.84980000000002
 11
397.09495
 21
75.84880000000003
  0
LINE
  5
1FF
100
AcDbEntity
  8
0
  6
ByLayer
 62
    0
370
   -1
100
AcDbLine
 10
397.09495
 20
75.84880000000003
 11
383.09695
 21
75.84880000000003
  0
LINE
  5
200
100
AcDbEntity
  8
0
  6
ByLayer
 62
    0
370
   -1
100
AcDbLine
 10
383.09695
 20
75.84880000000003
 11
383.09695
 21
89.84980000000002
  0
LINE
  5
201
100
AcDbEntity
  8
0
  6
ByLayer
 62
    0
370
   -1
100
AcDbLine
 10
364.04695
 20
89.84980000000002
 11
378.04495
 21
89.84980000000002
  0
LINE
  5
202
100
AcDbEntity
  8
0
  6
ByLayer
 62
    0
370
   -1
100
AcDbLine
 10
378.04495
 20
89.84980000000002
 11
378.04495
 21
75.84880000000003
  0
LINE
  5
203
100
AcDbEntity
  8
0
  6
ByLayer
 62
    0
370
   -1
100
AcDbLine
 10
378.04495
 20
75.84880000000003
 11
364.04695
 21
75.84880000000003
  0
LINE
  5
204
100
AcDbEntity
  8
0
  6
ByLayer
 62
    0
370
   -1
100
AcDbLine
 10
364.04695
 20
75.84880000000003
 11
364.04695
 21
89.84980000000002
  0
LINE
  5
205
100
AcDbEntity
  8
0
  6
ByLayer
 62
    0
370
   -1
100
AcDbLine
 10
336.42295
 20
89.84980000000002
 11
350.42195
 21
89.84980000000002
  0
LINE
  5
206
100
AcDbEntity
  8
0
  6
ByLayer
 62
    0
370
   -1
100
AcDbLine
 10
350.42195
 20
89.84980000000002
 11
350.42195
 21
75.84880000000003
  0
LINE
  5
207
100
AcDbEntity
  8
0
  6
ByLayer
 62
    0
370
   -1
100
AcDbLine
 10
350.42195
 20
75.84880000000003
 11
336.42295
 21
75.84880000000003
  0
LINE
  5
208
100
AcDbEntity
  8
0
  6
ByLayer
 62
    0
370
   -1
100
AcDbLine
 10
336.42295
 20
75.84880000000003
 11
336.42295
 21
89.84980000000002
  0
LINE
  5
209
100
AcDbEntity
  8
0
  6
ByLayer
 62
    0
370
   -1
100
AcDbLine
 10
317.37295
 20
89.84980000000002
 11
331.37195
 21
89.84980000000002
  0
LINE
  5
20A
100
AcDbEntity
  8
0
  6
ByLayer
 62
    0
370
   -1
100
AcDbLine
 10
331.37195
 20
89.84980000000002
 11
331.37195
 21
75.84880000000003
  0
LINE
  5
20B
100
AcDbEntity
  8
0
  6
ByLayer
 62
    0
370
   -1
100
AcDbLine
 10
331.37195
 20
75.84880000000003
 11
317.37295
 21
75.84880000000003
  0
LINE
  5
20C
100
AcDbEntity
  8
0
  6
ByLayer
 62
    0
370
   -1
100
AcDbLine
 10
317.37295
 20
75.84880000000003
 11
317.37295
 21
89.84980000000002
  0
LINE
  5
20D
100
AcDbEntity
  8
0
  6
ByLayer
 62
    0
370
   -1
100
AcDbLine
 10
298.32295
 20
89.84980000000002
 11
312.32195
 21
89.84980000000002
  0
LINE
  5
20E
100
AcDbEntity
  8
0
  6
ByLayer
 62
    0
370
   -1
100
AcDbLine
 10
312.32195
 20
89.84980000000002
 11
312.32195
 21
75.84880000000003
  0
LINE
  5
20F
100
AcDbEntity
  8
0
  6
ByLayer
 62
    0
370
   -1
100
AcDbLine
 10
312.32195
 20
75.84880000000003
 11
298.32295
 21
75.84880000000003
  0
LINE
  5
210
100
AcDbEntity
  8
0
  6
ByLayer
 62
    0
370
   -1
100
AcDbLine
 10
298.32295
 20
75.84880000000003
 11
298.32295
 21
89.84980000000002
  0
LINE
  5
211
100
AcDbEntity
  8
0
  6
ByLayer
 62
    0
370
   -1
100
AcDbLine
 10
265.93795
 20
89.84980000000002
 11
279.93695
 21
89.84980000000002
  0
LINE
  5
212
100
AcDbEntity
  8
0
  6
ByLayer
 62
    0
370
   -1
100
AcDbLine
 10
279.93695
 20
89.84980000000002
 11
279.93695
 21
75.84880000000003
  0
LINE
  5
213
100
AcDbEntity
  8
0
  6
ByLayer
 62
    0
370
   -1
100
AcDbLine
 10
279.93695
 20
75.84880000000003
 11
265.93795
 21
75.84880000000003
  0
LINE
  5
214
100
AcDbEntity
  8
0
  6
ByLayer
 62
    0
370
   -1
100
AcDbLine
 10
265.93795
 20
75.84880000000003
 11
265.93795
 21
89.84980000000002
  0
LINE
  5
215
100
AcDbEntity
  8
0
  6
ByLayer
 62
    0
370
   -1
100
AcDbLine
 10
242.12495
 20
89.84980000000002
 11
256.12595
 21
89.84980000000002
  0
LINE
  5
216
100
AcDbEntity
  8
0
  6
ByLayer
 62
    0
370
   -1
100
AcDbLine
 10
256.12595
 20
89.84980000000002
 11
256.12595
 21
75.84880000000003
  0
LINE
  5
217
100
AcDbEntity
  8
0
  6
ByLayer
 62
    0
370
   -1
100
AcDbLine
 10
256.12595
 20
75.84880000000003
 11
242.12495
 21
75.84880000000003
  0
LINE
  5
218
100
AcDbEntity
  8
0
  6
ByLayer
 62
    0
370
   -1
100
AcDbLine
 10
242.12495
 20
75.84880000000003
 11
242.12495
 21
89.84980000000002
  0
LINE
  5
219
100
AcDbEntity
  8
0
  6
ByLayer
 62
    0
370
   -1
100
AcDbLine
 10
223.07495
 20
89.84980000000002
 11
237.07595
 21
89.84980000000002
  0
LINE
  5
21A
100
AcDbEntity
  8
0
  6
ByLayer
 62
    0
370
   -1
100
AcDbLine
 10
237.07595
 20
89.84980000000002
 11
237.07595
 21
75.84880000000003
  0
LINE
  5
21B
100
AcDbEntity
  8
0
  6
ByLayer
 62
    0
370
   -1
100
AcDbLine
 10
237.07595
 20
75.84880000000003
 11
223.07495
 21
75.84880000000003
  0
LINE
  5
21C
100
AcDbEntity
  8
0
  6
ByLayer
 62
    0
370
   -1
100
AcDbLine
 10
223.07495
 20
75.84880000000003
 11
223.07495
 21
89.84980000000002
  0
LINE
  5
21D
100
AcDbEntity
  8
0
  6
ByLayer
 62
    0
370
   -1
100
AcDbLine
 10
204.02495
 20
89.84980000000002
 11
218.02595
 21
89.84980000000002
  0
LINE
  5
21E
100
AcDbEntity
  8
0
  6
ByLayer
 62
    0
370
   -1
100
AcDbLine
 10
218.02595
 20
89.84980000000002
 11
218.02595
 21
75.84880000000003
  0
LINE
  5
21F
100
AcDbEntity
  8
0
  6
ByLayer
 62
    0
370
   -1
100
AcDbLine
 10
218.02595
 20
75.84880000000003
 11
204.02495
 21
75.84880000000003
  0
LINE
  5
220
100
AcDbEntity
  8
0
  6
ByLayer
 62
    0
370
   -1
100
AcDbLine
 10
204.02495
 20
75.84880000000003
 11
204.02495
 21
89.84980000000002
  0
LINE
  5
221
100
AcDbEntity
  8
0
  6
ByLayer
 62
    0
370
   -1
100
AcDbLine
 10
184.97495
 20
89.84980000000002
 11
198.97595
 21
89.84980000000002
  0
LINE
  5
222
100
AcDbEntity
  8
0
  6
ByLayer
 62
    0
370
   -1
100
AcDbLine
 10
198.97595
 20
89.84980000000002
 11
198.97595
 21
75.84880000000003
  0
LINE
  5
223
100
AcDbEntity
  8
0
  6
ByLayer
 62
    0
370
   -1
100
AcDbLine
 10
198.97595
 20
75.84880000000003
 11
184.97495
 21
75.84880000000003
  0
LINE
  5
224
100
AcDbEntity
  8
0
  6
ByLayer
 62
    0
370
   -1
100
AcDbLine
 10
184.97495
 20
75.84880000000003
 11
184.97495
 21
89.84980000000002
  0
LINE
  5
225
100
AcDbEntity
  8
0
  6
ByLayer
 62
    0
370
   -1
100
AcDbLine
 10
165.92495
 20
89.84980000000002
 11
179.92595
 21
89.84980000000002
  0
LINE
  5
226
100
AcDbEntity
  8
0
  6
ByLayer
 62
    0
370
   -1
100
AcDbLine
 10
179.92595
 20
89.84980000000002
 11
179.92595
 21
75.84880000000003
  0
LINE
  5
227
100
AcDbEntity
  8
0
  6
ByLayer
 62
    0
370
   -1
100
AcDbLine
 10
179.92595
 20
75.84880000000003
 11
165.92495
 21
75.84880000000003
  0
LINE
  5
228
100
AcDbEntity
  8
0
  6
ByLayer
 62
    0
370
   -1
100
AcDbLine
 10
165.92495
 20
75.84880000000003
 11
165.92495
 21
89.84980000000002
  0
LINE
  5
229
100
AcDbEntity
  8
0
  6
ByLayer
 62
    0
370
   -1
100
AcDbLine
 10
146.87495
 20
89.84980000000002
 11
160.87595
 21
89.84980000000002
  0
LINE
  5
22A
100
AcDbEntity
  8
0
  6
ByLayer
 62
    0
370
   -1
100
AcDbLine
 10
160.87595
 20
89.84980000000002
 11
160.87595
 21
75.84880000000003
  0
LINE
  5
22B
100
AcDbEntity
  8
0
  6
ByLayer
 62
    0
370
   -1
100
AcDbLine
 10
160.87595
 20
75.84880000000003
 11
146.87495
 21
75.84880000000003
  0
LINE
  5
22C
100
AcDbEntity
  8
0
  6
ByLayer
 62
    0
370
   -1
100
AcDbLine
 10
146.87495
 20
75.84880000000003
 11
146.87495
 21
89.84980000000002
  0
LINE
  5
22D
100
AcDbEntity
  8
0
  6
ByLayer
 62
    0
370
   -1
100
AcDbLine
 10
127.82495
 20
89.84980000000002
 11
141.82595
 21
89.84980000000002
  0
LINE
  5
22E
100
AcDbEntity
  8
0
  6
ByLayer
 62
    0
370
   -1
100
AcDbLine
 10
141.82595
 20
89.84980000000002
 11
141.82595
 21
75.84880000000003
  0
LINE
  5
22F
100
AcDbEntity
  8
0
  6
ByLayer
 62
    0
370
   -1
100
AcDbLine
 10
141.82595
 20
75.84880000000003
 11
127.82495
 21
75.84880000000003
  0
LINE
  5
230
100
AcDbEntity
  8
0
  6
ByLayer
 62
    0
370
   -1
100
AcDbLine
 10
127.82495
 20
75.84880000000003
 11
127.82495
 21
89.84980000000002
  0
LINE
  5
231
100
AcDbEntity
  8
0
  6
ByLayer
 62
    0
370
   -1
100
AcDbLine
 10
108.77495
 20
89.84980000000002
 11
122.77595
 21
89.84980000000002
  0
LINE
  5
232
100
AcDbEntity
  8
0
  6
ByLayer
 62
    0
370
   -1
100
AcDbLine
 10
122.77595
 20
89.84980000000002
 11
122.77595
 21
75.84880000000003
  0
LINE
  5
233
100
AcDbEntity
  8
0
  6
ByLayer
 62
    0
370
   -1
100
AcDbLine
 10
122.77595
 20
75.84880000000003
 11
108.77495
 21
75.84880000000003
  0
LINE
  5
234
100
AcDbEntity
  8
0
  6
ByLayer
 62
    0
370
   -1
100
AcDbLine
 10
108.77495
 20
75.84880000000003
 11
108.77495
 21
89.84980000000002
  0
LINE
  5
235
100
AcDbEntity
  8
0
  6
ByLayer
 62
    0
370
   -1
100
AcDbLine
 10
89.72515000000001
 20
89.84980000000002
 11
103.72595
 21
89.84980000000002
  0
LINE
  5
236
100
AcDbEntity
  8
0
  6
ByLayer
 62
    0
370
   -1
100
AcDbLine
 10
103.72595
 20
89.84980000000002
 11
103.72595
 21
75.84880000000003
  0
LINE
  5
237
100
AcDbEntity
  8
0
  6
ByLayer
 62
    0
370
   -1
100
AcDbLine
 10
103.72595
 20
75.84880000000003
 11
89.72515000000001
 21
75.84880000000003
  0
LINE
  5
238
100
AcDbEntity
  8
0
  6
ByLayer
 62
    0
370
   -1
100
AcDbLine
 10
89.72515000000001
 20
75.84880000000003
 11
89.72515000000001
 21
89.84980000000002
  0
LINE
  5
239
100
AcDbEntity
  8
0
  6
ByLayer
 62
    0
370
   -1
100
AcDbLine
 10
70.67515
 20
89.84980000000002
 11
84.67585000000001
 21
89.84980000000002
  0
LINE
  5
23A
100
AcDbEntity
  8
0
  6
ByLayer
 62
    0
370
   -1
100
AcDbLine
 10
84.67585000000001
 20
89.84980000000002
 11
84.67585000000001
 21
75.84880000000003
  0
LINE
  5
23B
100
AcDbEntity
  8
0
  6
ByLayer
 62
    0
370
   -1
100
AcDbLine
 10
84.67585000000001
 20
75.84880000000003
 11
70.67515
 21
75.84880000000003
  0
LINE
  5
23C
100
AcDbEntity
  8
0
  6
ByLayer
 62
    0
370
   -1
100
AcDbLine
 10
70.67515
 20
75.84880000000003
 11
70.67515
 21
89.84980000000002
  0
LINE
  5
23D
100
AcDbEntity
  8
0
  6
ByLayer
 62
    0
370
   -1
100
AcDbLine
 10
51.62515
 20
89.84980000000002
 11
65.62585000000001
 21
89.84980000000002
  0
LINE
  5
23E
100
AcDbEntity
  8
0
  6
ByLayer
 62
    0
370
   -1
100
AcDbLine
 10
65.62585000000001
 20
89.84980000000002
 11
65.62585000000001
 21
75.84880000000003
  0
LINE
  5
23F
100
AcDbEntity
  8
0
  6
ByLayer
 62
    0
370
   -1
100
AcDbLine
 10
65.62585000000001
 20
75.84880000000003
 11
51.62515
 21
75.84880000000003
  0
LINE
  5
240
100
AcDbEntity
  8
0
  6
ByLayer
 62
    0
370
   -1
100
AcDbLine
 10
51.62515
 20
75.84880000000003
 11
51.62515
 21
89.84980000000002
  0
LINE
  5
241
100
AcDbEntity
  8
0
  6
ByLayer
 62
    0
370
   -1
100
AcDbLine
 10
32.57505
 20
89.84980000000002
 11
46.57585
 21
89.84980000000002
  0
LINE
  5
242
100
AcDbEntity
  8
0
  6
ByLayer
 62
    0
370
   -1
100
AcDbLine
 10
46.57585
 20
89.84980000000002
 11
46.57585
 21
75.84880000000003
  0
LINE
  5
243
100
AcDbEntity
  8
0
  6
ByLayer
 62
    0
370
   -1
100
AcDbLine
 10
46.57585
 20
75.84880000000003
 11
32.57505
 21
75.84880000000003
  0
LINE
  5
244
100
AcDbEntity
  8
0
  6
ByLayer
 62
    0
370
   -1
100
AcDbLine
 10
32.57505
 20
75.84880000000003
 11
32.57505
 21
89.84980000000002
  0
LINE
  5
245
100
AcDbEntity
  8
0
  6
ByLayer
 62
    0
370
   -1
100
AcDbLine
 10
8.761150000000001
 20
89.84980000000002
 11
22.76205
 21
89.84980000000002
  0
LINE
  5
246
100
AcDbEntity
  8
0
  6
ByLayer
 62
    0
370
   -1
100
AcDbLine
 10
22.76205
 20
89.84980000000002
 11
22.76205
 21
75.84880000000003
  0
LINE
  5
247
100
AcDbEntity
  8
0
  6
ByLayer
 62
    0
370
   -1
100
AcDbLine
 10
22.76205
 20
75.84880000000003
 11
8.761150000000001
 21
75.84880000000003
  0
LINE
  5
248
100
AcDbEntity
  8
0
  6
ByLayer
 62
    0
370
   -1
100
AcDbLine
 10
8.761150000000001
 20
75.84880000000003
 11
8.761150000000001
 21
89.84980000000002
  0
LINE
  5
249
100
AcDbEntity
  8
0
  6
ByLayer
 62
    0
370
   -1
100
AcDbLine
 10
261.17495
 20
108.8998
 11
261.17495
 21
104.1991
  0
LINE
  5
24A
100
AcDbEntity
  8
0
  6
ByLayer
 62
    0
370
   -1
100
AcDbLine
 10
261.17495
 20
104.1991
 11
259.65095
 21
104.1991
  0
LINE
  5
24B
100
AcDbEntity
  8
0
  6
ByLayer
 62
    0
370
   -1
100
AcDbLine
 10
259.65095
 20
104.1991
 11
259.65095
 21
107.4295
  0
LINE
  5
24C
100
AcDbEntity
  8
0
  6
ByLayer
 62
    0
370
   -1
100
AcDbLine
 10
259.65095
 20
107.4295
 11
257.92595
 21
107.4295
  0
LINE
  5
24D
100
AcDbEntity
  8
0
  6
ByLayer
 62
    0
370
   -1
100
AcDbLine
 10
257.92595
 20
107.4295
 11
257.92595
 21
108.3499
  0
LINE
  5
24E
100
AcDbEntity
  8
0
  6
ByLayer
 62
    0
370
   -1
100
AcDbLine
 10
257.92595
 20
108.3499
 11
254.62495
 21
108.3499
  0
LINE
  5
24F
100
AcDbEntity
  8
0
  6
ByLayer
 62
    0
370
   -1
100
AcDbLine
 10
254.62495
 20
108.3499
 11
254.62495
 21
107.4295
  0
LINE
  5
250
100
AcDbEntity
  8
0
  6
ByLayer
 62
    0
370
   -1
100
AcDbLine
 10
254.62495
 20
107.4295
 11
252.89995
 21
107.4295
  0
LINE
  5
251
100
AcDbEntity
  8
0
  6
ByLayer
 62
    0
370
   -1
100
AcDbLine
 10
252.89995
 20
107.4295
 11
252.89995
 21
104.1991
  0
LINE
  5
252
100
AcDbEntity
  8
0
  6
ByLayer
 62
    0
370
   -1
100
AcDbLine
 10
252.89995
 20
104.1991
 11
252.07595
 21
104.1991
  0
LINE
  5
253
100
AcDbEntity
  8
0
  6
ByLayer
 62
    0
370
   -1
100
AcDbLine
 10
252.07595
 20
104.1991
 11
252.07595
 21
101.3991
  0
LINE
  5
254
100
AcDbEntity
  8
0
  6
ByLayer
 62
    0
370
   -1
100
AcDbLine
 10
252.07595
 20
101.3991
 11
252.89995
 21
101.3991
  0
LINE
  5
255
100
AcDbEntity
  8
0
  6
ByLayer
 62
    0
370
   -1
100
AcDbLine
 10
252.89995
 20
101.3991
 11
252.89995
 21
95.12920000000003
  0
LINE
  5
256
100
AcDbEntity
  8
0
  6
ByLayer
 62
    0
370
   -1
100
AcDbLine
 10
252.89995
 20
95.12920000000003
 11
254.62495
 21
95.12920000000003
  0
LINE
  5
257
100
AcDbEntity
  8
0
  6
ByLayer
 62
    0
370
   -1
100
AcDbLine
 10
254.62495
 20
95.12920000000003
 11
254.62495
 21
94.14910000000002
  0
LINE
  5
258
100
AcDbEntity
  8
0
  6
ByLayer
 62
    0
370
   -1
100
AcDbLine
 10
254.62495
 20
94.14910000000002
 11
257.92595
 21
94.14910000000002
  0
LINE
  5
259
100
AcDbEntity
  8
0
  6
ByLayer
 62
    0
370
   -1
100
AcDbLine
 10
257.92595
 20
94.14910000000002
 11
257.92595
 21
95.12920000000003
  0
LINE
  5
25A
100
AcDbEntity
  8
0
  6
ByLayer
 62
    0
370
   -1
100
AcDbLine
 10
257.92595
 20
95.12920000000003
 11
259.65095
 21
95.12920000000003
  0
LINE
  5
25B
100
AcDbEntity
  8
0
  6
ByLayer
 62
    0
370
   -1
100
AcDbLine
 10
259.65095
 20
95.12920000000003
 11
259.65095
 21
99.59920000000002
  0
LINE
  5
25C
100
AcDbEntity
  8
0
  6
ByLayer
 62
    0
370
   -1
100
AcDbLine
 10
259.65095
 20
99.59920000000002
 11
261.17495
 21
99.59920000000002
  0
LINE
  5
25D
100
AcDbEntity
  8
0
  6
ByLayer
 62
    0
370
   -1
100
AcDbLine
 10
261.17495
 20
99.59920000000002
 11
261.17495
 21
94.89880000000002
  0
LINE
  5
25E
100
AcDbEntity
  8
0
  6
ByLayer
 62
    0
370
   -1
100
AcDbLine
 10
261.17495
 20
94.89880000000002
 11
275.17595
 21
94.89880000000002
  0
LINE
  5
25F
100
AcDbEntity
  8
0
  6
ByLayer
 62
    0
370
   -1
100
AcDbLine
 10
275.17595
 20
94.89880000000002
 11
275.17595
 21
99.59920000000002
  0
LINE
  5
260
100
AcDbEntity
  8
0
  6
ByLayer
 62
    0
370
   -1
100
AcDbLine
 10
275.17595
 20
99.59920000000002
 11
276.69995
 21
99.59920000000002
  0
LINE
  5
261
100
AcDbEntity
  8
0
  6
ByLayer
 62
    0
370
   -1
100
AcDbLine
 10
276.69995
 20
99.59920000000002
 11
276.69995
 21
95.12920000000003
  0
LINE
  5
262
100
AcDbEntity
  8
0
  6
ByLayer
 62
    0
370
   -1
100
AcDbLine
 10
276.69995
 20
95.12920000000003
 11
278.42495
 21
95.12920000000003
  0
LINE
  5
263
100
AcDbEntity
  8
0
  6
ByLayer
 62
    0
370
   -1
100
AcDbLine
 10
278.42495
 20
95.12920000000003
 11
278.42495
 21
94.14910000000002
  0
LINE
  5
264
100
AcDbEntity
  8
0
  6
ByLayer
 62
    0
370
   -1
100
AcDbLine
 10
278.42495
 20
94.14910000000002
 11
281.72595
 21
94.14910000000002
  0
LINE
  5
265
100
AcDbEntity
  8
0
  6
ByLayer
 62
    0
370
   -1
100
AcDbLine
 10
281.72595
 20
94.14910000000002
 11
281.72595
 21
95.12920000000003
  0
LINE
  5
266
100
AcDbEntity
  8
0
  6
ByLayer
 62
    0
370
   -1
100
AcDbLine
 10
281.72595
 20
95.12920000000003
 11
283.45095
 21
95.12920000000003
  0
LINE
  5
267
100
AcDbEntity
  8
0
  6
ByLayer
 62
    0
370
   -1
100
AcDbLine
 10
283.45095
 20
95.12920000000003
 11
283.45095
 21
101.3991
  0
LINE
  5
268
100
AcDbEntity
  8
0
  6
ByLayer
 62
    0
370
   -1
100
AcDbLine
 10
283.45095
 20
101.3991
 11
284.27495
 21
101.3991
  0
LINE
  5
269
100
AcDbEntity
  8
0
  6
ByLayer
 62
    0
370
   -1
100
AcDbLine
 10
284.27495
 20
101.3991
 11
284.27495
 21
104.1991
  0
LINE
  5
26A
100
AcDbEntity
  8
0
  6
ByLayer
 62
    0
370
   -1
100
AcDbLine
 10
284.27495
 20
104.1991
 11
283.45095
 21
104.1991
  0
LINE
  5
26B
100
AcDbEntity
  8
0
  6
ByLayer
 62
    0
370
   -1
100
AcDbLine
 10
283.45095
 20
104.1991
 11
283.45095
 21
107.4295
  0
LINE
  5
26C
100
AcDbEntity
  8
0
  6
ByLayer
 62
    0
370
   -1
100
AcDbLine
 10
283.45095
 20
107.4295
 11
281.72595
 21
107.4295
  0
LINE
  5
26D
100
AcDbEntity
  8
0
  6
ByLayer
 62
    0
370
   -1
100
AcDbLine
 10
281.72595
 20
107.4295
 11
281.72595
 21
108.3499
  0
LINE
  5
26E
100
AcDbEntity
  8
0
  6
ByLayer
 62
    0
370
   -1
100
AcDbLine
 10
281.72595
 20
108.3499
 11
278.42495
 21
108.3499
  0
LINE
  5
26F
100
AcDbEntity
  8
0
  6
ByLayer
 62
    0
370
   -1
100
AcDbLine
 10
278.42495
 20
108.3499
 11
278.42495
 21
107.4295
  0
LINE
  5
270
100
AcDbEntity
  8
0
  6
ByLayer
 62
    0
370
   -1
100
AcDbLine
 10
278.42495
 20
107.4295
 11
276.69995
 21
107.4295
  0
LINE
  5
271
100
AcDbEntity
  8
0
  6
ByLayer
 62
    0
370
   -1
100
AcDbLine
 10
276.69995
 20
107.4295
 11
276.69995
 21
104.1991
  0
LINE
  5
272
100
AcDbEntity
  8
0
  6
ByLayer
 62
    0
370
   -1
100
AcDbLine
 10
276.69995
 20
104.1991
 11
275.17595
 21
104.1991
  0
LINE
  5
273
100
AcDbEntity
  8
0
  6
ByLayer
 62
    0
370
   -1
100
AcDbLine
 10
275.17595
 20
104.1991
 11
275.17595
 21
108.8998
  0
LINE
  5
274
100
AcDbEntity
  8
0
  6
ByLayer
 62
    0
370
   -1
100
AcDbLine
 10
275.17595
 20
108.8998
 11
261.17495
 21
108.8998
  0
LINE
  5
275
100
AcDbEntity
  8
0
  6
ByLayer
 62
    0
370
   -1
100
AcDbLine
 10
421.19695
 20
108.8998
 11
435.19495
 21
108.8998
  0
LINE
  5
276
100
AcDbEntity
  8
0
  6
ByLayer
 62
    0
370
   -1
100
AcDbLine
 10
435.19495
 20
108.8998
 11
435.19495
 21
94.89880000000002
  0
LINE
  5
277
100
AcDbEntity
  8
0
  6
ByLayer
 62
    0
370
   -1
100
AcDbLine
 10
435.19495
 20
94.89880000000002
 11
421.19695
 21
94.89880000000002
  0
LINE
  5
278
100
AcDbEntity
  8
0
  6
ByLayer
 62
    0
370
   -1
100
AcDbLine
 10
421.19695
 20
94.89880000000002
 11
421.19695
 21
108.8998
  0
LINE
  5
279
100
AcDbEntity
  8
0
  6
ByLayer
 62
    0
370
   -1
100
AcDbLine
 10
402.14695
 20
108.8998
 11
416.14495
 21
108.8998
  0
LINE
  5
27A
100
AcDbEntity
  8
0
  6
ByLayer
 62
    0
370
   -1
100
AcDbLine
 10
416.14495
 20
108.8998
 11
416.14495
 21
94.89880000000002
  0
LINE
  5
27B
100
AcDbEntity
  8
0
  6
ByLayer
 62
    0
370
   -1
100
AcDbLine
 10
416.14495
 20
94.89880000000002
 11
402.14695
 21
94.89880000000002
  0
LINE
  5
27C
100
AcDbEntity
  8
0
  6
ByLayer
 62
    0
370
   -1
100
AcDbLine
 10
402.14695
 20
94.89880000000002
 11
402.14695
 21
108.8998
  0
LINE
  5
27D
100
AcDbEntity
  8
0
  6
ByLayer
 62
    0
370
   -1
100
AcDbLine
 10
383.09695
 20
108.8998
 11
397.09495
 21
108.8998
  0
LINE
  5
27E
100
AcDbEntity
  8
0
  6
ByLayer
 62
    0
370
   -1
100
AcDbLine
 10
397.09495
 20
108.8998
 11
397.09495
 21
94.89880000000002
  0
LINE
  5
27F
100
AcDbEntity
  8
0
  6
ByLayer
 62
    0
370
   -1
100
AcDbLine
 10
397.09495
 20
94.89880000000002
 11
383.09695
 21
94.89880000000002
  0
LINE
  5
280
100
AcDbEntity
  8
0
  6
ByLayer
 62
    0
370
   -1
100
AcDbLine
 10
383.09695
 20
94.89880000000002
 11
383.09695
 21
108.8998
  0
LINE
  5
281
100
AcDbEntity
  8
0
  6
ByLayer
 62
    0
370
   -1
100
AcDbLine
 10
364.04695
 20
108.8998
 11
378.04495
 21
108.8998
  0
LINE
  5
282
100
AcDbEntity
  8
0
  6
ByLayer
 62
    0
370
   -1
100
AcDbLine
 10
378.04495
 20
108.8998
 11
378.04495
 21
94.89880000000002
  0
LINE
  5
283
100
AcDbEntity
  8
0
  6
ByLayer
 62
    0
370
   -1
100
AcDbLine
 10
378.04495
 20
94.89880000000002
 11
364.04695
 21
94.89880000000002
  0
LINE
  5
284
100
AcDbEntity
  8
0
  6
ByLayer
 62
    0
370
   -1
100
AcDbLine
 10
364.04695
 20
94.89880000000002
 11
364.04695
 21
108.8998
  0
LINE
  5
285
100
AcDbEntity
  8
0
  6
ByLayer
 62
    0
370
   -1
100
AcDbLine
 10
336.42295
 20
108.8998
 11
350.42195
 21
108.8998
  0
LINE
  5
286
100
AcDbEntity
  8
0
  6
ByLayer
 62
    0
370
   -1
100
AcDbLine
 10
350.42195
 20
108.8998
 11
350.42195
 21
94.89880000000002
  0
LINE
  5
287
100
AcDbEntity
  8
0
  6
ByLayer
 62
    0
370
   -1
100
AcDbLine
 10
350.42195
 20
94.89880000000002
 11
336.42295
 21
94.89880000000002
  0
LINE
  5
288
100
AcDbEntity
  8
0
  6
ByLayer
 62
    0
370
   -1
100
AcDbLine
 10
336.42295
 20
94.89880000000002
 11
336.42295
 21
108.8998
  0
LINE
  5
289
100
AcDbEntity
  8
0
  6
ByLayer
 62
    0
370
   -1
100
AcDbLine
 10
317.37295
 20
108.8998
 11
331.37195
 21
108.8998
  0
LINE
  5
28A
100
AcDbEntity
  8
0
  6
ByLayer
 62
    0
370
   -1
100
AcDbLine
 10
331.37195
 20
108.8998
 11
331.37195
 21
94.89880000000002
  0
LINE
  5
28B
100
AcDbEntity
  8
0
  6
ByLayer
 62
    0
370
   -1
100
AcDbLine
 10
331.37195
 20
94.89880000000002
 11
317.37295
 21
94.89880000000002
  0
LINE
  5
28C
100
AcDbEntity
  8
0
  6
ByLayer
 62
    0
370
   -1
100
AcDbLine
 10
317.37295
 20
94.89880000000002
 11
317.37295
 21
108.8998
  0
LINE
  5
28D
100
AcDbEntity
  8
0
  6
ByLayer
 62
    0
370
   -1
100
AcDbLine
 10
298.32295
 20
108.8998
 11
312.32195
 21
108.8998
  0
LINE
  5
28E
100
AcDbEntity
  8
0
  6
ByLayer
 62
    0
370
   -1
100
AcDbLine
 10
312.32195
 20
108.8998
 11
312.32195
 21
94.89880000000002
  0
LINE
  5
28F
100
AcDbEntity
  8
0
  6
ByLayer
 62
    0
370
   -1
100
AcDbLine
 10
312.32195
 20
94.89880000000002
 11
298.32295
 21
94.89880000000002
  0
LINE
  5
290
100
AcDbEntity
  8
0
  6
ByLayer
 62
    0
370
   -1
100
AcDbLine
 10
298.32295
 20
94.89880000000002
 11
298.32295
 21
108.8998
  0
LINE
  5
291
100
AcDbEntity
  8
0
  6
ByLayer
 62
    0
370
   -1
100
AcDbLine
 10
232.59995
 20
108.8998
 11
246.60095
 21
108.8998
  0
LINE
  5
292
100
AcDbEntity
  8
0
  6
ByLayer
 62
    0
370
   -1
100
AcDbLine
 10
246.60095
 20
108.8998
 11
246.60095
 21
94.89880000000002
  0
LINE
  5
293
100
AcDbEntity
  8
0
  6
ByLayer
 62
    0
370
   -1
100
AcDbLine
 10
246.60095
 20
94.89880000000002
 11
232.59995
 21
94.89880000000002
  0
LINE
  5
294
100
AcDbEntity
  8
0
  6
ByLayer
 62
    0
370
   -1
100
AcDbLine
 10
232.59995
 20
94.89880000000002
 11
232.59995
 21
108.8998
  0
LINE
  5
295
100
AcDbEntity
  8
0
  6
ByLayer
 62
    0
370
   -1
100
AcDbLine
 10
213.54995
 20
108.8998
 11
227.55095
 21
108.8998
  0
LINE
  5
296
100
AcDbEntity
  8
0
  6
ByLayer
 62
    0
370
   -1
100
AcDbLine
 10
227.55095
 20
108.8998
 11
227.55095
 21
94.89880000000002
  0
LINE
  5
297
100
AcDbEntity
  8
0
  6
ByLayer
 62
    0
370
   -1
100
AcDbLine
 10
227.55095
 20
94.89880000000002
 11
213.54995
 21
94.89880000000002
  0
LINE
  5
298
100
AcDbEntity
  8
0
  6
ByLayer
 62
    0
370
   -1
100
AcDbLine
 10
213.54995
 20
94.89880000000002
 11
213.54995
 21
108.8998
  0
LINE
  5
299
100
AcDbEntity
  8
0
  6
ByLayer
 62
    0
370
   -1
100
AcDbLine
 10
194.49995
 20
108.8998
 11
208.50095
 21
108.8998
  0
LINE
  5
29A
100
AcDbEntity
  8
0
  6
ByLayer
 62
    0
370
   -1
100
AcDbLine
 10
208.50095
 20
108.8998
 11
208.50095
 21
94.89880000000002
  0
LINE
  5
29B
100
AcDbEntity
  8
0
  6
ByLayer
 62
    0
370
   -1
100
AcDbLine
 10
208.50095
 20
94.89880000000002
 11
194.49995
 21
94.89880000000002
  0
LINE
  5
29C
100
AcDbEntity
  8
0
  6
ByLayer
 62
    0
370
   -1
100
AcDbLine
 10
194.49995
 20
94.89880000000002
 11
194.49995
 21
108.8998
  0
LINE
  5
29D
100
AcDbEntity
  8
0
  6
ByLayer
 62
    0
370
   -1
100
AcDbLine
 10
175.44995
 20
108.8998
 11
189.45095
 21
108.8998
  0
LINE
  5
29E
100
AcDbEntity
  8
0
  6
ByLayer
 62
    0
370
   -1
100
AcDbLine
 10
189.45095
 20
108.8998
 11
189.45095
 21
94.89880000000002
  0
LINE
  5
29F
100
AcDbEntity
  8
0
  6
ByLayer
 62
    0
370
   -1
100
AcDbLine
 10
189.45095
 20
94.89880000000002
 11
175.44995
 21
94.89880000000002
  0
LINE
  5
2A0
100
AcDbEntity
  8
0
  6
ByLayer
 62
    0
370
   -1
100
AcDbLine
 10
175.44995
 20
94.89880000000002
 11
175.44995
 21
108.8998
  0
LINE
  5
2A1
100
AcDbEntity
  8
0
  6
ByLayer
 62
    0
370
   -1
100
AcDbLine
 10
156.39995
 20
108.8998
 11
170.40095
 21
108.8998
  0
LINE
  5
2A2
100
AcDbEntity
  8
0
  6
ByLayer
 62
    0
370
   -1
100
AcDbLine
 10
170.40095
 20
108.8998
 11
170.40095
 21
94.89880000000002
  0
LINE
  5
2A3
100
AcDbEntity
  8
0
  6
ByLayer
 62
    0
370
   -1
100
AcDbLine
 10
170.40095
 20
94.89880000000002
 11
156.39995
 21
94.89880000000002
  0
LINE
  5
2A4
100
AcDbEntity
  8
0
  6
ByLayer
 62
    0
370
   -1
100
AcDbLine
 10
156.39995
 20
94.89880000000002
 11
156.39995
 21
108.8998
  0
LINE
  5
2A5
100
AcDbEntity
  8
0
  6
ByLayer
 62
    0
370
   -1
100
AcDbLine
 10
137.34995
 20
108.8998
 11
151.35095
 21
108.8998
  0
LINE
  5
2A6
100
AcDbEntity
  8
0
  6
ByLayer
 62
    0
370
   -1
100
AcDbLine
 10
151.35095
 20
108.8998
 11
151.35095
 21
94.89880000000002
  0
LINE
  5
2A7
100
AcDbEntity
  8
0
  6
ByLayer
 62
    0
370
   -1
100
AcDbLine
 10
151.35095
 20
94.89880000000002
 11
137.34995
 21
94.89880000000002
  0
LINE
  5
2A8
100
AcDbEntity
  8
0
  6
ByLayer
 62
    0
370
   -1
100
AcDbLine
 10
137.34995
 20
94.89880000000002
 11
137.34995
 21
108.8998
  0
LINE
  5
2A9
100
AcDbEntity
  8
0
  6
ByLayer
 62
    0
370
   -1
100
AcDbLine
 10
118.29995
 20
108.8998
 11
132.30095
 21
108.8998
  0
LINE
  5
2AA
100
AcDbEntity
  8
0
  6
ByLayer
 62
    0
370
   -1
100
AcDbLine
 10
132.30095
 20
108.8998
 11
132.30095
 21
94.89880000000002
  0
LINE
  5
2AB
100
AcDbEntity
  8
0
  6
ByLayer
 62
    0
370
   -1
100
AcDbLine
 10
132.30095
 20
94.89880000000002
 11
118.29995
 21
94.89880000000002
  0
LINE
  5
2AC
100
AcDbEntity
  8
0
  6
ByLayer
 62
    0
370
   -1
100
AcDbLine
 10
118.29995
 20
94.89880000000002
 11
118.29995
 21
108.8998
  0
LINE
  5
2AD
100
AcDbEntity
  8
0
  6
ByLayer
 62
    0
370
   -1
100
AcDbLine
 10
99.24995000000001
 20
108.8998
 11
113.24995
 21
108.8998
  0
LINE
  5
2AE
100
AcDbEntity
  8
0
  6
ByLayer
 62
    0
370
   -1
100
AcDbLine
 10
113.24995
 20
108.8998
 11
113.24995
 21
94.89880000000002
  0
LINE
  5
2AF
100
AcDbEntity
  8
0
  6
ByLayer
 62
    0
370
   -1
100
AcDbLine
 10
113.24995
 20
94.89880000000002
 11
99.24995000000001
 21
94.89880000000002
  0
LINE
  5
2B0
100
AcDbEntity
  8
0
  6
ByLayer
 62
    0
370
   -1
100
AcDbLine
 10
99.24995000000001
 20
94.89880000000002
 11
99.24995000000001
 21
108.8998
  0
LINE
  5
2B1
100
AcDbEntity
  8
0
  6
ByLayer
 62
    0
370
   -1
100
AcDbLine
 10
80.20015000000001
 20
108.8998
 11
94.20085
 21
108.8998
  0
LINE
  5
2B2
100
AcDbEntity
  8
0
  6
ByLayer
 62
    0
370
   -1
100
AcDbLine
 10
94.20085
 20
108.8998
 11
94.20085
 21
94.89880000000002
  0
LINE
  5
2B3
100
AcDbEntity
  8
0
  6
ByLayer
 62
    0
370
   -1
100
AcDbLine
 10
94.20085
 20
94.89880000000002
 11
80.20015000000001
 21
94.89880000000002
  0
LINE
  5
2B4
100
AcDbEntity
  8
0
  6
ByLayer
 62
    0
370
   -1
100
AcDbLine
 10
80.20015000000001
 20
94.89880000000002
 11
80.20015000000001
 21
108.8998
  0
LINE
  5
2B5
100
AcDbEntity
  8
0
  6
ByLayer
 62
    0
370
   -1
100
AcDbLine
 10
61.15015
 20
108.8998
 11
75.15085000000001
 21
108.8998
  0
LINE
  5
2B6
100
AcDbEntity
  8
0
  6
ByLayer
 62
    0
370
   -1
100
AcDbLine
 10
75.15085000000001
 20
108.8998
 11
75.15085000000001
 21
94.89880000000002
  0
LINE
  5
2B7
100
AcDbEntity
  8
0
  6
ByLayer
 62
    0
370
   -1
100
AcDbLine
 10
75.15085000000001
 20
94.89880000000002
 11
61.15015
 21
94.89880000000002
  0
LINE
  5
2B8
100
AcDbEntity
  8
0
  6
ByLayer
 62
    0
370
   -1
100
AcDbLine
 10
61.15015
 20
94.89880000000002
 11
61.15015
 21
108.8998
  0
LINE
  5
2B9
100
AcDbEntity
  8
0
  6
ByLayer
 62
    0
370
   -1
100
AcDbLine
 10
42.10015
 20
108.8998
 11
56.10085
 21
108.8998
  0
LINE
  5
2BA
100
AcDbEntity
  8
0
  6
ByLayer
 62
    0
370
   -1
100
AcDbLine
 10
56.10085
 20
108.8998
 11
56.10085
 21
94.89880000000002
  0
LINE
  5
2BB
100
AcDbEntity
  8
0
  6
ByLayer
 62
    0
370
   -1
100
AcDbLine
 10
56.10085
 20
94.89880000000002
 11
42.10015
 21
94.89880000000002
  0
LINE
  5
2BC
100
AcDbEntity
  8
0
  6
ByLayer
 62
    0
370
   -1
100
AcDbLine
 10
42.10015
 20
94.89880000000002
 11
42.10015
 21
108.8998
  0
LINE
  5
2BD
100
AcDbEntity
  8
0
  6
ByLayer
 62
    0
370
   -1
100
AcDbLine
 10
23.05005000000001
 20
108.8998
 11
37.05085
 21
108.8998
  0
LINE
  5
2BE
100
AcDbEntity
  8
0
  6
ByLayer
 62
    0
370
   -1
100
AcDbLine
 10
37.05085
 20
108.8998
 11
37.05085
 21
94.89880000000002
  0
LINE
  5
2BF
100
AcDbEntity
  8
0
  6
ByLayer
 62
    0
370
   -1
100
AcDbLine
 10
37.05085
 20
94.89880000000002
 11
23.05005000000001
 21
94.89880000000002
  0
LINE
  5
2C0
100
AcDbEntity
  8
0
  6
ByLayer
 62
    0
370
   -1
100
AcDbLine
 10
23.05005000000001
 20
94.89880000000002
 11
23.05005000000001
 21
108.8998
  0
LINE
  5
2C1
100
AcDbEntity
  8
0
  6
ByLayer
 62
    0
370
   -1
100
AcDbLine
 10
4.000040000000002
 20
108.8998
 11
18.00095
 21
108.8998
  0
LINE
  5
2C2
100
AcDbEntity
  8
0
  6
ByLayer
 62
    0
370
   -1
100
AcDbLine
 10
18.00095
 20
108.8998
 11
18.00095
 21
94.89880000000002
  0
LINE
  5
2C3
100
AcDbEntity
  8
0
  6
ByLayer
 62
    0
370
   -1
100
AcDbLine
 10
18.00095
 20
94.89880000000002
 11
4.000040000000002
 21
94.89880000000002
  0
LINE
  5
2C4
100
AcDbEntity
  8
0
  6
ByLayer
 62
    0
370
   -1
100
AcDbLine
 10
4.000040000000002
 20
94.89880000000002
 11
4.000040000000002
 21
108.8998
  0
LINE
  5
2C5
100
AcDbEntity
  8
0
  6
ByLayer
 62
    0
370
   -1
100
AcDbLine
 10
421.19695
 20
147
 11
435.19495
 21
147
  0
LINE
  5
2C6
100
AcDbEntity
  8
0
  6
ByLayer
 62
    0
370
   -1
100
AcDbLine
 10
435.19495
 20
147
 11
435.19495
 21
132.999
  0
LINE
  5
2C7
100
AcDbEntity
  8
0
  6
ByLayer
 62
    0
370
   -1
100
AcDbLine
 10
435.19495
 20
132.999
 11
421.19695
 21
132.999
  0
LINE
  5
2C8
100
AcDbEntity
  8
0
  6
ByLayer
 62
    0
370
   -1
100
AcDbLine
 10
421.19695
 20
132.999
 11
421.19695
 21
147
  0
LINE
  5
2C9
100
AcDbEntity
  8
0
  6
ByLayer
 62
    0
370
   -1
100
AcDbLine
 10
336.42295
 20
147
 11
350.42195
 21
147
  0
LINE
  5
2CA
100
AcDbEntity
  8
0
  6
ByLayer
 62
    0
370
   -1
100
AcDbLine
 10
350.42195
 20
147
 11
350.42195
 21
132.999
  0
LINE
  5
2CB
100
AcDbEntity
  8
0
  6
ByLayer
 62
    0
370
   -1
100
AcDbLine
 10
350.42195
 20
132.999
 11
336.42295
 21
132.999
  0
LINE
  5
2CC
100
AcDbEntity
  8
0
  6
ByLayer
 62
    0
370
   -1
100
AcDbLine
 10
336.42295
 20
132.999
 11
336.42295
 21
147
  0
LINE
  5
2CD
100
AcDbEntity
  8
0
  6
ByLayer
 62
    0
370
   -1
100
AcDbLine
 10
317.37295
 20
147
 11
331.37195
 21
147
  0
LINE
  5
2CE
100
AcDbEntity
  8
0
  6
ByLayer
 62
    0
370
   -1
100
AcDbLine
 10
331.37195
 20
147
 11
331.37195
 21
132.999
  0
LINE
  5
2CF
100
AcDbEntity
  8
0
  6
ByLayer
 62
    0
370
   -1
100
AcDbLine
 10
331.37195
 20
132.999
 11
317.37295
 21
132.999
  0
LINE
  5
2D0
100
AcDbEntity
  8
0
  6
ByLayer
 62
    0
370
   -1
100
AcDbLine
 10
317.37295
 20
132.999
 11
317.37295
 21
147
  0
LINE
  5
2D1
100
AcDbEntity
  8
0
  6
ByLayer
 62
    0
370
   -1
100
AcDbLine
 10
298.32295
 20
147
 11
312.32195
 21
147
  0
LINE
  5
2D2
100
AcDbEntity
  8
0
  6
ByLayer
 62
    0
370
   -1
100
AcDbLine
 10
312.32195
 20
147
 11
312.32195
 21
132.999
  0
LINE
  5
2D3
100
AcDbEntity
  8
0
  6
ByLayer
 62
    0
370
   -1
100
AcDbLine
 10
312.32195
 20
132.999
 11
298.32295
 21
132.999
  0
LINE
  5
2D4
100
AcDbEntity
  8
0
  6
ByLayer
 62
    0
370
   -1
100
AcDbLine
 10
298.32295
 20
132.999
 11
298.32295
 21
147
  0
LINE
  5
2D5
100
AcDbEntity
  8
0
  6
ByLayer
 62
    0
370
   -1
100
AcDbLine
 10
270.69995
 20
147
 11
284.70095
 21
147
  0
LINE
  5
2D6
100
AcDbEntity
  8
0
  6
ByLayer
 62
    0
370
   -1
100
AcDbLine
 10
284.70095
 20
147
 11
284.70095
 21
132.999
  0
LINE
  5
2D7
100
AcDbEntity
  8
0
  6
ByLayer
 62
    0
370
   -1
100
AcDbLine
 10
284.70095
 20
132.999
 11
270.69995
 21
132.999
  0
LINE
  5
2D8
100
AcDbEntity
  8
0
  6
ByLayer
 62
    0
370
   -1
100
AcDbLine
 10
270.69995
 20
132.999
 11
270.69995
 21
147
  0
LINE
  5
2D9
100
AcDbEntity
  8
0
  6
ByLayer
 62
    0
370
   -1
100
AcDbLine
 10
251.64995
 20
147
 11
265.65095
 21
147
  0
LINE
  5
2DA
100
AcDbEntity
  8
0
  6
ByLayer
 62
    0
370
   -1
100
AcDbLine
 10
265.65095
 20
147
 11
265.65095
 21
132.999
  0
LINE
  5
2DB
100
AcDbEntity
  8
0
  6
ByLayer
 62
    0
370
   -1
100
AcDbLine
 10
265.65095
 20
132.999
 11
251.64995
 21
132.999
  0
LINE
  5
2DC
100
AcDbEntity
  8
0
  6
ByLayer
 62
    0
370
   -1
100
AcDbLine
 10
251.64995
 20
132.999
 11
251.64995
 21
147
  0
LINE
  5
2DD
100
AcDbEntity
  8
0
  6
ByLayer
 62
    0
370
   -1
100
AcDbLine
 10
232.59995
 20
147
 11
246.60095
 21
147
  0
LINE
  5
2DE
100
AcDbEntity
  8
0
  6
ByLayer
 62
    0
370
   -1
100
AcDbLine
 10
246.60095
 20
147
 11
246.60095
 21
132.999
  0
LINE
  5
2DF
100
AcDbEntity
  8
0
  6
ByLayer
 62
    0
370
   -1
100
AcDbLine
 10
246.60095
 20
132.999
 11
232.59995
 21
132.999
  0
LINE
  5
2E0
100
AcDbEntity
  8
0
  6
ByLayer
 62
    0
370
   -1
100
AcDbLine
 10
232.59995
 20
132.999
 11
232.59995
 21
147
  0
LINE
  5
2E1
100
AcDbEntity
  8
0
  6
ByLayer
 62
    0
370
   -1
100
AcDbLine
 10
213.54995
 20
147
 11
227.55095
 21
147
  0
LINE
  5
2E2
100
AcDbEntity
  8
0
  6
ByLayer
 62
    0
370
   -1
100
AcDbLine
 10
227.55095
 20
147
 11
227.55095
 21
132.999
  0
LINE
  5
2E3
100
AcDbEntity
  8
0
  6
ByLayer
 62
    0
370
   -1
100
AcDbLine
 10
227.55095
 20
132.999
 11
213.54995
 21
132.999
  0
LINE
  5
2E4
100
AcDbEntity
  8
0
  6
ByLayer
 62
    0
370
   -1
100
AcDbLine
 10
213.54995
 20
132.999
 11
213.54995
 21
147
  0
LINE
  5
2E5
100
AcDbEntity
  8
0
  6
ByLayer
 62
    0
370
   -1
100
AcDbLine
 10
184.97495
 20
147
 11
198.97595
 21
147
  0
LINE
  5
2E6
100
AcDbEntity
  8
0
  6
ByLayer
 62
    0
370
   -1
100
AcDbLine
 10
198.97595
 20
147
 11
198.97595
 21
132.999
  0
LINE
  5
2E7
100
AcDbEntity
  8
0
  6
ByLayer
 62
    0
370
   -1
100
AcDbLine
 10
198.97595
 20
132.999
 11
184.97495
 21
132.999
  0
LINE
  5
2E8
100
AcDbEntity
  8
0
  6
ByLayer
 62
    0
370
   -1
100
AcDbLine
 10
184.97495
 20
132.999
 11
184.97495
 21
147
  0
LINE
  5
2E9
100
AcDbEntity
  8
0
  6
ByLayer
 62
    0
370
   -1
100
AcDbLine
 10
165.92495
 20
147
 11
179.92595
 21
147
  0
LINE
  5
2EA
100
AcDbEntity
  8
0
  6
ByLayer
 62
    0
370
   -1
100
AcDbLine
 10
179.92595
 20
147
 11
179.92595
 21
132.999
  0
LINE
  5
2EB
100
AcDbEntity
  8
0
  6
ByLayer
 62
    0
370
   -1
100
AcDbLine
 10
179.92595
 20
132.999
 11
165.92495
 21
132.999
  0
LINE
  5
2EC
100
AcDbEntity
  8
0
  6
ByLayer
 62
    0
370
   -1
100
AcDbLine
 10
165.92495
 20
132.999
 11
165.92495
 21
147
  0
LINE
  5
2ED
100
AcDbEntity
  8
0
  6
ByLayer
 62
    0
370
   -1
100
AcDbLine
 10
146.87495
 20
147
 11
160.87595
 21
147
  0
LINE
  5
2EE
100
AcDbEntity
  8
0
  6
ByLayer
 62
    0
370
   -1
100
AcDbLine
 10
160.87595
 20
147
 11
160.87595
 21
132.999
  0
LINE
  5
2EF
100
AcDbEntity
  8
0
  6
ByLayer
 62
    0
370
   -1
100
AcDbLine
 10
160.87595
 20
132.999
 11
146.87495
 21
132.999
  0
LINE
  5
2F0
100
AcDbEntity
  8
0
  6
ByLayer
 62
    0
370
   -1
100
AcDbLine
 10
146.87495
 20
132.999
 11
146.87495
 21
147
  0
LINE
  5
2F1
100
AcDbEntity
  8
0
  6
ByLayer
 62
    0
370
   -1
100
AcDbLine
 10
127.82495
 20
147
 11
141.82595
 21
147
  0
LINE
  5
2F2
100
AcDbEntity
  8
0
  6
ByLayer
 62
    0
370
   -1
100
AcDbLine
 10
141.82595
 20
147
 11
141.82595
 21
132.999
  0
LINE
  5
2F3
100
AcDbEntity
  8
0
  6
ByLayer
 62
    0
370
   -1
100
AcDbLine
 10
141.82595
 20
132.999
 11
127.82495
 21
132.999
  0
LINE
  5
2F4
100
AcDbEntity
  8
0
  6
ByLayer
 62
    0
370
   -1
100
AcDbLine
 10
127.82495
 20
132.999
 11
127.82495
 21
147
  0
LINE
  5
2F5
100
AcDbEntity
  8
0
  6
ByLayer
 62
    0
370
   -1
100
AcDbLine
 10
99.24995000000001
 20
147
 11
113.24995
 21
147
  0
LINE
  5
2F6
100
AcDbEntity
  8
0
  6
ByLayer
 62
    0
370
   -1
100
AcDbLine
 10
113.24995
 20
147
 11
113.24995
 21
132.999
  0
LINE
  5
2F7
100
AcDbEntity
  8
0
  6
ByLayer
 62
    0
370
   -1
100
AcDbLine
 10
113.24995
 20
132.999
 11
99.24995000000001
 21
132.999
  0
LINE
  5
2F8
100
AcDbEntity
  8
0
  6
ByLayer
 62
    0
370
   -1
100
AcDbLine
 10
99.24995000000001
 20
132.999
 11
99.24995000000001
 21
147
  0
LINE
  5
2F9
100
AcDbEntity
  8
0
  6
ByLayer
 62
    0
370
   -1
100
AcDbLine
 10
80.20015000000001
 20
147
 11
94.20085
 21
147
  0
LINE
  5
2FA
100
AcDbEntity
  8
0
  6
ByLayer
 62
    0
370
   -1
100
AcDbLine
 10
94.20085
 20
147
 11
94.20085
 21
132.999
  0
LINE
  5
2FB
100
AcDbEntity
  8
0
  6
ByLayer
 62
    0
370
   -1
100
AcDbLine
 10
94.20085
 20
132.999
 11
80.20015000000001
 21
132.999
  0
LINE
  5
2FC
100
AcDbEntity
  8
0
  6
ByLayer
 62
    0
370
   -1
100
AcDbLine
 10
80.20015000000001
 20
132.999
 11
80.20015000000001
 21
147
  0
LINE
  5
2FD
100
AcDbEntity
  8
0
  6
ByLayer
 62
    0
370
   -1
100
AcDbLine
 10
61.15015
 20
147
 11
75.15085000000001
 21
147
  0
LINE
  5
2FE
100
AcDbEntity
  8
0
  6
ByLayer
 62
    0
370
   -1
100
AcDbLine
 10
75.15085000000001
 20
147
 11
75.15085000000001
 21
132.999
  0
LINE
  5
2FF
100
AcDbEntity
  8
0
  6
ByLayer
 62
    0
370
   -1
100
AcDbLine
 10
75.15085000000001
 20
132.999
 11
61.15015
 21
132.999
  0
LINE
  5
300
100
AcDbEntity
  8
0
  6
ByLayer
 62
    0
370
   -1
100
AcDbLine
 10
61.15015
 20
132.999
 11
61.15015
 21
147
  0
LINE
  5
301
100
AcDbEntity
  8
0
  6
ByLayer
 62
    0
370
   -1
100
AcDbLine
 10
42.10015
 20
147
 11
56.10085
 21
147
  0
LINE
  5
302
100
AcDbEntity
  8
0
  6
ByLayer
 62
    0
370
   -1
100
AcDbLine
 10
56.10085
 20
147
 11
56.10085
 21
132.999
  0
LINE
  5
303
100
AcDbEntity
  8
0
  6
ByLayer
 62
    0
370
   -1
100
AcDbLine
 10
56.10085
 20
132.999
 11
42.10015
 21
132.999
  0
LINE
  5
304
100
AcDbEntity
  8
0
  6
ByLayer
 62
    0
370
   -1
100
AcDbLine
 10
42.10015
 20
132.999
 11
42.10015
 21
147
  0
LINE
  5
305
100
AcDbEntity
  8
0
  6
ByLayer
 62
    0
370
   -1
100
AcDbLine
 10
4.000040000000002
 20
147
 11
18.00095
 21
147
  0
LINE
  5
306
100
AcDbEntity
  8
0
  6
ByLayer
 62
    0
370
   -1
100
AcDbLine
 10
18.00095
 20
147
 11
18.00095
 21
132.999
  0
LINE
  5
307
100
AcDbEntity
  8
0
  6
ByLayer
 62
    0
370
   -1
100
AcDbLine
 10
18.00095
 20
132.999
 11
4.000040000000002
 21
132.999
  0
LINE
  5
308
100
AcDbEntity
  8
0
  6
ByLayer
 62
    0
370
   -1
100
AcDbLine
 10
4.000040000000002
 20
132.999
 11
4.000040000000002
 21
147
  0
LINE
  5
309
100
AcDbEntity
  8
0
  6
ByLayer
 62
    0
370
   -1
100
AcDbLine
 10
6
 20
12.70662500000003
 11
5.530100000000001
 21
12.72591700000001
  0
LINE
  5
30A
100
AcDbEntity
  8
0
  6
ByLayer
 62
    0
370
   -1
100
AcDbLine
 10
5.530100000000001
 20
12.72591700000001
 11
5.061570000000001
 21
12.78104000000002
  0
LINE
  5
30B
100
AcDbEntity
  8
0
  6
ByLayer
 62
    0
370
   -1
100
AcDbLine
 10
5.061570000000001
 20
12.78104000000002
 11
4.599930000000001
 21
12.87336600000003
  0
LINE
  5
30C
100
AcDbEntity
  8
0
  6
ByLayer
 62
    0
370
   -1
100
AcDbLine
 10
4.599930000000001
 20
12.87336600000003
 11
4.145160000000001
 21
13.00152600000001
  0
LINE
  5
30D
100
AcDbEntity
  8
0
  6
ByLayer
 62
    0
370
   -1
100
AcDbLine
 10
4.145160000000001
 20
13.00152600000001
 11
3.702810000000002
 21
13.16413200000002
  0
LINE
  5
30E
100
AcDbEntity
  8
0
  6
ByLayer
 62
    0
370
   -1
100
AcDbLine
 10
3.702810000000002
 20
13.16413200000002
 11
3.277010000000001
 21
13.36119400000001
  0
LINE
  5
30F
100
AcDbEntity
  8
0
  6
ByLayer
 62
    0
370
   -1
100
AcDbLine
 10
3.277010000000001
 20
13.36119400000001
 11
2.864980000000001
 21
13.59133000000003
  0
LINE
  5
310
100
AcDbEntity
  8
0
  6
ByLayer
 62
    0
370
   -1
100
AcDbLine
 10
2.864980000000001
 20
13.59133000000003
 11
2.473610000000001
 21
13.85315000000003
  0
LINE
  5
311
100
AcDbEntity
  8
0
  6
ByLayer
 62
    0
370
   -1
100
AcDbLine
 10
2.473610000000001
 20
13.85315000000003
 11
2.102920000000001
 21
14.14530000000002
  0
LINE
  5
312
100
AcDbEntity
  8
0
  6
ByLayer
 62
    0
370
   -1
100
AcDbLine
 10
2.102920000000001
 20
14.14530000000002
 11
1.75703
 21
14.46500000000003
  0
LINE
  5
313
100
AcDbEntity
  8
0
  6
ByLayer
 62
    0
370
   -1
100
AcDbLine
 10
1.75703
 20
14.46500000000003
 11
1.437330000000001
 21
14.81089000000003
  0
LINE
  5
314
100
AcDbEntity
  8
0
  6
ByLayer
 62
    0
370
   -1
100
AcDbLine
 10
1.437330000000001
 20
14.81089000000003
 11
1.145190000000001
 21
15.18158000000003
  0
LINE
  5
315
100
AcDbEntity
  8
0
  6
ByLayer
 62
    0
370
   -1
100
AcDbLine
 10
1.145190000000001
 20
15.18158000000003
 11
0.8847340000000017
 21
15.57294000000002
  0
LINE
  5
316
100
AcDbEntity
  8
0
  6
ByLayer
 62
    0
370
   -1
100
AcDbLine
 10
0.8847340000000017
 20
15.57294000000002
 11
0.6532230000000006
 21
15.98362000000003
  0
LINE
  5
317
100
AcDbEntity
  8
0
  6
ByLayer
 62
    0
370
   -1
100
AcDbLine
 10
0.6532230000000006
 20
15.98362000000003
 11
0.4561650000000013
 21
16.41080000000002
  0
LINE
  5
318
100
AcDbEntity
  8
0
  6
ByLayer
 62
    0
370
   -1
100
AcDbLine
 10
0.4561650000000013
 20
16.41080000000002
 11
0.2935560000000006
 21
16.85314000000002
  0
LINE
  5
319
100
AcDbEntity
  8
0
  6
ByLayer
 62
    0
370
   -1
100
AcDbLine
 10
0.2935560000000006
 20
16.85314000000002
 11
0.1653990000000007
 21
17.30653000000001
  0
LINE
  5
31A
100
AcDbEntity
  8
0
  6
ByLayer
 62
    0
370
   -1
100
AcDbLine
 10
0.1653990000000007
 20
17.30653000000001
 11
0.07307100000000144
 21
17.76955000000001
  0
LINE
  5
31B
100
AcDbEntity
  8
0
  6
ByLayer
 62
    0
370
   -1
100
AcDbLine
 10
0.07307100000000144
 20
17.76955000000001
 11
0.01794900000000155
 21
18.23670000000001
  0
LINE
  5
31C
100
AcDbEntity
  8
0
  6
ByLayer
 62
    0
370
   -1
100
AcDbLine
 10
0.01794900000000155
 20
18.23670000000001
 11
3.460000000110597e-05
 21
18.70798000000002
  0
LINE
  5
31D
100
AcDbEntity
  8
0
  6
ByLayer
 62
    0
370
   -1
100
AcDbLine
 10
439.19595
 20
18.70660000000001
 11
439.17895
 21
18.23670000000001
  0
LINE
  5
31E
100
AcDbEntity
  8
0
  6
ByLayer
 62
    0
370
   -1
100
AcDbLine
 10
439.17895
 20
18.23670000000001
 11
439.12195
 21
17.76955000000001
  0
LINE
  5
31F
100
AcDbEntity
  8
0
  6
ByLayer
 62
    0
370
   -1
100
AcDbLine
 10
439.12195
 20
17.76955000000001
 11
439.02995
 21
17.30653000000001
  0
LINE
  5
320
100
AcDbEntity
  8
0
  6
ByLayer
 62
    0
370
   -1
100
AcDbLine
 10
439.02995
 20
17.30653000000001
 11
438.90295
 21
16.85314000000002
  0
LINE
  5
321
100
AcDbEntity
  8
0
  6
ByLayer
 62
    0
370
   -1
100
AcDbLine
 10
438.90295
 20
16.85314000000002
 11
438.73795
 21
16.41080000000002
  0
LINE
  5
322
100
AcDbEntity
  8
0
  6
ByLayer
 62
    0
370
   -1
100
AcDbLine
 10
438.73795
 20
16.41080000000002
 11
438.5439500000001
 21
15.98362000000003
  0
LINE
  5
323
100
AcDbEntity
  8
0
  6
ByLayer
 62
    0
370
   -1
100
AcDbLine
 10
438.5439500000001
 20
15.98362000000003
 11
438.31095
 21
15.57294000000002
  0
LINE
  5
324
100
AcDbEntity
  8
0
  6
ByLayer
 62
    0
370
   -1
100
AcDbLine
 10
438.31095
 20
15.57294000000002
 11
438.04995
 21
15.18158000000003
  0
LINE
  5
325
100
AcDbEntity
  8
0
  6
ByLayer
 62
    0
370
   -1
100
AcDbLine
 10
438.04995
 20
15.18158000000003
 11
437.75695
 21
14.81089000000003
  0
LINE
  5
326
100
AcDbEntity
  8
0
  6
ByLayer
 62
    0
370
   -1
100
AcDbLine
 10
437.75695
 20
14.81089000000003
 11
437.43895
 21
14.46500000000003
  0
LINE
  5
327
100
AcDbEntity
  8
0
  6
ByLayer
 62
    0
370
   -1
100
AcDbLine
 10
437.43895
 20
14.46500000000003
 11
437.09395
 21
14.14530000000002
  0
LINE
  5
328
100
AcDbEntity
  8
0
  6
ByLayer
 62
    0
370
   -1
100
AcDbLine
 10
437.09395
 20
14.14530000000002
 11
436.72295
 21
13.85315000000003
  0
LINE
  5
329
100
AcDbEntity
  8
0
  6
ByLayer
 62
    0
370
   -1
100
AcDbLine
 10
436.72295
 20
13.85315000000003
 11
436.33195
 21
13.59133000000003
  0
LINE
  5
32A
100
AcDbEntity
  8
0
  6
ByLayer
 62
    0
370
   -1
100
AcDbLine
 10
436.33195
 20
13.59133000000003
 11
435.9189500000001
 21
13.36119400000001
  0
LINE
  5
32B
100
AcDbEntity
  8
0
  6
ByLayer
 62
    0
370
   -1
100
AcDbLine
 10
435.9189500000001
 20
13.36119400000001
 11
435.49195
 21
13.16413200000002
  0
LINE
  5
32C
100
AcDbEntity
  8
0
  6
ByLayer
 62
    0
370
   -1
100
AcDbLine
 10
435.49195
 20
13.16413200000002
 11
435.0509500000001
 21
13.00152600000001
  0
LINE
  5
32D
100
AcDbEntity
  8
0
  6
ByLayer
 62
    0
370
   -1
100
AcDbLine
 10
435.0509500000001
 20
13.00152600000001
 11
434.59595
 21
12.87336600000003
  0
LINE
  5
32E
100
AcDbEntity
  8
0
  6
ByLayer
 62
    0
370
   -1
100
AcDbLine
 10
434.59595
 20
12.87336600000003
 11
434.13395
 21
12.78104000000002
  0
LINE
  5
32F
100
AcDbEntity
  8
0
  6
ByLayer
 62
    0
370
   -1
100
AcDbLine
 10
434.13395
 20
12.78104000000002
 11
433.66795
 21
12.72591700000001
  0
LINE
  5
330
100
AcDbEntity
  8
0
  6
ByLayer
 62
    0
370
   -1
100
AcDbLine
 10
433.66795
 20
12.72591700000001
 11
433.19595
 21
12.70662500000003
  0
LINE
  5
331
100
AcDbEntity
  8
0
  6
ByLayer
 62
  256
370
   -1
100
AcDbLine
 10
396.1959359266159
 20
15.70660000000001
 11
396.1959359266159
 21
12.72591700000001
  0
LINE
  5
332
100
AcDbEntity
  8
0
  6
ByLayer
 62
  256
370
   -1
100
AcDbLine
 10
417.695942963308
 20
15.70660000000001
 11
417.695942963308
 21
12.70660000000001
  0
LINE
  5
333
100
AcDbEntity
  8
0
  6
ByLayer
 62
  256
370
   -1
100
AcDbLine
 10
433.19595
 20
12.70662500000003
 11
417.695942963308
 21
12.70660000000001
  0
LINE
  5
334
100
AcDbEntity
  8
0
  6
ByLayer
 62
  256
370
   -1
100
AcDbLine
 10
396.196
 20
15.7066
 11
400.496
 21
15.7066
  0
LINE
  5
335
100
AcDbEntity
  8
0
  6
ByLayer
 62
  256
370
   -1
100
AcDbLine
 10
404.7959999999999
 20
15.7066
 11
409.0959999999999
 21
15.7066
  0
LINE
  5
336
100
AcDbEntity
  8
0
  6
ByLayer
 62
  256
370
   -1
100
AcDbLine
 10
404.7959999999999
 20
15.7066
 11
409.0959999999999
 21
15.7066
  0
LINE
  5
337
100
AcDbEntity
  8
0
  6
ByLayer
 62
  256
370
   -1
100
AcDbLine
 10
413.395942963308
 20
15.70660000000001
 11
417.695942963308
 21
15.70660000000001
  0
ARC
  5
338
100
AcDbEntity
  8
0
  6
ByLayer
 62
  256
370
   -1
100
AcDbCircle
 10
402.646
 20
12.35659999999998
 40
2.149999999999977
100
AcDbArc
 50
180
 51
0
  0
LINE
  5
339
100
AcDbEntity
  8
0
  6
ByLayer
 62
  256
370
   -1
100
AcDbLine
 10
400.496
 20
15.7066
 11
400.496
 21
12.35659999999998
  0
LINE
  5
33A
100
AcDbEntity
  8
0
  6
ByLayer
 62
  256
370
   -1
100
AcDbLine
 10
404.7959999999999
 20
15.7066
 11
404.7959999999999
 21
12.35659999999998
  0
ARC
  5
33B
100
AcDbEntity
  8
0
  6
ByLayer
 62
  256
370
   -1
100
AcDbCircle
 10
411.2459999999999
 20
12.35659999999998
 40
2.149999999999977
100
AcDbArc
 50
180
 51
0
  0
LINE
  5
33C
100
AcDbEntity
  8
0
  6
ByLayer
 62
  256
370
   -1
100
AcDbLine
 10
409.0959999999999
 20
15.7066
 11
409.0959999999999
 21
12.35659999999998
  0
LINE
  5
33D
100
AcDbEntity
  8
0
  6
ByLayer
 62
  256
370
   -1
100
AcDbLine
 10
413.3959999999998
 20
15.7066
 11
413.3959999999998
 21
12.35659999999998
  0
LINE
  5
33E
100
AcDbEntity
  8
0
  6
ByLayer
 62
  256
370
   -1
100
AcDbLine
 10
43.00001407338413
 20
15.70660000000001
 11
43.00001407338413
 21
12.72591700000001
  0
LINE
  5
33F
100
AcDbEntity
  8
0
  6
ByLayer
 62
  256
370
   -1
100
AcDbLine
 10
21.50000703669206
 20
15.70660000000001
 11
21.50000703669206
 21
12.70660000000001
  0
LINE
  5
340
100
AcDbEntity
  8
0
  6
ByLayer
 62
  256
370
   -1
100
AcDbLine
 10
6
 20
12.70662500000003
 11
21.50000703669206
 21
12.70660000000001
  0
LINE
  5
341
100
AcDbEntity
  8
0
  6
ByLayer
 62
  256
370
   -1
100
AcDbLine
 10
42.99995000000001
 20
15.7066
 11
38.69995000000005
 21
15.7066
  0
LINE
  5
342
100
AcDbEntity
  8
0
  6
ByLayer
 62
  256
370
   -1
100
AcDbLine
 10
34.3999500000001
 20
15.7066
 11
30.09995000000014
 21
15.7066
  0
LINE
  5
343
100
AcDbEntity
  8
0
  6
ByLayer
 62
  256
370
   -1
100
AcDbLine
 10
34.3999500000001
 20
15.7066
 11
30.09995000000014
 21
15.7066
  0
LINE
  5
344
100
AcDbEntity
  8
0
  6
ByLayer
 62
  256
370
   -1
100
AcDbLine
 10
25.80000703669202
 20
15.70660000000001
 11
21.50000703669206
 21
15.70660000000001
  0
ARC
  5
345
100
AcDbEntity
  8
0
  6
ByLayer
 62
  256
370
   -1
100
AcDbCircle
 10
36.54995000000007
 20
12.35659999999998
 40
2.149999999999977
100
AcDbArc
 50
180
 51
360
  0
LINE
  5
346
100
AcDbEntity
  8
0
  6
ByLayer
 62
  256
370
   -1
100
AcDbLine
 10
38.69995000000005
 20
15.7066
 11
38.69995000000005
 21
12.35659999999998
  0
LINE
  5
347
100
AcDbEntity
  8
0
  6
ByLayer
 62
  256
370
   -1
100
AcDbLine
 10
34.3999500000001
 20
15.7066
 11
34.3999500000001
 21
12.35659999999998
  0
ARC
  5
348
100
AcDbEntity
  8
0
  6
ByLayer
 62
  256
370
   -1
100
AcDbCircle
 10
27.94995000000016
 20
12.35659999999998
 40
2.149999999999977
100
AcDbArc
 50
180
 51
360
  0
LINE
  5
349
100
AcDbEntity
  8
0
  6
ByLayer
 62
  256
370
   -1
100
AcDbLine
 10
30.09995000000014
 20
15.7066
 11
30.09995000000014
 21
12.35659999999998
  0
LINE
  5
34A
100
AcDbEntity
  8
0
  6
ByLayer
 62
  256
370
   -1
100
AcDbLine
 10
25.79995000000019
 20
15.7066
 11
25.79995000000019
 21
12.35659999999998
  0
LINE
  5
34B
100
AcDbEntity
  8
0
  6
ByLayer
 62
  256
370
   -1
100
AcDbLine
 10
137.0000561032403
 20
15.72589199999999
 11
137.0000561032403
 21
12.74520899999999
  0
LINE
  5
34C
100
AcDbEntity
  8
0
  6
ByLayer
 62
  256
370
   -1
100
AcDbLine
 10
115.5000490665482
 20
15.72589199999999
 11
115.5000490665482
 21
12.72589199999999
  0
LINE
  5
34D
100
AcDbEntity
  8
0
  6
ByLayer
 62
  256
370
   -1
100
AcDbLine
 10
136.9999920298562
 20
15.72589199999998
 11
132.6999920298562
 21
15.72589199999998
  0
LINE
  5
34E
100
AcDbEntity
  8
0
  6
ByLayer
 62
  256
370
   -1
100
AcDbLine
 10
128.3999920298563
 20
15.72589199999998
 11
124.0999920298563
 21
15.72589199999998
  0
LINE
  5
34F
100
AcDbEntity
  8
0
  6
ByLayer
 62
  256
370
   -1
100
AcDbLine
 10
128.3999920298563
 20
15.72589199999998
 11
124.0999920298563
 21
15.72589199999998
  0
LINE
  5
350
100
AcDbEntity
  8
0
  6
ByLayer
 62
  256
370
   -1
100
AcDbLine
 10
119.8000490665482
 20
15.72589199999999
 11
115.5000490665482
 21
15.72589199999999
  0
ARC
  5
351
100
AcDbEntity
  8
0
  6
ByLayer
 62
  256
370
   -1
100
AcDbCircle
 10
130.5499920298562
 20
12.37589199999996
 40
2.149999999999977
100
AcDbArc
 50
180
 51
360
  0
LINE
  5
352
100
AcDbEntity
  8
0
  6
ByLayer
 62
  256
370
   -1
100
AcDbLine
 10
132.6999920298562
 20
15.72589199999998
 11
132.6999920298562
 21
12.37589199999996
  0
LINE
  5
353
100
AcDbEntity
  8
0
  6
ByLayer
 62
  256
370
   -1
100
AcDbLine
 10
128.3999920298563
 20
15.72589199999998
 11
128.3999920298563
 21
12.37589199999996
  0
ARC
  5
354
100
AcDbEntity
  8
0
  6
ByLayer
 62
  256
370
   -1
100
AcDbCircle
 10
121.9499920298563
 20
12.37589199999996
 40
2.149999999999977
100
AcDbArc
 50
180
 51
360
  0
LINE
  5
355
100
AcDbEntity
  8
0
  6
ByLayer
 62
  256
370
   -1
100
AcDbLine
 10
124.0999920298563
 20
15.72589199999998
 11
124.0999920298563
 21
12.37589199999996
  0
LINE
  5
356
100
AcDbEntity
  8
0
  6
ByLayer
 62
  256
370
   -1
100
AcDbLine
 10
119.7999920298564
 20
15.72589199999998
 11
119.7999920298564
 21
12.37589199999996
  0
LINE
  5
357
100
AcDbEntity
  8
0
  6
ByLayer
 62
  256
370
   -1
100
AcDbLine
 10
43.00001407338413
 20
12.72591700000001
 11
115.5000490665482
 21
12.72589199999999
  0
LINE
  5
358
100
AcDbEntity
  8
0
  6
ByLayer
 62
  256
370
   -1
100
AcDbLine
 10
231.0000981330965
 20
15.74518399999997
 11
231.0000981330965
 21
12.76450099999997
  0
LINE
  5
359
100
AcDbEntity
  8
0
  6
ByLayer
 62
  256
370
   -1
100
AcDbLine
 10
209.5000910964044
 20
15.74518399999997
 11
209.5000910964044
 21
12.74518399999997
  0
LINE
  5
35A
100
AcDbEntity
  8
0
  6
ByLayer
 62
  256
370
   -1
100
AcDbLine
 10
231.0000340597123
 20
15.74518399999996
 11
226.7000340597124
 21
15.74518399999996
  0
LINE
  5
35B
100
AcDbEntity
  8
0
  6
ByLayer
 62
  256
370
   -1
100
AcDbLine
 10
222.4000340597124
 20
15.74518399999996
 11
218.1000340597125
 21
15.74518399999996
  0
LINE
  5
35C
100
AcDbEntity
  8
0
  6
ByLayer
 62
  256
370
   -1
100
AcDbLine
 10
222.4000340597124
 20
15.74518399999996
 11
218.1000340597125
 21
15.74518399999996
  0
LINE
  5
35D
100
AcDbEntity
  8
0
  6
ByLayer
 62
  256
370
   -1
100
AcDbLine
 10
213.8000910964043
 20
15.74518399999997
 11
209.5000910964044
 21
15.74518399999997
  0
ARC
  5
35E
100
AcDbEntity
  8
0
  6
ByLayer
 62
  256
370
   -1
100
AcDbCircle
 10
224.5500340597124
 20
12.39518399999994
 40
2.149999999999977
100
AcDbArc
 50
180
 51
360
  0
LINE
  5
35F
100
AcDbEntity
  8
0
  6
ByLayer
 62
  256
370
   -1
100
AcDbLine
 10
226.7000340597124
 20
15.74518399999996
 11
226.7000340597124
 21
12.39518399999994
  0
LINE
  5
360
100
AcDbEntity
  8
0
  6
ByLayer
 62
  256
370
   -1
100
AcDbLine
 10
222.4000340597124
 20
15.74518399999996
 11
222.4000340597124
 21
12.39518399999994
  0
ARC
  5
361
100
AcDbEntity
  8
0
  6
ByLayer
 62
  256
370
   -1
100
AcDbCircle
 10
215.9500340597125
 20
12.39518399999994
 40
2.149999999999977
100
AcDbArc
 50
180
 51
360
  0
LINE
  5
362
100
AcDbEntity
  8
0
  6
ByLayer
 62
  256
370
   -1
100
AcDbLine
 10
218.1000340597125
 20
15.74518399999996
 11
218.1000340597125
 21
12.39518399999994
  0
LINE
  5
363
100
AcDbEntity
  8
0
  6
ByLayer
 62
  256
370
   -1
100
AcDbLine
 10
213.8000340597125
 20
15.74518399999996
 11
213.8000340597125
 21
12.39518399999994
  0
LINE
  5
364
100
AcDbEntity
  8
0
  6
ByLayer
 62
  256
370
   -1
100
AcDbLine
 10
137.0000561032403
 20
12.74520899999999
 11
209.5000910964044
 21
12.74518399999997
  0
LINE
  5
365
100
AcDbEntity
  8
0
  6
ByLayer
 62
  256
370
   -1
100
AcDbLine
 10
325.0001401629526
 20
15.76447599999995
 11
325.0001401629526
 21
12.78379299999995
  0
LINE
  5
366
100
AcDbEntity
  8
0
  6
ByLayer
 62
  256
370
   -1
100
AcDbLine
 10
303.5001331262606
 20
15.76447599999995
 11
303.5001331262606
 21
12.76447599999995
  0
LINE
  5
367
100
AcDbEntity
  8
0
  6
ByLayer
 62
  256
370
   -1
100
AcDbLine
 10
325.0000760895685
 20
15.76447599999993
 11
320.7000760895685
 21
15.76447599999993
  0
LINE
  5
368
100
AcDbEntity
  8
0
  6
ByLayer
 62
  256
370
   -1
100
AcDbLine
 10
316.4000760895686
 20
15.76447599999993
 11
312.1000760895686
 21
15.76447599999993
  0
LINE
  5
369
100
AcDbEntity
  8
0
  6
ByLayer
 62
  256
370
   -1
100
AcDbLine
 10
316.4000760895686
 20
15.76447599999993
 11
312.1000760895686
 21
15.76447599999993
  0
LINE
  5
36A
100
AcDbEntity
  8
0
  6
ByLayer
 62
  256
370
   -1
100
AcDbLine
 10
307.8001331262605
 20
15.76447599999995
 11
303.5001331262606
 21
15.76447599999995
  0
ARC
  5
36B
100
AcDbEntity
  8
0
  6
ByLayer
 62
  256
370
   -1
100
AcDbCircle
 10
318.5500760895686
 20
12.41447599999992
 40
2.149999999999977
100
AcDbArc
 50
180
 51
360
  0
LINE
  5
36C
100
AcDbEntity
  8
0
  6
ByLayer
 62
  256
370
   -1
100
AcDbLine
 10
320.7000760895685
 20
15.76447599999993
 11
320.7000760895685
 21
12.41447599999992
  0
LINE
  5
36D
100
AcDbEntity
  8
0
  6
ByLayer
 62
  256
370
   -1
100
AcDbLine
 10
316.4000760895686
 20
15.76447599999993
 11
316.4000760895686
 21
12.41447599999992
  0
ARC
  5
36E
100
AcDbEntity
  8
0
  6
ByLayer
 62
  256
370
   -1
100
AcDbCircle
 10
309.9500760895687
 20
12.41447599999992
 40
2.149999999999977
100
AcDbArc
 50
180
 51
360
  0
LINE
  5
36F
100
AcDbEntity
  8
0
  6
ByLayer
 62
  256
370
   -1
100
AcDbLine
 10
312.1000760895686
 20
15.76447599999993
 11
312.1000760895686
 21
12.41447599999992
  0
LINE
  5
370
100
AcDbEntity
  8
0
  6
ByLayer
 62
  256
370
   -1
100
AcDbLine
 10
307.8000760895687
 20
15.76447599999993
 11
307.8000760895687
 21
12.41447599999992
  0
LINE
  5
371
100
AcDbEntity
  8
0
  6
ByLayer
 62
  256
370
   -1
100
AcDbLine
 10
231.0000981330965
 20
12.76450099999997
 11
303.5001331262606
 21
12.76447599999995
  0
LINE
  5
372
100
AcDbEntity
  8
0
  6
ByLayer
 62
    0
370
   -1
100
AcDbLine
 10
439.19595
 20
148
 11
439.19595
 21
18.70660000000001
  0
LINE
  5
373
100
AcDbEntity
  8
0
  6
ByLayer
 62
    0
370
   -1
100
AcDbLine
 10
1.920861074466984e-05
 20
147.9997739442248
 11
3.460000000110597e-05
 21
18.70798000000002
  0
SPLINE
  5
374
100
AcDbEntity
  8
0
  6
ByLayer
 62
  256
370
   -1
100
AcDbSpline
210
0
220
0
230
0
 70
    8
 71
    1
 72
   12
 73
   10
 74
    0
 42
1e-07
 43
1e-07
 40
0
 40
0
 40
0.1111111111111111
 40
0.2222222222222222
 40
0.3333333333333333
 40
0.4444444444444444
 40
0.5555555555555556
 40
0.6666666666666666
 40
0.7777777777777777
 40
0.8888888888888888
 40
1
 40
1
 10
0
 20
148
 30
0
 10
1
 20
151
 30
0
 10
5
 20
153
 30
0
 10
19
 20
153
 30
0
 10
27
 20
153
 30
0
 10
30
 20
153
 30
0
 10
33
 20
155
 30
0
 10
34
 20
158
 30
0
 10
37
 20
160
 30
0
 10
40
 20
160
 30
0
  0
SPLINE
  5
375
100
AcDbEntity
  8
0
  6
ByLayer
 62
  256
370
   -1
100
AcDbSpline
210
0
220
0
230
0
 70
    8
 71
    1
 72
   12
 73
   10
 74
    0
 42
1e-07
 43
1e-07
 40
0
 40
0
 40
0.1111111111111111
 40
0.2222222222222222
 40
0.3333333333333333
 40
0.4444444444444444
 40
0.5555555555555556
 40
0.6666666666666666
 40
0.7777777777777777
 40
0.8888888888888888
 40
1
 40
1
 10
439.19595
 20
148
 30
0
 10
438.19595
 20
151
 30
0
 10
434.19595
 20
153
 30
0
 10
420.19595
 20
153
 30
0
 10
412.19595
 20
153
 30
0
 10
409.19595
 20
153
 30
0
 10
406.19595
 20
155
 30
0
 10
405.19595
 20
158
 30
0
 10
402.19595
 20
160
 30
0
 10
399.19595
 20
160
 30
0
  0
LINE
  5
376
100
AcDbEntity
  8
0
  6
ByLayer
 62
  256
370
   -1
100
AcDbLine
 10
40
 20
160
 11
399.19595
 21
160
  0
LINE
  5
377
100
AcDbEntity
  8
0
  6
ByLayer
 62
    0
370
   -1
100
AcDbLine
 10
410.5476389051078
 20
151.8633448546776
 11
364.04695
 21
151.8633448546776
  0
LINE
  5
378
100
AcDbEntity
  8
0
  6
ByLayer
 62
    0
370
   -1
100
AcDbLine
 10
410.5476389051078
 20
141.8791031184291
 11
364.04695
 21
141.8791031184291
  0
LINE
  5
379
100
AcDbEntity
  8
0
  6
ByLayer
 62
    0
370
   -1
100
AcDbLine
 10
410.5476389051078
 20
151.8633448546776
 11
410.5476389051078
 21
141.8791031184291
  0
LINE
  5
37A
100
AcDbEntity
  8
0
  6
ByLayer
 62
    0
370
   -1
100
AcDbLine
 10
364.04695
 20
151.8633448546776
 11
364.04695
 21
141.8791031184291
  0
CIRCLE
  5
37B
100
AcDbEntity
  8
0
  6
ByLayer
 62
  256
370
   -1
100
AcDbCircle
 10
433.166
 20
119.813
 40
1
  0
CIRCLE
  5
37C
100
AcDbEntity
  8
0
  6
ByLayer
 62
  256
370
   -1
100
AcDbCircle
 10
6.028990000000011
 20
119.813
 40
1
  0
LINE
  5
37D
100
AcDbEntity
  8
0
  6
ByLayer
 62
  256
370
   -1
100
AcDbLine
 10
396.1959359266159
 20
12.72591700000001
 11
325.0001401629526
 21
12.78379299999995
  0
CIRCLE
  5
37E
100
AcDbEntity
  8
0
  6
ByLayer
 62
  256
370
   -1
100
AcDbCircle
 10
148.25
 20
120.95
 40
4
  0
LINE
  5
37F
100
AcDbEntity
  8
0
  6
ByLayer
 62
    0
370
   -1
100
AcDbLine
 10
439.19595
 20
148
 11
439.19595
 21
18.70660000000001
  0
CIRCLE
  5
380
100
AcDbEntity
  8
0
  6
ByLayer
 62
  256
370
   -1
100
AcDbCircle
 10
290.946
 20
120.95
 40
4
  0
ENDSEC
  0
SECTION
  2
OBJECTS
  0
DICTIONARY
  5
C
330
0
100
AcDbDictionary
281
    1
  3
ACAD_GROUP
350
D
  0
DICTIONARY
  5
D
330
C
100
AcDbDictionary
281
    1
  0
ENDSEC
  0
EOF
