999
dxfrw 0.6.3
  0
SECTION
  2
HEADER
  9
$ACADVER
  1
AC1021
  9
$DWGCODEPAGE
  3
ANSI_1252
  9
$INSBASE
 10
0
 20
0
 30
0
  9
$EXTMIN
 10
0.09508460000000001
 20
2.839625
 30
0
  9
$EXTMAX
 10
444.341
 20
150.133
 30
0
  9
$LIMMIN
 10
0
 20
0
  9
$LIMMAX
 10
420
 20
297
  9
$ORTHOMODE
 70
    0
  9
$REGENMODE
 70
    1
  9
$FILLMODE
 70
    0
  9
$QTEXTMODE
 70
    0
  9
$MIRRTEXT
 70
    0
  9
$LTSCALE
 40
1
  9
$ATTMODE
 70
    0
  9
$TEXTSIZE
 40
2.5
  9
$TRACEWID
 40
15.68
  9
$TEXTSTYLE
  7
STANDARD
  9
$CLAYER
  8
0
  9
$CELTYPE
  6
BYLAYER
  9
$CECOLOR
 62
  256
  9
$CELTSCALE
 40
1
  9
$DISPSILH
 70
    0
  9
$DIMSCALE
 40
2.5
  9
$DIMASZ
 40
2.5
  9
$DIMEXO
 40
0.625
  9
$DIMDLI
 40
3.75
  9
$DIMRND
 40
0
  9
$DIMDLE
 40
0
  9
$DIMEXE
 40
1.25
  9
$DIMTP
 40
0
  9
$DIMTM
 40
0
  9
$DIMTXT
 40
2.5
  9
$DIMCEN
 40
2.5
  9
$DIMTSZ
 40
0
  9
$DIMTOL
 70
    0
  9
$DIMLIM
 70
    0
  9
$DIMTIH
 70
    0
  9
$DIMTOH
 70
    0
  9
$DIMSE1
 70
    0
  9
$DIMSE2
 70
    0
  9
$DIMTAD
 70
    1
  9
$DIMZIN
 70
    8
  9
$DIMBLK
  1

  9
$DIMASO
 70
    1
  9
$DIMSHO
 70
    1
  9
$DIMPOST
  1

  9
$DIMAPOST
  1

  9
$DIMALT
 70
    0
  9
$DIMALTD
 70
    3
  9
$DIMALTF
 40
0.03937
  9
$DIMLFAC
 40
1
  9
$DIMTOFL
 70
    1
  9
$DIMTVP
 40
0
  9
$DIMTIX
 70
    0
  9
$DIMSOXD
 70
    0
  9
$DIMSAH
 70
    0
  9
$DIMBLK1
  1

  9
$DIMBLK2
  1

  9
$DIMSTYLE
  2
Standard
  9
$DIMCLRD
 70
    0
  9
$DIMCLRE
 70
    0
  9
$DIMCLRT
 70
    0
  9
$DIMTFAC
 40
1
  9
$DIMGAP
 40
0.625
  9
$DIMJUST
 70
    0
  9
$DIMSD1
 70
    0
  9
$DIMSD2
 70
    0
  9
$DIMTOLJ
 70
    0
  9
$DIMTZIN
 70
    8
  9
$DIMALTZ
 70
    0
  9
$DIMALTTZ
 70
    0
  9
$DIMUPT
 70
    0
  9
$DIMDEC
 70
    2
  9
$DIMTDEC
 70
    2
  9
$DIMALTU
 70
    2
  9
$DIMALTTD
 70
    3
  9
$DIMTXSTY
  7
STANDARD
  9
$DIMAUNIT
 70
    0
  9
$DIMADEC
 70
    0
  9
$DIMALTRND
 40
0
  9
$DIMAZIN
 70
    0
  9
$DIMDSEP
 70
   44
  9
$DIMATFIT
 70
    3
  9
$DIMFRAC
 70
    0
  9
$DIMLDRBLK
  1
STANDARD
  9
$DIMLUNIT
 70
    2
  9
$DIMLWD
 70
   -2
  9
$DIMLWE
 70
   -2
  9
$DIMTMOVE
 70
    0
  9
$DIMFXL
 40
1
  9
$DIMFXLON
 70
    0
  9
$DIMJOGANG
 40
0.7854
  9
$DIMTFILL
 70
    0
  9
$DIMTFILLCLR
 70
    0
  9
$DIMARCSYM
 70
    0
  9
$DIMLTYPE
  6

  9
$DIMLTEX1
  6

  9
$DIMLTEX2
  6

  9
$LUNITS
 70
    2
  9
$LUPREC
 70
    4
  9
$SKETCHINC
 40
1
  9
$FILLETRAD
 40
0
  9
$AUNITS
 70
    0
  9
$AUPREC
 70
    2
  9
$MENU
  1
.
  9
$ELEVATION
 40
0
  9
$PELEVATION
 40
0
  9
$THICKNESS
 40
0
  9
$LIMCHECK
 70
    0
  9
$CHAMFERA
 40
0
  9
$CHAMFERB
 40
0
  9
$CHAMFERC
 40
0
  9
$CHAMFERD
 40
0
  9
$SKPOLY
 70
    0
  9
$USRTIMER
 70
    1
  9
$ANGBASE
 50
0
  9
$ANGDIR
 70
    0
  9
$PDMODE
 70
   34
  9
$PDSIZE
 40
0
  9
$PLINEWID
 40
0
  9
$SPLFRAME
 70
    1
  9
$SPLINETYPE
 70
    2
  9
$SPLINESEGS
 70
    8
  9
$HANDSEED
  5
20000
  9
$SURFTAB1
 70
    6
  9
$SURFTAB2
 70
    6
  9
$SURFTYPE
 70
    6
  9
$SURFU
 70
    6
  9
$SURFV
 70
    6
  9
$UCSBASE
  2

  9
$UCSNAME
  2

  9
$UCSORG
 10
0
 20
0
 30
0
  9
$UCSXDIR
 10
1
 20
0
 30
0
  9
$UCSYDIR
 10
0
 20
1
 30
0
  9
$UCSORTHOREF
  2

  9
$UCSORTHOVIEW
 70
    0
  9
$UCSORGTOP
 10
0
 20
0
 30
0
  9
$UCSORGBOTTOM
 10
0
 20
0
 30
0
  9
$UCSORGLEFT
 10
0
 20
0
 30
0
  9
$UCSORGRIGHT
 10
0
 20
0
 30
0
  9
$UCSORGFRONT
 10
0
 20
0
 30
0
  9
$UCSORGBACK
 10
0
 20
0
 30
0
  9
$PUCSBASE
  2

  9
$PUCSNAME
  2

  9
$PUCSORG
 10
0
 20
0
 30
0
  9
$PUCSXDIR
 10
1
 20
0
 30
0
  9
$PUCSYDIR
 10
0
 20
1
 30
0
  9
$PUCSORTHOREF
  2

  9
$PUCSORTHOVIEW
 70
    0
  9
$PUCSORGTOP
 10
0
 20
0
 30
0
  9
$PUCSORGBOTTOM
 10
0
 20
0
 30
0
  9
$PUCSORGLEFT
 10
0
 20
0
 30
0
  9
$PUCSORGRIGHT
 10
0
 20
0
 30
0
  9
$PUCSORGFRONT
 10
0
 20
0
 30
0
  9
$PUCSORGBACK
 10
0
 20
0
 30
0
  9
$USERI1
 70
    0
  9
$USERI2
 70
    0
  9
$USERI3
 70
    0
  9
$USERI4
 70
    0
  9
$USERI5
 70
    0
  9
$USERR1
 40
0
  9
$USERR2
 40
0
  9
$USERR3
 40
0
  9
$USERR4
 40
0
  9
$USERR5
 40
0
  9
$WORLDVIEW
 70
    1
  9
$SHADEDGE
 70
    3
  9
$SHADEDIF
 70
   70
  9
$TILEMODE
 70
    1
  9
$MAXACTVP
 70
   64
  9
$PINSBASE
 10
0
 20
0
 30
0
  9
$PLIMCHECK
 70
    0
  9
$PEXTMIN
 10
0
 20
0
 30
0
  9
$PEXTMAX
 10
0
 20
0
 30
0
  9
$SNAPSTYLE
 70
    0
  9
$PLIMMIN
 10
0
 20
0
  9
$PLIMMAX
 10
210
 20
297
  9
$UNITMODE
 70
    0
  9
$VISRETAIN
 70
    1
  9
$PLINEGEN
 70
    0
  9
$PSLTSCALE
 70
    1
  9
$TREEDEPTH
 70
 3020
  9
$CMLSTYLE
  2
Standard
  9
$CMLJUST
 70
    0
  9
$CMLSCALE
 40
20
  9
$PROXYGRAPHICS
 70
    1
  9
$MEASUREMENT
 70
    1
  9
$CELWEIGHT
370
   -1
  9
$ENDCAPS
280
    0
  9
$JOINSTYLE
280
    0
  9
$LWDISPLAY
290
    0
  9
$INSUNITS
 70
    4
  9
$HYPERLINKBASE
  1

  9
$STYLESHEET
  1

  9
$XEDIT
290
    1
  9
$CEPSNTYPE
380
    0
  9
$PSTYLEMODE
290
    1
  9
$EXTNAMES
290
    1
  9
$PSVPSCALE
 40
1
  9
$OLESTARTUP
290
    0
  9
$SORTENTS
280
  127
  9
$INDEXCTL
280
    0
  9
$HIDETEXT
280
    1
  9
$XCLIPFRAME
290
    0
  9
$HALOGAP
280
    0
  9
$OBSCOLOR
 70
  257
  9
$OBSLTYPE
280
    0
  9
$INTERSECTIONDISPLAY
280
    0
  9
$INTERSECTIONCOLOR
 70
  257
  9
$DIMASSOC
280
    1
  9
$PROJECTNAME
  1

  9
$CAMERADISPLAY
290
    0
  9
$LENSLENGTH
 40
50
  9
$CAMERAHEIGHT
 40
0
  9
$STEPSPERSEC
 40
2
  9
$STEPSIZE
 40
50
  9
$3DDWFPREC
 40
2
  9
$PSOLWIDTH
 40
5
  9
$PSOLHEIGHT
 40
80
  9
$LOFTANG1
 40
1.570796326794897
  9
$LOFTANG2
 40
1.570796326794897
  9
$LOFTMAG1
 40
0
  9
$LOFTMAG2
 40
0
  9
$LOFTPARAM
 70
    7
  9
$LOFTNORMALS
280
    1
  9
$LATITUDE
 40
1
  9
$LONGITUDE
 40
1
  9
$NORTHDIRECTION
 40
0
  9
$TIMEZONE
 70
-8000
  9
$LIGHTGLYPHDISPLAY
280
    1
  9
$TILEMODELIGHTSYNCH
280
    1
  9
$SOLIDHIST
280
    1
  9
$SHOWHIST
280
    1
  9
$DWFFRAME
280
    2
  9
$DGNFRAME
280
    0
  9
$REALWORLDSCALE
290
    1
  9
$INTERFERECOLOR
 62
    1
  9
$CSHADOW
280
    0
  9
$SHADOWPLANELOCATION
 40
0
  0
ENDSEC
  0
SECTION
  2
CLASSES
  0
ENDSEC
  0
SECTION
  2
TABLES
  0
TABLE
  2
VPORT
  5
8
330
0
100
AcDbSymbolTable
 70
    1
  0
VPORT
  5
31
330
2
100
AcDbSymbolTableRecord
100
AcDbViewportTableRecord
  2
*ACTIVE
 70
    0
 10
0
 20
0
 11
1
 21
1
 12
447.9405582271572
 22
182.5977489889347
 13
0
 23
0
 14
10
 24
10
 15
10
 25
10
 16
0
 26
0
 36
1
 17
0
 27
0
 37
0
 40
671.0379991524521
 41
1.397502601456816
 42
50
 43
0
 44
0
 50
0
 51
0
 71
    0
 72
  100
 73
    1
 74
    3
 75
    0
 76
    1
 77
    0
 78
    0
281
    0
 65
    1
110
0
120
0
130
0
111
1
121
0
131
0
112
0
122
1
132
0
 79
    0
146
0
348
10020
 60
    7
 61
    5
292
1
282
    1
141
0
142
0
 63
  250
421
3358443
  0
ENDTAB
  0
TABLE
  2
LTYPE
  5
5
330
0
100
AcDbSymbolTable
 70
    4
  0
LTYPE
  5
14
330
5
100
AcDbSymbolTableRecord
100
AcDbLinetypeTableRecord
  2
ByBlock
 70
    0
  3

 72
   65
 73
    0
 40
0
  0
LTYPE
  5
15
330
5
100
AcDbSymbolTableRecord
100
AcDbLinetypeTableRecord
  2
ByLayer
 70
    0
  3

 72
   65
 73
    0
 40
0
  0
LTYPE
  5
16
330
5
100
AcDbSymbolTableRecord
100
AcDbLinetypeTableRecord
  2
Continuous
 70
    0
  3
Solid line
 72
   65
 73
    0
 40
0
  0
LTYPE
  5
32
330
5
100
AcDbSymbolTableRecord
100
AcDbLinetypeTableRecord
  2
DOT
 70
    0
  3
Dot . . . . . . . . . . . . . . . . . . . . . .
 72
   65
 73
    2
 40
6.35
 49
0
 74
    0
 49
-6.35
 74
    0
  0
LTYPE
  5
33
330
5
100
AcDbSymbolTableRecord
100
AcDbLinetypeTableRecord
  2
DOTTINY
 70
    0
  3
Dot (.15x) .....................................
 72
   65
 73
    2
 40
0.9525
 49
0
 74
    0
 49
-0.9525
 74
    0
  0
LTYPE
  5
34
330
5
100
AcDbSymbolTableRecord
100
AcDbLinetypeTableRecord
  2
DOT2
 70
    0
  3
Dot (.5x) .....................................
 72
   65
 73
    2
 40
3.175
 49
0
 74
    0
 49
-3.175
 74
    0
  0
LTYPE
  5
35
330
5
100
AcDbSymbolTableRecord
100
AcDbLinetypeTableRecord
  2
DOTX2
 70
    0
  3
Dot (2x) .  .  .  .  .  .  .  .  .  .  .  .  .
 72
   65
 73
    2
 40
12.7
 49
0
 74
    0
 49
-12.7
 74
    0
  0
LTYPE
  5
36
330
5
100
AcDbSymbolTableRecord
100
AcDbLinetypeTableRecord
  2
DASHED
 70
    0
  3
Dashed _ _ _ _ _ _ _ _ _ _ _ _ _ _ _ _ _
 72
   65
 73
    2
 40
19.05
 49
12.7
 74
    0
 49
-6.35
 74
    0
  0
LTYPE
  5
37
330
5
100
AcDbSymbolTableRecord
100
AcDbLinetypeTableRecord
  2
DASHEDTINY
 70
    0
  3
Dashed (.15x) _ _ _ _ _ _ _ _ _ _ _ _ _ _ _ _ _
 72
   65
 73
    2
 40
2.8575
 49
1.905
 74
    0
 49
-0.9525
 74
    0
  0
LTYPE
  5
38
330
5
100
AcDbSymbolTableRecord
100
AcDbLinetypeTableRecord
  2
DASHED2
 70
    0
  3
Dashed (.5x) _ _ _ _ _ _ _ _ _ _ _ _ _ _ _ _ _
 72
   65
 73
    2
 40
9.524999999999999
 49
6.35
 74
    0
 49
-3.175
 74
    0
  0
LTYPE
  5
39
330
5
100
AcDbSymbolTableRecord
100
AcDbLinetypeTableRecord
  2
DASHEDX2
 70
    0
  3
Dashed (2x) ____  ____  ____  ____  ____  ___
 72
   65
 73
    2
 40
38.09999999999999
 49
25.4
 74
    0
 49
-12.7
 74
    0
  0
LTYPE
  5
3A
330
5
100
AcDbSymbolTableRecord
100
AcDbLinetypeTableRecord
  2
DASHDOT
 70
    0
  3
Dash dot __ . __ . __ . __ . __ . __ . __ . __
 72
   65
 73
    4
 40
25.4
 49
12.7
 74
    0
 49
-6.35
 74
    0
 49
0
 74
    0
 49
-6.35
 74
    0
  0
LTYPE
  5
3B
330
5
100
AcDbSymbolTableRecord
100
AcDbLinetypeTableRecord
  2
DASHDOTTINY
 70
    0
  3
Dash dot (.15x) _._._._._._._._._._._._._._._.
 72
   65
 73
    4
 40
3.81
 49
1.905
 74
    0
 49
-0.9525
 74
    0
 49
0
 74
    0
 49
-0.9525
 74
    0
  0
LTYPE
  5
3C
330
5
100
AcDbSymbolTableRecord
100
AcDbLinetypeTableRecord
  2
DASHDOT2
 70
    0
  3
Dash dot (.5x) _._._._._._._._._._._._._._._.
 72
   65
 73
    4
 40
12.7
 49
6.35
 74
    0
 49
-3.175
 74
    0
 49
0
 74
    0
 49
-3.175
 74
    0
  0
LTYPE
  5
3D
330
5
100
AcDbSymbolTableRecord
100
AcDbLinetypeTableRecord
  2
DASHDOTX2
 70
    0
  3
Dash dot (2x) ____  .  ____  .  ____  .  ___
 72
   65
 73
    4
 40
50.8
 49
25.4
 74
    0
 49
-12.7
 74
    0
 49
0
 74
    0
 49
-12.7
 74
    0
  0
LTYPE
  5
3E
330
5
100
AcDbSymbolTableRecord
100
AcDbLinetypeTableRecord
  2
DIVIDE
 70
    0
  3
Divide ____ . . ____ . . ____ . . ____ . . ____
 72
   65
 73
    6
 40
31.75
 49
12.7
 74
    0
 49
-6.35
 74
    0
 49
0
 74
    0
 49
-6.35
 74
    0
 49
0
 74
    0
 49
-6.35
 74
    0
  0
LTYPE
  5
3F
330
5
100
AcDbSymbolTableRecord
100
AcDbLinetypeTableRecord
  2
DIVIDETINY
 70
    0
  3
Divide (.15x) __..__..__..__..__..__..__..__.._
 72
   65
 73
    6
 40
4.7625
 49
1.905
 74
    0
 49
-0.9525
 74
    0
 49
0
 74
    0
 49
-0.9525
 74
    0
 49
0
 74
    0
 49
-0.9525
 74
    0
  0
LTYPE
  5
40
330
5
100
AcDbSymbolTableRecord
100
AcDbLinetypeTableRecord
  2
DIVIDE2
 70
    0
  3
Divide (.5x) __..__..__..__..__..__..__..__.._
 72
   65
 73
    6
 40
15.875
 49
6.35
 74
    0
 49
-3.175
 74
    0
 49
0
 74
    0
 49
-3.175
 74
    0
 49
0
 74
    0
 49
-3.175
 74
    0
  0
LTYPE
  5
41
330
5
100
AcDbSymbolTableRecord
100
AcDbLinetypeTableRecord
  2
DIVIDEX2
 70
    0
  3
Divide (2x) ________  .  .  ________  .  .  _
 72
   65
 73
    6
 40
63.5
 49
25.4
 74
    0
 49
-12.7
 74
    0
 49
0
 74
    0
 49
-12.7
 74
    0
 49
0
 74
    0
 49
-12.7
 74
    0
  0
LTYPE
  5
42
330
5
100
AcDbSymbolTableRecord
100
AcDbLinetypeTableRecord
  2
BORDER
 70
    0
  3
Border __ __ . __ __ . __ __ . __ __ . __ __ .
 72
   65
 73
    6
 40
44.45
 49
12.7
 74
    0
 49
-6.35
 74
    0
 49
12.7
 74
    0
 49
-6.35
 74
    0
 49
0
 74
    0
 49
-6.35
 74
    0
  0
LTYPE
  5
43
330
5
100
AcDbSymbolTableRecord
100
AcDbLinetypeTableRecord
  2
BORDERTINY
 70
    0
  3
Border (.15x) __.__.__.__.__.__.__.__.__.__.__.
 72
   65
 73
    6
 40
6.6675
 49
1.905
 74
    0
 49
-0.9525
 74
    0
 49
1.905
 74
    0
 49
-0.9525
 74
    0
 49
0
 74
    0
 49
-0.9525
 74
    0
  0
LTYPE
  5
44
330
5
100
AcDbSymbolTableRecord
100
AcDbLinetypeTableRecord
  2
BORDER2
 70
    0
  3
Border (.5x) __.__.__.__.__.__.__.__.__.__.__.
 72
   65
 73
    6
 40
22.225
 49
6.35
 74
    0
 49
-3.175
 74
    0
 49
6.35
 74
    0
 49
-3.175
 74
    0
 49
0
 74
    0
 49
-3.175
 74
    0
  0
LTYPE
  5
45
330
5
100
AcDbSymbolTableRecord
100
AcDbLinetypeTableRecord
  2
BORDERX2
 70
    0
  3
Border (2x) ____  ____  .  ____  ____  .  ___
 72
   65
 73
    6
 40
88.89999999999999
 49
25.4
 74
    0
 49
-12.7
 74
    0
 49
25.4
 74
    0
 49
-12.7
 74
    0
 49
0
 74
    0
 49
-12.7
 74
    0
  0
LTYPE
  5
46
330
5
100
AcDbSymbolTableRecord
100
AcDbLinetypeTableRecord
  2
CENTER
 70
    0
  3
Center ____ _ ____ _ ____ _ ____ _ ____ _ ____
 72
   65
 73
    4
 40
50.8
 49
31.75
 74
    0
 49
-6.35
 74
    0
 49
6.35
 74
    0
 49
-6.35
 74
    0
  0
LTYPE
  5
47
330
5
100
AcDbSymbolTableRecord
100
AcDbLinetypeTableRecord
  2
CENTERTINY
 70
    0
  3
Center (.15x) ___ _ ___ _ ___ _ ___ _ ___ _ ___
 72
   65
 73
    4
 40
7.619999999999999
 49
4.7625
 74
    0
 49
-0.9525
 74
    0
 49
0.9525
 74
    0
 49
-0.9525
 74
    0
  0
LTYPE
  5
48
330
5
100
AcDbSymbolTableRecord
100
AcDbLinetypeTableRecord
  2
CENTER2
 70
    0
  3
Center (.5x) ___ _ ___ _ ___ _ ___ _ ___ _ ___
 72
   65
 73
    4
 40
28.575
 49
19.05
 74
    0
 49
-3.175
 74
    0
 49
3.175
 74
    0
 49
-3.175
 74
    0
  0
LTYPE
  5
49
330
5
100
AcDbSymbolTableRecord
100
AcDbLinetypeTableRecord
  2
CENTERX2
 70
    0
  3
Center (2x) ________  __  ________  __  _____
 72
   65
 73
    4
 40
101.6
 49
63.5
 74
    0
 49
-12.7
 74
    0
 49
12.7
 74
    0
 49
-12.7
 74
    0
  0
ENDTAB
  0
TABLE
  2
LAYER
  5
2
330
0
100
AcDbSymbolTable
 70
    1
  0
LAYER
  5
10
330
2
100
AcDbSymbolTableRecord
100
AcDbLayerTableRecord
  2
0
 70
    0
 62
    7
  6
CONTINUOUS
370
   -3
390
F
  0
ENDTAB
  0
TABLE
  2
STYLE
  5
3
330
0
100
AcDbSymbolTable
 70
    3
  0
STYLE
  5
4A
330
2
100
AcDbSymbolTableRecord
100
AcDbTextStyleTableRecord
  2
Standard
 70
    0
 40
0
 41
1
 50
0
 71
    0
 42
1
  3
txt
  4

  0
ENDTAB
  0
TABLE
  2
VIEW
  5
6
330
0
100
AcDbSymbolTable
 70
    0
  0
ENDTAB
  0
TABLE
  2
UCS
  5
7
330
0
100
AcDbSymbolTable
 70
    0
  0
ENDTAB
  0
TABLE
  2
APPID
  5
9
330
0
100
AcDbSymbolTable
 70
    1
  0
APPID
  5
12
330
9
100
AcDbSymbolTableRecord
100
AcDbRegAppTableRecord
  2
ACAD
 70
    0
  0
APPID
  5
4B
330
9
100
AcDbSymbolTableRecord
100
AcDbRegAppTableRecord
  2
LibreCad
 70
    0
  0
ENDTAB
  0
TABLE
  2
DIMSTYLE
  5
A
330
0
100
AcDbSymbolTable
 70
    1
100
AcDbDimStyleTable
 71
    1
  0
DIMSTYLE
105
4C
330
A
100
AcDbSymbolTableRecord
100
AcDbDimStyleTableRecord
  2
Standard
 70
    0
 40
1
 41
2.5
 42
0.625
 43
0.38
 44
1.25
 45
0
 46
0
 47
0
 48
0
 49
1
140
2.5
141
0.09
142
2.5
143
25.4
144
1
145
0
146
1
147
0.625
148
0
 71
    0
 72
    0
 73
    0
 74
    1
 75
    0
 76
    0
 77
    0
 78
    1
 79
    0
170
    0
171
    2
172
    0
173
    0
174
    0
175
    0
176
    0
177
    0
178
    0
179
    0
271
    2
272
    4
273
    2
274
    2
275
    0
276
    0
277
    2
278
    0
279
    0
280
    0
281
    0
282
    0
283
    1
284
    0
285
    0
286
    0
288
    0
289
    3
340
standard
341

371
   -2
372
   -2
  0
ENDTAB
  0
TABLE
  2
BLOCK_RECORD
  5
1
330
0
100
AcDbSymbolTable
 70
    2
  0
BLOCK_RECORD
  5
1F
330
1
100
AcDbSymbolTableRecord
100
AcDbBlockTableRecord
  2
*Model_Space
 70
    0
280
    1
281
    0
  0
BLOCK_RECORD
  5
1E
330
1
100
AcDbSymbolTableRecord
100
AcDbBlockTableRecord
  2
*Paper_Space
 70
    0
280
    1
281
    0
  0
ENDTAB
  0
ENDSEC
  0
SECTION
  2
BLOCKS
  0
BLOCK
  5
20
330
1F
100
AcDbEntity
  8
0
100
AcDbBlockBegin
  2
*Model_Space
 70
    0
 10
0
 20
0
 30
0
  3
*Model_Space
  1

  0
ENDBLK
  5
21
330
1F
100
AcDbEntity
  8
0
100
AcDbBlockEnd
  0
BLOCK
  5
1C
330
1B
100
AcDbEntity
  8
0
100
AcDbBlockBegin
  2
*Paper_Space
 70
    0
 10
0
 20
0
 30
0
  3
*Paper_Space
  1

  0
ENDBLK
  5
1D
330
1F
100
AcDbEntity
  8
0
100
AcDbBlockEnd
  0
ENDSEC
  0
SECTION
  2
ENTITIES
  0
LINE
  5
4D
100
AcDbEntity
  8
0
  6
ByLayer
 62
    0
370
   -1
100
AcDbLine
 10
376.188
 20
22.8327
 11
376.188
 21
18.1336
  0
LINE
  5
4E
100
AcDbEntity
  8
0
  6
ByLayer
 62
    0
370
   -1
100
AcDbLine
 10
376.188
 20
18.1336
 11
374.664
 21
18.1336
  0
LINE
  5
4F
100
AcDbEntity
  8
0
  6
ByLayer
 62
    0
370
   -1
100
AcDbLine
 10
374.664
 20
18.1336
 11
374.664
 21
21.3624
  0
LINE
  5
50
100
AcDbEntity
  8
0
  6
ByLayer
 62
    0
370
   -1
100
AcDbLine
 10
374.664
 20
21.3624
 11
372.939
 21
21.3624
  0
LINE
  5
51
100
AcDbEntity
  8
0
  6
ByLayer
 62
    0
370
   -1
100
AcDbLine
 10
372.939
 20
21.3624
 11
372.939
 21
22.2829
  0
LINE
  5
52
100
AcDbEntity
  8
0
  6
ByLayer
 62
    0
370
   -1
100
AcDbLine
 10
372.939
 20
22.2829
 11
369.641
 21
22.2829
  0
LINE
  5
53
100
AcDbEntity
  8
0
  6
ByLayer
 62
    0
370
   -1
100
AcDbLine
 10
369.641
 20
22.2829
 11
369.641
 21
21.3624
  0
LINE
  5
54
100
AcDbEntity
  8
0
  6
ByLayer
 62
    0
370
   -1
100
AcDbLine
 10
369.641
 20
21.3624
 11
367.915
 21
21.3624
  0
LINE
  5
55
100
AcDbEntity
  8
0
  6
ByLayer
 62
    0
370
   -1
100
AcDbLine
 10
367.915
 20
21.3624
 11
367.915
 21
18.1336
  0
LINE
  5
56
100
AcDbEntity
  8
0
  6
ByLayer
 62
    0
370
   -1
100
AcDbLine
 10
367.915
 20
18.1336
 11
367.09
 21
18.1336
  0
LINE
  5
57
100
AcDbEntity
  8
0
  6
ByLayer
 62
    0
370
   -1
100
AcDbLine
 10
367.09
 20
18.1336
 11
367.09
 21
15.332
  0
LINE
  5
58
100
AcDbEntity
  8
0
  6
ByLayer
 62
    0
370
   -1
100
AcDbLine
 10
367.09
 20
15.332
 11
367.915
 21
15.332
  0
LINE
  5
59
100
AcDbEntity
  8
0
  6
ByLayer
 62
    0
370
   -1
100
AcDbLine
 10
367.915
 20
15.332
 11
367.915
 21
9.06198
  0
LINE
  5
5A
100
AcDbEntity
  8
0
  6
ByLayer
 62
    0
370
   -1
100
AcDbLine
 10
367.915
 20
9.06198
 11
369.641
 21
9.06198
  0
LINE
  5
5B
100
AcDbEntity
  8
0
  6
ByLayer
 62
    0
370
   -1
100
AcDbLine
 10
369.641
 20
9.06198
 11
369.641
 21
8.08221
  0
LINE
  5
5C
100
AcDbEntity
  8
0
  6
ByLayer
 62
    0
370
   -1
100
AcDbLine
 10
369.641
 20
8.08221
 11
372.939
 21
8.08221
  0
LINE
  5
5D
100
AcDbEntity
  8
0
  6
ByLayer
 62
    0
370
   -1
100
AcDbLine
 10
372.939
 20
8.08221
 11
372.939
 21
9.06198
  0
LINE
  5
5E
100
AcDbEntity
  8
0
  6
ByLayer
 62
    0
370
   -1
100
AcDbLine
 10
372.939
 20
9.06198
 11
374.664
 21
9.06198
  0
LINE
  5
5F
100
AcDbEntity
  8
0
  6
ByLayer
 62
    0
370
   -1
100
AcDbLine
 10
374.664
 20
9.06198
 11
374.664
 21
13.5323
  0
LINE
  5
60
100
AcDbEntity
  8
0
  6
ByLayer
 62
    0
370
   -1
100
AcDbLine
 10
374.664
 20
13.5323
 11
376.188
 21
13.5323
  0
LINE
  5
61
100
AcDbEntity
  8
0
  6
ByLayer
 62
    0
370
   -1
100
AcDbLine
 10
376.188
 20
13.5323
 11
376.188
 21
8.831860000000001
  0
LINE
  5
62
100
AcDbEntity
  8
0
  6
ByLayer
 62
    0
370
   -1
100
AcDbLine
 10
376.188
 20
8.831860000000001
 11
390.19
 21
8.831860000000001
  0
LINE
  5
63
100
AcDbEntity
  8
0
  6
ByLayer
 62
    0
370
   -1
100
AcDbLine
 10
390.19
 20
8.831860000000001
 11
390.19
 21
13.5323
  0
LINE
  5
64
100
AcDbEntity
  8
0
  6
ByLayer
 62
    0
370
   -1
100
AcDbLine
 10
390.19
 20
13.5323
 11
391.714
 21
13.5323
  0
LINE
  5
65
100
AcDbEntity
  8
0
  6
ByLayer
 62
    0
370
   -1
100
AcDbLine
 10
391.714
 20
13.5323
 11
391.714
 21
9.06198
  0
LINE
  5
66
100
AcDbEntity
  8
0
  6
ByLayer
 62
    0
370
   -1
100
AcDbLine
 10
391.714
 20
9.06198
 11
393.439
 21
9.06198
  0
LINE
  5
67
100
AcDbEntity
  8
0
  6
ByLayer
 62
    0
370
   -1
100
AcDbLine
 10
393.439
 20
9.06198
 11
393.439
 21
8.08221
  0
LINE
  5
68
100
AcDbEntity
  8
0
  6
ByLayer
 62
    0
370
   -1
100
AcDbLine
 10
393.439
 20
8.08221
 11
396.741
 21
8.08221
  0
LINE
  5
69
100
AcDbEntity
  8
0
  6
ByLayer
 62
    0
370
   -1
100
AcDbLine
 10
396.741
 20
8.08221
 11
396.741
 21
9.06198
  0
LINE
  5
6A
100
AcDbEntity
  8
0
  6
ByLayer
 62
    0
370
   -1
100
AcDbLine
 10
396.741
 20
9.06198
 11
398.463
 21
9.06198
  0
LINE
  5
6B
100
AcDbEntity
  8
0
  6
ByLayer
 62
    0
370
   -1
100
AcDbLine
 10
398.463
 20
9.06198
 11
398.463
 21
15.332
  0
LINE
  5
6C
100
AcDbEntity
  8
0
  6
ByLayer
 62
    0
370
   -1
100
AcDbLine
 10
398.463
 20
15.332
 11
399.292
 21
15.332
  0
LINE
  5
6D
100
AcDbEntity
  8
0
  6
ByLayer
 62
    0
370
   -1
100
AcDbLine
 10
399.292
 20
15.332
 11
399.292
 21
18.1336
  0
LINE
  5
6E
100
AcDbEntity
  8
0
  6
ByLayer
 62
    0
370
   -1
100
AcDbLine
 10
399.292
 20
18.1336
 11
398.463
 21
18.1336
  0
LINE
  5
6F
100
AcDbEntity
  8
0
  6
ByLayer
 62
    0
370
   -1
100
AcDbLine
 10
398.463
 20
18.1336
 11
398.463
 21
21.3624
  0
LINE
  5
70
100
AcDbEntity
  8
0
  6
ByLayer
 62
    0
370
   -1
100
AcDbLine
 10
398.463
 20
21.3624
 11
396.741
 21
21.3624
  0
LINE
  5
71
100
AcDbEntity
  8
0
  6
ByLayer
 62
    0
370
   -1
100
AcDbLine
 10
396.741
 20
21.3624
 11
396.741
 21
22.2829
  0
LINE
  5
72
100
AcDbEntity
  8
0
  6
ByLayer
 62
    0
370
   -1
100
AcDbLine
 10
396.741
 20
22.2829
 11
393.439
 21
22.2829
  0
LINE
  5
73
100
AcDbEntity
  8
0
  6
ByLayer
 62
    0
370
   -1
100
AcDbLine
 10
393.439
 20
22.2829
 11
393.439
 21
21.3624
  0
LINE
  5
74
100
AcDbEntity
  8
0
  6
ByLayer
 62
    0
370
   -1
100
AcDbLine
 10
393.439
 20
21.3624
 11
391.714
 21
21.3624
  0
LINE
  5
75
100
AcDbEntity
  8
0
  6
ByLayer
 62
    0
370
   -1
100
AcDbLine
 10
391.714
 20
21.3624
 11
391.714
 21
18.1336
  0
LINE
  5
76
100
AcDbEntity
  8
0
  6
ByLayer
 62
    0
370
   -1
100
AcDbLine
 10
391.714
 20
18.1336
 11
390.19
 21
18.1336
  0
LINE
  5
77
100
AcDbEntity
  8
0
  6
ByLayer
 62
    0
370
   -1
100
AcDbLine
 10
390.19
 20
18.1336
 11
390.19
 21
22.8327
  0
LINE
  5
78
100
AcDbEntity
  8
0
  6
ByLayer
 62
    0
370
   -1
100
AcDbLine
 10
390.19
 20
22.8327
 11
376.188
 21
22.8327
  0
LINE
  5
79
100
AcDbEntity
  8
0
  6
ByLayer
 62
    0
370
   -1
100
AcDbLine
 10
139.97
 20
22.8327
 11
139.97
 21
18.1336
  0
LINE
  5
7A
100
AcDbEntity
  8
0
  6
ByLayer
 62
    0
370
   -1
100
AcDbLine
 10
139.97
 20
18.1336
 11
97.96599999999999
 21
18.1336
  0
LINE
  5
7B
100
AcDbEntity
  8
0
  6
ByLayer
 62
    0
370
   -1
100
AcDbLine
 10
97.96599999999999
 20
18.1336
 11
97.96599999999999
 21
21.3624
  0
LINE
  5
7C
100
AcDbEntity
  8
0
  6
ByLayer
 62
    0
370
   -1
100
AcDbLine
 10
97.96599999999999
 20
21.3624
 11
96.2409
 21
21.3624
  0
LINE
  5
7D
100
AcDbEntity
  8
0
  6
ByLayer
 62
    0
370
   -1
100
AcDbLine
 10
96.2409
 20
21.3624
 11
96.2409
 21
22.2829
  0
LINE
  5
7E
100
AcDbEntity
  8
0
  6
ByLayer
 62
    0
370
   -1
100
AcDbLine
 10
96.2409
 20
22.2829
 11
92.9404
 21
22.2829
  0
LINE
  5
7F
100
AcDbEntity
  8
0
  6
ByLayer
 62
    0
370
   -1
100
AcDbLine
 10
92.9404
 20
22.2829
 11
92.9404
 21
21.3624
  0
LINE
  5
80
100
AcDbEntity
  8
0
  6
ByLayer
 62
    0
370
   -1
100
AcDbLine
 10
92.9404
 20
21.3624
 11
91.2153
 21
21.3624
  0
LINE
  5
81
100
AcDbEntity
  8
0
  6
ByLayer
 62
    0
370
   -1
100
AcDbLine
 10
91.2153
 20
21.3624
 11
91.2153
 21
18.1336
  0
LINE
  5
82
100
AcDbEntity
  8
0
  6
ByLayer
 62
    0
370
   -1
100
AcDbLine
 10
91.2153
 20
18.1336
 11
90.38979999999999
 21
18.1336
  0
LINE
  5
83
100
AcDbEntity
  8
0
  6
ByLayer
 62
    0
370
   -1
100
AcDbLine
 10
90.38979999999999
 20
18.1336
 11
90.38979999999999
 21
15.332
  0
LINE
  5
84
100
AcDbEntity
  8
0
  6
ByLayer
 62
    0
370
   -1
100
AcDbLine
 10
90.38979999999999
 20
15.332
 11
91.2153
 21
15.332
  0
LINE
  5
85
100
AcDbEntity
  8
0
  6
ByLayer
 62
    0
370
   -1
100
AcDbLine
 10
91.2153
 20
15.332
 11
91.2153
 21
9.06198
  0
LINE
  5
86
100
AcDbEntity
  8
0
  6
ByLayer
 62
    0
370
   -1
100
AcDbLine
 10
91.2153
 20
9.06198
 11
92.9404
 21
9.06198
  0
LINE
  5
87
100
AcDbEntity
  8
0
  6
ByLayer
 62
    0
370
   -1
100
AcDbLine
 10
92.9404
 20
9.06198
 11
92.9404
 21
8.08221
  0
LINE
  5
88
100
AcDbEntity
  8
0
  6
ByLayer
 62
    0
370
   -1
100
AcDbLine
 10
92.9404
 20
8.08221
 11
96.2409
 21
8.08221
  0
LINE
  5
89
100
AcDbEntity
  8
0
  6
ByLayer
 62
    0
370
   -1
100
AcDbLine
 10
96.2409
 20
8.08221
 11
96.2409
 21
9.06198
  0
LINE
  5
8A
100
AcDbEntity
  8
0
  6
ByLayer
 62
    0
370
   -1
100
AcDbLine
 10
96.2409
 20
9.06198
 11
97.96599999999999
 21
9.06198
  0
LINE
  5
8B
100
AcDbEntity
  8
0
  6
ByLayer
 62
    0
370
   -1
100
AcDbLine
 10
97.96599999999999
 20
9.06198
 11
97.96599999999999
 21
13.5323
  0
LINE
  5
8C
100
AcDbEntity
  8
0
  6
ByLayer
 62
    0
370
   -1
100
AcDbLine
 10
97.96599999999999
 20
13.5323
 11
139.97
 21
13.5323
  0
LINE
  5
8D
100
AcDbEntity
  8
0
  6
ByLayer
 62
    0
370
   -1
100
AcDbLine
 10
139.97
 20
13.5323
 11
139.97
 21
8.831860000000001
  0
LINE
  5
8E
100
AcDbEntity
  8
0
  6
ByLayer
 62
    0
370
   -1
100
AcDbLine
 10
139.97
 20
8.831860000000001
 11
153.971
 21
8.831860000000001
  0
LINE
  5
8F
100
AcDbEntity
  8
0
  6
ByLayer
 62
    0
370
   -1
100
AcDbLine
 10
153.971
 20
8.831860000000001
 11
153.971
 21
13.5323
  0
LINE
  5
90
100
AcDbEntity
  8
0
  6
ByLayer
 62
    0
370
   -1
100
AcDbLine
 10
153.971
 20
13.5323
 11
195.975
 21
13.5323
  0
LINE
  5
91
100
AcDbEntity
  8
0
  6
ByLayer
 62
    0
370
   -1
100
AcDbLine
 10
195.975
 20
13.5323
 11
195.975
 21
9.06198
  0
LINE
  5
92
100
AcDbEntity
  8
0
  6
ByLayer
 62
    0
370
   -1
100
AcDbLine
 10
195.975
 20
9.06198
 11
197.7
 21
9.06198
  0
LINE
  5
93
100
AcDbEntity
  8
0
  6
ByLayer
 62
    0
370
   -1
100
AcDbLine
 10
197.7
 20
9.06198
 11
197.7
 21
8.08221
  0
LINE
  5
94
100
AcDbEntity
  8
0
  6
ByLayer
 62
    0
370
   -1
100
AcDbLine
 10
197.7
 20
8.08221
 11
201.001
 21
8.08221
  0
LINE
  5
95
100
AcDbEntity
  8
0
  6
ByLayer
 62
    0
370
   -1
100
AcDbLine
 10
201.001
 20
8.08221
 11
201.001
 21
9.06198
  0
LINE
  5
96
100
AcDbEntity
  8
0
  6
ByLayer
 62
    0
370
   -1
100
AcDbLine
 10
201.001
 20
9.06198
 11
202.726
 21
9.06198
  0
LINE
  5
97
100
AcDbEntity
  8
0
  6
ByLayer
 62
    0
370
   -1
100
AcDbLine
 10
202.726
 20
9.06198
 11
202.726
 21
15.332
  0
LINE
  5
98
100
AcDbEntity
  8
0
  6
ByLayer
 62
    0
370
   -1
100
AcDbLine
 10
202.726
 20
15.332
 11
203.55
 21
15.332
  0
LINE
  5
99
100
AcDbEntity
  8
0
  6
ByLayer
 62
    0
370
   -1
100
AcDbLine
 10
203.55
 20
15.332
 11
203.55
 21
18.1336
  0
LINE
  5
9A
100
AcDbEntity
  8
0
  6
ByLayer
 62
    0
370
   -1
100
AcDbLine
 10
203.55
 20
18.1336
 11
202.726
 21
18.1336
  0
LINE
  5
9B
100
AcDbEntity
  8
0
  6
ByLayer
 62
    0
370
   -1
100
AcDbLine
 10
202.726
 20
18.1336
 11
202.726
 21
21.3624
  0
LINE
  5
9C
100
AcDbEntity
  8
0
  6
ByLayer
 62
    0
370
   -1
100
AcDbLine
 10
202.726
 20
21.3624
 11
201.001
 21
21.3624
  0
LINE
  5
9D
100
AcDbEntity
  8
0
  6
ByLayer
 62
    0
370
   -1
100
AcDbLine
 10
201.001
 20
21.3624
 11
201.001
 21
22.2829
  0
LINE
  5
9E
100
AcDbEntity
  8
0
  6
ByLayer
 62
    0
370
   -1
100
AcDbLine
 10
201.001
 20
22.2829
 11
197.7
 21
22.2829
  0
LINE
  5
9F
100
AcDbEntity
  8
0
  6
ByLayer
 62
    0
370
   -1
100
AcDbLine
 10
197.7
 20
22.2829
 11
197.7
 21
21.3624
  0
LINE
  5
A0
100
AcDbEntity
  8
0
  6
ByLayer
 62
    0
370
   -1
100
AcDbLine
 10
197.7
 20
21.3624
 11
195.975
 21
21.3624
  0
LINE
  5
A1
100
AcDbEntity
  8
0
  6
ByLayer
 62
    0
370
   -1
100
AcDbLine
 10
195.975
 20
21.3624
 11
195.975
 21
18.1336
  0
LINE
  5
A2
100
AcDbEntity
  8
0
  6
ByLayer
 62
    0
370
   -1
100
AcDbLine
 10
195.975
 20
18.1336
 11
153.971
 21
18.1336
  0
LINE
  5
A3
100
AcDbEntity
  8
0
  6
ByLayer
 62
    0
370
   -1
100
AcDbLine
 10
153.971
 20
18.1336
 11
153.971
 21
22.8327
  0
LINE
  5
A4
100
AcDbEntity
  8
0
  6
ByLayer
 62
    0
370
   -1
100
AcDbLine
 10
153.971
 20
22.8327
 11
139.97
 21
22.8327
  0
LINE
  5
A5
100
AcDbEntity
  8
0
  6
ByLayer
 62
    0
370
   -1
100
AcDbLine
 10
404.763
 20
22.8327
 11
418.765
 21
22.8327
  0
LINE
  5
A6
100
AcDbEntity
  8
0
  6
ByLayer
 62
    0
370
   -1
100
AcDbLine
 10
418.765
 20
22.8327
 11
418.765
 21
8.831860000000001
  0
LINE
  5
A7
100
AcDbEntity
  8
0
  6
ByLayer
 62
    0
370
   -1
100
AcDbLine
 10
418.765
 20
8.831860000000001
 11
404.763
 21
8.831860000000001
  0
LINE
  5
A8
100
AcDbEntity
  8
0
  6
ByLayer
 62
    0
370
   -1
100
AcDbLine
 10
404.763
 20
8.831860000000001
 11
404.763
 21
22.8327
  0
LINE
  5
A9
100
AcDbEntity
  8
0
  6
ByLayer
 62
    0
370
   -1
100
AcDbLine
 10
339.043
 20
22.8327
 11
353.042
 21
22.8327
  0
LINE
  5
AA
100
AcDbEntity
  8
0
  6
ByLayer
 62
    0
370
   -1
100
AcDbLine
 10
353.042
 20
22.8327
 11
353.042
 21
8.831860000000001
  0
LINE
  5
AB
100
AcDbEntity
  8
0
  6
ByLayer
 62
    0
370
   -1
100
AcDbLine
 10
353.042
 20
8.831860000000001
 11
339.043
 21
8.831860000000001
  0
LINE
  5
AC
100
AcDbEntity
  8
0
  6
ByLayer
 62
    0
370
   -1
100
AcDbLine
 10
339.043
 20
8.831860000000001
 11
339.043
 21
22.8327
  0
LINE
  5
AD
100
AcDbEntity
  8
0
  6
ByLayer
 62
    0
370
   -1
100
AcDbLine
 10
319.993
 20
22.8327
 11
333.992
 21
22.8327
  0
LINE
  5
AE
100
AcDbEntity
  8
0
  6
ByLayer
 62
    0
370
   -1
100
AcDbLine
 10
333.992
 20
22.8327
 11
333.992
 21
8.831860000000001
  0
LINE
  5
AF
100
AcDbEntity
  8
0
  6
ByLayer
 62
    0
370
   -1
100
AcDbLine
 10
333.992
 20
8.831860000000001
 11
319.993
 21
8.831860000000001
  0
LINE
  5
B0
100
AcDbEntity
  8
0
  6
ByLayer
 62
    0
370
   -1
100
AcDbLine
 10
319.993
 20
8.831860000000001
 11
319.993
 21
22.8327
  0
LINE
  5
B1
100
AcDbEntity
  8
0
  6
ByLayer
 62
    0
370
   -1
100
AcDbLine
 10
300.943
 20
22.8327
 11
314.942
 21
22.8327
  0
LINE
  5
B2
100
AcDbEntity
  8
0
  6
ByLayer
 62
    0
370
   -1
100
AcDbLine
 10
314.942
 20
22.8327
 11
314.942
 21
8.831860000000001
  0
LINE
  5
B3
100
AcDbEntity
  8
0
  6
ByLayer
 62
    0
370
   -1
100
AcDbLine
 10
314.942
 20
8.831860000000001
 11
300.943
 21
8.831860000000001
  0
LINE
  5
B4
100
AcDbEntity
  8
0
  6
ByLayer
 62
    0
370
   -1
100
AcDbLine
 10
300.943
 20
8.831860000000001
 11
300.943
 21
22.8327
  0
LINE
  5
B5
100
AcDbEntity
  8
0
  6
ByLayer
 62
    0
370
   -1
100
AcDbLine
 10
268.558
 20
22.8327
 11
282.557
 21
22.8327
  0
LINE
  5
B6
100
AcDbEntity
  8
0
  6
ByLayer
 62
    0
370
   -1
100
AcDbLine
 10
282.557
 20
22.8327
 11
282.557
 21
8.831860000000001
  0
LINE
  5
B7
100
AcDbEntity
  8
0
  6
ByLayer
 62
    0
370
   -1
100
AcDbLine
 10
282.557
 20
8.831860000000001
 11
268.558
 21
8.831860000000001
  0
LINE
  5
B8
100
AcDbEntity
  8
0
  6
ByLayer
 62
    0
370
   -1
100
AcDbLine
 10
268.558
 20
8.831860000000001
 11
268.558
 21
22.8327
  0
LINE
  5
B9
100
AcDbEntity
  8
0
  6
ByLayer
 62
    0
370
   -1
100
AcDbLine
 10
242.364
 20
22.8327
 11
256.362
 21
22.8327
  0
LINE
  5
BA
100
AcDbEntity
  8
0
  6
ByLayer
 62
    0
370
   -1
100
AcDbLine
 10
256.362
 20
22.8327
 11
256.362
 21
8.831860000000001
  0
LINE
  5
BB
100
AcDbEntity
  8
0
  6
ByLayer
 62
    0
370
   -1
100
AcDbLine
 10
256.362
 20
8.831860000000001
 11
242.364
 21
8.831860000000001
  0
LINE
  5
BC
100
AcDbEntity
  8
0
  6
ByLayer
 62
    0
370
   -1
100
AcDbLine
 10
242.364
 20
8.831860000000001
 11
242.364
 21
22.8327
  0
LINE
  5
BD
100
AcDbEntity
  8
0
  6
ByLayer
 62
    0
370
   -1
100
AcDbLine
 10
216.17
 20
22.8327
 11
230.171
 21
22.8327
  0
LINE
  5
BE
100
AcDbEntity
  8
0
  6
ByLayer
 62
    0
370
   -1
100
AcDbLine
 10
230.171
 20
22.8327
 11
230.171
 21
8.831860000000001
  0
LINE
  5
BF
100
AcDbEntity
  8
0
  6
ByLayer
 62
    0
370
   -1
100
AcDbLine
 10
230.171
 20
8.831860000000001
 11
216.17
 21
8.831860000000001
  0
LINE
  5
C0
100
AcDbEntity
  8
0
  6
ByLayer
 62
    0
370
   -1
100
AcDbLine
 10
216.17
 20
8.831860000000001
 11
216.17
 21
22.8327
  0
LINE
  5
C1
100
AcDbEntity
  8
0
  6
ByLayer
 62
    0
370
   -1
100
AcDbLine
 10
63.7702
 20
22.8327
 11
77.7709
 21
22.8327
  0
LINE
  5
C2
100
AcDbEntity
  8
0
  6
ByLayer
 62
    0
370
   -1
100
AcDbLine
 10
77.7709
 20
22.8327
 11
77.7709
 21
8.831860000000001
  0
LINE
  5
C3
100
AcDbEntity
  8
0
  6
ByLayer
 62
    0
370
   -1
100
AcDbLine
 10
77.7709
 20
8.831860000000001
 11
63.7702
 21
8.831860000000001
  0
LINE
  5
C4
100
AcDbEntity
  8
0
  6
ByLayer
 62
    0
370
   -1
100
AcDbLine
 10
63.7702
 20
8.831860000000001
 11
63.7702
 21
22.8327
  0
LINE
  5
C5
100
AcDbEntity
  8
0
  6
ByLayer
 62
    0
370
   -1
100
AcDbLine
 10
37.5765
 20
22.8327
 11
51.5758
 21
22.8327
  0
LINE
  5
C6
100
AcDbEntity
  8
0
  6
ByLayer
 62
    0
370
   -1
100
AcDbLine
 10
51.5758
 20
22.8327
 11
51.5758
 21
8.831860000000001
  0
LINE
  5
C7
100
AcDbEntity
  8
0
  6
ByLayer
 62
    0
370
   -1
100
AcDbLine
 10
51.5758
 20
8.831860000000001
 11
37.5765
 21
8.831860000000001
  0
LINE
  5
C8
100
AcDbEntity
  8
0
  6
ByLayer
 62
    0
370
   -1
100
AcDbLine
 10
37.5765
 20
8.831860000000001
 11
37.5765
 21
22.8327
  0
LINE
  5
C9
100
AcDbEntity
  8
0
  6
ByLayer
 62
    0
370
   -1
100
AcDbLine
 10
11.3812
 20
22.8327
 11
25.3821
 21
22.8327
  0
LINE
  5
CA
100
AcDbEntity
  8
0
  6
ByLayer
 62
    0
370
   -1
100
AcDbLine
 10
25.3821
 20
22.8327
 11
25.3821
 21
8.831860000000001
  0
LINE
  5
CB
100
AcDbEntity
  8
0
  6
ByLayer
 62
    0
370
   -1
100
AcDbLine
 10
25.3821
 20
8.831860000000001
 11
11.3812
 21
8.831860000000001
  0
LINE
  5
CC
100
AcDbEntity
  8
0
  6
ByLayer
 62
    0
370
   -1
100
AcDbLine
 10
11.3812
 20
8.831860000000001
 11
11.3812
 21
22.8327
  0
LINE
  5
CD
100
AcDbEntity
  8
0
  6
ByLayer
 62
    0
370
   -1
100
AcDbLine
 10
430.315
 20
41.4584
 11
430.315
 21
40.6329
  0
LINE
  5
CE
100
AcDbEntity
  8
0
  6
ByLayer
 62
    0
370
   -1
100
AcDbLine
 10
430.315
 20
40.6329
 11
424.046
 21
40.6329
  0
LINE
  5
CF
100
AcDbEntity
  8
0
  6
ByLayer
 62
    0
370
   -1
100
AcDbLine
 10
424.046
 20
40.6329
 11
424.046
 21
38.9089
  0
LINE
  5
D0
100
AcDbEntity
  8
0
  6
ByLayer
 62
    0
370
   -1
100
AcDbLine
 10
424.046
 20
38.9089
 11
423.065
 21
38.9089
  0
LINE
  5
D1
100
AcDbEntity
  8
0
  6
ByLayer
 62
    0
370
   -1
100
AcDbLine
 10
423.065
 20
38.9089
 11
423.065
 21
35.6087
  0
LINE
  5
D2
100
AcDbEntity
  8
0
  6
ByLayer
 62
    0
370
   -1
100
AcDbLine
 10
423.065
 20
35.6087
 11
424.046
 21
35.6087
  0
LINE
  5
D3
100
AcDbEntity
  8
0
  6
ByLayer
 62
    0
370
   -1
100
AcDbLine
 10
424.046
 20
35.6087
 11
424.046
 21
33.8832
  0
LINE
  5
D4
100
AcDbEntity
  8
0
  6
ByLayer
 62
    0
370
   -1
100
AcDbLine
 10
424.046
 20
33.8832
 11
428.516
 21
33.8832
  0
LINE
  5
D5
100
AcDbEntity
  8
0
  6
ByLayer
 62
    0
370
   -1
100
AcDbLine
 10
428.516
 20
33.8832
 11
428.516
 21
32.3577
  0
LINE
  5
D6
100
AcDbEntity
  8
0
  6
ByLayer
 62
    0
370
   -1
100
AcDbLine
 10
428.516
 20
32.3577
 11
423.817
 21
32.3577
  0
LINE
  5
D7
100
AcDbEntity
  8
0
  6
ByLayer
 62
    0
370
   -1
100
AcDbLine
 10
423.817
 20
32.3577
 11
423.817
 21
18.3582
  0
LINE
  5
D8
100
AcDbEntity
  8
0
  6
ByLayer
 62
    0
370
   -1
100
AcDbLine
 10
423.817
 20
18.3582
 11
428.516
 21
18.3582
  0
LINE
  5
D9
100
AcDbEntity
  8
0
  6
ByLayer
 62
    0
370
   -1
100
AcDbLine
 10
428.516
 20
18.3582
 11
428.516
 21
16.8327
  0
LINE
  5
DA
100
AcDbEntity
  8
0
  6
ByLayer
 62
    0
370
   -1
100
AcDbLine
 10
428.516
 20
16.8327
 11
424.046
 21
16.8327
  0
LINE
  5
DB
100
AcDbEntity
  8
0
  6
ByLayer
 62
    0
370
   -1
100
AcDbLine
 10
424.046
 20
16.8327
 11
424.046
 21
15.1088
  0
LINE
  5
DC
100
AcDbEntity
  8
0
  6
ByLayer
 62
    0
370
   -1
100
AcDbLine
 10
424.046
 20
15.1088
 11
423.065
 21
15.1088
  0
LINE
  5
DD
100
AcDbEntity
  8
0
  6
ByLayer
 62
    0
370
   -1
100
AcDbLine
 10
423.065
 20
15.1088
 11
423.065
 21
11.807
  0
LINE
  5
DE
100
AcDbEntity
  8
0
  6
ByLayer
 62
    0
370
   -1
100
AcDbLine
 10
423.065
 20
11.807
 11
424.046
 21
11.807
  0
LINE
  5
DF
100
AcDbEntity
  8
0
  6
ByLayer
 62
    0
370
   -1
100
AcDbLine
 10
424.046
 20
11.807
 11
424.046
 21
10.0817
  0
LINE
  5
E0
100
AcDbEntity
  8
0
  6
ByLayer
 62
    0
370
   -1
100
AcDbLine
 10
424.046
 20
10.0817
 11
430.315
 21
10.0817
  0
LINE
  5
E1
100
AcDbEntity
  8
0
  6
ByLayer
 62
    0
370
   -1
100
AcDbLine
 10
430.315
 20
10.0817
 11
430.315
 21
9.257669999999999
  0
LINE
  5
E2
100
AcDbEntity
  8
0
  6
ByLayer
 62
    0
370
   -1
100
AcDbLine
 10
430.315
 20
9.257669999999999
 11
433.116
 21
9.257669999999999
  0
LINE
  5
E3
100
AcDbEntity
  8
0
  6
ByLayer
 62
    0
370
   -1
100
AcDbLine
 10
433.116
 20
9.257669999999999
 11
433.116
 21
10.0817
  0
LINE
  5
E4
100
AcDbEntity
  8
0
  6
ByLayer
 62
    0
370
   -1
100
AcDbLine
 10
433.116
 20
10.0817
 11
436.347
 21
10.0817
  0
LINE
  5
E5
100
AcDbEntity
  8
0
  6
ByLayer
 62
    0
370
   -1
100
AcDbLine
 10
436.347
 20
10.0817
 11
436.347
 21
11.807
  0
LINE
  5
E6
100
AcDbEntity
  8
0
  6
ByLayer
 62
    0
370
   -1
100
AcDbLine
 10
436.347
 20
11.807
 11
437.265
 21
11.807
  0
LINE
  5
E7
100
AcDbEntity
  8
0
  6
ByLayer
 62
    0
370
   -1
100
AcDbLine
 10
437.265
 20
11.807
 11
437.265
 21
15.1088
  0
LINE
  5
E8
100
AcDbEntity
  8
0
  6
ByLayer
 62
    0
370
   -1
100
AcDbLine
 10
437.265
 20
15.1088
 11
436.347
 21
15.1088
  0
LINE
  5
E9
100
AcDbEntity
  8
0
  6
ByLayer
 62
    0
370
   -1
100
AcDbLine
 10
436.347
 20
15.1088
 11
436.347
 21
16.8327
  0
LINE
  5
EA
100
AcDbEntity
  8
0
  6
ByLayer
 62
    0
370
   -1
100
AcDbLine
 10
436.347
 20
16.8327
 11
433.116
 21
16.8327
  0
LINE
  5
EB
100
AcDbEntity
  8
0
  6
ByLayer
 62
    0
370
   -1
100
AcDbLine
 10
433.116
 20
16.8327
 11
433.116
 21
18.3582
  0
LINE
  5
EC
100
AcDbEntity
  8
0
  6
ByLayer
 62
    0
370
   -1
100
AcDbLine
 10
433.116
 20
18.3582
 11
437.815
 21
18.3582
  0
LINE
  5
ED
100
AcDbEntity
  8
0
  6
ByLayer
 62
    0
370
   -1
100
AcDbLine
 10
437.815
 20
18.3582
 11
437.815
 21
32.3577
  0
LINE
  5
EE
100
AcDbEntity
  8
0
  6
ByLayer
 62
    0
370
   -1
100
AcDbLine
 10
437.815
 20
32.3577
 11
433.116
 21
32.3577
  0
LINE
  5
EF
100
AcDbEntity
  8
0
  6
ByLayer
 62
    0
370
   -1
100
AcDbLine
 10
433.116
 20
32.3577
 11
433.116
 21
33.8832
  0
LINE
  5
F0
100
AcDbEntity
  8
0
  6
ByLayer
 62
    0
370
   -1
100
AcDbLine
 10
433.116
 20
33.8832
 11
436.347
 21
33.8832
  0
LINE
  5
F1
100
AcDbEntity
  8
0
  6
ByLayer
 62
    0
370
   -1
100
AcDbLine
 10
436.347
 20
33.8832
 11
436.347
 21
35.6087
  0
LINE
  5
F2
100
AcDbEntity
  8
0
  6
ByLayer
 62
    0
370
   -1
100
AcDbLine
 10
436.347
 20
35.6087
 11
437.265
 21
35.6087
  0
LINE
  5
F3
100
AcDbEntity
  8
0
  6
ByLayer
 62
    0
370
   -1
100
AcDbLine
 10
437.265
 20
35.6087
 11
437.265
 21
38.9089
  0
LINE
  5
F4
100
AcDbEntity
  8
0
  6
ByLayer
 62
    0
370
   -1
100
AcDbLine
 10
437.265
 20
38.9089
 11
436.347
 21
38.9089
  0
LINE
  5
F5
100
AcDbEntity
  8
0
  6
ByLayer
 62
    0
370
   -1
100
AcDbLine
 10
436.347
 20
38.9089
 11
436.347
 21
40.6329
  0
LINE
  5
F6
100
AcDbEntity
  8
0
  6
ByLayer
 62
    0
370
   -1
100
AcDbLine
 10
436.347
 20
40.6329
 11
433.116
 21
40.6329
  0
LINE
  5
F7
100
AcDbEntity
  8
0
  6
ByLayer
 62
    0
370
   -1
100
AcDbLine
 10
433.116
 20
40.6329
 11
433.116
 21
41.4584
  0
LINE
  5
F8
100
AcDbEntity
  8
0
  6
ByLayer
 62
    0
370
   -1
100
AcDbLine
 10
433.116
 20
41.4584
 11
430.315
 21
41.4584
  0
LINE
  5
F9
100
AcDbEntity
  8
0
  6
ByLayer
 62
    0
370
   -1
100
AcDbLine
 10
256.65
 20
41.8828
 11
256.65
 21
37.1821
  0
LINE
  5
FA
100
AcDbEntity
  8
0
  6
ByLayer
 62
    0
370
   -1
100
AcDbLine
 10
256.65
 20
37.1821
 11
255.126
 21
37.1821
  0
LINE
  5
FB
100
AcDbEntity
  8
0
  6
ByLayer
 62
    0
370
   -1
100
AcDbLine
 10
255.126
 20
37.1821
 11
255.126
 21
40.4139
  0
LINE
  5
FC
100
AcDbEntity
  8
0
  6
ByLayer
 62
    0
370
   -1
100
AcDbLine
 10
255.126
 20
40.4139
 11
253.401
 21
40.4139
  0
LINE
  5
FD
100
AcDbEntity
  8
0
  6
ByLayer
 62
    0
370
   -1
100
AcDbLine
 10
253.401
 20
40.4139
 11
253.401
 21
41.3329
  0
LINE
  5
FE
100
AcDbEntity
  8
0
  6
ByLayer
 62
    0
370
   -1
100
AcDbLine
 10
253.401
 20
41.3329
 11
250.101
 21
41.3329
  0
LINE
  5
FF
100
AcDbEntity
  8
0
  6
ByLayer
 62
    0
370
   -1
100
AcDbLine
 10
250.101
 20
41.3329
 11
250.101
 21
40.4139
  0
LINE
  5
100
100
AcDbEntity
  8
0
  6
ByLayer
 62
    0
370
   -1
100
AcDbLine
 10
250.101
 20
40.4139
 11
248.376
 21
40.4139
  0
LINE
  5
101
100
AcDbEntity
  8
0
  6
ByLayer
 62
    0
370
   -1
100
AcDbLine
 10
248.376
 20
40.4139
 11
248.376
 21
37.1821
  0
LINE
  5
102
100
AcDbEntity
  8
0
  6
ByLayer
 62
    0
370
   -1
100
AcDbLine
 10
248.376
 20
37.1821
 11
247.552
 21
37.1821
  0
LINE
  5
103
100
AcDbEntity
  8
0
  6
ByLayer
 62
    0
370
   -1
100
AcDbLine
 10
247.552
 20
37.1821
 11
247.552
 21
34.3834
  0
LINE
  5
104
100
AcDbEntity
  8
0
  6
ByLayer
 62
    0
370
   -1
100
AcDbLine
 10
247.552
 20
34.3834
 11
248.376
 21
34.3834
  0
LINE
  5
105
100
AcDbEntity
  8
0
  6
ByLayer
 62
    0
370
   -1
100
AcDbLine
 10
248.376
 20
34.3834
 11
248.376
 21
28.1134
  0
LINE
  5
106
100
AcDbEntity
  8
0
  6
ByLayer
 62
    0
370
   -1
100
AcDbLine
 10
248.376
 20
28.1134
 11
250.101
 21
28.1134
  0
LINE
  5
107
100
AcDbEntity
  8
0
  6
ByLayer
 62
    0
370
   -1
100
AcDbLine
 10
250.101
 20
28.1134
 11
250.101
 21
27.1336
  0
LINE
  5
108
100
AcDbEntity
  8
0
  6
ByLayer
 62
    0
370
   -1
100
AcDbLine
 10
250.101
 20
27.1336
 11
253.401
 21
27.1336
  0
LINE
  5
109
100
AcDbEntity
  8
0
  6
ByLayer
 62
    0
370
   -1
100
AcDbLine
 10
253.401
 20
27.1336
 11
253.401
 21
28.1134
  0
LINE
  5
10A
100
AcDbEntity
  8
0
  6
ByLayer
 62
    0
370
   -1
100
AcDbLine
 10
253.401
 20
28.1134
 11
255.126
 21
28.1134
  0
LINE
  5
10B
100
AcDbEntity
  8
0
  6
ByLayer
 62
    0
370
   -1
100
AcDbLine
 10
255.126
 20
28.1134
 11
255.126
 21
32.5837
  0
LINE
  5
10C
100
AcDbEntity
  8
0
  6
ByLayer
 62
    0
370
   -1
100
AcDbLine
 10
255.126
 20
32.5837
 11
256.65
 21
32.5837
  0
LINE
  5
10D
100
AcDbEntity
  8
0
  6
ByLayer
 62
    0
370
   -1
100
AcDbLine
 10
256.65
 20
32.5837
 11
256.65
 21
27.8832
  0
LINE
  5
10E
100
AcDbEntity
  8
0
  6
ByLayer
 62
    0
370
   -1
100
AcDbLine
 10
256.65
 20
27.8832
 11
270.651
 21
27.8832
  0
LINE
  5
10F
100
AcDbEntity
  8
0
  6
ByLayer
 62
    0
370
   -1
100
AcDbLine
 10
270.651
 20
27.8832
 11
270.651
 21
32.5837
  0
LINE
  5
110
100
AcDbEntity
  8
0
  6
ByLayer
 62
    0
370
   -1
100
AcDbLine
 10
270.651
 20
32.5837
 11
272.176
 21
32.5837
  0
LINE
  5
111
100
AcDbEntity
  8
0
  6
ByLayer
 62
    0
370
   -1
100
AcDbLine
 10
272.176
 20
32.5837
 11
272.176
 21
28.1134
  0
LINE
  5
112
100
AcDbEntity
  8
0
  6
ByLayer
 62
    0
370
   -1
100
AcDbLine
 10
272.176
 20
28.1134
 11
273.902
 21
28.1134
  0
LINE
  5
113
100
AcDbEntity
  8
0
  6
ByLayer
 62
    0
370
   -1
100
AcDbLine
 10
273.902
 20
28.1134
 11
273.902
 21
27.1336
  0
LINE
  5
114
100
AcDbEntity
  8
0
  6
ByLayer
 62
    0
370
   -1
100
AcDbLine
 10
273.902
 20
27.1336
 11
277.202
 21
27.1336
  0
LINE
  5
115
100
AcDbEntity
  8
0
  6
ByLayer
 62
    0
370
   -1
100
AcDbLine
 10
277.202
 20
27.1336
 11
277.202
 21
28.1134
  0
LINE
  5
116
100
AcDbEntity
  8
0
  6
ByLayer
 62
    0
370
   -1
100
AcDbLine
 10
277.202
 20
28.1134
 11
278.926
 21
28.1134
  0
LINE
  5
117
100
AcDbEntity
  8
0
  6
ByLayer
 62
    0
370
   -1
100
AcDbLine
 10
278.926
 20
28.1134
 11
278.926
 21
34.3834
  0
LINE
  5
118
100
AcDbEntity
  8
0
  6
ByLayer
 62
    0
370
   -1
100
AcDbLine
 10
278.926
 20
34.3834
 11
279.751
 21
34.3834
  0
LINE
  5
119
100
AcDbEntity
  8
0
  6
ByLayer
 62
    0
370
   -1
100
AcDbLine
 10
279.751
 20
34.3834
 11
279.751
 21
37.1821
  0
LINE
  5
11A
100
AcDbEntity
  8
0
  6
ByLayer
 62
    0
370
   -1
100
AcDbLine
 10
279.751
 20
37.1821
 11
278.926
 21
37.1821
  0
LINE
  5
11B
100
AcDbEntity
  8
0
  6
ByLayer
 62
    0
370
   -1
100
AcDbLine
 10
278.926
 20
37.1821
 11
278.926
 21
40.4139
  0
LINE
  5
11C
100
AcDbEntity
  8
0
  6
ByLayer
 62
    0
370
   -1
100
AcDbLine
 10
278.926
 20
40.4139
 11
277.202
 21
40.4139
  0
LINE
  5
11D
100
AcDbEntity
  8
0
  6
ByLayer
 62
    0
370
   -1
100
AcDbLine
 10
277.202
 20
40.4139
 11
277.202
 21
41.3329
  0
LINE
  5
11E
100
AcDbEntity
  8
0
  6
ByLayer
 62
    0
370
   -1
100
AcDbLine
 10
277.202
 20
41.3329
 11
273.902
 21
41.3329
  0
LINE
  5
11F
100
AcDbEntity
  8
0
  6
ByLayer
 62
    0
370
   -1
100
AcDbLine
 10
273.902
 20
41.3329
 11
273.902
 21
40.4139
  0
LINE
  5
120
100
AcDbEntity
  8
0
  6
ByLayer
 62
    0
370
   -1
100
AcDbLine
 10
273.902
 20
40.4139
 11
272.176
 21
40.4139
  0
LINE
  5
121
100
AcDbEntity
  8
0
  6
ByLayer
 62
    0
370
   -1
100
AcDbLine
 10
272.176
 20
40.4139
 11
272.176
 21
37.1821
  0
LINE
  5
122
100
AcDbEntity
  8
0
  6
ByLayer
 62
    0
370
   -1
100
AcDbLine
 10
272.176
 20
37.1821
 11
270.651
 21
37.1821
  0
LINE
  5
123
100
AcDbEntity
  8
0
  6
ByLayer
 62
    0
370
   -1
100
AcDbLine
 10
270.651
 20
37.1821
 11
270.651
 21
41.8828
  0
LINE
  5
124
100
AcDbEntity
  8
0
  6
ByLayer
 62
    0
370
   -1
100
AcDbLine
 10
270.651
 20
41.8828
 11
256.65
 21
41.8828
  0
LINE
  5
125
100
AcDbEntity
  8
0
  6
ByLayer
 62
    0
370
   -1
100
AcDbLine
 10
18.5263
 20
41.8828
 11
18.5263
 21
37.1821
  0
LINE
  5
126
100
AcDbEntity
  8
0
  6
ByLayer
 62
    0
370
   -1
100
AcDbLine
 10
18.5263
 20
37.1821
 11
17.0009
 21
37.1821
  0
LINE
  5
127
100
AcDbEntity
  8
0
  6
ByLayer
 62
    0
370
   -1
100
AcDbLine
 10
17.0009
 20
37.1821
 11
17.0009
 21
40.4139
  0
LINE
  5
128
100
AcDbEntity
  8
0
  6
ByLayer
 62
    0
370
   -1
100
AcDbLine
 10
17.0009
 20
40.4139
 11
15.2769
 21
40.4139
  0
LINE
  5
129
100
AcDbEntity
  8
0
  6
ByLayer
 62
    0
370
   -1
100
AcDbLine
 10
15.2769
 20
40.4139
 11
15.2769
 21
41.3329
  0
LINE
  5
12A
100
AcDbEntity
  8
0
  6
ByLayer
 62
    0
370
   -1
100
AcDbLine
 10
15.2769
 20
41.3329
 11
11.9765
 21
41.3329
  0
LINE
  5
12B
100
AcDbEntity
  8
0
  6
ByLayer
 62
    0
370
   -1
100
AcDbLine
 10
11.9765
 20
41.3329
 11
11.9765
 21
40.4139
  0
LINE
  5
12C
100
AcDbEntity
  8
0
  6
ByLayer
 62
    0
370
   -1
100
AcDbLine
 10
11.9765
 20
40.4139
 11
10.2512
 21
40.4139
  0
LINE
  5
12D
100
AcDbEntity
  8
0
  6
ByLayer
 62
    0
370
   -1
100
AcDbLine
 10
10.2512
 20
40.4139
 11
10.2512
 21
37.1821
  0
LINE
  5
12E
100
AcDbEntity
  8
0
  6
ByLayer
 62
    0
370
   -1
100
AcDbLine
 10
10.2512
 20
37.1821
 11
9.42717
 21
37.1821
  0
LINE
  5
12F
100
AcDbEntity
  8
0
  6
ByLayer
 62
    0
370
   -1
100
AcDbLine
 10
9.42717
 20
37.1821
 11
9.42717
 21
34.3834
  0
LINE
  5
130
100
AcDbEntity
  8
0
  6
ByLayer
 62
    0
370
   -1
100
AcDbLine
 10
9.42717
 20
34.3834
 11
10.2512
 21
34.3834
  0
LINE
  5
131
100
AcDbEntity
  8
0
  6
ByLayer
 62
    0
370
   -1
100
AcDbLine
 10
10.2512
 20
34.3834
 11
10.2512
 21
28.1134
  0
LINE
  5
132
100
AcDbEntity
  8
0
  6
ByLayer
 62
    0
370
   -1
100
AcDbLine
 10
10.2512
 20
28.1134
 11
11.9765
 21
28.1134
  0
LINE
  5
133
100
AcDbEntity
  8
0
  6
ByLayer
 62
    0
370
   -1
100
AcDbLine
 10
11.9765
 20
28.1134
 11
11.9765
 21
27.1336
  0
LINE
  5
134
100
AcDbEntity
  8
0
  6
ByLayer
 62
    0
370
   -1
100
AcDbLine
 10
11.9765
 20
27.1336
 11
15.2769
 21
27.1336
  0
LINE
  5
135
100
AcDbEntity
  8
0
  6
ByLayer
 62
    0
370
   -1
100
AcDbLine
 10
15.2769
 20
27.1336
 11
15.2769
 21
28.1134
  0
LINE
  5
136
100
AcDbEntity
  8
0
  6
ByLayer
 62
    0
370
   -1
100
AcDbLine
 10
15.2769
 20
28.1134
 11
17.0009
 21
28.1134
  0
LINE
  5
137
100
AcDbEntity
  8
0
  6
ByLayer
 62
    0
370
   -1
100
AcDbLine
 10
17.0009
 20
28.1134
 11
17.0009
 21
32.5837
  0
LINE
  5
138
100
AcDbEntity
  8
0
  6
ByLayer
 62
    0
370
   -1
100
AcDbLine
 10
17.0009
 20
32.5837
 11
18.5263
 21
32.5837
  0
LINE
  5
139
100
AcDbEntity
  8
0
  6
ByLayer
 62
    0
370
   -1
100
AcDbLine
 10
18.5263
 20
32.5837
 11
18.5263
 21
27.8832
  0
LINE
  5
13A
100
AcDbEntity
  8
0
  6
ByLayer
 62
    0
370
   -1
100
AcDbLine
 10
18.5263
 20
27.8832
 11
32.5258
 21
27.8832
  0
LINE
  5
13B
100
AcDbEntity
  8
0
  6
ByLayer
 62
    0
370
   -1
100
AcDbLine
 10
32.5258
 20
27.8832
 11
32.5258
 21
32.5837
  0
LINE
  5
13C
100
AcDbEntity
  8
0
  6
ByLayer
 62
    0
370
   -1
100
AcDbLine
 10
32.5258
 20
32.5837
 11
34.0513
 21
32.5837
  0
LINE
  5
13D
100
AcDbEntity
  8
0
  6
ByLayer
 62
    0
370
   -1
100
AcDbLine
 10
34.0513
 20
32.5837
 11
34.0513
 21
28.1134
  0
LINE
  5
13E
100
AcDbEntity
  8
0
  6
ByLayer
 62
    0
370
   -1
100
AcDbLine
 10
34.0513
 20
28.1134
 11
35.7766
 21
28.1134
  0
LINE
  5
13F
100
AcDbEntity
  8
0
  6
ByLayer
 62
    0
370
   -1
100
AcDbLine
 10
35.7766
 20
28.1134
 11
35.7766
 21
27.1336
  0
LINE
  5
140
100
AcDbEntity
  8
0
  6
ByLayer
 62
    0
370
   -1
100
AcDbLine
 10
35.7766
 20
27.1336
 11
39.0772
 21
27.1336
  0
LINE
  5
141
100
AcDbEntity
  8
0
  6
ByLayer
 62
    0
370
   -1
100
AcDbLine
 10
39.0772
 20
27.1336
 11
39.0772
 21
28.1134
  0
LINE
  5
142
100
AcDbEntity
  8
0
  6
ByLayer
 62
    0
370
   -1
100
AcDbLine
 10
39.0772
 20
28.1134
 11
40.8009
 21
28.1134
  0
LINE
  5
143
100
AcDbEntity
  8
0
  6
ByLayer
 62
    0
370
   -1
100
AcDbLine
 10
40.8009
 20
28.1134
 11
40.8009
 21
34.3834
  0
LINE
  5
144
100
AcDbEntity
  8
0
  6
ByLayer
 62
    0
370
   -1
100
AcDbLine
 10
40.8009
 20
34.3834
 11
41.6264
 21
34.3834
  0
LINE
  5
145
100
AcDbEntity
  8
0
  6
ByLayer
 62
    0
370
   -1
100
AcDbLine
 10
41.6264
 20
34.3834
 11
41.6264
 21
37.1821
  0
LINE
  5
146
100
AcDbEntity
  8
0
  6
ByLayer
 62
    0
370
   -1
100
AcDbLine
 10
41.6264
 20
37.1821
 11
40.8009
 21
37.1821
  0
LINE
  5
147
100
AcDbEntity
  8
0
  6
ByLayer
 62
    0
370
   -1
100
AcDbLine
 10
40.8009
 20
37.1821
 11
40.8009
 21
40.4139
  0
LINE
  5
148
100
AcDbEntity
  8
0
  6
ByLayer
 62
    0
370
   -1
100
AcDbLine
 10
40.8009
 20
40.4139
 11
39.0772
 21
40.4139
  0
LINE
  5
149
100
AcDbEntity
  8
0
  6
ByLayer
 62
    0
370
   -1
100
AcDbLine
 10
39.0772
 20
40.4139
 11
39.0772
 21
41.3329
  0
LINE
  5
14A
100
AcDbEntity
  8
0
  6
ByLayer
 62
    0
370
   -1
100
AcDbLine
 10
39.0772
 20
41.3329
 11
35.7766
 21
41.3329
  0
LINE
  5
14B
100
AcDbEntity
  8
0
  6
ByLayer
 62
    0
370
   -1
100
AcDbLine
 10
35.7766
 20
41.3329
 11
35.7766
 21
40.4139
  0
LINE
  5
14C
100
AcDbEntity
  8
0
  6
ByLayer
 62
    0
370
   -1
100
AcDbLine
 10
35.7766
 20
40.4139
 11
34.0513
 21
40.4139
  0
LINE
  5
14D
100
AcDbEntity
  8
0
  6
ByLayer
 62
    0
370
   -1
100
AcDbLine
 10
34.0513
 20
40.4139
 11
34.0513
 21
37.1821
  0
LINE
  5
14E
100
AcDbEntity
  8
0
  6
ByLayer
 62
    0
370
   -1
100
AcDbLine
 10
34.0513
 20
37.1821
 11
32.5258
 21
37.1821
  0
LINE
  5
14F
100
AcDbEntity
  8
0
  6
ByLayer
 62
    0
370
   -1
100
AcDbLine
 10
32.5258
 20
37.1821
 11
32.5258
 21
41.8828
  0
LINE
  5
150
100
AcDbEntity
  8
0
  6
ByLayer
 62
    0
370
   -1
100
AcDbLine
 10
32.5258
 20
41.8828
 11
18.5263
 21
41.8828
  0
LINE
  5
151
100
AcDbEntity
  8
0
  6
ByLayer
 62
    0
370
   -1
100
AcDbLine
 10
404.767
 20
41.8828
 11
418.765
 21
41.8828
  0
LINE
  5
152
100
AcDbEntity
  8
0
  6
ByLayer
 62
    0
370
   -1
100
AcDbLine
 10
418.765
 20
41.8828
 11
418.765
 21
27.8832
  0
LINE
  5
153
100
AcDbEntity
  8
0
  6
ByLayer
 62
    0
370
   -1
100
AcDbLine
 10
418.765
 20
27.8832
 11
404.767
 21
27.8832
  0
LINE
  5
154
100
AcDbEntity
  8
0
  6
ByLayer
 62
    0
370
   -1
100
AcDbLine
 10
404.767
 20
27.8832
 11
404.767
 21
41.8828
  0
LINE
  5
155
100
AcDbEntity
  8
0
  6
ByLayer
 62
    0
370
   -1
100
AcDbLine
 10
385.717
 20
41.8828
 11
399.715
 21
41.8828
  0
LINE
  5
156
100
AcDbEntity
  8
0
  6
ByLayer
 62
    0
370
   -1
100
AcDbLine
 10
399.715
 20
41.8828
 11
399.715
 21
27.8832
  0
LINE
  5
157
100
AcDbEntity
  8
0
  6
ByLayer
 62
    0
370
   -1
100
AcDbLine
 10
399.715
 20
27.8832
 11
385.717
 21
27.8832
  0
LINE
  5
158
100
AcDbEntity
  8
0
  6
ByLayer
 62
    0
370
   -1
100
AcDbLine
 10
385.717
 20
27.8832
 11
385.717
 21
41.8828
  0
LINE
  5
159
100
AcDbEntity
  8
0
  6
ByLayer
 62
    0
370
   -1
100
AcDbLine
 10
366.667
 20
41.8828
 11
380.665
 21
41.8828
  0
LINE
  5
15A
100
AcDbEntity
  8
0
  6
ByLayer
 62
    0
370
   -1
100
AcDbLine
 10
380.665
 20
41.8828
 11
380.665
 21
27.8832
  0
LINE
  5
15B
100
AcDbEntity
  8
0
  6
ByLayer
 62
    0
370
   -1
100
AcDbLine
 10
380.665
 20
27.8832
 11
366.667
 21
27.8832
  0
LINE
  5
15C
100
AcDbEntity
  8
0
  6
ByLayer
 62
    0
370
   -1
100
AcDbLine
 10
366.667
 20
27.8832
 11
366.667
 21
41.8828
  0
LINE
  5
15D
100
AcDbEntity
  8
0
  6
ByLayer
 62
    0
370
   -1
100
AcDbLine
 10
319.993
 20
41.8828
 11
333.992
 21
41.8828
  0
LINE
  5
15E
100
AcDbEntity
  8
0
  6
ByLayer
 62
    0
370
   -1
100
AcDbLine
 10
333.992
 20
41.8828
 11
333.992
 21
27.8832
  0
LINE
  5
15F
100
AcDbEntity
  8
0
  6
ByLayer
 62
    0
370
   -1
100
AcDbLine
 10
333.992
 20
27.8832
 11
319.993
 21
27.8832
  0
LINE
  5
160
100
AcDbEntity
  8
0
  6
ByLayer
 62
    0
370
   -1
100
AcDbLine
 10
319.993
 20
27.8832
 11
319.993
 21
41.8828
  0
LINE
  5
161
100
AcDbEntity
  8
0
  6
ByLayer
 62
    0
370
   -1
100
AcDbLine
 10
220.933
 20
41.8828
 11
234.932
 21
41.8828
  0
LINE
  5
162
100
AcDbEntity
  8
0
  6
ByLayer
 62
    0
370
   -1
100
AcDbLine
 10
234.932
 20
41.8828
 11
234.932
 21
27.8832
  0
LINE
  5
163
100
AcDbEntity
  8
0
  6
ByLayer
 62
    0
370
   -1
100
AcDbLine
 10
234.932
 20
27.8832
 11
220.933
 21
27.8832
  0
LINE
  5
164
100
AcDbEntity
  8
0
  6
ByLayer
 62
    0
370
   -1
100
AcDbLine
 10
220.933
 20
27.8832
 11
220.933
 21
41.8828
  0
LINE
  5
165
100
AcDbEntity
  8
0
  6
ByLayer
 62
    0
370
   -1
100
AcDbLine
 10
201.883
 20
41.8828
 11
215.882
 21
41.8828
  0
LINE
  5
166
100
AcDbEntity
  8
0
  6
ByLayer
 62
    0
370
   -1
100
AcDbLine
 10
215.882
 20
41.8828
 11
215.882
 21
27.8832
  0
LINE
  5
167
100
AcDbEntity
  8
0
  6
ByLayer
 62
    0
370
   -1
100
AcDbLine
 10
215.882
 20
27.8832
 11
201.883
 21
27.8832
  0
LINE
  5
168
100
AcDbEntity
  8
0
  6
ByLayer
 62
    0
370
   -1
100
AcDbLine
 10
201.883
 20
27.8832
 11
201.883
 21
41.8828
  0
LINE
  5
169
100
AcDbEntity
  8
0
  6
ByLayer
 62
    0
370
   -1
100
AcDbLine
 10
182.833
 20
41.8828
 11
196.832
 21
41.8828
  0
LINE
  5
16A
100
AcDbEntity
  8
0
  6
ByLayer
 62
    0
370
   -1
100
AcDbLine
 10
196.832
 20
41.8828
 11
196.832
 21
27.8832
  0
LINE
  5
16B
100
AcDbEntity
  8
0
  6
ByLayer
 62
    0
370
   -1
100
AcDbLine
 10
196.832
 20
27.8832
 11
182.833
 21
27.8832
  0
LINE
  5
16C
100
AcDbEntity
  8
0
  6
ByLayer
 62
    0
370
   -1
100
AcDbLine
 10
182.833
 20
27.8832
 11
182.833
 21
41.8828
  0
LINE
  5
16D
100
AcDbEntity
  8
0
  6
ByLayer
 62
    0
370
   -1
100
AcDbLine
 10
163.783
 20
41.8828
 11
177.782
 21
41.8828
  0
LINE
  5
16E
100
AcDbEntity
  8
0
  6
ByLayer
 62
    0
370
   -1
100
AcDbLine
 10
177.782
 20
41.8828
 11
177.782
 21
27.8832
  0
LINE
  5
16F
100
AcDbEntity
  8
0
  6
ByLayer
 62
    0
370
   -1
100
AcDbLine
 10
177.782
 20
27.8832
 11
163.783
 21
27.8832
  0
LINE
  5
170
100
AcDbEntity
  8
0
  6
ByLayer
 62
    0
370
   -1
100
AcDbLine
 10
163.783
 20
27.8832
 11
163.783
 21
41.8828
  0
LINE
  5
171
100
AcDbEntity
  8
0
  6
ByLayer
 62
    0
370
   -1
100
AcDbLine
 10
144.733
 20
41.8828
 11
158.732
 21
41.8828
  0
LINE
  5
172
100
AcDbEntity
  8
0
  6
ByLayer
 62
    0
370
   -1
100
AcDbLine
 10
158.732
 20
41.8828
 11
158.732
 21
27.8832
  0
LINE
  5
173
100
AcDbEntity
  8
0
  6
ByLayer
 62
    0
370
   -1
100
AcDbLine
 10
158.732
 20
27.8832
 11
144.733
 21
27.8832
  0
LINE
  5
174
100
AcDbEntity
  8
0
  6
ByLayer
 62
    0
370
   -1
100
AcDbLine
 10
144.733
 20
27.8832
 11
144.733
 21
41.8828
  0
LINE
  5
175
100
AcDbEntity
  8
0
  6
ByLayer
 62
    0
370
   -1
100
AcDbLine
 10
125.681
 20
41.8828
 11
139.682
 21
41.8828
  0
LINE
  5
176
100
AcDbEntity
  8
0
  6
ByLayer
 62
    0
370
   -1
100
AcDbLine
 10
139.682
 20
41.8828
 11
139.682
 21
27.8832
  0
LINE
  5
177
100
AcDbEntity
  8
0
  6
ByLayer
 62
    0
370
   -1
100
AcDbLine
 10
139.682
 20
27.8832
 11
125.681
 21
27.8832
  0
LINE
  5
178
100
AcDbEntity
  8
0
  6
ByLayer
 62
    0
370
   -1
100
AcDbLine
 10
125.681
 20
27.8832
 11
125.681
 21
41.8828
  0
LINE
  5
179
100
AcDbEntity
  8
0
  6
ByLayer
 62
    0
370
   -1
100
AcDbLine
 10
106.633
 20
41.8828
 11
120.632
 21
41.8828
  0
LINE
  5
17A
100
AcDbEntity
  8
0
  6
ByLayer
 62
    0
370
   -1
100
AcDbLine
 10
120.632
 20
41.8828
 11
120.632
 21
27.8832
  0
LINE
  5
17B
100
AcDbEntity
  8
0
  6
ByLayer
 62
    0
370
   -1
100
AcDbLine
 10
120.632
 20
27.8832
 11
106.633
 21
27.8832
  0
LINE
  5
17C
100
AcDbEntity
  8
0
  6
ByLayer
 62
    0
370
   -1
100
AcDbLine
 10
106.633
 20
27.8832
 11
106.633
 21
41.8828
  0
LINE
  5
17D
100
AcDbEntity
  8
0
  6
ByLayer
 62
    0
370
   -1
100
AcDbLine
 10
87.5827
 20
41.8828
 11
101.582
 21
41.8828
  0
LINE
  5
17E
100
AcDbEntity
  8
0
  6
ByLayer
 62
    0
370
   -1
100
AcDbLine
 10
101.582
 20
41.8828
 11
101.582
 21
27.8832
  0
LINE
  5
17F
100
AcDbEntity
  8
0
  6
ByLayer
 62
    0
370
   -1
100
AcDbLine
 10
101.582
 20
27.8832
 11
87.5827
 21
27.8832
  0
LINE
  5
180
100
AcDbEntity
  8
0
  6
ByLayer
 62
    0
370
   -1
100
AcDbLine
 10
87.5827
 20
27.8832
 11
87.5827
 21
41.8828
  0
LINE
  5
181
100
AcDbEntity
  8
0
  6
ByLayer
 62
    0
370
   -1
100
AcDbLine
 10
68.53270000000001
 20
41.8828
 11
82.532
 21
41.8828
  0
LINE
  5
182
100
AcDbEntity
  8
0
  6
ByLayer
 62
    0
370
   -1
100
AcDbLine
 10
82.532
 20
41.8828
 11
82.532
 21
27.8832
  0
LINE
  5
183
100
AcDbEntity
  8
0
  6
ByLayer
 62
    0
370
   -1
100
AcDbLine
 10
82.532
 20
27.8832
 11
68.53270000000001
 21
27.8832
  0
LINE
  5
184
100
AcDbEntity
  8
0
  6
ByLayer
 62
    0
370
   -1
100
AcDbLine
 10
68.53270000000001
 20
27.8832
 11
68.53270000000001
 21
41.8828
  0
LINE
  5
185
100
AcDbEntity
  8
0
  6
ByLayer
 62
    0
370
   -1
100
AcDbLine
 10
49.4827
 20
41.8828
 11
63.482
 21
41.8828
  0
LINE
  5
186
100
AcDbEntity
  8
0
  6
ByLayer
 62
    0
370
   -1
100
AcDbLine
 10
63.482
 20
41.8828
 11
63.482
 21
27.8832
  0
LINE
  5
187
100
AcDbEntity
  8
0
  6
ByLayer
 62
    0
370
   -1
100
AcDbLine
 10
63.482
 20
27.8832
 11
49.4827
 21
27.8832
  0
LINE
  5
188
100
AcDbEntity
  8
0
  6
ByLayer
 62
    0
370
   -1
100
AcDbLine
 10
49.4827
 20
27.8832
 11
49.4827
 21
41.8828
  0
LINE
  5
189
100
AcDbEntity
  8
0
  6
ByLayer
 62
    0
370
   -1
100
AcDbLine
 10
261.414
 20
60.9328
 11
261.414
 21
56.2321
  0
LINE
  5
18A
100
AcDbEntity
  8
0
  6
ByLayer
 62
    0
370
   -1
100
AcDbLine
 10
261.414
 20
56.2321
 11
259.888
 21
56.2321
  0
LINE
  5
18B
100
AcDbEntity
  8
0
  6
ByLayer
 62
    0
370
   -1
100
AcDbLine
 10
259.888
 20
56.2321
 11
259.888
 21
59.4625
  0
LINE
  5
18C
100
AcDbEntity
  8
0
  6
ByLayer
 62
    0
370
   -1
100
AcDbLine
 10
259.888
 20
59.4625
 11
258.163
 21
59.4625
  0
LINE
  5
18D
100
AcDbEntity
  8
0
  6
ByLayer
 62
    0
370
   -1
100
AcDbLine
 10
258.163
 20
59.4625
 11
258.163
 21
60.3829
  0
LINE
  5
18E
100
AcDbEntity
  8
0
  6
ByLayer
 62
    0
370
   -1
100
AcDbLine
 10
258.163
 20
60.3829
 11
254.863
 21
60.3829
  0
LINE
  5
18F
100
AcDbEntity
  8
0
  6
ByLayer
 62
    0
370
   -1
100
AcDbLine
 10
254.863
 20
60.3829
 11
254.863
 21
59.4625
  0
LINE
  5
190
100
AcDbEntity
  8
0
  6
ByLayer
 62
    0
370
   -1
100
AcDbLine
 10
254.863
 20
59.4625
 11
253.139
 21
59.4625
  0
LINE
  5
191
100
AcDbEntity
  8
0
  6
ByLayer
 62
    0
370
   -1
100
AcDbLine
 10
253.139
 20
59.4625
 11
253.139
 21
56.2321
  0
LINE
  5
192
100
AcDbEntity
  8
0
  6
ByLayer
 62
    0
370
   -1
100
AcDbLine
 10
253.139
 20
56.2321
 11
252.313
 21
56.2321
  0
LINE
  5
193
100
AcDbEntity
  8
0
  6
ByLayer
 62
    0
370
   -1
100
AcDbLine
 10
252.313
 20
56.2321
 11
252.313
 21
53.4321
  0
LINE
  5
194
100
AcDbEntity
  8
0
  6
ByLayer
 62
    0
370
   -1
100
AcDbLine
 10
252.313
 20
53.4321
 11
253.139
 21
53.4321
  0
LINE
  5
195
100
AcDbEntity
  8
0
  6
ByLayer
 62
    0
370
   -1
100
AcDbLine
 10
253.139
 20
53.4321
 11
253.139
 21
47.1632
  0
LINE
  5
196
100
AcDbEntity
  8
0
  6
ByLayer
 62
    0
370
   -1
100
AcDbLine
 10
253.139
 20
47.1632
 11
254.863
 21
47.1632
  0
LINE
  5
197
100
AcDbEntity
  8
0
  6
ByLayer
 62
    0
370
   -1
100
AcDbLine
 10
254.863
 20
47.1632
 11
254.863
 21
46.1821
  0
LINE
  5
198
100
AcDbEntity
  8
0
  6
ByLayer
 62
    0
370
   -1
100
AcDbLine
 10
254.863
 20
46.1821
 11
258.163
 21
46.1821
  0
LINE
  5
199
100
AcDbEntity
  8
0
  6
ByLayer
 62
    0
370
   -1
100
AcDbLine
 10
258.163
 20
46.1821
 11
258.163
 21
47.1632
  0
LINE
  5
19A
100
AcDbEntity
  8
0
  6
ByLayer
 62
    0
370
   -1
100
AcDbLine
 10
258.163
 20
47.1632
 11
259.888
 21
47.1632
  0
LINE
  5
19B
100
AcDbEntity
  8
0
  6
ByLayer
 62
    0
370
   -1
100
AcDbLine
 10
259.888
 20
47.1632
 11
259.888
 21
51.6336
  0
LINE
  5
19C
100
AcDbEntity
  8
0
  6
ByLayer
 62
    0
370
   -1
100
AcDbLine
 10
259.888
 20
51.6336
 11
261.414
 21
51.6336
  0
LINE
  5
19D
100
AcDbEntity
  8
0
  6
ByLayer
 62
    0
370
   -1
100
AcDbLine
 10
261.414
 20
51.6336
 11
261.414
 21
46.9318
  0
LINE
  5
19E
100
AcDbEntity
  8
0
  6
ByLayer
 62
    0
370
   -1
100
AcDbLine
 10
261.414
 20
46.9318
 11
275.413
 21
46.9318
  0
LINE
  5
19F
100
AcDbEntity
  8
0
  6
ByLayer
 62
    0
370
   -1
100
AcDbLine
 10
275.413
 20
46.9318
 11
275.413
 21
51.6336
  0
LINE
  5
1A0
100
AcDbEntity
  8
0
  6
ByLayer
 62
    0
370
   -1
100
AcDbLine
 10
275.413
 20
51.6336
 11
276.939
 21
51.6336
  0
LINE
  5
1A1
100
AcDbEntity
  8
0
  6
ByLayer
 62
    0
370
   -1
100
AcDbLine
 10
276.939
 20
51.6336
 11
276.939
 21
47.1632
  0
LINE
  5
1A2
100
AcDbEntity
  8
0
  6
ByLayer
 62
    0
370
   -1
100
AcDbLine
 10
276.939
 20
47.1632
 11
278.664
 21
47.1632
  0
LINE
  5
1A3
100
AcDbEntity
  8
0
  6
ByLayer
 62
    0
370
   -1
100
AcDbLine
 10
278.664
 20
47.1632
 11
278.664
 21
46.1821
  0
LINE
  5
1A4
100
AcDbEntity
  8
0
  6
ByLayer
 62
    0
370
   -1
100
AcDbLine
 10
278.664
 20
46.1821
 11
281.963
 21
46.1821
  0
LINE
  5
1A5
100
AcDbEntity
  8
0
  6
ByLayer
 62
    0
370
   -1
100
AcDbLine
 10
281.963
 20
46.1821
 11
281.963
 21
47.1632
  0
LINE
  5
1A6
100
AcDbEntity
  8
0
  6
ByLayer
 62
    0
370
   -1
100
AcDbLine
 10
281.963
 20
47.1632
 11
283.688
 21
47.1632
  0
LINE
  5
1A7
100
AcDbEntity
  8
0
  6
ByLayer
 62
    0
370
   -1
100
AcDbLine
 10
283.688
 20
47.1632
 11
283.688
 21
53.4321
  0
LINE
  5
1A8
100
AcDbEntity
  8
0
  6
ByLayer
 62
    0
370
   -1
100
AcDbLine
 10
283.688
 20
53.4321
 11
284.514
 21
53.4321
  0
LINE
  5
1A9
100
AcDbEntity
  8
0
  6
ByLayer
 62
    0
370
   -1
100
AcDbLine
 10
284.514
 20
53.4321
 11
284.514
 21
56.2321
  0
LINE
  5
1AA
100
AcDbEntity
  8
0
  6
ByLayer
 62
    0
370
   -1
100
AcDbLine
 10
284.514
 20
56.2321
 11
283.688
 21
56.2321
  0
LINE
  5
1AB
100
AcDbEntity
  8
0
  6
ByLayer
 62
    0
370
   -1
100
AcDbLine
 10
283.688
 20
56.2321
 11
283.688
 21
59.4625
  0
LINE
  5
1AC
100
AcDbEntity
  8
0
  6
ByLayer
 62
    0
370
   -1
100
AcDbLine
 10
283.688
 20
59.4625
 11
281.963
 21
59.4625
  0
LINE
  5
1AD
100
AcDbEntity
  8
0
  6
ByLayer
 62
    0
370
   -1
100
AcDbLine
 10
281.963
 20
59.4625
 11
281.963
 21
60.3829
  0
LINE
  5
1AE
100
AcDbEntity
  8
0
  6
ByLayer
 62
    0
370
   -1
100
AcDbLine
 10
281.963
 20
60.3829
 11
278.664
 21
60.3829
  0
LINE
  5
1AF
100
AcDbEntity
  8
0
  6
ByLayer
 62
    0
370
   -1
100
AcDbLine
 10
278.664
 20
60.3829
 11
278.664
 21
59.4625
  0
LINE
  5
1B0
100
AcDbEntity
  8
0
  6
ByLayer
 62
    0
370
   -1
100
AcDbLine
 10
278.664
 20
59.4625
 11
276.939
 21
59.4625
  0
LINE
  5
1B1
100
AcDbEntity
  8
0
  6
ByLayer
 62
    0
370
   -1
100
AcDbLine
 10
276.939
 20
59.4625
 11
276.939
 21
56.2321
  0
LINE
  5
1B2
100
AcDbEntity
  8
0
  6
ByLayer
 62
    0
370
   -1
100
AcDbLine
 10
276.939
 20
56.2321
 11
275.413
 21
56.2321
  0
LINE
  5
1B3
100
AcDbEntity
  8
0
  6
ByLayer
 62
    0
370
   -1
100
AcDbLine
 10
275.413
 20
56.2321
 11
275.413
 21
60.9328
  0
LINE
  5
1B4
100
AcDbEntity
  8
0
  6
ByLayer
 62
    0
370
   -1
100
AcDbLine
 10
275.413
 20
60.9328
 11
261.414
 21
60.9328
  0
LINE
  5
1B5
100
AcDbEntity
  8
0
  6
ByLayer
 62
    0
370
   -1
100
AcDbLine
 10
423.817
 20
60.9328
 11
437.815
 21
60.9328
  0
LINE
  5
1B6
100
AcDbEntity
  8
0
  6
ByLayer
 62
    0
370
   -1
100
AcDbLine
 10
437.815
 20
60.9328
 11
437.815
 21
46.9318
  0
LINE
  5
1B7
100
AcDbEntity
  8
0
  6
ByLayer
 62
    0
370
   -1
100
AcDbLine
 10
437.815
 20
46.9318
 11
423.817
 21
46.9318
  0
LINE
  5
1B8
100
AcDbEntity
  8
0
  6
ByLayer
 62
    0
370
   -1
100
AcDbLine
 10
423.817
 20
46.9318
 11
423.817
 21
60.9328
  0
LINE
  5
1B9
100
AcDbEntity
  8
0
  6
ByLayer
 62
    0
370
   -1
100
AcDbLine
 10
404.767
 20
60.9328
 11
418.765
 21
60.9328
  0
LINE
  5
1BA
100
AcDbEntity
  8
0
  6
ByLayer
 62
    0
370
   -1
100
AcDbLine
 10
418.765
 20
60.9328
 11
418.765
 21
46.9318
  0
LINE
  5
1BB
100
AcDbEntity
  8
0
  6
ByLayer
 62
    0
370
   -1
100
AcDbLine
 10
418.765
 20
46.9318
 11
404.767
 21
46.9318
  0
LINE
  5
1BC
100
AcDbEntity
  8
0
  6
ByLayer
 62
    0
370
   -1
100
AcDbLine
 10
404.767
 20
46.9318
 11
404.767
 21
60.9328
  0
LINE
  5
1BD
100
AcDbEntity
  8
0
  6
ByLayer
 62
    0
370
   -1
100
AcDbLine
 10
385.717
 20
60.9328
 11
399.715
 21
60.9328
  0
LINE
  5
1BE
100
AcDbEntity
  8
0
  6
ByLayer
 62
    0
370
   -1
100
AcDbLine
 10
399.715
 20
60.9328
 11
399.715
 21
46.9318
  0
LINE
  5
1BF
100
AcDbEntity
  8
0
  6
ByLayer
 62
    0
370
   -1
100
AcDbLine
 10
399.715
 20
46.9318
 11
385.717
 21
46.9318
  0
LINE
  5
1C0
100
AcDbEntity
  8
0
  6
ByLayer
 62
    0
370
   -1
100
AcDbLine
 10
385.717
 20
46.9318
 11
385.717
 21
60.9328
  0
LINE
  5
1C1
100
AcDbEntity
  8
0
  6
ByLayer
 62
    0
370
   -1
100
AcDbLine
 10
366.667
 20
60.9328
 11
380.665
 21
60.9328
  0
LINE
  5
1C2
100
AcDbEntity
  8
0
  6
ByLayer
 62
    0
370
   -1
100
AcDbLine
 10
380.665
 20
60.9328
 11
380.665
 21
46.9318
  0
LINE
  5
1C3
100
AcDbEntity
  8
0
  6
ByLayer
 62
    0
370
   -1
100
AcDbLine
 10
380.665
 20
46.9318
 11
366.667
 21
46.9318
  0
LINE
  5
1C4
100
AcDbEntity
  8
0
  6
ByLayer
 62
    0
370
   -1
100
AcDbLine
 10
366.667
 20
46.9318
 11
366.667
 21
60.9328
  0
LINE
  5
1C5
100
AcDbEntity
  8
0
  6
ByLayer
 62
    0
370
   -1
100
AcDbLine
 10
230.458
 20
60.9328
 11
244.457
 21
60.9328
  0
LINE
  5
1C6
100
AcDbEntity
  8
0
  6
ByLayer
 62
    0
370
   -1
100
AcDbLine
 10
244.457
 20
60.9328
 11
244.457
 21
46.9318
  0
LINE
  5
1C7
100
AcDbEntity
  8
0
  6
ByLayer
 62
    0
370
   -1
100
AcDbLine
 10
244.457
 20
46.9318
 11
230.458
 21
46.9318
  0
LINE
  5
1C8
100
AcDbEntity
  8
0
  6
ByLayer
 62
    0
370
   -1
100
AcDbLine
 10
230.458
 20
46.9318
 11
230.458
 21
60.9328
  0
LINE
  5
1C9
100
AcDbEntity
  8
0
  6
ByLayer
 62
    0
370
   -1
100
AcDbLine
 10
211.408
 20
60.9328
 11
225.407
 21
60.9328
  0
LINE
  5
1CA
100
AcDbEntity
  8
0
  6
ByLayer
 62
    0
370
   -1
100
AcDbLine
 10
225.407
 20
60.9328
 11
225.407
 21
46.9318
  0
LINE
  5
1CB
100
AcDbEntity
  8
0
  6
ByLayer
 62
    0
370
   -1
100
AcDbLine
 10
225.407
 20
46.9318
 11
211.408
 21
46.9318
  0
LINE
  5
1CC
100
AcDbEntity
  8
0
  6
ByLayer
 62
    0
370
   -1
100
AcDbLine
 10
211.408
 20
46.9318
 11
211.408
 21
60.9328
  0
LINE
  5
1CD
100
AcDbEntity
  8
0
  6
ByLayer
 62
    0
370
   -1
100
AcDbLine
 10
192.358
 20
60.9328
 11
206.357
 21
60.9328
  0
LINE
  5
1CE
100
AcDbEntity
  8
0
  6
ByLayer
 62
    0
370
   -1
100
AcDbLine
 10
206.357
 20
60.9328
 11
206.357
 21
46.9318
  0
LINE
  5
1CF
100
AcDbEntity
  8
0
  6
ByLayer
 62
    0
370
   -1
100
AcDbLine
 10
206.357
 20
46.9318
 11
192.358
 21
46.9318
  0
LINE
  5
1D0
100
AcDbEntity
  8
0
  6
ByLayer
 62
    0
370
   -1
100
AcDbLine
 10
192.358
 20
46.9318
 11
192.358
 21
60.9328
  0
LINE
  5
1D1
100
AcDbEntity
  8
0
  6
ByLayer
 62
    0
370
   -1
100
AcDbLine
 10
173.308
 20
60.9328
 11
187.307
 21
60.9328
  0
LINE
  5
1D2
100
AcDbEntity
  8
0
  6
ByLayer
 62
    0
370
   -1
100
AcDbLine
 10
187.307
 20
60.9328
 11
187.307
 21
46.9318
  0
LINE
  5
1D3
100
AcDbEntity
  8
0
  6
ByLayer
 62
    0
370
   -1
100
AcDbLine
 10
187.307
 20
46.9318
 11
173.308
 21
46.9318
  0
LINE
  5
1D4
100
AcDbEntity
  8
0
  6
ByLayer
 62
    0
370
   -1
100
AcDbLine
 10
173.308
 20
46.9318
 11
173.308
 21
60.9328
  0
LINE
  5
1D5
100
AcDbEntity
  8
0
  6
ByLayer
 62
    0
370
   -1
100
AcDbLine
 10
154.258
 20
60.9328
 11
168.257
 21
60.9328
  0
LINE
  5
1D6
100
AcDbEntity
  8
0
  6
ByLayer
 62
    0
370
   -1
100
AcDbLine
 10
168.257
 20
60.9328
 11
168.257
 21
46.9318
  0
LINE
  5
1D7
100
AcDbEntity
  8
0
  6
ByLayer
 62
    0
370
   -1
100
AcDbLine
 10
168.257
 20
46.9318
 11
154.258
 21
46.9318
  0
LINE
  5
1D8
100
AcDbEntity
  8
0
  6
ByLayer
 62
    0
370
   -1
100
AcDbLine
 10
154.258
 20
46.9318
 11
154.258
 21
60.9328
  0
LINE
  5
1D9
100
AcDbEntity
  8
0
  6
ByLayer
 62
    0
370
   -1
100
AcDbLine
 10
135.208
 20
60.9328
 11
149.207
 21
60.9328
  0
LINE
  5
1DA
100
AcDbEntity
  8
0
  6
ByLayer
 62
    0
370
   -1
100
AcDbLine
 10
149.207
 20
60.9328
 11
149.207
 21
46.9318
  0
LINE
  5
1DB
100
AcDbEntity
  8
0
  6
ByLayer
 62
    0
370
   -1
100
AcDbLine
 10
149.207
 20
46.9318
 11
135.208
 21
46.9318
  0
LINE
  5
1DC
100
AcDbEntity
  8
0
  6
ByLayer
 62
    0
370
   -1
100
AcDbLine
 10
135.208
 20
46.9318
 11
135.208
 21
60.9328
  0
LINE
  5
1DD
100
AcDbEntity
  8
0
  6
ByLayer
 62
    0
370
   -1
100
AcDbLine
 10
116.158
 20
60.9328
 11
130.157
 21
60.9328
  0
LINE
  5
1DE
100
AcDbEntity
  8
0
  6
ByLayer
 62
    0
370
   -1
100
AcDbLine
 10
130.157
 20
60.9328
 11
130.157
 21
46.9318
  0
LINE
  5
1DF
100
AcDbEntity
  8
0
  6
ByLayer
 62
    0
370
   -1
100
AcDbLine
 10
130.157
 20
46.9318
 11
116.158
 21
46.9318
  0
LINE
  5
1E0
100
AcDbEntity
  8
0
  6
ByLayer
 62
    0
370
   -1
100
AcDbLine
 10
116.158
 20
46.9318
 11
116.158
 21
60.9328
  0
LINE
  5
1E1
100
AcDbEntity
  8
0
  6
ByLayer
 62
    0
370
   -1
100
AcDbLine
 10
97.10769999999999
 20
60.9328
 11
111.107
 21
60.9328
  0
LINE
  5
1E2
100
AcDbEntity
  8
0
  6
ByLayer
 62
    0
370
   -1
100
AcDbLine
 10
111.107
 20
60.9328
 11
111.107
 21
46.9318
  0
LINE
  5
1E3
100
AcDbEntity
  8
0
  6
ByLayer
 62
    0
370
   -1
100
AcDbLine
 10
111.107
 20
46.9318
 11
97.10769999999999
 21
46.9318
  0
LINE
  5
1E4
100
AcDbEntity
  8
0
  6
ByLayer
 62
    0
370
   -1
100
AcDbLine
 10
97.10769999999999
 20
46.9318
 11
97.10769999999999
 21
60.9328
  0
LINE
  5
1E5
100
AcDbEntity
  8
0
  6
ByLayer
 62
    0
370
   -1
100
AcDbLine
 10
78.0577
 20
60.9328
 11
92.057
 21
60.9328
  0
LINE
  5
1E6
100
AcDbEntity
  8
0
  6
ByLayer
 62
    0
370
   -1
100
AcDbLine
 10
92.057
 20
60.9328
 11
92.057
 21
46.9318
  0
LINE
  5
1E7
100
AcDbEntity
  8
0
  6
ByLayer
 62
    0
370
   -1
100
AcDbLine
 10
92.057
 20
46.9318
 11
78.0577
 21
46.9318
  0
LINE
  5
1E8
100
AcDbEntity
  8
0
  6
ByLayer
 62
    0
370
   -1
100
AcDbLine
 10
78.0577
 20
46.9318
 11
78.0577
 21
60.9328
  0
LINE
  5
1E9
100
AcDbEntity
  8
0
  6
ByLayer
 62
    0
370
   -1
100
AcDbLine
 10
59.0077
 20
60.9328
 11
73.00700000000001
 21
60.9328
  0
LINE
  5
1EA
100
AcDbEntity
  8
0
  6
ByLayer
 62
    0
370
   -1
100
AcDbLine
 10
73.00700000000001
 20
60.9328
 11
73.00700000000001
 21
46.9318
  0
LINE
  5
1EB
100
AcDbEntity
  8
0
  6
ByLayer
 62
    0
370
   -1
100
AcDbLine
 10
73.00700000000001
 20
46.9318
 11
59.0077
 21
46.9318
  0
LINE
  5
1EC
100
AcDbEntity
  8
0
  6
ByLayer
 62
    0
370
   -1
100
AcDbLine
 10
59.0077
 20
46.9318
 11
59.0077
 21
60.9328
  0
LINE
  5
1ED
100
AcDbEntity
  8
0
  6
ByLayer
 62
    0
370
   -1
100
AcDbLine
 10
39.9577
 20
60.9328
 11
53.957
 21
60.9328
  0
LINE
  5
1EE
100
AcDbEntity
  8
0
  6
ByLayer
 62
    0
370
   -1
100
AcDbLine
 10
53.957
 20
60.9328
 11
53.957
 21
46.9318
  0
LINE
  5
1EF
100
AcDbEntity
  8
0
  6
ByLayer
 62
    0
370
   -1
100
AcDbLine
 10
53.957
 20
46.9318
 11
39.9577
 21
46.9318
  0
LINE
  5
1F0
100
AcDbEntity
  8
0
  6
ByLayer
 62
    0
370
   -1
100
AcDbLine
 10
39.9577
 20
46.9318
 11
39.9577
 21
60.9328
  0
LINE
  5
1F1
100
AcDbEntity
  8
0
  6
ByLayer
 62
    0
370
   -1
100
AcDbLine
 10
13.7638
 20
60.9328
 11
27.7633
 21
60.9328
  0
LINE
  5
1F2
100
AcDbEntity
  8
0
  6
ByLayer
 62
    0
370
   -1
100
AcDbLine
 10
27.7633
 20
60.9328
 11
27.7633
 21
46.9318
  0
LINE
  5
1F3
100
AcDbEntity
  8
0
  6
ByLayer
 62
    0
370
   -1
100
AcDbLine
 10
27.7633
 20
46.9318
 11
13.7638
 21
46.9318
  0
LINE
  5
1F4
100
AcDbEntity
  8
0
  6
ByLayer
 62
    0
370
   -1
100
AcDbLine
 10
13.7638
 20
46.9318
 11
13.7638
 21
60.9328
  0
LINE
  5
1F5
100
AcDbEntity
  8
0
  6
ByLayer
 62
    0
370
   -1
100
AcDbLine
 10
423.817
 20
79.9828
 11
437.815
 21
79.9828
  0
LINE
  5
1F6
100
AcDbEntity
  8
0
  6
ByLayer
 62
    0
370
   -1
100
AcDbLine
 10
437.815
 20
79.9828
 11
437.815
 21
65.98180000000001
  0
LINE
  5
1F7
100
AcDbEntity
  8
0
  6
ByLayer
 62
    0
370
   -1
100
AcDbLine
 10
437.815
 20
65.98180000000001
 11
423.817
 21
65.98180000000001
  0
LINE
  5
1F8
100
AcDbEntity
  8
0
  6
ByLayer
 62
    0
370
   -1
100
AcDbLine
 10
423.817
 20
65.98180000000001
 11
423.817
 21
79.9828
  0
LINE
  5
1F9
100
AcDbEntity
  8
0
  6
ByLayer
 62
    0
370
   -1
100
AcDbLine
 10
404.767
 20
79.9828
 11
418.765
 21
79.9828
  0
LINE
  5
1FA
100
AcDbEntity
  8
0
  6
ByLayer
 62
    0
370
   -1
100
AcDbLine
 10
418.765
 20
79.9828
 11
418.765
 21
65.98180000000001
  0
LINE
  5
1FB
100
AcDbEntity
  8
0
  6
ByLayer
 62
    0
370
   -1
100
AcDbLine
 10
418.765
 20
65.98180000000001
 11
404.767
 21
65.98180000000001
  0
LINE
  5
1FC
100
AcDbEntity
  8
0
  6
ByLayer
 62
    0
370
   -1
100
AcDbLine
 10
404.767
 20
65.98180000000001
 11
404.767
 21
79.9828
  0
LINE
  5
1FD
100
AcDbEntity
  8
0
  6
ByLayer
 62
    0
370
   -1
100
AcDbLine
 10
385.717
 20
79.9828
 11
399.715
 21
79.9828
  0
LINE
  5
1FE
100
AcDbEntity
  8
0
  6
ByLayer
 62
    0
370
   -1
100
AcDbLine
 10
399.715
 20
79.9828
 11
399.715
 21
65.98180000000001
  0
LINE
  5
1FF
100
AcDbEntity
  8
0
  6
ByLayer
 62
    0
370
   -1
100
AcDbLine
 10
399.715
 20
65.98180000000001
 11
385.717
 21
65.98180000000001
  0
LINE
  5
200
100
AcDbEntity
  8
0
  6
ByLayer
 62
    0
370
   -1
100
AcDbLine
 10
385.717
 20
65.98180000000001
 11
385.717
 21
79.9828
  0
LINE
  5
201
100
AcDbEntity
  8
0
  6
ByLayer
 62
    0
370
   -1
100
AcDbLine
 10
366.667
 20
79.9828
 11
380.665
 21
79.9828
  0
LINE
  5
202
100
AcDbEntity
  8
0
  6
ByLayer
 62
    0
370
   -1
100
AcDbLine
 10
380.665
 20
79.9828
 11
380.665
 21
65.98180000000001
  0
LINE
  5
203
100
AcDbEntity
  8
0
  6
ByLayer
 62
    0
370
   -1
100
AcDbLine
 10
380.665
 20
65.98180000000001
 11
366.667
 21
65.98180000000001
  0
LINE
  5
204
100
AcDbEntity
  8
0
  6
ByLayer
 62
    0
370
   -1
100
AcDbLine
 10
366.667
 20
65.98180000000001
 11
366.667
 21
79.9828
  0
LINE
  5
205
100
AcDbEntity
  8
0
  6
ByLayer
 62
    0
370
   -1
100
AcDbLine
 10
339.043
 20
79.9828
 11
353.042
 21
79.9828
  0
LINE
  5
206
100
AcDbEntity
  8
0
  6
ByLayer
 62
    0
370
   -1
100
AcDbLine
 10
353.042
 20
79.9828
 11
353.042
 21
65.98180000000001
  0
LINE
  5
207
100
AcDbEntity
  8
0
  6
ByLayer
 62
    0
370
   -1
100
AcDbLine
 10
353.042
 20
65.98180000000001
 11
339.043
 21
65.98180000000001
  0
LINE
  5
208
100
AcDbEntity
  8
0
  6
ByLayer
 62
    0
370
   -1
100
AcDbLine
 10
339.043
 20
65.98180000000001
 11
339.043
 21
79.9828
  0
LINE
  5
209
100
AcDbEntity
  8
0
  6
ByLayer
 62
    0
370
   -1
100
AcDbLine
 10
319.993
 20
79.9828
 11
333.992
 21
79.9828
  0
LINE
  5
20A
100
AcDbEntity
  8
0
  6
ByLayer
 62
    0
370
   -1
100
AcDbLine
 10
333.992
 20
79.9828
 11
333.992
 21
65.98180000000001
  0
LINE
  5
20B
100
AcDbEntity
  8
0
  6
ByLayer
 62
    0
370
   -1
100
AcDbLine
 10
333.992
 20
65.98180000000001
 11
319.993
 21
65.98180000000001
  0
LINE
  5
20C
100
AcDbEntity
  8
0
  6
ByLayer
 62
    0
370
   -1
100
AcDbLine
 10
319.993
 20
65.98180000000001
 11
319.993
 21
79.9828
  0
LINE
  5
20D
100
AcDbEntity
  8
0
  6
ByLayer
 62
    0
370
   -1
100
AcDbLine
 10
300.943
 20
79.9828
 11
314.942
 21
79.9828
  0
LINE
  5
20E
100
AcDbEntity
  8
0
  6
ByLayer
 62
    0
370
   -1
100
AcDbLine
 10
314.942
 20
79.9828
 11
314.942
 21
65.98180000000001
  0
LINE
  5
20F
100
AcDbEntity
  8
0
  6
ByLayer
 62
    0
370
   -1
100
AcDbLine
 10
314.942
 20
65.98180000000001
 11
300.943
 21
65.98180000000001
  0
LINE
  5
210
100
AcDbEntity
  8
0
  6
ByLayer
 62
    0
370
   -1
100
AcDbLine
 10
300.943
 20
65.98180000000001
 11
300.943
 21
79.9828
  0
LINE
  5
211
100
AcDbEntity
  8
0
  6
ByLayer
 62
    0
370
   -1
100
AcDbLine
 10
268.558
 20
79.9828
 11
282.557
 21
79.9828
  0
LINE
  5
212
100
AcDbEntity
  8
0
  6
ByLayer
 62
    0
370
   -1
100
AcDbLine
 10
282.557
 20
79.9828
 11
282.557
 21
65.98180000000001
  0
LINE
  5
213
100
AcDbEntity
  8
0
  6
ByLayer
 62
    0
370
   -1
100
AcDbLine
 10
282.557
 20
65.98180000000001
 11
268.558
 21
65.98180000000001
  0
LINE
  5
214
100
AcDbEntity
  8
0
  6
ByLayer
 62
    0
370
   -1
100
AcDbLine
 10
268.558
 20
65.98180000000001
 11
268.558
 21
79.9828
  0
LINE
  5
215
100
AcDbEntity
  8
0
  6
ByLayer
 62
    0
370
   -1
100
AcDbLine
 10
244.745
 20
79.9828
 11
258.746
 21
79.9828
  0
LINE
  5
216
100
AcDbEntity
  8
0
  6
ByLayer
 62
    0
370
   -1
100
AcDbLine
 10
258.746
 20
79.9828
 11
258.746
 21
65.98180000000001
  0
LINE
  5
217
100
AcDbEntity
  8
0
  6
ByLayer
 62
    0
370
   -1
100
AcDbLine
 10
258.746
 20
65.98180000000001
 11
244.745
 21
65.98180000000001
  0
LINE
  5
218
100
AcDbEntity
  8
0
  6
ByLayer
 62
    0
370
   -1
100
AcDbLine
 10
244.745
 20
65.98180000000001
 11
244.745
 21
79.9828
  0
LINE
  5
219
100
AcDbEntity
  8
0
  6
ByLayer
 62
    0
370
   -1
100
AcDbLine
 10
225.695
 20
79.9828
 11
239.696
 21
79.9828
  0
LINE
  5
21A
100
AcDbEntity
  8
0
  6
ByLayer
 62
    0
370
   -1
100
AcDbLine
 10
239.696
 20
79.9828
 11
239.696
 21
65.98180000000001
  0
LINE
  5
21B
100
AcDbEntity
  8
0
  6
ByLayer
 62
    0
370
   -1
100
AcDbLine
 10
239.696
 20
65.98180000000001
 11
225.695
 21
65.98180000000001
  0
LINE
  5
21C
100
AcDbEntity
  8
0
  6
ByLayer
 62
    0
370
   -1
100
AcDbLine
 10
225.695
 20
65.98180000000001
 11
225.695
 21
79.9828
  0
LINE
  5
21D
100
AcDbEntity
  8
0
  6
ByLayer
 62
    0
370
   -1
100
AcDbLine
 10
206.645
 20
79.9828
 11
220.646
 21
79.9828
  0
LINE
  5
21E
100
AcDbEntity
  8
0
  6
ByLayer
 62
    0
370
   -1
100
AcDbLine
 10
220.646
 20
79.9828
 11
220.646
 21
65.98180000000001
  0
LINE
  5
21F
100
AcDbEntity
  8
0
  6
ByLayer
 62
    0
370
   -1
100
AcDbLine
 10
220.646
 20
65.98180000000001
 11
206.645
 21
65.98180000000001
  0
LINE
  5
220
100
AcDbEntity
  8
0
  6
ByLayer
 62
    0
370
   -1
100
AcDbLine
 10
206.645
 20
65.98180000000001
 11
206.645
 21
79.9828
  0
LINE
  5
221
100
AcDbEntity
  8
0
  6
ByLayer
 62
    0
370
   -1
100
AcDbLine
 10
187.595
 20
79.9828
 11
201.596
 21
79.9828
  0
LINE
  5
222
100
AcDbEntity
  8
0
  6
ByLayer
 62
    0
370
   -1
100
AcDbLine
 10
201.596
 20
79.9828
 11
201.596
 21
65.98180000000001
  0
LINE
  5
223
100
AcDbEntity
  8
0
  6
ByLayer
 62
    0
370
   -1
100
AcDbLine
 10
201.596
 20
65.98180000000001
 11
187.595
 21
65.98180000000001
  0
LINE
  5
224
100
AcDbEntity
  8
0
  6
ByLayer
 62
    0
370
   -1
100
AcDbLine
 10
187.595
 20
65.98180000000001
 11
187.595
 21
79.9828
  0
LINE
  5
225
100
AcDbEntity
  8
0
  6
ByLayer
 62
    0
370
   -1
100
AcDbLine
 10
168.545
 20
79.9828
 11
182.546
 21
79.9828
  0
LINE
  5
226
100
AcDbEntity
  8
0
  6
ByLayer
 62
    0
370
   -1
100
AcDbLine
 10
182.546
 20
79.9828
 11
182.546
 21
65.98180000000001
  0
LINE
  5
227
100
AcDbEntity
  8
0
  6
ByLayer
 62
    0
370
   -1
100
AcDbLine
 10
182.546
 20
65.98180000000001
 11
168.545
 21
65.98180000000001
  0
LINE
  5
228
100
AcDbEntity
  8
0
  6
ByLayer
 62
    0
370
   -1
100
AcDbLine
 10
168.545
 20
65.98180000000001
 11
168.545
 21
79.9828
  0
LINE
  5
229
100
AcDbEntity
  8
0
  6
ByLayer
 62
    0
370
   -1
100
AcDbLine
 10
149.495
 20
79.9828
 11
163.496
 21
79.9828
  0
LINE
  5
22A
100
AcDbEntity
  8
0
  6
ByLayer
 62
    0
370
   -1
100
AcDbLine
 10
163.496
 20
79.9828
 11
163.496
 21
65.98180000000001
  0
LINE
  5
22B
100
AcDbEntity
  8
0
  6
ByLayer
 62
    0
370
   -1
100
AcDbLine
 10
163.496
 20
65.98180000000001
 11
149.495
 21
65.98180000000001
  0
LINE
  5
22C
100
AcDbEntity
  8
0
  6
ByLayer
 62
    0
370
   -1
100
AcDbLine
 10
149.495
 20
65.98180000000001
 11
149.495
 21
79.9828
  0
LINE
  5
22D
100
AcDbEntity
  8
0
  6
ByLayer
 62
    0
370
   -1
100
AcDbLine
 10
130.445
 20
79.9828
 11
144.446
 21
79.9828
  0
LINE
  5
22E
100
AcDbEntity
  8
0
  6
ByLayer
 62
    0
370
   -1
100
AcDbLine
 10
144.446
 20
79.9828
 11
144.446
 21
65.98180000000001
  0
LINE
  5
22F
100
AcDbEntity
  8
0
  6
ByLayer
 62
    0
370
   -1
100
AcDbLine
 10
144.446
 20
65.98180000000001
 11
130.445
 21
65.98180000000001
  0
LINE
  5
230
100
AcDbEntity
  8
0
  6
ByLayer
 62
    0
370
   -1
100
AcDbLine
 10
130.445
 20
65.98180000000001
 11
130.445
 21
79.9828
  0
LINE
  5
231
100
AcDbEntity
  8
0
  6
ByLayer
 62
    0
370
   -1
100
AcDbLine
 10
111.395
 20
79.9828
 11
125.396
 21
79.9828
  0
LINE
  5
232
100
AcDbEntity
  8
0
  6
ByLayer
 62
    0
370
   -1
100
AcDbLine
 10
125.396
 20
79.9828
 11
125.396
 21
65.98180000000001
  0
LINE
  5
233
100
AcDbEntity
  8
0
  6
ByLayer
 62
    0
370
   -1
100
AcDbLine
 10
125.396
 20
65.98180000000001
 11
111.395
 21
65.98180000000001
  0
LINE
  5
234
100
AcDbEntity
  8
0
  6
ByLayer
 62
    0
370
   -1
100
AcDbLine
 10
111.395
 20
65.98180000000001
 11
111.395
 21
79.9828
  0
LINE
  5
235
100
AcDbEntity
  8
0
  6
ByLayer
 62
    0
370
   -1
100
AcDbLine
 10
92.34520000000001
 20
79.9828
 11
106.346
 21
79.9828
  0
LINE
  5
236
100
AcDbEntity
  8
0
  6
ByLayer
 62
    0
370
   -1
100
AcDbLine
 10
106.346
 20
79.9828
 11
106.346
 21
65.98180000000001
  0
LINE
  5
237
100
AcDbEntity
  8
0
  6
ByLayer
 62
    0
370
   -1
100
AcDbLine
 10
106.346
 20
65.98180000000001
 11
92.34520000000001
 21
65.98180000000001
  0
LINE
  5
238
100
AcDbEntity
  8
0
  6
ByLayer
 62
    0
370
   -1
100
AcDbLine
 10
92.34520000000001
 20
65.98180000000001
 11
92.34520000000001
 21
79.9828
  0
LINE
  5
239
100
AcDbEntity
  8
0
  6
ByLayer
 62
    0
370
   -1
100
AcDbLine
 10
73.29519999999999
 20
79.9828
 11
87.2959
 21
79.9828
  0
LINE
  5
23A
100
AcDbEntity
  8
0
  6
ByLayer
 62
    0
370
   -1
100
AcDbLine
 10
87.2959
 20
79.9828
 11
87.2959
 21
65.98180000000001
  0
LINE
  5
23B
100
AcDbEntity
  8
0
  6
ByLayer
 62
    0
370
   -1
100
AcDbLine
 10
87.2959
 20
65.98180000000001
 11
73.29519999999999
 21
65.98180000000001
  0
LINE
  5
23C
100
AcDbEntity
  8
0
  6
ByLayer
 62
    0
370
   -1
100
AcDbLine
 10
73.29519999999999
 20
65.98180000000001
 11
73.29519999999999
 21
79.9828
  0
LINE
  5
23D
100
AcDbEntity
  8
0
  6
ByLayer
 62
    0
370
   -1
100
AcDbLine
 10
54.2452
 20
79.9828
 11
68.24590000000001
 21
79.9828
  0
LINE
  5
23E
100
AcDbEntity
  8
0
  6
ByLayer
 62
    0
370
   -1
100
AcDbLine
 10
68.24590000000001
 20
79.9828
 11
68.24590000000001
 21
65.98180000000001
  0
LINE
  5
23F
100
AcDbEntity
  8
0
  6
ByLayer
 62
    0
370
   -1
100
AcDbLine
 10
68.24590000000001
 20
65.98180000000001
 11
54.2452
 21
65.98180000000001
  0
LINE
  5
240
100
AcDbEntity
  8
0
  6
ByLayer
 62
    0
370
   -1
100
AcDbLine
 10
54.2452
 20
65.98180000000001
 11
54.2452
 21
79.9828
  0
LINE
  5
241
100
AcDbEntity
  8
0
  6
ByLayer
 62
    0
370
   -1
100
AcDbLine
 10
35.1951
 20
79.9828
 11
49.1959
 21
79.9828
  0
LINE
  5
242
100
AcDbEntity
  8
0
  6
ByLayer
 62
    0
370
   -1
100
AcDbLine
 10
49.1959
 20
79.9828
 11
49.1959
 21
65.98180000000001
  0
LINE
  5
243
100
AcDbEntity
  8
0
  6
ByLayer
 62
    0
370
   -1
100
AcDbLine
 10
49.1959
 20
65.98180000000001
 11
35.1951
 21
65.98180000000001
  0
LINE
  5
244
100
AcDbEntity
  8
0
  6
ByLayer
 62
    0
370
   -1
100
AcDbLine
 10
35.1951
 20
65.98180000000001
 11
35.1951
 21
79.9828
  0
LINE
  5
245
100
AcDbEntity
  8
0
  6
ByLayer
 62
    0
370
   -1
100
AcDbLine
 10
11.3812
 20
79.9828
 11
25.3821
 21
79.9828
  0
LINE
  5
246
100
AcDbEntity
  8
0
  6
ByLayer
 62
    0
370
   -1
100
AcDbLine
 10
25.3821
 20
79.9828
 11
25.3821
 21
65.98180000000001
  0
LINE
  5
247
100
AcDbEntity
  8
0
  6
ByLayer
 62
    0
370
   -1
100
AcDbLine
 10
25.3821
 20
65.98180000000001
 11
11.3812
 21
65.98180000000001
  0
LINE
  5
248
100
AcDbEntity
  8
0
  6
ByLayer
 62
    0
370
   -1
100
AcDbLine
 10
11.3812
 20
65.98180000000001
 11
11.3812
 21
79.9828
  0
LINE
  5
249
100
AcDbEntity
  8
0
  6
ByLayer
 62
    0
370
   -1
100
AcDbLine
 10
263.795
 20
99.03279999999999
 11
263.795
 21
94.3321
  0
LINE
  5
24A
100
AcDbEntity
  8
0
  6
ByLayer
 62
    0
370
   -1
100
AcDbLine
 10
263.795
 20
94.3321
 11
262.271
 21
94.3321
  0
LINE
  5
24B
100
AcDbEntity
  8
0
  6
ByLayer
 62
    0
370
   -1
100
AcDbLine
 10
262.271
 20
94.3321
 11
262.271
 21
97.5625
  0
LINE
  5
24C
100
AcDbEntity
  8
0
  6
ByLayer
 62
    0
370
   -1
100
AcDbLine
 10
262.271
 20
97.5625
 11
260.546
 21
97.5625
  0
LINE
  5
24D
100
AcDbEntity
  8
0
  6
ByLayer
 62
    0
370
   -1
100
AcDbLine
 10
260.546
 20
97.5625
 11
260.546
 21
98.4829
  0
LINE
  5
24E
100
AcDbEntity
  8
0
  6
ByLayer
 62
    0
370
   -1
100
AcDbLine
 10
260.546
 20
98.4829
 11
257.245
 21
98.4829
  0
LINE
  5
24F
100
AcDbEntity
  8
0
  6
ByLayer
 62
    0
370
   -1
100
AcDbLine
 10
257.245
 20
98.4829
 11
257.245
 21
97.5625
  0
LINE
  5
250
100
AcDbEntity
  8
0
  6
ByLayer
 62
    0
370
   -1
100
AcDbLine
 10
257.245
 20
97.5625
 11
255.52
 21
97.5625
  0
LINE
  5
251
100
AcDbEntity
  8
0
  6
ByLayer
 62
    0
370
   -1
100
AcDbLine
 10
255.52
 20
97.5625
 11
255.52
 21
94.3321
  0
LINE
  5
252
100
AcDbEntity
  8
0
  6
ByLayer
 62
    0
370
   -1
100
AcDbLine
 10
255.52
 20
94.3321
 11
254.696
 21
94.3321
  0
LINE
  5
253
100
AcDbEntity
  8
0
  6
ByLayer
 62
    0
370
   -1
100
AcDbLine
 10
254.696
 20
94.3321
 11
254.696
 21
91.5321
  0
LINE
  5
254
100
AcDbEntity
  8
0
  6
ByLayer
 62
    0
370
   -1
100
AcDbLine
 10
254.696
 20
91.5321
 11
255.52
 21
91.5321
  0
LINE
  5
255
100
AcDbEntity
  8
0
  6
ByLayer
 62
    0
370
   -1
100
AcDbLine
 10
255.52
 20
91.5321
 11
255.52
 21
85.26220000000001
  0
LINE
  5
256
100
AcDbEntity
  8
0
  6
ByLayer
 62
    0
370
   -1
100
AcDbLine
 10
255.52
 20
85.26220000000001
 11
257.245
 21
85.26220000000001
  0
LINE
  5
257
100
AcDbEntity
  8
0
  6
ByLayer
 62
    0
370
   -1
100
AcDbLine
 10
257.245
 20
85.26220000000001
 11
257.245
 21
84.2821
  0
LINE
  5
258
100
AcDbEntity
  8
0
  6
ByLayer
 62
    0
370
   -1
100
AcDbLine
 10
257.245
 20
84.2821
 11
260.546
 21
84.2821
  0
LINE
  5
259
100
AcDbEntity
  8
0
  6
ByLayer
 62
    0
370
   -1
100
AcDbLine
 10
260.546
 20
84.2821
 11
260.546
 21
85.26220000000001
  0
LINE
  5
25A
100
AcDbEntity
  8
0
  6
ByLayer
 62
    0
370
   -1
100
AcDbLine
 10
260.546
 20
85.26220000000001
 11
262.271
 21
85.26220000000001
  0
LINE
  5
25B
100
AcDbEntity
  8
0
  6
ByLayer
 62
    0
370
   -1
100
AcDbLine
 10
262.271
 20
85.26220000000001
 11
262.271
 21
89.73220000000001
  0
LINE
  5
25C
100
AcDbEntity
  8
0
  6
ByLayer
 62
    0
370
   -1
100
AcDbLine
 10
262.271
 20
89.73220000000001
 11
263.795
 21
89.73220000000001
  0
LINE
  5
25D
100
AcDbEntity
  8
0
  6
ByLayer
 62
    0
370
   -1
100
AcDbLine
 10
263.795
 20
89.73220000000001
 11
263.795
 21
85.0318
  0
LINE
  5
25E
100
AcDbEntity
  8
0
  6
ByLayer
 62
    0
370
   -1
100
AcDbLine
 10
263.795
 20
85.0318
 11
277.796
 21
85.0318
  0
LINE
  5
25F
100
AcDbEntity
  8
0
  6
ByLayer
 62
    0
370
   -1
100
AcDbLine
 10
277.796
 20
85.0318
 11
277.796
 21
89.73220000000001
  0
LINE
  5
260
100
AcDbEntity
  8
0
  6
ByLayer
 62
    0
370
   -1
100
AcDbLine
 10
277.796
 20
89.73220000000001
 11
279.32
 21
89.73220000000001
  0
LINE
  5
261
100
AcDbEntity
  8
0
  6
ByLayer
 62
    0
370
   -1
100
AcDbLine
 10
279.32
 20
89.73220000000001
 11
279.32
 21
85.26220000000001
  0
LINE
  5
262
100
AcDbEntity
  8
0
  6
ByLayer
 62
    0
370
   -1
100
AcDbLine
 10
279.32
 20
85.26220000000001
 11
281.045
 21
85.26220000000001
  0
LINE
  5
263
100
AcDbEntity
  8
0
  6
ByLayer
 62
    0
370
   -1
100
AcDbLine
 10
281.045
 20
85.26220000000001
 11
281.045
 21
84.2821
  0
LINE
  5
264
100
AcDbEntity
  8
0
  6
ByLayer
 62
    0
370
   -1
100
AcDbLine
 10
281.045
 20
84.2821
 11
284.346
 21
84.2821
  0
LINE
  5
265
100
AcDbEntity
  8
0
  6
ByLayer
 62
    0
370
   -1
100
AcDbLine
 10
284.346
 20
84.2821
 11
284.346
 21
85.26220000000001
  0
LINE
  5
266
100
AcDbEntity
  8
0
  6
ByLayer
 62
    0
370
   -1
100
AcDbLine
 10
284.346
 20
85.26220000000001
 11
286.071
 21
85.26220000000001
  0
LINE
  5
267
100
AcDbEntity
  8
0
  6
ByLayer
 62
    0
370
   -1
100
AcDbLine
 10
286.071
 20
85.26220000000001
 11
286.071
 21
91.5321
  0
LINE
  5
268
100
AcDbEntity
  8
0
  6
ByLayer
 62
    0
370
   -1
100
AcDbLine
 10
286.071
 20
91.5321
 11
286.895
 21
91.5321
  0
LINE
  5
269
100
AcDbEntity
  8
0
  6
ByLayer
 62
    0
370
   -1
100
AcDbLine
 10
286.895
 20
91.5321
 11
286.895
 21
94.3321
  0
LINE
  5
26A
100
AcDbEntity
  8
0
  6
ByLayer
 62
    0
370
   -1
100
AcDbLine
 10
286.895
 20
94.3321
 11
286.071
 21
94.3321
  0
LINE
  5
26B
100
AcDbEntity
  8
0
  6
ByLayer
 62
    0
370
   -1
100
AcDbLine
 10
286.071
 20
94.3321
 11
286.071
 21
97.5625
  0
LINE
  5
26C
100
AcDbEntity
  8
0
  6
ByLayer
 62
    0
370
   -1
100
AcDbLine
 10
286.071
 20
97.5625
 11
284.346
 21
97.5625
  0
LINE
  5
26D
100
AcDbEntity
  8
0
  6
ByLayer
 62
    0
370
   -1
100
AcDbLine
 10
284.346
 20
97.5625
 11
284.346
 21
98.4829
  0
LINE
  5
26E
100
AcDbEntity
  8
0
  6
ByLayer
 62
    0
370
   -1
100
AcDbLine
 10
284.346
 20
98.4829
 11
281.045
 21
98.4829
  0
LINE
  5
26F
100
AcDbEntity
  8
0
  6
ByLayer
 62
    0
370
   -1
100
AcDbLine
 10
281.045
 20
98.4829
 11
281.045
 21
97.5625
  0
LINE
  5
270
100
AcDbEntity
  8
0
  6
ByLayer
 62
    0
370
   -1
100
AcDbLine
 10
281.045
 20
97.5625
 11
279.32
 21
97.5625
  0
LINE
  5
271
100
AcDbEntity
  8
0
  6
ByLayer
 62
    0
370
   -1
100
AcDbLine
 10
279.32
 20
97.5625
 11
279.32
 21
94.3321
  0
LINE
  5
272
100
AcDbEntity
  8
0
  6
ByLayer
 62
    0
370
   -1
100
AcDbLine
 10
279.32
 20
94.3321
 11
277.796
 21
94.3321
  0
LINE
  5
273
100
AcDbEntity
  8
0
  6
ByLayer
 62
    0
370
   -1
100
AcDbLine
 10
277.796
 20
94.3321
 11
277.796
 21
99.03279999999999
  0
LINE
  5
274
100
AcDbEntity
  8
0
  6
ByLayer
 62
    0
370
   -1
100
AcDbLine
 10
277.796
 20
99.03279999999999
 11
263.795
 21
99.03279999999999
  0
LINE
  5
275
100
AcDbEntity
  8
0
  6
ByLayer
 62
    0
370
   -1
100
AcDbLine
 10
423.817
 20
99.03279999999999
 11
437.815
 21
99.03279999999999
  0
LINE
  5
276
100
AcDbEntity
  8
0
  6
ByLayer
 62
    0
370
   -1
100
AcDbLine
 10
437.815
 20
99.03279999999999
 11
437.815
 21
85.0318
  0
LINE
  5
277
100
AcDbEntity
  8
0
  6
ByLayer
 62
    0
370
   -1
100
AcDbLine
 10
437.815
 20
85.0318
 11
423.817
 21
85.0318
  0
LINE
  5
278
100
AcDbEntity
  8
0
  6
ByLayer
 62
    0
370
   -1
100
AcDbLine
 10
423.817
 20
85.0318
 11
423.817
 21
99.03279999999999
  0
LINE
  5
279
100
AcDbEntity
  8
0
  6
ByLayer
 62
    0
370
   -1
100
AcDbLine
 10
404.767
 20
99.03279999999999
 11
418.765
 21
99.03279999999999
  0
LINE
  5
27A
100
AcDbEntity
  8
0
  6
ByLayer
 62
    0
370
   -1
100
AcDbLine
 10
418.765
 20
99.03279999999999
 11
418.765
 21
85.0318
  0
LINE
  5
27B
100
AcDbEntity
  8
0
  6
ByLayer
 62
    0
370
   -1
100
AcDbLine
 10
418.765
 20
85.0318
 11
404.767
 21
85.0318
  0
LINE
  5
27C
100
AcDbEntity
  8
0
  6
ByLayer
 62
    0
370
   -1
100
AcDbLine
 10
404.767
 20
85.0318
 11
404.767
 21
99.03279999999999
  0
LINE
  5
27D
100
AcDbEntity
  8
0
  6
ByLayer
 62
    0
370
   -1
100
AcDbLine
 10
385.717
 20
99.03279999999999
 11
399.715
 21
99.03279999999999
  0
LINE
  5
27E
100
AcDbEntity
  8
0
  6
ByLayer
 62
    0
370
   -1
100
AcDbLine
 10
399.715
 20
99.03279999999999
 11
399.715
 21
85.0318
  0
LINE
  5
27F
100
AcDbEntity
  8
0
  6
ByLayer
 62
    0
370
   -1
100
AcDbLine
 10
399.715
 20
85.0318
 11
385.717
 21
85.0318
  0
LINE
  5
280
100
AcDbEntity
  8
0
  6
ByLayer
 62
    0
370
   -1
100
AcDbLine
 10
385.717
 20
85.0318
 11
385.717
 21
99.03279999999999
  0
LINE
  5
281
100
AcDbEntity
  8
0
  6
ByLayer
 62
    0
370
   -1
100
AcDbLine
 10
366.667
 20
99.03279999999999
 11
380.665
 21
99.03279999999999
  0
LINE
  5
282
100
AcDbEntity
  8
0
  6
ByLayer
 62
    0
370
   -1
100
AcDbLine
 10
380.665
 20
99.03279999999999
 11
380.665
 21
85.0318
  0
LINE
  5
283
100
AcDbEntity
  8
0
  6
ByLayer
 62
    0
370
   -1
100
AcDbLine
 10
380.665
 20
85.0318
 11
366.667
 21
85.0318
  0
LINE
  5
284
100
AcDbEntity
  8
0
  6
ByLayer
 62
    0
370
   -1
100
AcDbLine
 10
366.667
 20
85.0318
 11
366.667
 21
99.03279999999999
  0
LINE
  5
285
100
AcDbEntity
  8
0
  6
ByLayer
 62
    0
370
   -1
100
AcDbLine
 10
339.043
 20
99.03279999999999
 11
353.042
 21
99.03279999999999
  0
LINE
  5
286
100
AcDbEntity
  8
0
  6
ByLayer
 62
    0
370
   -1
100
AcDbLine
 10
353.042
 20
99.03279999999999
 11
353.042
 21
85.0318
  0
LINE
  5
287
100
AcDbEntity
  8
0
  6
ByLayer
 62
    0
370
   -1
100
AcDbLine
 10
353.042
 20
85.0318
 11
339.043
 21
85.0318
  0
LINE
  5
288
100
AcDbEntity
  8
0
  6
ByLayer
 62
    0
370
   -1
100
AcDbLine
 10
339.043
 20
85.0318
 11
339.043
 21
99.03279999999999
  0
LINE
  5
289
100
AcDbEntity
  8
0
  6
ByLayer
 62
    0
370
   -1
100
AcDbLine
 10
319.993
 20
99.03279999999999
 11
333.992
 21
99.03279999999999
  0
LINE
  5
28A
100
AcDbEntity
  8
0
  6
ByLayer
 62
    0
370
   -1
100
AcDbLine
 10
333.992
 20
99.03279999999999
 11
333.992
 21
85.0318
  0
LINE
  5
28B
100
AcDbEntity
  8
0
  6
ByLayer
 62
    0
370
   -1
100
AcDbLine
 10
333.992
 20
85.0318
 11
319.993
 21
85.0318
  0
LINE
  5
28C
100
AcDbEntity
  8
0
  6
ByLayer
 62
    0
370
   -1
100
AcDbLine
 10
319.993
 20
85.0318
 11
319.993
 21
99.03279999999999
  0
LINE
  5
28D
100
AcDbEntity
  8
0
  6
ByLayer
 62
    0
370
   -1
100
AcDbLine
 10
300.943
 20
99.03279999999999
 11
314.942
 21
99.03279999999999
  0
LINE
  5
28E
100
AcDbEntity
  8
0
  6
ByLayer
 62
    0
370
   -1
100
AcDbLine
 10
314.942
 20
99.03279999999999
 11
314.942
 21
85.0318
  0
LINE
  5
28F
100
AcDbEntity
  8
0
  6
ByLayer
 62
    0
370
   -1
100
AcDbLine
 10
314.942
 20
85.0318
 11
300.943
 21
85.0318
  0
LINE
  5
290
100
AcDbEntity
  8
0
  6
ByLayer
 62
    0
370
   -1
100
AcDbLine
 10
300.943
 20
85.0318
 11
300.943
 21
99.03279999999999
  0
LINE
  5
291
100
AcDbEntity
  8
0
  6
ByLayer
 62
    0
370
   -1
100
AcDbLine
 10
235.22
 20
99.03279999999999
 11
249.221
 21
99.03279999999999
  0
LINE
  5
292
100
AcDbEntity
  8
0
  6
ByLayer
 62
    0
370
   -1
100
AcDbLine
 10
249.221
 20
99.03279999999999
 11
249.221
 21
85.0318
  0
LINE
  5
293
100
AcDbEntity
  8
0
  6
ByLayer
 62
    0
370
   -1
100
AcDbLine
 10
249.221
 20
85.0318
 11
235.22
 21
85.0318
  0
LINE
  5
294
100
AcDbEntity
  8
0
  6
ByLayer
 62
    0
370
   -1
100
AcDbLine
 10
235.22
 20
85.0318
 11
235.22
 21
99.03279999999999
  0
LINE
  5
295
100
AcDbEntity
  8
0
  6
ByLayer
 62
    0
370
   -1
100
AcDbLine
 10
216.17
 20
99.03279999999999
 11
230.171
 21
99.03279999999999
  0
LINE
  5
296
100
AcDbEntity
  8
0
  6
ByLayer
 62
    0
370
   -1
100
AcDbLine
 10
230.171
 20
99.03279999999999
 11
230.171
 21
85.0318
  0
LINE
  5
297
100
AcDbEntity
  8
0
  6
ByLayer
 62
    0
370
   -1
100
AcDbLine
 10
230.171
 20
85.0318
 11
216.17
 21
85.0318
  0
LINE
  5
298
100
AcDbEntity
  8
0
  6
ByLayer
 62
    0
370
   -1
100
AcDbLine
 10
216.17
 20
85.0318
 11
216.17
 21
99.03279999999999
  0
LINE
  5
299
100
AcDbEntity
  8
0
  6
ByLayer
 62
    0
370
   -1
100
AcDbLine
 10
197.12
 20
99.03279999999999
 11
211.121
 21
99.03279999999999
  0
LINE
  5
29A
100
AcDbEntity
  8
0
  6
ByLayer
 62
    0
370
   -1
100
AcDbLine
 10
211.121
 20
99.03279999999999
 11
211.121
 21
85.0318
  0
LINE
  5
29B
100
AcDbEntity
  8
0
  6
ByLayer
 62
    0
370
   -1
100
AcDbLine
 10
211.121
 20
85.0318
 11
197.12
 21
85.0318
  0
LINE
  5
29C
100
AcDbEntity
  8
0
  6
ByLayer
 62
    0
370
   -1
100
AcDbLine
 10
197.12
 20
85.0318
 11
197.12
 21
99.03279999999999
  0
LINE
  5
29D
100
AcDbEntity
  8
0
  6
ByLayer
 62
    0
370
   -1
100
AcDbLine
 10
178.07
 20
99.03279999999999
 11
192.071
 21
99.03279999999999
  0
LINE
  5
29E
100
AcDbEntity
  8
0
  6
ByLayer
 62
    0
370
   -1
100
AcDbLine
 10
192.071
 20
99.03279999999999
 11
192.071
 21
85.0318
  0
LINE
  5
29F
100
AcDbEntity
  8
0
  6
ByLayer
 62
    0
370
   -1
100
AcDbLine
 10
192.071
 20
85.0318
 11
178.07
 21
85.0318
  0
LINE
  5
2A0
100
AcDbEntity
  8
0
  6
ByLayer
 62
    0
370
   -1
100
AcDbLine
 10
178.07
 20
85.0318
 11
178.07
 21
99.03279999999999
  0
LINE
  5
2A1
100
AcDbEntity
  8
0
  6
ByLayer
 62
    0
370
   -1
100
AcDbLine
 10
159.02
 20
99.03279999999999
 11
173.021
 21
99.03279999999999
  0
LINE
  5
2A2
100
AcDbEntity
  8
0
  6
ByLayer
 62
    0
370
   -1
100
AcDbLine
 10
173.021
 20
99.03279999999999
 11
173.021
 21
85.0318
  0
LINE
  5
2A3
100
AcDbEntity
  8
0
  6
ByLayer
 62
    0
370
   -1
100
AcDbLine
 10
173.021
 20
85.0318
 11
159.02
 21
85.0318
  0
LINE
  5
2A4
100
AcDbEntity
  8
0
  6
ByLayer
 62
    0
370
   -1
100
AcDbLine
 10
159.02
 20
85.0318
 11
159.02
 21
99.03279999999999
  0
LINE
  5
2A5
100
AcDbEntity
  8
0
  6
ByLayer
 62
    0
370
   -1
100
AcDbLine
 10
139.97
 20
99.03279999999999
 11
153.971
 21
99.03279999999999
  0
LINE
  5
2A6
100
AcDbEntity
  8
0
  6
ByLayer
 62
    0
370
   -1
100
AcDbLine
 10
153.971
 20
99.03279999999999
 11
153.971
 21
85.0318
  0
LINE
  5
2A7
100
AcDbEntity
  8
0
  6
ByLayer
 62
    0
370
   -1
100
AcDbLine
 10
153.971
 20
85.0318
 11
139.97
 21
85.0318
  0
LINE
  5
2A8
100
AcDbEntity
  8
0
  6
ByLayer
 62
    0
370
   -1
100
AcDbLine
 10
139.97
 20
85.0318
 11
139.97
 21
99.03279999999999
  0
LINE
  5
2A9
100
AcDbEntity
  8
0
  6
ByLayer
 62
    0
370
   -1
100
AcDbLine
 10
120.92
 20
99.03279999999999
 11
134.921
 21
99.03279999999999
  0
LINE
  5
2AA
100
AcDbEntity
  8
0
  6
ByLayer
 62
    0
370
   -1
100
AcDbLine
 10
134.921
 20
99.03279999999999
 11
134.921
 21
85.0318
  0
LINE
  5
2AB
100
AcDbEntity
  8
0
  6
ByLayer
 62
    0
370
   -1
100
AcDbLine
 10
134.921
 20
85.0318
 11
120.92
 21
85.0318
  0
LINE
  5
2AC
100
AcDbEntity
  8
0
  6
ByLayer
 62
    0
370
   -1
100
AcDbLine
 10
120.92
 20
85.0318
 11
120.92
 21
99.03279999999999
  0
LINE
  5
2AD
100
AcDbEntity
  8
0
  6
ByLayer
 62
    0
370
   -1
100
AcDbLine
 10
101.87
 20
99.03279999999999
 11
115.87
 21
99.03279999999999
  0
LINE
  5
2AE
100
AcDbEntity
  8
0
  6
ByLayer
 62
    0
370
   -1
100
AcDbLine
 10
115.87
 20
99.03279999999999
 11
115.87
 21
85.0318
  0
LINE
  5
2AF
100
AcDbEntity
  8
0
  6
ByLayer
 62
    0
370
   -1
100
AcDbLine
 10
115.87
 20
85.0318
 11
101.87
 21
85.0318
  0
LINE
  5
2B0
100
AcDbEntity
  8
0
  6
ByLayer
 62
    0
370
   -1
100
AcDbLine
 10
101.87
 20
85.0318
 11
101.87
 21
99.03279999999999
  0
LINE
  5
2B1
100
AcDbEntity
  8
0
  6
ByLayer
 62
    0
370
   -1
100
AcDbLine
 10
82.8202
 20
99.03279999999999
 11
96.82089999999999
 21
99.03279999999999
  0
LINE
  5
2B2
100
AcDbEntity
  8
0
  6
ByLayer
 62
    0
370
   -1
100
AcDbLine
 10
96.82089999999999
 20
99.03279999999999
 11
96.82089999999999
 21
85.0318
  0
LINE
  5
2B3
100
AcDbEntity
  8
0
  6
ByLayer
 62
    0
370
   -1
100
AcDbLine
 10
96.82089999999999
 20
85.0318
 11
82.8202
 21
85.0318
  0
LINE
  5
2B4
100
AcDbEntity
  8
0
  6
ByLayer
 62
    0
370
   -1
100
AcDbLine
 10
82.8202
 20
85.0318
 11
82.8202
 21
99.03279999999999
  0
LINE
  5
2B5
100
AcDbEntity
  8
0
  6
ByLayer
 62
    0
370
   -1
100
AcDbLine
 10
63.7702
 20
99.03279999999999
 11
77.7709
 21
99.03279999999999
  0
LINE
  5
2B6
100
AcDbEntity
  8
0
  6
ByLayer
 62
    0
370
   -1
100
AcDbLine
 10
77.7709
 20
99.03279999999999
 11
77.7709
 21
85.0318
  0
LINE
  5
2B7
100
AcDbEntity
  8
0
  6
ByLayer
 62
    0
370
   -1
100
AcDbLine
 10
77.7709
 20
85.0318
 11
63.7702
 21
85.0318
  0
LINE
  5
2B8
100
AcDbEntity
  8
0
  6
ByLayer
 62
    0
370
   -1
100
AcDbLine
 10
63.7702
 20
85.0318
 11
63.7702
 21
99.03279999999999
  0
LINE
  5
2B9
100
AcDbEntity
  8
0
  6
ByLayer
 62
    0
370
   -1
100
AcDbLine
 10
44.7202
 20
99.03279999999999
 11
58.7209
 21
99.03279999999999
  0
LINE
  5
2BA
100
AcDbEntity
  8
0
  6
ByLayer
 62
    0
370
   -1
100
AcDbLine
 10
58.7209
 20
99.03279999999999
 11
58.7209
 21
85.0318
  0
LINE
  5
2BB
100
AcDbEntity
  8
0
  6
ByLayer
 62
    0
370
   -1
100
AcDbLine
 10
58.7209
 20
85.0318
 11
44.7202
 21
85.0318
  0
LINE
  5
2BC
100
AcDbEntity
  8
0
  6
ByLayer
 62
    0
370
   -1
100
AcDbLine
 10
44.7202
 20
85.0318
 11
44.7202
 21
99.03279999999999
  0
LINE
  5
2BD
100
AcDbEntity
  8
0
  6
ByLayer
 62
    0
370
   -1
100
AcDbLine
 10
25.6701
 20
99.03279999999999
 11
39.6709
 21
99.03279999999999
  0
LINE
  5
2BE
100
AcDbEntity
  8
0
  6
ByLayer
 62
    0
370
   -1
100
AcDbLine
 10
39.6709
 20
99.03279999999999
 11
39.6709
 21
85.0318
  0
LINE
  5
2BF
100
AcDbEntity
  8
0
  6
ByLayer
 62
    0
370
   -1
100
AcDbLine
 10
39.6709
 20
85.0318
 11
25.6701
 21
85.0318
  0
LINE
  5
2C0
100
AcDbEntity
  8
0
  6
ByLayer
 62
    0
370
   -1
100
AcDbLine
 10
25.6701
 20
85.0318
 11
25.6701
 21
99.03279999999999
  0
LINE
  5
2C1
100
AcDbEntity
  8
0
  6
ByLayer
 62
    0
370
   -1
100
AcDbLine
 10
6.62009
 20
99.03279999999999
 11
20.621
 21
99.03279999999999
  0
LINE
  5
2C2
100
AcDbEntity
  8
0
  6
ByLayer
 62
    0
370
   -1
100
AcDbLine
 10
20.621
 20
99.03279999999999
 11
20.621
 21
85.0318
  0
LINE
  5
2C3
100
AcDbEntity
  8
0
  6
ByLayer
 62
    0
370
   -1
100
AcDbLine
 10
20.621
 20
85.0318
 11
6.62009
 21
85.0318
  0
LINE
  5
2C4
100
AcDbEntity
  8
0
  6
ByLayer
 62
    0
370
   -1
100
AcDbLine
 10
6.62009
 20
85.0318
 11
6.62009
 21
99.03279999999999
  0
LINE
  5
2C5
100
AcDbEntity
  8
0
  6
ByLayer
 62
    0
370
   -1
100
AcDbLine
 10
423.817
 20
137.133
 11
437.815
 21
137.133
  0
LINE
  5
2C6
100
AcDbEntity
  8
0
  6
ByLayer
 62
    0
370
   -1
100
AcDbLine
 10
437.815
 20
137.133
 11
437.815
 21
123.132
  0
LINE
  5
2C7
100
AcDbEntity
  8
0
  6
ByLayer
 62
    0
370
   -1
100
AcDbLine
 10
437.815
 20
123.132
 11
423.817
 21
123.132
  0
LINE
  5
2C8
100
AcDbEntity
  8
0
  6
ByLayer
 62
    0
370
   -1
100
AcDbLine
 10
423.817
 20
123.132
 11
423.817
 21
137.133
  0
LINE
  5
2C9
100
AcDbEntity
  8
0
  6
ByLayer
 62
    0
370
   -1
100
AcDbLine
 10
339.043
 20
137.133
 11
353.042
 21
137.133
  0
LINE
  5
2CA
100
AcDbEntity
  8
0
  6
ByLayer
 62
    0
370
   -1
100
AcDbLine
 10
353.042
 20
137.133
 11
353.042
 21
123.132
  0
LINE
  5
2CB
100
AcDbEntity
  8
0
  6
ByLayer
 62
    0
370
   -1
100
AcDbLine
 10
353.042
 20
123.132
 11
339.043
 21
123.132
  0
LINE
  5
2CC
100
AcDbEntity
  8
0
  6
ByLayer
 62
    0
370
   -1
100
AcDbLine
 10
339.043
 20
123.132
 11
339.043
 21
137.133
  0
LINE
  5
2CD
100
AcDbEntity
  8
0
  6
ByLayer
 62
    0
370
   -1
100
AcDbLine
 10
319.993
 20
137.133
 11
333.992
 21
137.133
  0
LINE
  5
2CE
100
AcDbEntity
  8
0
  6
ByLayer
 62
    0
370
   -1
100
AcDbLine
 10
333.992
 20
137.133
 11
333.992
 21
123.132
  0
LINE
  5
2CF
100
AcDbEntity
  8
0
  6
ByLayer
 62
    0
370
   -1
100
AcDbLine
 10
333.992
 20
123.132
 11
319.993
 21
123.132
  0
LINE
  5
2D0
100
AcDbEntity
  8
0
  6
ByLayer
 62
    0
370
   -1
100
AcDbLine
 10
319.993
 20
123.132
 11
319.993
 21
137.133
  0
LINE
  5
2D1
100
AcDbEntity
  8
0
  6
ByLayer
 62
    0
370
   -1
100
AcDbLine
 10
300.943
 20
137.133
 11
314.942
 21
137.133
  0
LINE
  5
2D2
100
AcDbEntity
  8
0
  6
ByLayer
 62
    0
370
   -1
100
AcDbLine
 10
314.942
 20
137.133
 11
314.942
 21
123.132
  0
LINE
  5
2D3
100
AcDbEntity
  8
0
  6
ByLayer
 62
    0
370
   -1
100
AcDbLine
 10
314.942
 20
123.132
 11
300.943
 21
123.132
  0
LINE
  5
2D4
100
AcDbEntity
  8
0
  6
ByLayer
 62
    0
370
   -1
100
AcDbLine
 10
300.943
 20
123.132
 11
300.943
 21
137.133
  0
LINE
  5
2D5
100
AcDbEntity
  8
0
  6
ByLayer
 62
    0
370
   -1
100
AcDbLine
 10
273.32
 20
137.133
 11
287.321
 21
137.133
  0
LINE
  5
2D6
100
AcDbEntity
  8
0
  6
ByLayer
 62
    0
370
   -1
100
AcDbLine
 10
287.321
 20
137.133
 11
287.321
 21
123.132
  0
LINE
  5
2D7
100
AcDbEntity
  8
0
  6
ByLayer
 62
    0
370
   -1
100
AcDbLine
 10
287.321
 20
123.132
 11
273.32
 21
123.132
  0
LINE
  5
2D8
100
AcDbEntity
  8
0
  6
ByLayer
 62
    0
370
   -1
100
AcDbLine
 10
273.32
 20
123.132
 11
273.32
 21
137.133
  0
LINE
  5
2D9
100
AcDbEntity
  8
0
  6
ByLayer
 62
    0
370
   -1
100
AcDbLine
 10
254.27
 20
137.133
 11
268.271
 21
137.133
  0
LINE
  5
2DA
100
AcDbEntity
  8
0
  6
ByLayer
 62
    0
370
   -1
100
AcDbLine
 10
268.271
 20
137.133
 11
268.271
 21
123.132
  0
LINE
  5
2DB
100
AcDbEntity
  8
0
  6
ByLayer
 62
    0
370
   -1
100
AcDbLine
 10
268.271
 20
123.132
 11
254.27
 21
123.132
  0
LINE
  5
2DC
100
AcDbEntity
  8
0
  6
ByLayer
 62
    0
370
   -1
100
AcDbLine
 10
254.27
 20
123.132
 11
254.27
 21
137.133
  0
LINE
  5
2DD
100
AcDbEntity
  8
0
  6
ByLayer
 62
    0
370
   -1
100
AcDbLine
 10
235.22
 20
137.133
 11
249.221
 21
137.133
  0
LINE
  5
2DE
100
AcDbEntity
  8
0
  6
ByLayer
 62
    0
370
   -1
100
AcDbLine
 10
249.221
 20
137.133
 11
249.221
 21
123.132
  0
LINE
  5
2DF
100
AcDbEntity
  8
0
  6
ByLayer
 62
    0
370
   -1
100
AcDbLine
 10
249.221
 20
123.132
 11
235.22
 21
123.132
  0
LINE
  5
2E0
100
AcDbEntity
  8
0
  6
ByLayer
 62
    0
370
   -1
100
AcDbLine
 10
235.22
 20
123.132
 11
235.22
 21
137.133
  0
LINE
  5
2E1
100
AcDbEntity
  8
0
  6
ByLayer
 62
    0
370
   -1
100
AcDbLine
 10
216.17
 20
137.133
 11
230.171
 21
137.133
  0
LINE
  5
2E2
100
AcDbEntity
  8
0
  6
ByLayer
 62
    0
370
   -1
100
AcDbLine
 10
230.171
 20
137.133
 11
230.171
 21
123.132
  0
LINE
  5
2E3
100
AcDbEntity
  8
0
  6
ByLayer
 62
    0
370
   -1
100
AcDbLine
 10
230.171
 20
123.132
 11
216.17
 21
123.132
  0
LINE
  5
2E4
100
AcDbEntity
  8
0
  6
ByLayer
 62
    0
370
   -1
100
AcDbLine
 10
216.17
 20
123.132
 11
216.17
 21
137.133
  0
LINE
  5
2E5
100
AcDbEntity
  8
0
  6
ByLayer
 62
    0
370
   -1
100
AcDbLine
 10
187.595
 20
137.133
 11
201.596
 21
137.133
  0
LINE
  5
2E6
100
AcDbEntity
  8
0
  6
ByLayer
 62
    0
370
   -1
100
AcDbLine
 10
201.596
 20
137.133
 11
201.596
 21
123.132
  0
LINE
  5
2E7
100
AcDbEntity
  8
0
  6
ByLayer
 62
    0
370
   -1
100
AcDbLine
 10
201.596
 20
123.132
 11
187.595
 21
123.132
  0
LINE
  5
2E8
100
AcDbEntity
  8
0
  6
ByLayer
 62
    0
370
   -1
100
AcDbLine
 10
187.595
 20
123.132
 11
187.595
 21
137.133
  0
LINE
  5
2E9
100
AcDbEntity
  8
0
  6
ByLayer
 62
    0
370
   -1
100
AcDbLine
 10
168.545
 20
137.133
 11
182.546
 21
137.133
  0
LINE
  5
2EA
100
AcDbEntity
  8
0
  6
ByLayer
 62
    0
370
   -1
100
AcDbLine
 10
182.546
 20
137.133
 11
182.546
 21
123.132
  0
LINE
  5
2EB
100
AcDbEntity
  8
0
  6
ByLayer
 62
    0
370
   -1
100
AcDbLine
 10
182.546
 20
123.132
 11
168.545
 21
123.132
  0
LINE
  5
2EC
100
AcDbEntity
  8
0
  6
ByLayer
 62
    0
370
   -1
100
AcDbLine
 10
168.545
 20
123.132
 11
168.545
 21
137.133
  0
LINE
  5
2ED
100
AcDbEntity
  8
0
  6
ByLayer
 62
    0
370
   -1
100
AcDbLine
 10
149.495
 20
137.133
 11
163.496
 21
137.133
  0
LINE
  5
2EE
100
AcDbEntity
  8
0
  6
ByLayer
 62
    0
370
   -1
100
AcDbLine
 10
163.496
 20
137.133
 11
163.496
 21
123.132
  0
LINE
  5
2EF
100
AcDbEntity
  8
0
  6
ByLayer
 62
    0
370
   -1
100
AcDbLine
 10
163.496
 20
123.132
 11
149.495
 21
123.132
  0
LINE
  5
2F0
100
AcDbEntity
  8
0
  6
ByLayer
 62
    0
370
   -1
100
AcDbLine
 10
149.495
 20
123.132
 11
149.495
 21
137.133
  0
LINE
  5
2F1
100
AcDbEntity
  8
0
  6
ByLayer
 62
    0
370
   -1
100
AcDbLine
 10
130.445
 20
137.133
 11
144.446
 21
137.133
  0
LINE
  5
2F2
100
AcDbEntity
  8
0
  6
ByLayer
 62
    0
370
   -1
100
AcDbLine
 10
144.446
 20
137.133
 11
144.446
 21
123.132
  0
LINE
  5
2F3
100
AcDbEntity
  8
0
  6
ByLayer
 62
    0
370
   -1
100
AcDbLine
 10
144.446
 20
123.132
 11
130.445
 21
123.132
  0
LINE
  5
2F4
100
AcDbEntity
  8
0
  6
ByLayer
 62
    0
370
   -1
100
AcDbLine
 10
130.445
 20
123.132
 11
130.445
 21
137.133
  0
LINE
  5
2F5
100
AcDbEntity
  8
0
  6
ByLayer
 62
    0
370
   -1
100
AcDbLine
 10
101.87
 20
137.133
 11
115.87
 21
137.133
  0
LINE
  5
2F6
100
AcDbEntity
  8
0
  6
ByLayer
 62
    0
370
   -1
100
AcDbLine
 10
115.87
 20
137.133
 11
115.87
 21
123.132
  0
LINE
  5
2F7
100
AcDbEntity
  8
0
  6
ByLayer
 62
    0
370
   -1
100
AcDbLine
 10
115.87
 20
123.132
 11
101.87
 21
123.132
  0
LINE
  5
2F8
100
AcDbEntity
  8
0
  6
ByLayer
 62
    0
370
   -1
100
AcDbLine
 10
101.87
 20
123.132
 11
101.87
 21
137.133
  0
LINE
  5
2F9
100
AcDbEntity
  8
0
  6
ByLayer
 62
    0
370
   -1
100
AcDbLine
 10
82.8202
 20
137.133
 11
96.82089999999999
 21
137.133
  0
LINE
  5
2FA
100
AcDbEntity
  8
0
  6
ByLayer
 62
    0
370
   -1
100
AcDbLine
 10
96.82089999999999
 20
137.133
 11
96.82089999999999
 21
123.132
  0
LINE
  5
2FB
100
AcDbEntity
  8
0
  6
ByLayer
 62
    0
370
   -1
100
AcDbLine
 10
96.82089999999999
 20
123.132
 11
82.8202
 21
123.132
  0
LINE
  5
2FC
100
AcDbEntity
  8
0
  6
ByLayer
 62
    0
370
   -1
100
AcDbLine
 10
82.8202
 20
123.132
 11
82.8202
 21
137.133
  0
LINE
  5
2FD
100
AcDbEntity
  8
0
  6
ByLayer
 62
    0
370
   -1
100
AcDbLine
 10
63.7702
 20
137.133
 11
77.7709
 21
137.133
  0
LINE
  5
2FE
100
AcDbEntity
  8
0
  6
ByLayer
 62
    0
370
   -1
100
AcDbLine
 10
77.7709
 20
137.133
 11
77.7709
 21
123.132
  0
LINE
  5
2FF
100
AcDbEntity
  8
0
  6
ByLayer
 62
    0
370
   -1
100
AcDbLine
 10
77.7709
 20
123.132
 11
63.7702
 21
123.132
  0
LINE
  5
300
100
AcDbEntity
  8
0
  6
ByLayer
 62
    0
370
   -1
100
AcDbLine
 10
63.7702
 20
123.132
 11
63.7702
 21
137.133
  0
LINE
  5
301
100
AcDbEntity
  8
0
  6
ByLayer
 62
    0
370
   -1
100
AcDbLine
 10
44.7202
 20
137.133
 11
58.7209
 21
137.133
  0
LINE
  5
302
100
AcDbEntity
  8
0
  6
ByLayer
 62
    0
370
   -1
100
AcDbLine
 10
58.7209
 20
137.133
 11
58.7209
 21
123.132
  0
LINE
  5
303
100
AcDbEntity
  8
0
  6
ByLayer
 62
    0
370
   -1
100
AcDbLine
 10
58.7209
 20
123.132
 11
44.7202
 21
123.132
  0
LINE
  5
304
100
AcDbEntity
  8
0
  6
ByLayer
 62
    0
370
   -1
100
AcDbLine
 10
44.7202
 20
123.132
 11
44.7202
 21
137.133
  0
LINE
  5
305
100
AcDbEntity
  8
0
  6
ByLayer
 62
    0
370
   -1
100
AcDbLine
 10
6.62009
 20
137.133
 11
20.621
 21
137.133
  0
LINE
  5
306
100
AcDbEntity
  8
0
  6
ByLayer
 62
    0
370
   -1
100
AcDbLine
 10
20.621
 20
137.133
 11
20.621
 21
123.132
  0
LINE
  5
307
100
AcDbEntity
  8
0
  6
ByLayer
 62
    0
370
   -1
100
AcDbLine
 10
20.621
 20
123.132
 11
6.62009
 21
123.132
  0
LINE
  5
308
100
AcDbEntity
  8
0
  6
ByLayer
 62
    0
370
   -1
100
AcDbLine
 10
6.62009
 20
123.132
 11
6.62009
 21
137.133
  0
LINE
  5
309
100
AcDbEntity
  8
0
  6
ByLayer
 62
    0
370
   -1
100
AcDbLine
 10
2.6200846
 20
144.133
 11
2.637999
 21
144.603
  0
LINE
  5
30A
100
AcDbEntity
  8
0
  6
ByLayer
 62
    0
370
   -1
100
AcDbLine
 10
2.637999
 20
144.603
 11
2.693121
 21
145.071
  0
LINE
  5
30B
100
AcDbEntity
  8
0
  6
ByLayer
 62
    0
370
   -1
100
AcDbLine
 10
2.693121
 20
145.071
 11
2.785449
 21
145.533
  0
LINE
  5
30C
100
AcDbEntity
  8
0
  6
ByLayer
 62
    0
370
   -1
100
AcDbLine
 10
2.785449
 20
145.533
 11
2.913606
 21
145.987
  0
LINE
  5
30D
100
AcDbEntity
  8
0
  6
ByLayer
 62
    0
370
   -1
100
AcDbLine
 10
2.913606
 20
145.987
 11
3.076215
 21
146.43
  0
LINE
  5
30E
100
AcDbEntity
  8
0
  6
ByLayer
 62
    0
370
   -1
100
AcDbLine
 10
3.076215
 20
146.43
 11
3.273273
 21
146.856
  0
LINE
  5
30F
100
AcDbEntity
  8
0
  6
ByLayer
 62
    0
370
   -1
100
AcDbLine
 10
3.273273
 20
146.856
 11
3.504784
 21
147.268
  0
LINE
  5
310
100
AcDbEntity
  8
0
  6
ByLayer
 62
    0
370
   -1
100
AcDbLine
 10
3.504784
 20
147.268
 11
3.76524
 21
147.659
  0
LINE
  5
311
100
AcDbEntity
  8
0
  6
ByLayer
 62
    0
370
   -1
100
AcDbLine
 10
3.76524
 20
147.659
 11
4.05738
 21
148.03
  0
LINE
  5
312
100
AcDbEntity
  8
0
  6
ByLayer
 62
    0
370
   -1
100
AcDbLine
 10
4.05738
 20
148.03
 11
4.377079999999999
 21
148.376
  0
LINE
  5
313
100
AcDbEntity
  8
0
  6
ByLayer
 62
    0
370
   -1
100
AcDbLine
 10
4.377079999999999
 20
148.376
 11
4.72297
 21
148.695
  0
LINE
  5
314
100
AcDbEntity
  8
0
  6
ByLayer
 62
    0
370
   -1
100
AcDbLine
 10
4.72297
 20
148.695
 11
5.09366
 21
148.987
  0
LINE
  5
315
100
AcDbEntity
  8
0
  6
ByLayer
 62
    0
370
   -1
100
AcDbLine
 10
5.09366
 20
148.987
 11
5.48503
 21
149.248
  0
LINE
  5
316
100
AcDbEntity
  8
0
  6
ByLayer
 62
    0
370
   -1
100
AcDbLine
 10
5.48503
 20
149.248
 11
5.89706
 21
149.48
  0
LINE
  5
317
100
AcDbEntity
  8
0
  6
ByLayer
 62
    0
370
   -1
100
AcDbLine
 10
5.89706
 20
149.48
 11
6.32286
 21
149.677
  0
LINE
  5
318
100
AcDbEntity
  8
0
  6
ByLayer
 62
    0
370
   -1
100
AcDbLine
 10
6.32286
 20
149.677
 11
6.76521
 21
149.839
  0
LINE
  5
319
100
AcDbEntity
  8
0
  6
ByLayer
 62
    0
370
   -1
100
AcDbLine
 10
6.76521
 20
149.839
 11
7.21998
 21
149.967
  0
LINE
  5
31A
100
AcDbEntity
  8
0
  6
ByLayer
 62
    0
370
   -1
100
AcDbLine
 10
7.21998
 20
149.967
 11
7.681620000000001
 21
150.06
  0
LINE
  5
31B
100
AcDbEntity
  8
0
  6
ByLayer
 62
    0
370
   -1
100
AcDbLine
 10
7.681620000000001
 20
150.06
 11
8.15015
 21
150.115
  0
LINE
  5
31C
100
AcDbEntity
  8
0
  6
ByLayer
 62
    0
370
   -1
100
AcDbLine
 10
8.15015
 20
150.115
 11
8.620049999999999
 21
150.133
  0
LINE
  5
31D
100
AcDbEntity
  8
0
  6
ByLayer
 62
    0
370
   -1
100
AcDbLine
 10
8.620049999999999
 20
2.839625
 11
8.15015
 21
2.858917
  0
LINE
  5
31E
100
AcDbEntity
  8
0
  6
ByLayer
 62
    0
370
   -1
100
AcDbLine
 10
8.15015
 20
2.858917
 11
7.681620000000001
 21
2.91404
  0
LINE
  5
31F
100
AcDbEntity
  8
0
  6
ByLayer
 62
    0
370
   -1
100
AcDbLine
 10
7.681620000000001
 20
2.91404
 11
7.21998
 21
3.006366
  0
LINE
  5
320
100
AcDbEntity
  8
0
  6
ByLayer
 62
    0
370
   -1
100
AcDbLine
 10
7.21998
 20
3.006366
 11
6.76521
 21
3.134526
  0
LINE
  5
321
100
AcDbEntity
  8
0
  6
ByLayer
 62
    0
370
   -1
100
AcDbLine
 10
6.76521
 20
3.134526
 11
6.32286
 21
3.297132
  0
LINE
  5
322
100
AcDbEntity
  8
0
  6
ByLayer
 62
    0
370
   -1
100
AcDbLine
 10
6.32286
 20
3.297132
 11
5.89706
 21
3.494194
  0
LINE
  5
323
100
AcDbEntity
  8
0
  6
ByLayer
 62
    0
370
   -1
100
AcDbLine
 10
5.89706
 20
3.494194
 11
5.48503
 21
3.72433
  0
LINE
  5
324
100
AcDbEntity
  8
0
  6
ByLayer
 62
    0
370
   -1
100
AcDbLine
 10
5.48503
 20
3.72433
 11
5.09366
 21
3.98615
  0
LINE
  5
325
100
AcDbEntity
  8
0
  6
ByLayer
 62
    0
370
   -1
100
AcDbLine
 10
5.09366
 20
3.98615
 11
4.72297
 21
4.2783
  0
LINE
  5
326
100
AcDbEntity
  8
0
  6
ByLayer
 62
    0
370
   -1
100
AcDbLine
 10
4.72297
 20
4.2783
 11
4.377079999999999
 21
4.598
  0
LINE
  5
327
100
AcDbEntity
  8
0
  6
ByLayer
 62
    0
370
   -1
100
AcDbLine
 10
4.377079999999999
 20
4.598
 11
4.05738
 21
4.94389
  0
LINE
  5
328
100
AcDbEntity
  8
0
  6
ByLayer
 62
    0
370
   -1
100
AcDbLine
 10
4.05738
 20
4.94389
 11
3.76524
 21
5.314579999999999
  0
LINE
  5
329
100
AcDbEntity
  8
0
  6
ByLayer
 62
    0
370
   -1
100
AcDbLine
 10
3.76524
 20
5.314579999999999
 11
3.504784
 21
5.70594
  0
LINE
  5
32A
100
AcDbEntity
  8
0
  6
ByLayer
 62
    0
370
   -1
100
AcDbLine
 10
3.504784
 20
5.70594
 11
3.273273
 21
6.11662
  0
LINE
  5
32B
100
AcDbEntity
  8
0
  6
ByLayer
 62
    0
370
   -1
100
AcDbLine
 10
3.273273
 20
6.11662
 11
3.076215
 21
6.543800000000001
  0
LINE
  5
32C
100
AcDbEntity
  8
0
  6
ByLayer
 62
    0
370
   -1
100
AcDbLine
 10
3.076215
 20
6.543800000000001
 11
2.913606
 21
6.986140000000001
  0
LINE
  5
32D
100
AcDbEntity
  8
0
  6
ByLayer
 62
    0
370
   -1
100
AcDbLine
 10
2.913606
 20
6.986140000000001
 11
2.785449
 21
7.43953
  0
LINE
  5
32E
100
AcDbEntity
  8
0
  6
ByLayer
 62
    0
370
   -1
100
AcDbLine
 10
2.785449
 20
7.43953
 11
2.693121
 21
7.90255
  0
LINE
  5
32F
100
AcDbEntity
  8
0
  6
ByLayer
 62
    0
370
   -1
100
AcDbLine
 10
2.693121
 20
7.90255
 11
2.637999
 21
8.3697
  0
LINE
  5
330
100
AcDbEntity
  8
0
  6
ByLayer
 62
    0
370
   -1
100
AcDbLine
 10
2.637999
 20
8.3697
 11
2.6200846
 21
8.84098
  0
LINE
  5
331
100
AcDbEntity
  8
0
  6
ByLayer
 62
    0
370
   -1
100
AcDbLine
 10
2.6200846
 20
8.84098
 11
2.6200846
 21
144.133
  0
LINE
  5
332
100
AcDbEntity
  8
0
  6
ByLayer
 62
    0
370
   -1
100
AcDbLine
 10
8.620049999999999
 20
150.133
 11
435.816
 21
150.133
  0
LINE
  5
333
100
AcDbEntity
  8
0
  6
ByLayer
 62
    0
370
   -1
100
AcDbLine
 10
435.816
 20
150.133
 11
436.288
 21
150.115
  0
LINE
  5
334
100
AcDbEntity
  8
0
  6
ByLayer
 62
    0
370
   -1
100
AcDbLine
 10
436.288
 20
150.115
 11
436.754
 21
150.06
  0
LINE
  5
335
100
AcDbEntity
  8
0
  6
ByLayer
 62
    0
370
   -1
100
AcDbLine
 10
436.754
 20
150.06
 11
437.216
 21
149.967
  0
LINE
  5
336
100
AcDbEntity
  8
0
  6
ByLayer
 62
    0
370
   -1
100
AcDbLine
 10
437.216
 20
149.967
 11
437.671
 21
149.839
  0
LINE
  5
337
100
AcDbEntity
  8
0
  6
ByLayer
 62
    0
370
   -1
100
AcDbLine
 10
437.671
 20
149.839
 11
438.112
 21
149.677
  0
LINE
  5
338
100
AcDbEntity
  8
0
  6
ByLayer
 62
    0
370
   -1
100
AcDbLine
 10
438.112
 20
149.677
 11
438.539
 21
149.48
  0
LINE
  5
339
100
AcDbEntity
  8
0
  6
ByLayer
 62
    0
370
   -1
100
AcDbLine
 10
438.539
 20
149.48
 11
438.952
 21
149.248
  0
LINE
  5
33A
100
AcDbEntity
  8
0
  6
ByLayer
 62
    0
370
   -1
100
AcDbLine
 10
438.952
 20
149.248
 11
439.343
 21
148.987
  0
LINE
  5
33B
100
AcDbEntity
  8
0
  6
ByLayer
 62
    0
370
   -1
100
AcDbLine
 10
439.343
 20
148.987
 11
439.714
 21
148.695
  0
LINE
  5
33C
100
AcDbEntity
  8
0
  6
ByLayer
 62
    0
370
   -1
100
AcDbLine
 10
439.714
 20
148.695
 11
440.059
 21
148.376
  0
LINE
  5
33D
100
AcDbEntity
  8
0
  6
ByLayer
 62
    0
370
   -1
100
AcDbLine
 10
440.059
 20
148.376
 11
440.377
 21
148.03
  0
LINE
  5
33E
100
AcDbEntity
  8
0
  6
ByLayer
 62
    0
370
   -1
100
AcDbLine
 10
440.377
 20
148.03
 11
440.67
 21
147.659
  0
LINE
  5
33F
100
AcDbEntity
  8
0
  6
ByLayer
 62
    0
370
   -1
100
AcDbLine
 10
440.67
 20
147.659
 11
440.931
 21
147.268
  0
LINE
  5
340
100
AcDbEntity
  8
0
  6
ByLayer
 62
    0
370
   -1
100
AcDbLine
 10
440.931
 20
147.268
 11
441.164
 21
146.856
  0
LINE
  5
341
100
AcDbEntity
  8
0
  6
ByLayer
 62
    0
370
   -1
100
AcDbLine
 10
441.164
 20
146.856
 11
441.358
 21
146.43
  0
LINE
  5
342
100
AcDbEntity
  8
0
  6
ByLayer
 62
    0
370
   -1
100
AcDbLine
 10
441.358
 20
146.43
 11
441.523
 21
145.987
  0
LINE
  5
343
100
AcDbEntity
  8
0
  6
ByLayer
 62
    0
370
   -1
100
AcDbLine
 10
441.523
 20
145.987
 11
441.65
 21
145.533
  0
LINE
  5
344
100
AcDbEntity
  8
0
  6
ByLayer
 62
    0
370
   -1
100
AcDbLine
 10
441.65
 20
145.533
 11
441.742
 21
145.071
  0
LINE
  5
345
100
AcDbEntity
  8
0
  6
ByLayer
 62
    0
370
   -1
100
AcDbLine
 10
441.742
 20
145.071
 11
441.799
 21
144.603
  0
LINE
  5
346
100
AcDbEntity
  8
0
  6
ByLayer
 62
    0
370
   -1
100
AcDbLine
 10
441.799
 20
144.603
 11
441.816
 21
144.133
  0
LINE
  5
347
100
AcDbEntity
  8
0
  6
ByLayer
 62
    0
370
   -1
100
AcDbLine
 10
441.816
 20
8.839600000000001
 11
441.799
 21
8.3697
  0
LINE
  5
348
100
AcDbEntity
  8
0
  6
ByLayer
 62
    0
370
   -1
100
AcDbLine
 10
441.799
 20
8.3697
 11
441.742
 21
7.90255
  0
LINE
  5
349
100
AcDbEntity
  8
0
  6
ByLayer
 62
    0
370
   -1
100
AcDbLine
 10
441.742
 20
7.90255
 11
441.65
 21
7.43953
  0
LINE
  5
34A
100
AcDbEntity
  8
0
  6
ByLayer
 62
    0
370
   -1
100
AcDbLine
 10
441.65
 20
7.43953
 11
441.523
 21
6.986140000000001
  0
LINE
  5
34B
100
AcDbEntity
  8
0
  6
ByLayer
 62
    0
370
   -1
100
AcDbLine
 10
441.523
 20
6.986140000000001
 11
441.358
 21
6.543800000000001
  0
LINE
  5
34C
100
AcDbEntity
  8
0
  6
ByLayer
 62
    0
370
   -1
100
AcDbLine
 10
441.358
 20
6.543800000000001
 11
441.164
 21
6.11662
  0
LINE
  5
34D
100
AcDbEntity
  8
0
  6
ByLayer
 62
    0
370
   -1
100
AcDbLine
 10
441.164
 20
6.11662
 11
440.931
 21
5.70594
  0
LINE
  5
34E
100
AcDbEntity
  8
0
  6
ByLayer
 62
    0
370
   -1
100
AcDbLine
 10
440.931
 20
5.70594
 11
440.67
 21
5.314579999999999
  0
LINE
  5
34F
100
AcDbEntity
  8
0
  6
ByLayer
 62
    0
370
   -1
100
AcDbLine
 10
440.67
 20
5.314579999999999
 11
440.377
 21
4.94389
  0
LINE
  5
350
100
AcDbEntity
  8
0
  6
ByLayer
 62
    0
370
   -1
100
AcDbLine
 10
440.377
 20
4.94389
 11
440.059
 21
4.598
  0
LINE
  5
351
100
AcDbEntity
  8
0
  6
ByLayer
 62
    0
370
   -1
100
AcDbLine
 10
440.059
 20
4.598
 11
439.714
 21
4.2783
  0
LINE
  5
352
100
AcDbEntity
  8
0
  6
ByLayer
 62
    0
370
   -1
100
AcDbLine
 10
439.714
 20
4.2783
 11
439.343
 21
3.98615
  0
LINE
  5
353
100
AcDbEntity
  8
0
  6
ByLayer
 62
    0
370
   -1
100
AcDbLine
 10
439.343
 20
3.98615
 11
438.952
 21
3.72433
  0
LINE
  5
354
100
AcDbEntity
  8
0
  6
ByLayer
 62
    0
370
   -1
100
AcDbLine
 10
438.952
 20
3.72433
 11
438.539
 21
3.494194
  0
LINE
  5
355
100
AcDbEntity
  8
0
  6
ByLayer
 62
    0
370
   -1
100
AcDbLine
 10
438.539
 20
3.494194
 11
438.112
 21
3.297132
  0
LINE
  5
356
100
AcDbEntity
  8
0
  6
ByLayer
 62
    0
370
   -1
100
AcDbLine
 10
438.112
 20
3.297132
 11
437.671
 21
3.134526
  0
LINE
  5
357
100
AcDbEntity
  8
0
  6
ByLayer
 62
    0
370
   -1
100
AcDbLine
 10
437.671
 20
3.134526
 11
437.216
 21
3.006366
  0
LINE
  5
358
100
AcDbEntity
  8
0
  6
ByLayer
 62
    0
370
   -1
100
AcDbLine
 10
437.216
 20
3.006366
 11
436.754
 21
2.91404
  0
LINE
  5
359
100
AcDbEntity
  8
0
  6
ByLayer
 62
    0
370
   -1
100
AcDbLine
 10
436.754
 20
2.91404
 11
436.288
 21
2.858917
  0
LINE
  5
35A
100
AcDbEntity
  8
0
  6
ByLayer
 62
    0
370
   -1
100
AcDbLine
 10
436.288
 20
2.858917
 11
435.816
 21
2.839625
  0
LINE
  5
35B
100
AcDbEntity
  8
0
  6
ByLayer
 62
    0
370
   -1
100
AcDbLine
 10
441.816
 20
144.133
 11
441.816
 21
8.839600000000001
  0
LINE
  5
35C
100
AcDbEntity
  8
0
  6
ByLayer
 62
    0
370
   -1
100
AcDbLine
 10
435.816
 20
2.839625
 11
8.620049999999999
 21
2.839625
  0
ENDSEC
  0
SECTION
  2
OBJECTS
  0
DICTIONARY
  5
C
330
0
100
AcDbDictionary
281
    1
  3
ACAD_GROUP
350
D
  0
DICTIONARY
  5
D
330
C
100
AcDbDictionary
281
    1
  0
ENDSEC
  0
EOF
