%TF.GenerationSoftware,KiCad,Pcbnew,5.99.0-unknown-ae51e60f70~131~ubuntu21.10.1*%
%TF.CreationDate,2021-10-26T00:01:23-04:00*%
%TF.ProjectId,aek,61656b2e-6b69-4636-9164-5f7063625858,rev?*%
%TF.SameCoordinates,Original*%
%TF.FileFunction,Legend,Top*%
%TF.FilePolarity,Positive*%
%FSLAX46Y46*%
G04 Gerber Fmt 4.6, Leading zero omitted, Abs format (unit mm)*
G04 Created by KiCad (PCBNEW 5.99.0-unknown-ae51e60f70~131~ubuntu21.10.1) date 2021-10-26 00:01:23*
%MOMM*%
%LPD*%
G01*
G04 APERTURE LIST*
%TA.AperFunction,Profile*%
%ADD10C,0.150000*%
%TD*%
%TA.AperFunction,Profile*%
%ADD11C,0.050000*%
%TD*%
%ADD12C,0.150000*%
%ADD13C,0.120000*%
%ADD14O,1.070000X1.800000*%
%ADD15R,1.500000X1.000000*%
%ADD16R,1.070000X1.800000*%
%ADD17C,9.000000*%
%ADD18C,3.987800*%
%ADD19C,1.750000*%
%ADD20C,3.048000*%
G04 APERTURE END LIST*
D10*
X456882500Y-153432000D02*
G75*
G02*
X453834500Y-156480000I-3048000J0D01*
G01*
X18986500Y-17780000D02*
G75*
G02*
X22034500Y-14732000I3048000J0D01*
G01*
X22034500Y-156480000D02*
G75*
G02*
X18986500Y-153432000I0J3048000D01*
G01*
D11*
X22034500Y-156480000D02*
X453834500Y-156480000D01*
X456882500Y-153432000D02*
X456882500Y-17780000D01*
X18986500Y-17780000D02*
X18986500Y-153432000D01*
X172986500Y-53980000D02*
G75*
G03*
X172986500Y-53980000I-7000000J0D01*
G01*
X148236500Y-55850000D02*
G75*
G03*
X148236500Y-55850000I-9250000J0D01*
G01*
X248692001Y-14731999D02*
X22034500Y-14732000D01*
X262407999Y-14731999D02*
X453834500Y-14732000D01*
X108885512Y-56400000D02*
G75*
G03*
X108885512Y-56400000I-8500000J0D01*
G01*
X262407998Y-14731999D02*
G75*
G02*
X248692001Y-14731999I-6857998J6496633D01*
G01*
X316886500Y-53980000D02*
G75*
G03*
X316886500Y-53980000I-7000000J0D01*
G01*
X383985512Y-56830000D02*
G75*
G03*
X383985512Y-56830000I-8500000J0D01*
G01*
D10*
X453834500Y-14732000D02*
G75*
G02*
X456882500Y-17780000I0J-3048000D01*
G01*
D12*
%TO.C,LED1*%
X383784952Y-24968380D02*
X383308761Y-24968380D01*
X383308761Y-23968380D01*
X384118285Y-24444571D02*
X384451619Y-24444571D01*
X384594476Y-24968380D02*
X384118285Y-24968380D01*
X384118285Y-23968380D01*
X384594476Y-23968380D01*
X385023047Y-24968380D02*
X385023047Y-23968380D01*
X385261142Y-23968380D01*
X385404000Y-24016000D01*
X385499238Y-24111238D01*
X385546857Y-24206476D01*
X385594476Y-24396952D01*
X385594476Y-24539809D01*
X385546857Y-24730285D01*
X385499238Y-24825523D01*
X385404000Y-24920761D01*
X385261142Y-24968380D01*
X385023047Y-24968380D01*
X386546857Y-24968380D02*
X385975428Y-24968380D01*
X386261142Y-24968380D02*
X386261142Y-23968380D01*
X386165904Y-24111238D01*
X386070666Y-24206476D01*
X385975428Y-24254095D01*
X381039714Y-26868380D02*
X380468285Y-26868380D01*
X380754000Y-26868380D02*
X380754000Y-25868380D01*
X380658761Y-26011238D01*
X380563523Y-26106476D01*
X380468285Y-26154095D01*
%TO.C,LED2*%
X403784952Y-24968380D02*
X403308761Y-24968380D01*
X403308761Y-23968380D01*
X404118285Y-24444571D02*
X404451619Y-24444571D01*
X404594476Y-24968380D02*
X404118285Y-24968380D01*
X404118285Y-23968380D01*
X404594476Y-23968380D01*
X405023047Y-24968380D02*
X405023047Y-23968380D01*
X405261142Y-23968380D01*
X405404000Y-24016000D01*
X405499238Y-24111238D01*
X405546857Y-24206476D01*
X405594476Y-24396952D01*
X405594476Y-24539809D01*
X405546857Y-24730285D01*
X405499238Y-24825523D01*
X405404000Y-24920761D01*
X405261142Y-24968380D01*
X405023047Y-24968380D01*
X405975428Y-24063619D02*
X406023047Y-24016000D01*
X406118285Y-23968380D01*
X406356380Y-23968380D01*
X406451619Y-24016000D01*
X406499238Y-24063619D01*
X406546857Y-24158857D01*
X406546857Y-24254095D01*
X406499238Y-24396952D01*
X405927809Y-24968380D01*
X406546857Y-24968380D01*
X401039714Y-26868380D02*
X400468285Y-26868380D01*
X400754000Y-26868380D02*
X400754000Y-25868380D01*
X400658761Y-26011238D01*
X400563523Y-26106476D01*
X400468285Y-26154095D01*
%TO.C,LED3*%
X423784952Y-24968380D02*
X423308761Y-24968380D01*
X423308761Y-23968380D01*
X424118285Y-24444571D02*
X424451619Y-24444571D01*
X424594476Y-24968380D02*
X424118285Y-24968380D01*
X424118285Y-23968380D01*
X424594476Y-23968380D01*
X425023047Y-24968380D02*
X425023047Y-23968380D01*
X425261142Y-23968380D01*
X425404000Y-24016000D01*
X425499238Y-24111238D01*
X425546857Y-24206476D01*
X425594476Y-24396952D01*
X425594476Y-24539809D01*
X425546857Y-24730285D01*
X425499238Y-24825523D01*
X425404000Y-24920761D01*
X425261142Y-24968380D01*
X425023047Y-24968380D01*
X425927809Y-23968380D02*
X426546857Y-23968380D01*
X426213523Y-24349333D01*
X426356380Y-24349333D01*
X426451619Y-24396952D01*
X426499238Y-24444571D01*
X426546857Y-24539809D01*
X426546857Y-24777904D01*
X426499238Y-24873142D01*
X426451619Y-24920761D01*
X426356380Y-24968380D01*
X426070666Y-24968380D01*
X425975428Y-24920761D01*
X425927809Y-24873142D01*
X421039714Y-26868380D02*
X420468285Y-26868380D01*
X420754000Y-26868380D02*
X420754000Y-25868380D01*
X420658761Y-26011238D01*
X420563523Y-26106476D01*
X420468285Y-26154095D01*
%TO.C,H2*%
X451936095Y-49486380D02*
X451936095Y-48486380D01*
X451936095Y-48962571D02*
X452507523Y-48962571D01*
X452507523Y-49486380D02*
X452507523Y-48486380D01*
X452936095Y-48581619D02*
X452983714Y-48534000D01*
X453078952Y-48486380D01*
X453317047Y-48486380D01*
X453412285Y-48534000D01*
X453459904Y-48581619D01*
X453507523Y-48676857D01*
X453507523Y-48772095D01*
X453459904Y-48914952D01*
X452888476Y-49486380D01*
X453507523Y-49486380D01*
%TO.C,H1*%
X23038095Y-49486380D02*
X23038095Y-48486380D01*
X23038095Y-48962571D02*
X23609523Y-48962571D01*
X23609523Y-49486380D02*
X23609523Y-48486380D01*
X24609523Y-49486380D02*
X24038095Y-49486380D01*
X24323809Y-49486380D02*
X24323809Y-48486380D01*
X24228571Y-48629238D01*
X24133333Y-48724476D01*
X24038095Y-48772095D01*
%TO.C,SW1*%
X431736666Y-58062761D02*
X431879523Y-58110380D01*
X432117619Y-58110380D01*
X432212857Y-58062761D01*
X432260476Y-58015142D01*
X432308095Y-57919904D01*
X432308095Y-57824666D01*
X432260476Y-57729428D01*
X432212857Y-57681809D01*
X432117619Y-57634190D01*
X431927142Y-57586571D01*
X431831904Y-57538952D01*
X431784285Y-57491333D01*
X431736666Y-57396095D01*
X431736666Y-57300857D01*
X431784285Y-57205619D01*
X431831904Y-57158000D01*
X431927142Y-57110380D01*
X432165238Y-57110380D01*
X432308095Y-57158000D01*
X432641428Y-57110380D02*
X432879523Y-58110380D01*
X433070000Y-57396095D01*
X433260476Y-58110380D01*
X433498571Y-57110380D01*
X434403333Y-58110380D02*
X433831904Y-58110380D01*
X434117619Y-58110380D02*
X434117619Y-57110380D01*
X434022380Y-57253238D01*
X433927142Y-57348476D01*
X433831904Y-57396095D01*
%TO.C,C1*%
X432969333Y-32713142D02*
X432921714Y-32760761D01*
X432778857Y-32808380D01*
X432683619Y-32808380D01*
X432540761Y-32760761D01*
X432445523Y-32665523D01*
X432397904Y-32570285D01*
X432350285Y-32379809D01*
X432350285Y-32236952D01*
X432397904Y-32046476D01*
X432445523Y-31951238D01*
X432540761Y-31856000D01*
X432683619Y-31808380D01*
X432778857Y-31808380D01*
X432921714Y-31856000D01*
X432969333Y-31903619D01*
X433921714Y-32808380D02*
X433350285Y-32808380D01*
X433636000Y-32808380D02*
X433636000Y-31808380D01*
X433540761Y-31951238D01*
X433445523Y-32046476D01*
X433350285Y-32094095D01*
%TO.C,C5*%
X415745142Y-47664666D02*
X415792761Y-47712285D01*
X415840380Y-47855142D01*
X415840380Y-47950380D01*
X415792761Y-48093238D01*
X415697523Y-48188476D01*
X415602285Y-48236095D01*
X415411809Y-48283714D01*
X415268952Y-48283714D01*
X415078476Y-48236095D01*
X414983238Y-48188476D01*
X414888000Y-48093238D01*
X414840380Y-47950380D01*
X414840380Y-47855142D01*
X414888000Y-47712285D01*
X414935619Y-47664666D01*
X414840380Y-46759904D02*
X414840380Y-47236095D01*
X415316571Y-47283714D01*
X415268952Y-47236095D01*
X415221333Y-47140857D01*
X415221333Y-46902761D01*
X415268952Y-46807523D01*
X415316571Y-46759904D01*
X415411809Y-46712285D01*
X415649904Y-46712285D01*
X415745142Y-46759904D01*
X415792761Y-46807523D01*
X415840380Y-46902761D01*
X415840380Y-47140857D01*
X415792761Y-47236095D01*
X415745142Y-47283714D01*
%TO.C,C6*%
X436713333Y-44455142D02*
X436665714Y-44502761D01*
X436522857Y-44550380D01*
X436427619Y-44550380D01*
X436284761Y-44502761D01*
X436189523Y-44407523D01*
X436141904Y-44312285D01*
X436094285Y-44121809D01*
X436094285Y-43978952D01*
X436141904Y-43788476D01*
X436189523Y-43693238D01*
X436284761Y-43598000D01*
X436427619Y-43550380D01*
X436522857Y-43550380D01*
X436665714Y-43598000D01*
X436713333Y-43645619D01*
X437570476Y-43550380D02*
X437380000Y-43550380D01*
X437284761Y-43598000D01*
X437237142Y-43645619D01*
X437141904Y-43788476D01*
X437094285Y-43978952D01*
X437094285Y-44359904D01*
X437141904Y-44455142D01*
X437189523Y-44502761D01*
X437284761Y-44550380D01*
X437475238Y-44550380D01*
X437570476Y-44502761D01*
X437618095Y-44455142D01*
X437665714Y-44359904D01*
X437665714Y-44121809D01*
X437618095Y-44026571D01*
X437570476Y-43978952D01*
X437475238Y-43931333D01*
X437284761Y-43931333D01*
X437189523Y-43978952D01*
X437141904Y-44026571D01*
X437094285Y-44121809D01*
%TO.C,C7*%
X435514142Y-52101166D02*
X435561761Y-52148785D01*
X435609380Y-52291642D01*
X435609380Y-52386880D01*
X435561761Y-52529738D01*
X435466523Y-52624976D01*
X435371285Y-52672595D01*
X435180809Y-52720214D01*
X435037952Y-52720214D01*
X434847476Y-52672595D01*
X434752238Y-52624976D01*
X434657000Y-52529738D01*
X434609380Y-52386880D01*
X434609380Y-52291642D01*
X434657000Y-52148785D01*
X434704619Y-52101166D01*
X434609380Y-51767833D02*
X434609380Y-51101166D01*
X435609380Y-51529738D01*
%TO.C,J1*%
X448142416Y-21983130D02*
X448142416Y-22697416D01*
X448094797Y-22840273D01*
X447999559Y-22935511D01*
X447856702Y-22983130D01*
X447761464Y-22983130D01*
X449142416Y-22983130D02*
X448570988Y-22983130D01*
X448856702Y-22983130D02*
X448856702Y-21983130D01*
X448761464Y-22125988D01*
X448666226Y-22221226D01*
X448570988Y-22268845D01*
%TO.C,R3*%
X437712380Y-55181166D02*
X437236190Y-55514500D01*
X437712380Y-55752595D02*
X436712380Y-55752595D01*
X436712380Y-55371642D01*
X436760000Y-55276404D01*
X436807619Y-55228785D01*
X436902857Y-55181166D01*
X437045714Y-55181166D01*
X437140952Y-55228785D01*
X437188571Y-55276404D01*
X437236190Y-55371642D01*
X437236190Y-55752595D01*
X436712380Y-54847833D02*
X436712380Y-54228785D01*
X437093333Y-54562119D01*
X437093333Y-54419261D01*
X437140952Y-54324023D01*
X437188571Y-54276404D01*
X437283809Y-54228785D01*
X437521904Y-54228785D01*
X437617142Y-54276404D01*
X437664761Y-54324023D01*
X437712380Y-54419261D01*
X437712380Y-54704976D01*
X437664761Y-54800214D01*
X437617142Y-54847833D01*
%TO.C,R4*%
X417004833Y-34616380D02*
X416671500Y-34140190D01*
X416433404Y-34616380D02*
X416433404Y-33616380D01*
X416814357Y-33616380D01*
X416909595Y-33664000D01*
X416957214Y-33711619D01*
X417004833Y-33806857D01*
X417004833Y-33949714D01*
X416957214Y-34044952D01*
X416909595Y-34092571D01*
X416814357Y-34140190D01*
X416433404Y-34140190D01*
X417861976Y-33949714D02*
X417861976Y-34616380D01*
X417623880Y-33568761D02*
X417385785Y-34283047D01*
X418004833Y-34283047D01*
%TO.C,Y1*%
X425863309Y-54204440D02*
X425863309Y-54680630D01*
X425529976Y-53680630D02*
X425863309Y-54204440D01*
X426196642Y-53680630D01*
X427053785Y-54680630D02*
X426482357Y-54680630D01*
X426768071Y-54680630D02*
X426768071Y-53680630D01*
X426672833Y-53823488D01*
X426577595Y-53918726D01*
X426482357Y-53966345D01*
%TO.C,C3*%
X421587142Y-54456666D02*
X421634761Y-54504285D01*
X421682380Y-54647142D01*
X421682380Y-54742380D01*
X421634761Y-54885238D01*
X421539523Y-54980476D01*
X421444285Y-55028095D01*
X421253809Y-55075714D01*
X421110952Y-55075714D01*
X420920476Y-55028095D01*
X420825238Y-54980476D01*
X420730000Y-54885238D01*
X420682380Y-54742380D01*
X420682380Y-54647142D01*
X420730000Y-54504285D01*
X420777619Y-54456666D01*
X420682380Y-54123333D02*
X420682380Y-53504285D01*
X421063333Y-53837619D01*
X421063333Y-53694761D01*
X421110952Y-53599523D01*
X421158571Y-53551904D01*
X421253809Y-53504285D01*
X421491904Y-53504285D01*
X421587142Y-53551904D01*
X421634761Y-53599523D01*
X421682380Y-53694761D01*
X421682380Y-53980476D01*
X421634761Y-54075714D01*
X421587142Y-54123333D01*
%TO.C,C4*%
X432651642Y-52101166D02*
X432699261Y-52148785D01*
X432746880Y-52291642D01*
X432746880Y-52386880D01*
X432699261Y-52529738D01*
X432604023Y-52624976D01*
X432508785Y-52672595D01*
X432318309Y-52720214D01*
X432175452Y-52720214D01*
X431984976Y-52672595D01*
X431889738Y-52624976D01*
X431794500Y-52529738D01*
X431746880Y-52386880D01*
X431746880Y-52291642D01*
X431794500Y-52148785D01*
X431842119Y-52101166D01*
X432080214Y-51244023D02*
X432746880Y-51244023D01*
X431699261Y-51482119D02*
X432413547Y-51720214D01*
X432413547Y-51101166D01*
D13*
%TO.C,LED1*%
X381254000Y-30766000D02*
X388554000Y-30766000D01*
X388554000Y-30766000D02*
X388554000Y-29616000D01*
X381254000Y-25266000D02*
X388554000Y-25266000D01*
%TO.C,LED2*%
X401254000Y-25266000D02*
X408554000Y-25266000D01*
X408554000Y-30766000D02*
X408554000Y-29616000D01*
X401254000Y-30766000D02*
X408554000Y-30766000D01*
%TO.C,LED3*%
X421254000Y-30766000D02*
X428554000Y-30766000D01*
X428554000Y-30766000D02*
X428554000Y-29616000D01*
X421254000Y-25266000D02*
X428554000Y-25266000D01*
%TD*%
%LPC*%
D14*
%TO.C,LED1*%
X385539000Y-28016000D03*
D15*
X382454000Y-26416000D03*
D14*
X382999000Y-28016000D03*
D15*
X382454000Y-29616000D03*
D16*
X384269000Y-28016000D03*
D15*
X387354000Y-29616000D03*
D14*
X386809000Y-28016000D03*
D15*
X387354000Y-26416000D03*
%TD*%
%TO.C,LED2*%
X407354000Y-26416000D03*
D14*
X406809000Y-28016000D03*
D15*
X407354000Y-29616000D03*
D16*
X404269000Y-28016000D03*
D15*
X402454000Y-29616000D03*
D14*
X402999000Y-28016000D03*
D15*
X402454000Y-26416000D03*
D14*
X405539000Y-28016000D03*
%TD*%
%TO.C,LED3*%
X425539000Y-28016000D03*
D15*
X422454000Y-26416000D03*
D14*
X422999000Y-28016000D03*
D15*
X422454000Y-29616000D03*
D16*
X424269000Y-28016000D03*
D15*
X427354000Y-29616000D03*
D14*
X426809000Y-28016000D03*
D15*
X427354000Y-26416000D03*
%TD*%
D17*
%TO.C,H2*%
X452698000Y-52734000D03*
%TD*%
D18*
%TO.C,SW_0*%
X219837000Y-72707500D03*
D19*
X224917000Y-72707500D03*
X214757000Y-72707500D03*
%TD*%
D18*
%TO.C,SW_1*%
X48387000Y-72707500D03*
D19*
X43307000Y-72707500D03*
X53467000Y-72707500D03*
%TD*%
D18*
%TO.C,SW_2*%
X67437000Y-72707500D03*
D19*
X62357000Y-72707500D03*
X72517000Y-72707500D03*
%TD*%
%TO.C,SW_3*%
X81407000Y-72707500D03*
D18*
X86487000Y-72707500D03*
D19*
X91567000Y-72707500D03*
%TD*%
D18*
%TO.C,SW_6*%
X143637000Y-72707500D03*
D19*
X138557000Y-72707500D03*
X148717000Y-72707500D03*
%TD*%
%TO.C,SW_7*%
X167767000Y-72707500D03*
D18*
X162687000Y-72707500D03*
D19*
X157607000Y-72707500D03*
%TD*%
D18*
%TO.C,SW_8*%
X181737000Y-72707500D03*
D19*
X186817000Y-72707500D03*
X176657000Y-72707500D03*
%TD*%
%TO.C,SW_9*%
X195707000Y-72707500D03*
D18*
X200787000Y-72707500D03*
D19*
X205867000Y-72707500D03*
%TD*%
D18*
%TO.C,SW_A1*%
X62674500Y-110807500D03*
D19*
X67754500Y-110807500D03*
X57594500Y-110807500D03*
%TD*%
%TO.C,SW_APOS1*%
X258254500Y-110807500D03*
D18*
X253174500Y-110807500D03*
D19*
X248094500Y-110807500D03*
%TD*%
%TO.C,SW_B1*%
X153479500Y-129857500D03*
X143319500Y-129857500D03*
D18*
X148399500Y-129857500D03*
%TD*%
D19*
%TO.C,SW_BACKSP1*%
X291592000Y-72707500D03*
D20*
X274574000Y-65722500D03*
D18*
X274574000Y-80962500D03*
X286512000Y-72707500D03*
D19*
X281432000Y-72707500D03*
D20*
X298450000Y-65722500D03*
D18*
X298450000Y-80962500D03*
%TD*%
D19*
%TO.C,SW_BKSLS1*%
X296354500Y-91757500D03*
D18*
X291274500Y-91757500D03*
D19*
X286194500Y-91757500D03*
%TD*%
%TO.C,SW_C1*%
X115379500Y-129857500D03*
X105219500Y-129857500D03*
D18*
X110299500Y-129857500D03*
%TD*%
D19*
%TO.C,SW_CAP1*%
X41560750Y-110807500D03*
D18*
X36480750Y-110807500D03*
D19*
X31400750Y-110807500D03*
%TD*%
D18*
%TO.C,SW_COLON1*%
X234124500Y-110807500D03*
D19*
X229044500Y-110807500D03*
X239204500Y-110807500D03*
%TD*%
D18*
%TO.C,SW_COMMA1*%
X205549500Y-129857500D03*
D19*
X200469500Y-129857500D03*
X210629500Y-129857500D03*
%TD*%
%TO.C,SW_D1*%
X95694500Y-110807500D03*
D18*
X100774500Y-110807500D03*
D19*
X105854500Y-110807500D03*
%TD*%
D18*
%TO.C,SW_DEL1*%
X323659500Y-91757500D03*
D19*
X328739500Y-91757500D03*
X318579500Y-91757500D03*
%TD*%
%TO.C,SW_DOWN1*%
X337629500Y-148907500D03*
X347789500Y-148907500D03*
D18*
X342709500Y-148907500D03*
%TD*%
%TO.C,SW_E1*%
X96012000Y-91757500D03*
D19*
X90932000Y-91757500D03*
X101092000Y-91757500D03*
%TD*%
%TO.C,SW_END1*%
X347789500Y-91757500D03*
D18*
X342709500Y-91757500D03*
D19*
X337629500Y-91757500D03*
%TD*%
D20*
%TO.C,SW_ENTER1*%
X272192750Y-103822500D03*
D19*
X279050750Y-110807500D03*
D18*
X284130750Y-110807500D03*
X296068750Y-119062500D03*
D20*
X296068750Y-103822500D03*
D19*
X289210750Y-110807500D03*
D18*
X272192750Y-119062500D03*
%TD*%
D19*
%TO.C,SW_EQ1*%
X252857000Y-72707500D03*
D18*
X257937000Y-72707500D03*
D19*
X263017000Y-72707500D03*
%TD*%
D18*
%TO.C,SW_ESC1*%
X29337000Y-34607500D03*
D19*
X29337000Y-29527500D03*
X29337000Y-39687500D03*
%TD*%
D18*
%TO.C,SW_F1*%
X67437000Y-34607500D03*
D19*
X67437000Y-39687500D03*
X67437000Y-29527500D03*
%TD*%
%TO.C,SW_F2*%
X86487000Y-29527500D03*
X86487000Y-39687500D03*
D18*
X86487000Y-34607500D03*
%TD*%
D19*
%TO.C,SW_F3*%
X105537000Y-29527500D03*
X105537000Y-39687500D03*
D18*
X105537000Y-34607500D03*
%TD*%
D19*
%TO.C,SW_F4*%
X124587000Y-39687500D03*
D18*
X124587000Y-34607500D03*
D19*
X124587000Y-29527500D03*
%TD*%
%TO.C,SW_F5*%
X153162000Y-39687500D03*
D18*
X153162000Y-34607500D03*
D19*
X153162000Y-29527500D03*
%TD*%
D18*
%TO.C,SW_F6*%
X172212000Y-34607500D03*
D19*
X172212000Y-39687500D03*
X172212000Y-29527500D03*
%TD*%
%TO.C,SW_F7*%
X191262000Y-29527500D03*
X191262000Y-39687500D03*
D18*
X191262000Y-34607500D03*
%TD*%
D19*
%TO.C,SW_F8*%
X210312000Y-39687500D03*
D18*
X210312000Y-34607500D03*
D19*
X210312000Y-29527500D03*
%TD*%
%TO.C,SW_F9*%
X238887000Y-29527500D03*
D18*
X238887000Y-34607500D03*
D19*
X238887000Y-39687500D03*
%TD*%
%TO.C,SW_F10*%
X257937000Y-29527500D03*
D18*
X257937000Y-34607500D03*
D19*
X257937000Y-39687500D03*
%TD*%
%TO.C,SW_F11*%
X276987000Y-39687500D03*
X276987000Y-29527500D03*
D18*
X276987000Y-34607500D03*
%TD*%
%TO.C,SW_F12*%
X296037000Y-34607500D03*
D19*
X296037000Y-39687500D03*
X296037000Y-29527500D03*
%TD*%
%TO.C,SW_F13*%
X114744500Y-110807500D03*
X124904500Y-110807500D03*
D18*
X119824500Y-110807500D03*
%TD*%
D19*
%TO.C,SW_G1*%
X143954500Y-110807500D03*
X133794500Y-110807500D03*
D18*
X138874500Y-110807500D03*
%TD*%
%TO.C,SW_H1*%
X157924500Y-110807500D03*
D19*
X163004500Y-110807500D03*
X152844500Y-110807500D03*
%TD*%
%TO.C,SW_HOME1*%
X337629500Y-72707500D03*
D18*
X342709500Y-72707500D03*
D19*
X347789500Y-72707500D03*
%TD*%
D18*
%TO.C,SW_I1*%
X191262000Y-91757500D03*
D19*
X196342000Y-91757500D03*
X186182000Y-91757500D03*
%TD*%
%TO.C,SW_INS1*%
X318579500Y-72707500D03*
D18*
X323659500Y-72707500D03*
D19*
X328739500Y-72707500D03*
%TD*%
%TO.C,SW_J1*%
X171894500Y-110807500D03*
D18*
X176974500Y-110807500D03*
D19*
X182054500Y-110807500D03*
%TD*%
%TO.C,SW_K1*%
X201104500Y-110807500D03*
X190944500Y-110807500D03*
D18*
X196024500Y-110807500D03*
%TD*%
D20*
%TO.C,SW_KP0*%
X410845000Y-155892500D03*
D19*
X393827000Y-148907500D03*
D18*
X386969000Y-140652500D03*
X398907000Y-148907500D03*
D19*
X403987000Y-148907500D03*
D18*
X410845000Y-140652500D03*
D20*
X386969000Y-155892500D03*
%TD*%
D18*
%TO.C,SW_KP1*%
X389382000Y-129857500D03*
D19*
X384302000Y-129857500D03*
X394462000Y-129857500D03*
%TD*%
%TO.C,SW_KP2*%
X413512000Y-129857500D03*
D18*
X408432000Y-129857500D03*
D19*
X403352000Y-129857500D03*
%TD*%
%TO.C,SW_KP3*%
X432562000Y-129857500D03*
X422402000Y-129857500D03*
D18*
X427482000Y-129857500D03*
%TD*%
D19*
%TO.C,SW_KP4*%
X384302000Y-110807500D03*
D18*
X389382000Y-110807500D03*
D19*
X394462000Y-110807500D03*
%TD*%
%TO.C,SW_KP5*%
X413512000Y-110807500D03*
D18*
X408432000Y-110807500D03*
D19*
X403352000Y-110807500D03*
%TD*%
%TO.C,SW_KP6*%
X432562000Y-110807500D03*
X422402000Y-110807500D03*
D18*
X427482000Y-110807500D03*
%TD*%
D19*
%TO.C,SW_KP7*%
X384302000Y-91757500D03*
D18*
X389382000Y-91757500D03*
D19*
X394462000Y-91757500D03*
%TD*%
D18*
%TO.C,SW_KP8*%
X408432000Y-91757500D03*
D19*
X413512000Y-91757500D03*
X403352000Y-91757500D03*
%TD*%
%TO.C,SW_KP9*%
X422402000Y-91757500D03*
D18*
X427482000Y-91757500D03*
D19*
X432562000Y-91757500D03*
%TD*%
D18*
%TO.C,SW_KPASTR1*%
X446532000Y-72707500D03*
D19*
X441452000Y-72707500D03*
X451612000Y-72707500D03*
%TD*%
D18*
%TO.C,SW_KPENTER1*%
X446532000Y-139382500D03*
D19*
X446532000Y-134302500D03*
D18*
X438277000Y-151320500D03*
D19*
X446532000Y-144462500D03*
D18*
X438277000Y-127444500D03*
D20*
X453517000Y-127444500D03*
X453517000Y-151320500D03*
%TD*%
D19*
%TO.C,SW_KPEQ1*%
X413512000Y-72707500D03*
D18*
X408432000Y-72707500D03*
D19*
X403352000Y-72707500D03*
%TD*%
%TO.C,SW_KPMINUS1*%
X441452000Y-91757500D03*
D18*
X446532000Y-91757500D03*
D19*
X451612000Y-91757500D03*
%TD*%
%TO.C,SW_KPPER1*%
X422402000Y-148907500D03*
D18*
X427482000Y-148907500D03*
D19*
X432562000Y-148907500D03*
%TD*%
D18*
%TO.C,SW_KPPLUS1*%
X446532000Y-110807500D03*
D19*
X441452000Y-110807500D03*
X451612000Y-110807500D03*
%TD*%
%TO.C,SW_L1*%
X220154500Y-110807500D03*
X209994500Y-110807500D03*
D18*
X215074500Y-110807500D03*
%TD*%
D19*
%TO.C,SW_LALT1*%
X81407000Y-148907500D03*
D18*
X86487000Y-148907500D03*
D19*
X91567000Y-148907500D03*
%TD*%
%TO.C,SW_LBRAC1*%
X253492000Y-91757500D03*
X243332000Y-91757500D03*
D18*
X248412000Y-91757500D03*
%TD*%
D19*
%TO.C,SW_LCTR1*%
X29019500Y-148907500D03*
X39179500Y-148907500D03*
D18*
X34099500Y-148907500D03*
%TD*%
%TO.C,SW_LEFT1*%
X323659500Y-148907500D03*
D19*
X328739500Y-148907500D03*
X318579500Y-148907500D03*
%TD*%
D18*
%TO.C,SW_LMOD1*%
X60293250Y-148907500D03*
D19*
X65373250Y-148907500D03*
X55213250Y-148907500D03*
%TD*%
D20*
%TO.C,SW_LSH1*%
X29305250Y-122872500D03*
X53181250Y-122872500D03*
D19*
X36163250Y-129857500D03*
D18*
X41243250Y-129857500D03*
D19*
X46323250Y-129857500D03*
D18*
X53181250Y-138112500D03*
X29305250Y-138112500D03*
%TD*%
D19*
%TO.C,SW_M1*%
X191579500Y-129857500D03*
D18*
X186499500Y-129857500D03*
D19*
X181419500Y-129857500D03*
%TD*%
D18*
%TO.C,SW_MINUS1*%
X238887000Y-72707500D03*
D19*
X233807000Y-72707500D03*
X243967000Y-72707500D03*
%TD*%
%TO.C,SW_N1*%
X162369500Y-129857500D03*
X172529500Y-129857500D03*
D18*
X167449500Y-129857500D03*
%TD*%
D19*
%TO.C,SW_O1*%
X205232000Y-91757500D03*
X215392000Y-91757500D03*
D18*
X210312000Y-91757500D03*
%TD*%
D19*
%TO.C,SW_P1*%
X234442000Y-91757500D03*
X224282000Y-91757500D03*
D18*
X229362000Y-91757500D03*
%TD*%
%TO.C,SW_PAUSE1*%
X361759500Y-34607500D03*
D19*
X361759500Y-29527500D03*
X361759500Y-39687500D03*
%TD*%
%TO.C,SW_PERIOD1*%
X229679500Y-129857500D03*
X219519500Y-129857500D03*
D18*
X224599500Y-129857500D03*
%TD*%
%TO.C,SW_PGDN1*%
X361759500Y-91757500D03*
D19*
X356679500Y-91757500D03*
X366839500Y-91757500D03*
%TD*%
D18*
%TO.C,SW_PGUP1*%
X361759500Y-72707500D03*
D19*
X356679500Y-72707500D03*
X366839500Y-72707500D03*
%TD*%
%TO.C,SW_POW1*%
X446532000Y-39687500D03*
X446532000Y-29527500D03*
D18*
X446532000Y-34607500D03*
%TD*%
%TO.C,SW_PRSC1*%
X323659500Y-34607500D03*
D19*
X323659500Y-39687500D03*
X323659500Y-29527500D03*
%TD*%
%TO.C,SW_Q1*%
X62992000Y-91757500D03*
X52832000Y-91757500D03*
D18*
X57912000Y-91757500D03*
%TD*%
D19*
%TO.C,SW_R1*%
X120142000Y-91757500D03*
D18*
X115062000Y-91757500D03*
D19*
X109982000Y-91757500D03*
%TD*%
%TO.C,SW_RALT1*%
X243967000Y-148907500D03*
X233807000Y-148907500D03*
D18*
X238887000Y-148907500D03*
%TD*%
D19*
%TO.C,SW_RBRAC1*%
X262382000Y-91757500D03*
X272542000Y-91757500D03*
D18*
X267462000Y-91757500D03*
%TD*%
D19*
%TO.C,SW_RCTR1*%
X296354500Y-148907500D03*
D18*
X291274500Y-148907500D03*
D19*
X286194500Y-148907500D03*
%TD*%
%TO.C,SW_RIGHT1*%
X356679500Y-148907500D03*
D18*
X361759500Y-148907500D03*
D19*
X366839500Y-148907500D03*
%TD*%
D18*
%TO.C,SW_RMOD1*%
X265080750Y-148907500D03*
D19*
X270160750Y-148907500D03*
X260000750Y-148907500D03*
%TD*%
D18*
%TO.C,SW_RSH1*%
X279368250Y-129857500D03*
D20*
X291306250Y-122872500D03*
D18*
X291306250Y-138112500D03*
D20*
X267430250Y-122872500D03*
D18*
X267430250Y-138112500D03*
D19*
X274288250Y-129857500D03*
X284448250Y-129857500D03*
%TD*%
%TO.C,SW_S1*%
X76644500Y-110807500D03*
D18*
X81724500Y-110807500D03*
D19*
X86804500Y-110807500D03*
%TD*%
%TO.C,SW_SCLK1*%
X342709500Y-29527500D03*
D18*
X342709500Y-34607500D03*
D19*
X342709500Y-39687500D03*
%TD*%
%TO.C,SW_SLASH1*%
X238569500Y-129857500D03*
X248729500Y-129857500D03*
D18*
X243649500Y-129857500D03*
%TD*%
D20*
%TO.C,SW_SPACE1*%
X212686900Y-155892500D03*
D18*
X212686900Y-140652500D03*
D19*
X167767000Y-148907500D03*
D18*
X162687000Y-148907500D03*
D20*
X112687100Y-155892500D03*
D19*
X157607000Y-148907500D03*
D18*
X112687100Y-140652500D03*
%TD*%
%TO.C,SW_T1*%
X134112000Y-91757500D03*
D19*
X129032000Y-91757500D03*
X139192000Y-91757500D03*
%TD*%
%TO.C,SW_TAB1*%
X39179500Y-91757500D03*
X29019500Y-91757500D03*
D18*
X34099500Y-91757500D03*
%TD*%
%TO.C,SW_TICK1*%
X29337000Y-72707500D03*
D19*
X34417000Y-72707500D03*
X24257000Y-72707500D03*
%TD*%
%TO.C,SW_U1*%
X177292000Y-91757500D03*
X167132000Y-91757500D03*
D18*
X172212000Y-91757500D03*
%TD*%
%TO.C,SW_UP1*%
X342709500Y-129857500D03*
D19*
X337629500Y-129857500D03*
X347789500Y-129857500D03*
%TD*%
%TO.C,SW_V1*%
X124269500Y-129857500D03*
X134429500Y-129857500D03*
D18*
X129349500Y-129857500D03*
%TD*%
D19*
%TO.C,SW_W1*%
X71882000Y-91757500D03*
D18*
X76962000Y-91757500D03*
D19*
X82042000Y-91757500D03*
%TD*%
%TO.C,SW_X1*%
X86169500Y-129857500D03*
X96329500Y-129857500D03*
D18*
X91249500Y-129857500D03*
%TD*%
%TO.C,SW_Y1*%
X153162000Y-91757500D03*
D19*
X148082000Y-91757500D03*
X158242000Y-91757500D03*
%TD*%
%TO.C,SW_Z1*%
X67119500Y-129857500D03*
X77279500Y-129857500D03*
D18*
X72199500Y-129857500D03*
%TD*%
D17*
%TO.C,H1*%
X23800000Y-52734000D03*
%TD*%
D19*
%TO.C,SW_4*%
X110617000Y-72707500D03*
D18*
X105537000Y-72707500D03*
D19*
X100457000Y-72707500D03*
%TD*%
%TO.C,SW_5*%
X129667000Y-72707500D03*
X119507000Y-72707500D03*
D18*
X124587000Y-72707500D03*
%TD*%
%TO.C,SW_NUMLK1*%
X389382000Y-72707500D03*
D19*
X384302000Y-72707500D03*
X394462000Y-72707500D03*
%TD*%
%TO.C,SW_KP0X1*%
X413512000Y-148907500D03*
X403352000Y-148907500D03*
D18*
X408432000Y-148907500D03*
%TD*%
D19*
%TO.C,SW_KPENTERALT1*%
X451612000Y-148907500D03*
X441452000Y-148907500D03*
D18*
X446532000Y-148907500D03*
%TD*%
%TO.C,SW_KPSLASH1*%
X427482000Y-72707500D03*
D19*
X432562000Y-72707500D03*
X422402000Y-72707500D03*
%TD*%
%TO.C,SW_KP0ALT1*%
X394462000Y-148907500D03*
D18*
X389382000Y-148907500D03*
D19*
X384302000Y-148907500D03*
%TD*%
%TO.C,SW_KPENTERX1*%
X451612000Y-129857500D03*
X441452000Y-129857500D03*
D18*
X446532000Y-129857500D03*
%TD*%
M02*
