M48
; DRILL file {KiCad 5.99.0-unknown-ae51e60f70~131~ubuntu21.10.1} date Tue Oct 26 00:01:36 2021
; FORMAT={-:-/ absolute / inch / decimal}
; #@! TF.CreationDate,2021-10-26T00:01:36-04:00
; #@! TF.GenerationSoftware,Kicad,Pcbnew,5.99.0-unknown-ae51e60f70~131~ubuntu21.10.1
; #@! TF.FileFunction,NonPlated,1,2,NPTH
FMAT,2
INCH
; #@! TA.AperFunction,NonPlated,NPTH,ComponentDrill
T1C0.0689
; #@! TA.AperFunction,NonPlated,NPTH,ComponentDrill
T2C0.1200
; #@! TA.AperFunction,NonPlated,NPTH,ComponentDrill
T3C0.1570
%
G90
G05
T1
X0.955Y-2.8625
X1.1425Y-3.6125
X1.1425Y-5.8625
X1.155Y-1.1625
X1.155Y-1.5625
X1.2363Y-4.3625
X1.355Y-2.8625
X1.4238Y-5.1125
X1.5425Y-3.6125
X1.5425Y-5.8625
X1.6362Y-4.3625
X1.705Y-2.8625
X1.8237Y-5.1125
X2.08Y-3.6125
X2.105Y-2.8625
X2.1738Y-5.8625
X2.2675Y-4.3625
X2.455Y-2.8625
X2.48Y-3.6125
X2.5737Y-5.8625
X2.6425Y-5.1125
X2.655Y-1.1625
X2.655Y-1.5625
X2.6675Y-4.3625
X2.83Y-3.6125
X2.855Y-2.8625
X3.0175Y-4.3625
X3.0425Y-5.1125
X3.205Y-2.8625
X3.205Y-5.8625
X3.23Y-3.6125
X3.3925Y-5.1125
X3.405Y-1.1625
X3.405Y-1.5625
X3.4175Y-4.3625
X3.58Y-3.6125
X3.605Y-2.8625
X3.605Y-5.8625
X3.7675Y-4.3625
X3.7925Y-5.1125
X3.955Y-2.8625
X3.98Y-3.6125
X4.1425Y-5.1125
X4.155Y-1.1625
X4.155Y-1.5625
X4.1675Y-4.3625
X4.33Y-3.6125
X4.355Y-2.8625
X4.5175Y-4.3625
X4.5425Y-5.1125
X4.705Y-2.8625
X4.73Y-3.6125
X4.8925Y-5.1125
X4.905Y-1.1625
X4.905Y-1.5625
X4.9175Y-4.3625
X5.08Y-3.6125
X5.105Y-2.8625
X5.2675Y-4.3625
X5.2925Y-5.1125
X5.455Y-2.8625
X5.48Y-3.6125
X5.6425Y-5.1125
X5.6675Y-4.3625
X5.83Y-3.6125
X5.855Y-2.8625
X6.0175Y-4.3625
X6.03Y-1.1625
X6.03Y-1.5625
X6.0425Y-5.1125
X6.205Y-2.8625
X6.205Y-5.8625
X6.23Y-3.6125
X6.3925Y-5.1125
X6.4175Y-4.3625
X6.58Y-3.6125
X6.605Y-2.8625
X6.605Y-5.8625
X6.7675Y-4.3625
X6.78Y-1.1625
X6.78Y-1.5625
X6.7925Y-5.1125
X6.955Y-2.8625
X6.98Y-3.6125
X7.1425Y-5.1125
X7.1675Y-4.3625
X7.33Y-3.6125
X7.355Y-2.8625
X7.5175Y-4.3625
X7.53Y-1.1625
X7.53Y-1.5625
X7.5425Y-5.1125
X7.705Y-2.8625
X7.73Y-3.6125
X7.8925Y-5.1125
X7.9175Y-4.3625
X8.08Y-3.6125
X8.105Y-2.8625
X8.2675Y-4.3625
X8.28Y-1.1625
X8.28Y-1.5625
X8.2925Y-5.1125
X8.455Y-2.8625
X8.48Y-3.6125
X8.6425Y-5.1125
X8.6675Y-4.3625
X8.83Y-3.6125
X8.855Y-2.8625
X9.0175Y-4.3625
X9.0425Y-5.1125
X9.205Y-2.8625
X9.205Y-5.8625
X9.23Y-3.6125
X9.3925Y-5.1125
X9.405Y-1.1625
X9.405Y-1.5625
X9.4175Y-4.3625
X9.58Y-3.6125
X9.605Y-2.8625
X9.605Y-5.8625
X9.7675Y-4.3625
X9.7925Y-5.1125
X9.955Y-2.8625
X9.98Y-3.6125
X10.155Y-1.1625
X10.155Y-1.5625
X10.1675Y-4.3625
X10.2363Y-5.8625
X10.33Y-3.6125
X10.355Y-2.8625
X10.6363Y-5.8625
X10.73Y-3.6125
X10.7988Y-5.1125
X10.905Y-1.1625
X10.905Y-1.5625
X10.9863Y-4.3625
X11.08Y-2.8625
X11.1988Y-5.1125
X11.2675Y-3.6125
X11.2675Y-5.8625
X11.3863Y-4.3625
X11.48Y-2.8625
X11.655Y-1.1625
X11.655Y-1.5625
X11.6675Y-3.6125
X11.6675Y-5.8625
X12.5425Y-2.8625
X12.5425Y-3.6125
X12.5425Y-5.8625
X12.7425Y-1.1625
X12.7425Y-1.5625
X12.9425Y-2.8625
X12.9425Y-3.6125
X12.9425Y-5.8625
X13.2925Y-2.8625
X13.2925Y-3.6125
X13.2925Y-5.1125
X13.2925Y-5.8625
X13.4925Y-1.1625
X13.4925Y-1.5625
X13.6925Y-2.8625
X13.6925Y-3.6125
X13.6925Y-5.1125
X13.6925Y-5.8625
X14.0425Y-2.8625
X14.0425Y-3.6125
X14.0425Y-5.8625
X14.2425Y-1.1625
X14.2425Y-1.5625
X14.4425Y-2.8625
X14.4425Y-3.6125
X14.4425Y-5.8625
X15.13Y-2.8625
X15.13Y-3.6125
X15.13Y-4.3625
X15.13Y-5.1125
X15.13Y-5.8625
X15.505Y-5.8625
X15.53Y-2.8625
X15.53Y-3.6125
X15.53Y-4.3625
X15.53Y-5.1125
X15.53Y-5.8625
X15.88Y-2.8625
X15.88Y-3.6125
X15.88Y-4.3625
X15.88Y-5.1125
X15.88Y-5.8625
X15.905Y-5.8625
X16.28Y-2.8625
X16.28Y-3.6125
X16.28Y-4.3625
X16.28Y-5.1125
X16.28Y-5.8625
X16.63Y-2.8625
X16.63Y-3.6125
X16.63Y-4.3625
X16.63Y-5.1125
X16.63Y-5.8625
X17.03Y-2.8625
X17.03Y-3.6125
X17.03Y-4.3625
X17.03Y-5.1125
X17.03Y-5.8625
X17.38Y-2.8625
X17.38Y-3.6125
X17.38Y-4.3625
X17.38Y-5.1125
X17.38Y-5.8625
X17.58Y-1.1625
X17.58Y-1.5625
X17.58Y-5.2875
X17.58Y-5.6875
X17.78Y-2.8625
X17.78Y-3.6125
X17.78Y-4.3625
X17.78Y-5.1125
X17.78Y-5.8625
T2
X1.1538Y-4.8375
X2.0938Y-4.8375
X4.4365Y-6.1375
X8.3735Y-6.1375
X10.5288Y-4.8375
X10.7163Y-4.0875
X10.81Y-2.5875
X11.4688Y-4.8375
X11.6562Y-4.0875
X11.75Y-2.5875
X15.235Y-6.1375
X16.175Y-6.1375
X17.855Y-5.0175
X17.855Y-5.9575
T3
X1.1538Y-5.4375
X1.155Y-1.3625
X1.155Y-2.8625
X1.3425Y-3.6125
X1.3425Y-5.8625
X1.4363Y-4.3625
X1.6238Y-5.1125
X1.905Y-2.8625
X2.0938Y-5.4375
X2.28Y-3.6125
X2.3737Y-5.8625
X2.4675Y-4.3625
X2.655Y-1.3625
X2.655Y-2.8625
X2.8425Y-5.1125
X3.03Y-3.6125
X3.2175Y-4.3625
X3.405Y-1.3625
X3.405Y-2.8625
X3.405Y-5.8625
X3.5925Y-5.1125
X3.78Y-3.6125
X3.9675Y-4.3625
X4.155Y-1.3625
X4.155Y-2.8625
X4.3425Y-5.1125
X4.4365Y-5.5375
X4.53Y-3.6125
X4.7175Y-4.3625
X4.905Y-1.3625
X4.905Y-2.8625
X5.0925Y-5.1125
X5.28Y-3.6125
X5.4675Y-4.3625
X5.655Y-2.8625
X5.8425Y-5.1125
X6.03Y-1.3625
X6.03Y-3.6125
X6.2175Y-4.3625
X6.405Y-2.8625
X6.405Y-5.8625
X6.5925Y-5.1125
X6.78Y-1.3625
X6.78Y-3.6125
X6.9675Y-4.3625
X7.155Y-2.8625
X7.3425Y-5.1125
X7.53Y-1.3625
X7.53Y-3.6125
X7.7175Y-4.3625
X7.905Y-2.8625
X8.0925Y-5.1125
X8.28Y-1.3625
X8.28Y-3.6125
X8.3735Y-5.5375
X8.4675Y-4.3625
X8.655Y-2.8625
X8.8425Y-5.1125
X9.03Y-3.6125
X9.2175Y-4.3625
X9.405Y-1.3625
X9.405Y-2.8625
X9.405Y-5.8625
X9.5925Y-5.1125
X9.78Y-3.6125
X9.9675Y-4.3625
X10.155Y-1.3625
X10.155Y-2.8625
X10.4362Y-5.8625
X10.5288Y-5.4375
X10.53Y-3.6125
X10.7163Y-4.6875
X10.81Y-3.1875
X10.905Y-1.3625
X10.9987Y-5.1125
X11.1862Y-4.3625
X11.28Y-2.8625
X11.4675Y-3.6125
X11.4675Y-5.8625
X11.4688Y-5.4375
X11.655Y-1.3625
X11.6562Y-4.6875
X11.75Y-3.1875
X12.7425Y-1.3625
X12.7425Y-2.8625
X12.7425Y-3.6125
X12.7425Y-5.8625
X13.4925Y-1.3625
X13.4925Y-2.8625
X13.4925Y-3.6125
X13.4925Y-5.1125
X13.4925Y-5.8625
X14.2425Y-1.3625
X14.2425Y-2.8625
X14.2425Y-3.6125
X14.2425Y-5.8625
X15.235Y-5.5375
X15.33Y-2.8625
X15.33Y-3.6125
X15.33Y-4.3625
X15.33Y-5.1125
X15.33Y-5.8625
X15.705Y-5.8625
X16.08Y-2.8625
X16.08Y-3.6125
X16.08Y-4.3625
X16.08Y-5.1125
X16.08Y-5.8625
X16.175Y-5.5375
X16.83Y-2.8625
X16.83Y-3.6125
X16.83Y-4.3625
X16.83Y-5.1125
X16.83Y-5.8625
X17.255Y-5.0175
X17.255Y-5.9575
X17.58Y-1.3625
X17.58Y-2.8625
X17.58Y-3.6125
X17.58Y-4.3625
X17.58Y-5.1125
X17.58Y-5.4875
X17.58Y-5.8625
T0
M30
