M48
; DRILL file {KiCad 5.99.0-unknown-ae51e60f70~131~ubuntu21.10.1} date Fri Sep 10 10:44:51 2021
; FORMAT={-:-/ absolute / inch / decimal}
; #@! TF.CreationDate,2021-09-10T10:44:51-04:00
; #@! TF.GenerationSoftware,Kicad,Pcbnew,5.99.0-unknown-ae51e60f70~131~ubuntu21.10.1
; #@! TF.FileFunction,Plated,1,2,PTH
FMAT,2
INCH
; #@! TA.AperFunction,Plated,PTH,ViaDrill
T1C0.0157
; #@! TA.AperFunction,Plated,PTH,ComponentDrill
T2C0.0394
; #@! TA.AperFunction,Plated,PTH,ComponentDrill
T3C0.0579
; #@! TA.AperFunction,Plated,PTH,ComponentDrill
T4C0.1063
%
G90
G05
T1
X1.0551Y-1.189
X2.3465Y-4.4173
X2.3504Y-4.4961
X2.5039Y-3.0276
X2.622Y-2.6378
X2.7047Y-5.1732
X2.7087Y-2.5748
X2.7087Y-5.2441
X3.0591Y-3.5039
X3.4255Y-1.0712
X3.4803Y-5.1772
X3.4803Y-5.5591
X3.4843Y-5.2559
X3.4843Y-5.4843
X3.5118Y-3.6753
X3.5157Y-0.9803
X3.5157Y-3.7835
X3.78Y-3.02
X3.8425Y-4.4173
X3.8425Y-4.5984
X3.87Y-2.91
X4.1769Y-4.8974
X4.39Y-4.51
X4.41Y-4.4
X4.626Y-4.4291
X4.6262Y-4.5553
X4.755Y-1.6938
X4.7756Y-4.7992
X4.7913Y-3.0
X4.7913Y-3.0906
X4.8071Y-0.9915
X4.8071Y-1.0591
X4.8307Y-4.8585
X4.91Y-3.74
X4.97Y-3.62
X5.0548Y-3.4373
X5.1614Y-3.7008
X5.1614Y-3.7874
X5.3543Y-4.4252
X5.3583Y-4.5591
X5.6929Y-5.2283
X5.6929Y-5.3185
X5.84Y-4.5
X5.9Y-4.42
X5.9055Y-3.7953
X5.9094Y-3.7215
X6.195Y-2.557
X6.195Y-2.6436
X6.2835Y-2.9252
X6.2874Y-2.9961
X6.2874Y-3.1315
X6.2874Y-3.1929
X6.4724Y-0.9882
X6.4724Y-1.0709
X6.4748Y-1.3173
X6.78Y-3.03
X6.8465Y-4.4173
X6.85Y-2.92
X6.8504Y-4.5433
X7.0276Y-2.9252
X7.0276Y-3.0669
X7.1879Y-2.5737
X7.23Y-3.66
X7.23Y-3.74
X7.2441Y-4.4921
X7.2835Y-4.3701
X7.4173Y-3.6772
X7.4213Y-3.752
X7.4291Y-4.4961
X7.4325Y-4.4275
X7.4331Y-1.685
X7.4685Y-5.2244
X7.4727Y-5.295
X7.5591Y-4.4882
X7.5669Y-4.0748
X7.5787Y-4.4094
X7.71Y-5.46
X7.72Y-5.22
X7.7559Y-3.0591
X7.7717Y-2.9173
X8.1811Y-0.9915
X8.185Y-1.0709
X8.505Y-2.9596
X8.5434Y-3.0668
X8.6929Y-5.248
X8.6929Y-5.3543
X8.88Y-3.7224
X8.88Y-3.8129
X9.0358Y-4.1217
X9.1262Y-4.425
X9.1262Y-4.488
X9.2992Y-2.9646
X9.2992Y-3.0709
X9.3031Y-1.6654
X9.6575Y-3.6915
X9.6575Y-3.7913
X9.6575Y-4.0709
X9.6929Y-4.1379
X10.1215Y-1.0585
X10.3276Y-0.92
X10.3378Y-5.3708
X10.34Y-5.27
X11.1614Y-2.9882
X11.1654Y-2.9252
X11.1732Y-2.4724
X11.1887Y-3.3187
X11.189Y-3.4055
X11.3189Y-3.9646
X11.3189Y-4.0512
X11.3228Y-3.6772
X11.3228Y-3.7441
X11.3976Y-1.0485
X11.4646Y-5.2087
X11.5Y-0.9606
X11.5051Y-5.0697
X11.555Y-1.6694
X11.61Y-5.25
X11.67Y-5.1883
X11.9055Y-2.622
X11.9531Y-2.6697
X12.0Y-3.67
X12.0Y-3.7441
X12.0Y-3.9764
X12.0Y-4.0551
X12.5906Y-3.3189
X12.5917Y-3.005
X13.0512Y-3.6693
X13.0551Y-3.7402
X13.18Y-2.9
X13.18Y-3.0
X13.3425Y-2.9252
X13.3465Y-2.9921
X13.3465Y-3.3228
X13.3661Y-3.8071
X13.3701Y-3.6772
X13.3701Y-5.185
X13.3701Y-5.2756
X13.3701Y-5.5015
X13.3701Y-5.5709
X13.3925Y-1.6626
X13.3925Y-2.5524
X13.3976Y-0.9915
X13.3976Y-1.063
X14.0207Y-5.5817
X14.1299Y-2.9294
X14.1299Y-2.9961
X14.1339Y-3.3228
X14.52Y-2.91
X14.52Y-3.01
X14.53Y-3.62
X14.54Y-3.75
X14.5748Y-3.8937
X14.626Y-5.1102
X14.6262Y-3.8407
X14.6495Y-3.049
X14.6535Y-5.3425
X14.6535Y-5.7244
X14.6614Y-3.8583
X14.68Y-5.92
X14.6889Y-3.0385
X14.689Y-5.1378
X14.689Y-5.3189
X14.691Y-3.4961
X14.6969Y-3.878
X14.7066Y-3.0906
X14.7087Y-3.538
X14.7198Y-5.208
X14.7249Y-5.1218
X14.733Y-3.8935
X14.7372Y-3.5709
X14.7459Y-3.6105
X14.7549Y-3.1224
X14.7636Y-3.6457
X14.7649Y-3.0841
X14.7677Y-3.7992
X14.7874Y-3.6772
X14.79Y-3.75
X14.79Y-4.97
X14.8031Y-3.0748
X14.8071Y-2.6417
X14.8071Y-5.0315
X14.8307Y-3.0433
X14.8381Y-2.6767
X14.874Y-2.7677
X14.878Y-2.7283
X14.9012Y-2.6886
X14.9836Y-1.103
X14.9856Y-2.71
X15.0394Y-2.6969
X15.08Y-5.4594
X15.08Y-5.546
X15.1163Y-0.99
X15.1858Y-5.2842
X15.2008Y-5.1794
X15.2502Y-1.2298
X15.2717Y-4.5118
X15.3118Y-1.1016
X15.3228Y-4.563
X15.7598Y-5.2315
X15.7598Y-5.2913
X15.7828Y-1.166
X15.79Y-1.1
X15.7935Y-0.99
X15.8031Y-4.9961
X15.8801Y-0.99
X15.9291Y-2.9252
X15.9291Y-3.0433
X15.9291Y-3.7913
X15.9295Y-3.6775
X15.9748Y-4.837
X15.9764Y-4.4252
X15.9764Y-4.4921
X15.9764Y-5.6496
X15.9803Y-5.7835
X16.0276Y-2.5669
X16.0315Y-1.9331
X16.0315Y-2.126
X16.0315Y-2.4213
X16.1017Y-1.04
X16.1102Y-1.1024
X16.24Y-1.3191
X16.24Y-1.4214
X16.2435Y-1.04
X16.2895Y-0.99
X16.3694Y-1.04
X16.388Y-0.99
X16.4174Y-1.3376
X16.4488Y-4.1969
X16.4824Y-1.8092
X16.5088Y-1.3199
X16.5157Y-1.3858
X16.5276Y-4.2598
X16.5433Y-1.2913
X16.5453Y-1.1043
X16.5748Y-1.4213
X16.5866Y-0.8015
X16.5866Y-0.8622
X16.6102Y-1.3647
X16.626Y-0.8015
X16.6265Y-0.8617
X16.6308Y-1.07
X16.65Y-2.1748
X16.6535Y-2.2402
X16.66Y-1.37
X16.6693Y-2.3504
X16.6969Y-4.4213
X16.6969Y-5.9528
X16.6971Y-6.02
X16.6973Y-1.3576
X16.7008Y-5.1693
X16.7008Y-5.2362
X16.7126Y-4.5079
X16.7283Y-5.4449
X16.7283Y-5.5236
X16.7341Y-1.3716
X16.7638Y-2.5945
X16.8031Y-2.4882
X16.8858Y-2.0315
X16.89Y-1.05
X16.8956Y-1.9713
X16.9477Y-1.3827
X17.0152Y-1.34
X17.0354Y-1.6969
X17.0827Y-1.4882
X17.126Y-2.0197
X17.1457Y-1.6142
X17.26Y-2.52
X17.26Y-2.5825
X17.2835Y-2.7244
X17.2835Y-5.5866
X17.3346Y-1.5748
X17.42Y-1.66
X17.4215Y-5.7795
X17.43Y-3.696
X17.4449Y-0.7441
X17.4882Y-5.315
X17.4882Y-5.4055
X17.5085Y-5.7756
X17.9134Y-0.8425
T2
X17.059Y-0.83
X17.2559Y-0.83
T3
X0.955Y-1.2625
X0.9778Y-1.2641
X0.9975Y-1.4609
X1.005Y-2.7625
X1.055Y-1.5125
X1.0566Y-2.705
X1.1925Y-3.5125
X1.1925Y-5.7625
X1.2441Y-3.455
X1.2441Y-5.705
X1.2534Y-2.6853
X1.255Y-2.6625
X1.2862Y-4.2625
X1.3378Y-4.205
X1.4409Y-3.4353
X1.4409Y-5.6853
X1.4425Y-3.4125
X1.4425Y-5.6625
X1.4737Y-5.0125
X1.5253Y-4.955
X1.5347Y-4.1853
X1.5362Y-4.1625
X1.7222Y-4.9353
X1.7237Y-4.9125
X1.755Y-2.7625
X1.8066Y-2.705
X2.0034Y-2.6853
X2.005Y-2.6625
X2.13Y-3.5125
X2.1816Y-3.455
X2.2237Y-5.7625
X2.2753Y-5.705
X2.3175Y-4.2625
X2.3691Y-4.205
X2.3784Y-3.4353
X2.38Y-3.4125
X2.455Y-1.2625
X2.4722Y-5.6853
X2.4737Y-5.6625
X2.4778Y-1.2641
X2.4975Y-1.4609
X2.505Y-2.7625
X2.555Y-1.5125
X2.5566Y-2.705
X2.5659Y-4.1853
X2.5675Y-4.1625
X2.6925Y-5.0125
X2.7441Y-4.955
X2.7534Y-2.6853
X2.755Y-2.6625
X2.88Y-3.5125
X2.9316Y-3.455
X2.9409Y-4.9353
X2.9425Y-4.9125
X3.0675Y-4.2625
X3.1191Y-4.205
X3.1284Y-3.4353
X3.13Y-3.4125
X3.205Y-1.2625
X3.2278Y-1.2641
X3.2475Y-1.4609
X3.255Y-2.7625
X3.255Y-5.7625
X3.305Y-1.5125
X3.3066Y-2.705
X3.3066Y-5.705
X3.3159Y-4.1853
X3.3175Y-4.1625
X3.4425Y-5.0125
X3.4941Y-4.955
X3.5034Y-2.6853
X3.5034Y-5.6853
X3.505Y-2.6625
X3.505Y-5.6625
X3.63Y-3.5125
X3.6816Y-3.455
X3.6909Y-4.9353
X3.6925Y-4.9125
X3.8175Y-4.2625
X3.8691Y-4.205
X3.8784Y-3.4353
X3.88Y-3.4125
X3.955Y-1.2625
X3.9778Y-1.2641
X3.9975Y-1.4609
X4.005Y-2.7625
X4.055Y-1.5125
X4.0566Y-2.705
X4.0659Y-4.1853
X4.0675Y-4.1625
X4.1925Y-5.0125
X4.2441Y-4.955
X4.2534Y-2.6853
X4.255Y-2.6625
X4.38Y-3.5125
X4.4316Y-3.455
X4.4409Y-4.9353
X4.4425Y-4.9125
X4.5675Y-4.2625
X4.6191Y-4.205
X4.6284Y-3.4353
X4.63Y-3.4125
X4.705Y-1.2625
X4.7278Y-1.2641
X4.7475Y-1.4609
X4.755Y-2.7625
X4.805Y-1.5125
X4.8066Y-2.705
X4.8159Y-4.1853
X4.8175Y-4.1625
X4.9425Y-5.0125
X4.9941Y-4.955
X5.0034Y-2.6853
X5.005Y-2.6625
X5.13Y-3.5125
X5.1816Y-3.455
X5.1909Y-4.9353
X5.1925Y-4.9125
X5.3175Y-4.2625
X5.3691Y-4.205
X5.3784Y-3.4353
X5.38Y-3.4125
X5.505Y-2.7625
X5.5566Y-2.705
X5.5659Y-4.1853
X5.5675Y-4.1625
X5.6925Y-5.0125
X5.7441Y-4.955
X5.7534Y-2.6853
X5.755Y-2.6625
X5.83Y-1.2625
X5.8528Y-1.2641
X5.8725Y-1.4609
X5.88Y-3.5125
X5.93Y-1.5125
X5.9316Y-3.455
X5.9409Y-4.9353
X5.9425Y-4.9125
X6.0675Y-4.2625
X6.1191Y-4.205
X6.1284Y-3.4353
X6.13Y-3.4125
X6.255Y-2.7625
X6.255Y-5.7625
X6.3066Y-2.705
X6.3066Y-5.705
X6.3159Y-4.1853
X6.3175Y-4.1625
X6.4425Y-5.0125
X6.4941Y-4.955
X6.5034Y-2.6853
X6.5034Y-5.6853
X6.505Y-2.6625
X6.505Y-5.6625
X6.58Y-1.2625
X6.6028Y-1.2641
X6.6225Y-1.4609
X6.63Y-3.5125
X6.68Y-1.5125
X6.6816Y-3.455
X6.6909Y-4.9353
X6.6925Y-4.9125
X6.8175Y-4.2625
X6.8691Y-4.205
X6.8784Y-3.4353
X6.88Y-3.4125
X7.005Y-2.7625
X7.0566Y-2.705
X7.0659Y-4.1853
X7.0675Y-4.1625
X7.1925Y-5.0125
X7.2441Y-4.955
X7.2534Y-2.6853
X7.255Y-2.6625
X7.33Y-1.2625
X7.3528Y-1.2641
X7.3725Y-1.4609
X7.38Y-3.5125
X7.43Y-1.5125
X7.4316Y-3.455
X7.4409Y-4.9353
X7.4425Y-4.9125
X7.5675Y-4.2625
X7.6191Y-4.205
X7.6284Y-3.4353
X7.63Y-3.4125
X7.755Y-2.7625
X7.8066Y-2.705
X7.8159Y-4.1853
X7.8175Y-4.1625
X7.9425Y-5.0125
X7.9941Y-4.955
X8.0034Y-2.6853
X8.005Y-2.6625
X8.08Y-1.2625
X8.1028Y-1.2641
X8.1225Y-1.4609
X8.13Y-3.5125
X8.18Y-1.5125
X8.1816Y-3.455
X8.1909Y-4.9353
X8.1925Y-4.9125
X8.3175Y-4.2625
X8.3691Y-4.205
X8.3784Y-3.4353
X8.38Y-3.4125
X8.505Y-2.7625
X8.5566Y-2.705
X8.5659Y-4.1853
X8.5675Y-4.1625
X8.6925Y-5.0125
X8.7441Y-4.955
X8.7534Y-2.6853
X8.755Y-2.6625
X8.88Y-3.5125
X8.9316Y-3.455
X8.9409Y-4.9353
X8.9425Y-4.9125
X9.0675Y-4.2625
X9.1191Y-4.205
X9.1284Y-3.4353
X9.13Y-3.4125
X9.205Y-1.2625
X9.2278Y-1.2641
X9.2475Y-1.4609
X9.255Y-2.7625
X9.255Y-5.7625
X9.305Y-1.5125
X9.3066Y-2.705
X9.3066Y-5.705
X9.3159Y-4.1853
X9.3175Y-4.1625
X9.4425Y-5.0125
X9.4941Y-4.955
X9.5034Y-2.6853
X9.5034Y-5.6853
X9.505Y-2.6625
X9.505Y-5.6625
X9.63Y-3.5125
X9.6816Y-3.455
X9.6909Y-4.9353
X9.6925Y-4.9125
X9.8175Y-4.2625
X9.8691Y-4.205
X9.8784Y-3.4353
X9.88Y-3.4125
X9.955Y-1.2625
X9.9778Y-1.2641
X9.9975Y-1.4609
X10.005Y-2.7625
X10.055Y-1.5125
X10.0566Y-2.705
X10.0659Y-4.1853
X10.0675Y-4.1625
X10.2534Y-2.6853
X10.255Y-2.6625
X10.2862Y-5.7625
X10.3378Y-5.705
X10.38Y-3.5125
X10.4316Y-3.455
X10.5347Y-5.6853
X10.5362Y-5.6625
X10.6284Y-3.4353
X10.63Y-3.4125
X10.705Y-1.2625
X10.7278Y-1.2641
X10.7475Y-1.4609
X10.805Y-1.5125
X10.8487Y-5.0125
X10.9003Y-4.955
X11.0362Y-4.2625
X11.0878Y-4.205
X11.0972Y-4.9353
X11.0987Y-4.9125
X11.13Y-2.7625
X11.1816Y-2.705
X11.2847Y-4.1853
X11.2862Y-4.1625
X11.3175Y-3.5125
X11.3175Y-5.7625
X11.3691Y-3.455
X11.3691Y-5.705
X11.3784Y-2.6853
X11.38Y-2.6625
X11.455Y-1.2625
X11.4778Y-1.2641
X11.4975Y-1.4609
X11.555Y-1.5125
X11.5659Y-3.4353
X11.5659Y-5.6853
X11.5675Y-3.4125
X11.5675Y-5.6625
X12.5425Y-1.2625
X12.5653Y-1.2641
X12.585Y-1.4609
X12.5925Y-2.7625
X12.5925Y-3.5125
X12.5925Y-5.7625
X12.6425Y-1.5125
X12.6441Y-2.705
X12.6441Y-3.455
X12.6441Y-5.705
X12.8409Y-2.6853
X12.8409Y-3.4353
X12.8409Y-5.6853
X12.8425Y-2.6625
X12.8425Y-3.4125
X12.8425Y-5.6625
X13.2925Y-1.2625
X13.3153Y-1.2641
X13.335Y-1.4609
X13.3425Y-2.7625
X13.3425Y-3.5125
X13.3425Y-5.0125
X13.3425Y-5.7625
X13.3925Y-1.5125
X13.3941Y-2.705
X13.3941Y-3.455
X13.3941Y-4.955
X13.3941Y-5.705
X13.5909Y-2.6853
X13.5909Y-3.4353
X13.5909Y-4.9353
X13.5909Y-5.6853
X13.5925Y-2.6625
X13.5925Y-3.4125
X13.5925Y-4.9125
X13.5925Y-5.6625
X14.0425Y-1.2625
X14.0653Y-1.2641
X14.085Y-1.4609
X14.0925Y-2.7625
X14.0925Y-3.5125
X14.0925Y-5.7625
X14.1425Y-1.5125
X14.1441Y-2.705
X14.1441Y-3.455
X14.1441Y-5.705
X14.3409Y-2.6853
X14.3409Y-3.4353
X14.3409Y-5.6853
X14.3425Y-2.6625
X14.3425Y-3.4125
X14.3425Y-5.6625
X15.18Y-2.7625
X15.18Y-3.5125
X15.18Y-4.2625
X15.18Y-5.0125
X15.18Y-5.7625
X15.2316Y-2.705
X15.2316Y-3.455
X15.2316Y-4.205
X15.2316Y-4.955
X15.2316Y-5.705
X15.4284Y-2.6853
X15.4284Y-3.4353
X15.4284Y-4.1853
X15.4284Y-4.9353
X15.4284Y-5.6853
X15.43Y-2.6625
X15.43Y-3.4125
X15.43Y-4.1625
X15.43Y-4.9125
X15.43Y-5.6625
X15.555Y-5.7625
X15.6066Y-5.705
X15.8034Y-5.6853
X15.805Y-5.6625
X15.93Y-2.7625
X15.93Y-3.5125
X15.93Y-4.2625
X15.93Y-5.0125
X15.98Y-6.0625
X15.9816Y-2.705
X15.9816Y-3.455
X15.9816Y-4.205
X15.9816Y-4.955
X15.9816Y-6.0397
X16.1784Y-2.6853
X16.1784Y-3.4353
X16.1784Y-4.1853
X16.1784Y-4.9353
X16.1784Y-6.02
X16.18Y-2.6625
X16.18Y-3.4125
X16.18Y-4.1625
X16.18Y-4.9125
X16.23Y-5.9625
X16.68Y-2.7625
X16.68Y-3.5125
X16.68Y-4.2625
X16.68Y-5.0125
X16.68Y-5.7625
X16.7316Y-2.705
X16.7316Y-3.455
X16.7316Y-4.205
X16.7316Y-4.955
X16.7316Y-5.705
X16.9284Y-2.6853
X16.9284Y-3.4353
X16.9284Y-4.1853
X16.9284Y-4.9353
X16.9284Y-5.6853
X16.93Y-2.6625
X16.93Y-3.4125
X16.93Y-4.1625
X16.93Y-4.9125
X16.93Y-5.6625
X17.38Y-1.2625
X17.38Y-5.3875
X17.4028Y-1.2641
X17.4028Y-5.3891
X17.4225Y-1.4609
X17.4225Y-5.5859
X17.43Y-2.7625
X17.43Y-3.5125
X17.43Y-4.2625
X17.43Y-5.0125
X17.48Y-1.5125
X17.48Y-5.6375
X17.48Y-6.0625
X17.4816Y-2.705
X17.4816Y-3.455
X17.4816Y-4.205
X17.4816Y-4.955
X17.4816Y-6.0397
X17.6784Y-2.6853
X17.6784Y-3.4353
X17.6784Y-4.1853
X17.6784Y-4.9353
X17.6784Y-6.02
X17.68Y-2.6625
X17.68Y-3.4125
X17.68Y-4.1625
X17.68Y-4.9125
X17.73Y-5.9625
T4
X0.9764Y-2.1549
X17.7834Y-2.1549
T0
M30
