M48
; DRILL file {KiCad 5.99.0-unknown-ae51e60f70~131~ubuntu21.10.1} date Thu Sep  2 01:25:02 2021
; FORMAT={-:-/ absolute / metric / decimal}
; #@! TF.CreationDate,2021-09-02T01:25:02-04:00
; #@! TF.GenerationSoftware,Kicad,Pcbnew,5.99.0-unknown-ae51e60f70~131~ubuntu21.10.1
; #@! TF.FileFunction,NonPlated,1,2,NPTH
FMAT,2
METRIC
; #@! TA.AperFunction,NonPlated,NPTH,ComponentDrill
T1C1.750
; #@! TA.AperFunction,NonPlated,NPTH,ComponentDrill
T2C3.048
; #@! TA.AperFunction,NonPlated,NPTH,ComponentDrill
T3C3.988
%
G90
G05
T1
X24.257Y-72.707
X29.019Y-91.757
X29.019Y-148.907
X29.337Y-29.527
X29.337Y-39.688
X31.401Y-110.807
X34.417Y-72.707
X36.163Y-129.857
X39.179Y-91.757
X39.179Y-148.907
X41.561Y-110.807
X43.307Y-72.707
X46.323Y-129.857
X52.832Y-91.757
X53.467Y-72.707
X55.213Y-148.907
X57.594Y-110.807
X62.357Y-72.707
X62.992Y-91.757
X65.373Y-148.907
X67.12Y-129.857
X67.437Y-29.527
X67.437Y-39.688
X67.754Y-110.807
X71.882Y-91.757
X72.517Y-72.707
X76.644Y-110.807
X77.279Y-129.857
X81.407Y-72.707
X81.407Y-148.907
X82.042Y-91.757
X86.169Y-129.857
X86.487Y-29.527
X86.487Y-39.688
X86.804Y-110.807
X90.932Y-91.757
X91.567Y-72.707
X91.567Y-148.907
X95.694Y-110.807
X96.329Y-129.857
X100.457Y-72.707
X101.092Y-91.757
X105.219Y-129.857
X105.537Y-29.527
X105.537Y-39.688
X105.855Y-110.807
X109.982Y-91.757
X110.617Y-72.707
X114.744Y-110.807
X115.379Y-129.857
X119.507Y-72.707
X120.142Y-91.757
X124.269Y-129.857
X124.587Y-29.527
X124.587Y-39.688
X124.904Y-110.807
X129.032Y-91.757
X129.667Y-72.707
X133.794Y-110.807
X134.429Y-129.857
X138.557Y-72.707
X139.192Y-91.757
X143.32Y-129.857
X143.954Y-110.807
X148.082Y-91.757
X148.717Y-72.707
X152.844Y-110.807
X153.162Y-29.527
X153.162Y-39.688
X153.48Y-129.857
X157.607Y-72.707
X157.607Y-148.907
X158.242Y-91.757
X162.369Y-129.857
X163.004Y-110.807
X167.132Y-91.757
X167.767Y-72.707
X167.767Y-148.907
X171.894Y-110.807
X172.212Y-29.527
X172.212Y-39.688
X172.529Y-129.857
X176.657Y-72.707
X177.292Y-91.757
X181.419Y-129.857
X182.054Y-110.807
X186.182Y-91.757
X186.817Y-72.707
X190.945Y-110.807
X191.262Y-29.527
X191.262Y-39.688
X191.579Y-129.857
X195.707Y-72.707
X196.342Y-91.757
X200.469Y-129.857
X201.105Y-110.807
X205.232Y-91.757
X205.867Y-72.707
X209.994Y-110.807
X210.312Y-29.527
X210.312Y-39.688
X210.629Y-129.857
X214.757Y-72.707
X215.392Y-91.757
X219.519Y-129.857
X220.154Y-110.807
X224.282Y-91.757
X224.917Y-72.707
X229.044Y-110.807
X229.679Y-129.857
X233.807Y-72.707
X233.807Y-148.907
X234.442Y-91.757
X238.569Y-129.857
X238.887Y-29.527
X238.887Y-39.688
X239.204Y-110.807
X243.332Y-91.757
X243.967Y-72.707
X243.967Y-148.907
X248.094Y-110.807
X248.73Y-129.857
X252.857Y-72.707
X253.492Y-91.757
X257.937Y-29.527
X257.937Y-39.688
X258.255Y-110.807
X260.001Y-148.907
X262.382Y-91.757
X263.017Y-72.707
X270.161Y-148.907
X272.542Y-91.757
X274.288Y-129.857
X276.987Y-29.527
X276.987Y-39.688
X279.051Y-110.807
X281.432Y-72.707
X284.448Y-129.857
X286.195Y-91.757
X286.195Y-148.907
X289.211Y-110.807
X291.592Y-72.707
X296.037Y-29.527
X296.037Y-39.688
X296.354Y-91.757
X296.354Y-148.907
X318.579Y-72.707
X318.579Y-91.757
X318.579Y-148.907
X323.659Y-29.527
X323.659Y-39.688
X328.739Y-72.707
X328.739Y-91.757
X328.739Y-148.907
X337.63Y-72.707
X337.63Y-91.757
X337.63Y-129.857
X337.63Y-148.907
X342.709Y-29.527
X342.709Y-39.688
X347.789Y-72.707
X347.789Y-91.757
X347.789Y-129.857
X347.789Y-148.907
X356.679Y-72.707
X356.679Y-91.757
X356.679Y-148.907
X361.76Y-29.527
X361.76Y-39.688
X366.839Y-72.707
X366.839Y-91.757
X366.839Y-148.907
X384.302Y-72.707
X384.302Y-91.757
X384.302Y-110.807
X384.302Y-129.857
X384.302Y-148.907
X393.827Y-148.907
X394.462Y-72.707
X394.462Y-91.757
X394.462Y-110.807
X394.462Y-129.857
X394.462Y-148.907
X403.352Y-72.707
X403.352Y-91.757
X403.352Y-110.807
X403.352Y-129.857
X403.352Y-148.907
X403.987Y-148.907
X413.512Y-72.707
X413.512Y-91.757
X413.512Y-110.807
X413.512Y-129.857
X413.512Y-148.907
X422.402Y-72.707
X422.402Y-91.757
X422.402Y-110.807
X422.402Y-129.857
X422.402Y-148.907
X432.562Y-72.707
X432.562Y-91.757
X432.562Y-110.807
X432.562Y-129.857
X432.562Y-148.907
X441.452Y-72.707
X441.452Y-91.757
X441.452Y-110.807
X441.452Y-129.857
X441.452Y-148.907
X446.532Y-29.527
X446.532Y-39.688
X446.532Y-134.302
X446.532Y-144.463
X451.612Y-72.707
X451.612Y-91.757
X451.612Y-110.807
X451.612Y-129.857
X451.612Y-148.907
T2
X29.305Y-122.872
X53.181Y-122.872
X112.687Y-155.892
X212.687Y-155.892
X267.43Y-122.872
X272.193Y-103.822
X274.574Y-65.722
X291.306Y-122.872
X296.069Y-103.822
X298.45Y-65.722
X386.969Y-155.892
X410.845Y-155.892
X453.517Y-127.444
X453.517Y-151.32
T3
X29.305Y-138.112
X29.337Y-34.608
X29.337Y-72.707
X34.099Y-91.757
X34.099Y-148.907
X36.481Y-110.807
X41.243Y-129.857
X48.387Y-72.707
X53.181Y-138.112
X57.912Y-91.757
X60.293Y-148.907
X62.674Y-110.807
X67.437Y-34.608
X67.437Y-72.707
X72.2Y-129.857
X76.962Y-91.757
X81.724Y-110.807
X86.487Y-34.608
X86.487Y-72.707
X86.487Y-148.907
X91.249Y-129.857
X96.012Y-91.757
X100.774Y-110.807
X105.537Y-34.608
X105.537Y-72.707
X110.299Y-129.857
X112.687Y-140.653
X115.062Y-91.757
X119.825Y-110.807
X124.587Y-34.608
X124.587Y-72.707
X129.35Y-129.857
X134.112Y-91.757
X138.874Y-110.807
X143.637Y-72.707
X148.399Y-129.857
X153.162Y-34.608
X153.162Y-91.757
X157.924Y-110.807
X162.687Y-72.707
X162.687Y-148.907
X167.45Y-129.857
X172.212Y-34.608
X172.212Y-91.757
X176.975Y-110.807
X181.737Y-72.707
X186.499Y-129.857
X191.262Y-34.608
X191.262Y-91.757
X196.024Y-110.807
X200.787Y-72.707
X205.549Y-129.857
X210.312Y-34.608
X210.312Y-91.757
X212.687Y-140.653
X215.075Y-110.807
X219.837Y-72.707
X224.599Y-129.857
X229.362Y-91.757
X234.124Y-110.807
X238.887Y-34.608
X238.887Y-72.707
X238.887Y-148.907
X243.649Y-129.857
X248.412Y-91.757
X253.174Y-110.807
X257.937Y-34.608
X257.937Y-72.707
X265.081Y-148.907
X267.43Y-138.112
X267.462Y-91.757
X272.193Y-119.062
X274.574Y-80.962
X276.987Y-34.608
X279.368Y-129.857
X284.131Y-110.807
X286.512Y-72.707
X291.274Y-91.757
X291.274Y-148.907
X291.306Y-138.112
X296.037Y-34.608
X296.069Y-119.062
X298.45Y-80.962
X323.659Y-34.608
X323.659Y-72.707
X323.659Y-91.757
X323.659Y-148.907
X342.709Y-34.608
X342.709Y-72.707
X342.709Y-91.757
X342.709Y-129.857
X342.709Y-148.907
X361.76Y-34.608
X361.76Y-72.707
X361.76Y-91.757
X361.76Y-148.907
X386.969Y-140.653
X389.382Y-72.707
X389.382Y-91.757
X389.382Y-110.807
X389.382Y-129.857
X389.382Y-148.907
X398.907Y-148.907
X408.432Y-72.707
X408.432Y-91.757
X408.432Y-110.807
X408.432Y-129.857
X408.432Y-148.907
X410.845Y-140.653
X427.482Y-72.707
X427.482Y-91.757
X427.482Y-110.807
X427.482Y-129.857
X427.482Y-148.907
X438.277Y-127.444
X438.277Y-151.32
X446.532Y-34.608
X446.532Y-72.707
X446.532Y-91.757
X446.532Y-110.807
X446.532Y-129.857
X446.532Y-139.382
X446.532Y-148.907
T0
M30
