M48
; DRILL file {KiCad 5.99.0-unknown-ae51e60f70~131~ubuntu21.10.1} date Tue Oct 26 00:01:36 2021
; FORMAT={-:-/ absolute / inch / decimal}
; #@! TF.CreationDate,2021-10-26T00:01:36-04:00
; #@! TF.GenerationSoftware,Kicad,Pcbnew,5.99.0-unknown-ae51e60f70~131~ubuntu21.10.1
; #@! TF.FileFunction,Plated,1,2,PTH
FMAT,2
INCH
; #@! TA.AperFunction,Plated,PTH,ViaDrill
T1C0.0157
; #@! TA.AperFunction,Plated,PTH,ComponentDrill
T2C0.0354
; #@! TA.AperFunction,Plated,PTH,ComponentDrill
T3C0.0579
; #@! TA.AperFunction,Plated,PTH,ComponentDrill
T4C0.1969
%
G90
G05
T1
X1.0551Y-1.189
X1.76Y-5.37
X1.81Y-5.58
X2.23Y-5.03
X2.3465Y-4.4173
X2.3504Y-4.4961
X2.5039Y-3.0276
X2.56Y-4.63
X2.6Y-1.98
X2.622Y-2.6378
X2.7047Y-5.1732
X2.7087Y-2.5748
X2.7087Y-5.2441
X2.75Y-3.1
X2.8Y-1.56
X2.89Y-1.4
X2.89Y-2.1
X3.0591Y-3.5039
X3.15Y-3.56
X3.41Y-4.26
X3.4255Y-1.0712
X3.46Y-3.14
X3.4803Y-5.1772
X3.4803Y-5.5591
X3.4843Y-5.2559
X3.4843Y-5.4843
X3.5118Y-3.6753
X3.5157Y-0.9803
X3.5157Y-3.7835
X3.55Y-4.08
X3.7Y-5.33
X3.76Y-3.88
X3.76Y-4.7
X3.78Y-3.02
X3.78Y-5.01
X3.8425Y-4.4173
X3.8425Y-4.5984
X3.87Y-2.91
X4.02Y-4.63
X4.15Y-3.16
X4.1769Y-4.8974
X4.27Y-1.09
X4.3Y-1.56
X4.35Y-2.76
X4.39Y-4.51
X4.41Y-4.4
X4.51Y-2.64
X4.51Y-3.86
X4.55Y-0.84
X4.626Y-4.4291
X4.6262Y-4.5553
X4.755Y-1.6938
X4.7756Y-4.7992
X4.79Y-4.61
X4.7913Y-3.0
X4.7913Y-3.0906
X4.8071Y-0.9915
X4.8071Y-1.0591
X4.8307Y-4.8585
X4.85Y-3.41
X4.91Y-3.74
X4.94Y-4.24
X4.97Y-3.62
X5.0548Y-3.4373
X5.11Y-5.38
X5.1614Y-3.7008
X5.1614Y-3.7874
X5.3543Y-4.4252
X5.3583Y-4.5591
X5.36Y-3.87
X5.4Y-0.92
X5.45Y-1.16
X5.48Y-3.49
X5.53Y-2.92
X5.61Y-5.8
X5.64Y-3.11
X5.6929Y-5.2283
X5.6929Y-5.3185
X5.71Y-3.2
X5.76Y-3.35
X5.79Y-2.91
X5.84Y-4.5
X5.88Y-2.74
X5.9Y-4.42
X5.9055Y-3.7953
X5.9094Y-3.7215
X5.94Y-2.02
X6.02Y-2.67
X6.09Y-3.86
X6.195Y-2.557
X6.195Y-2.6436
X6.21Y-1.54
X6.22Y-4.66
X6.25Y-1.41
X6.2835Y-2.9252
X6.2874Y-2.9961
X6.2874Y-3.1315
X6.2874Y-3.1929
X6.38Y-3.39
X6.4724Y-0.9882
X6.4724Y-1.0709
X6.4748Y-1.3173
X6.51Y-3.24
X6.53Y-2.8
X6.54Y-3.1
X6.68Y-3.9
X6.71Y-1.23
X6.78Y-3.03
X6.8Y-2.69
X6.8465Y-4.4173
X6.85Y-2.92
X6.8504Y-4.5433
X7.0Y-1.34
X7.0Y-4.63
X7.0276Y-2.9252
X7.0276Y-3.0669
X7.1879Y-2.5737
X7.22Y-2.0
X7.23Y-3.12
X7.23Y-3.66
X7.23Y-3.74
X7.2441Y-4.4921
X7.2835Y-4.3701
X7.3Y-3.95
X7.36Y-2.74
X7.4173Y-3.6772
X7.4213Y-3.752
X7.4291Y-4.4961
X7.43Y-0.93
X7.4325Y-4.4275
X7.4331Y-1.685
X7.45Y-5.71
X7.4685Y-5.2244
X7.4727Y-5.295
X7.48Y-4.56
X7.5591Y-4.4882
X7.56Y-4.88
X7.5669Y-4.0748
X7.5787Y-4.4094
X7.58Y-3.86
X7.6Y-2.69
X7.71Y-1.15
X7.71Y-5.46
X7.72Y-1.57
X7.72Y-4.15
X7.72Y-5.22
X7.7559Y-3.0591
X7.7717Y-2.9173
X7.87Y-4.63
X7.91Y-5.65
X7.93Y-4.24
X7.95Y-5.19
X7.99Y-4.35
X8.0Y-3.14
X8.11Y-2.74
X8.14Y-4.17
X8.1811Y-0.9915
X8.185Y-1.0709
X8.33Y-3.84
X8.44Y-5.86
X8.47Y-4.85
X8.505Y-2.9596
X8.5434Y-3.0668
X8.58Y-2.0
X8.69Y-4.26
X8.6929Y-5.248
X8.6929Y-5.3543
X8.75Y-3.11
X8.84Y-4.6
X8.85Y-1.16
X8.87Y-2.75
X8.88Y-3.7224
X8.88Y-3.8129
X8.91Y-0.95
X8.94Y-5.78
X8.97Y-4.42
X9.0358Y-4.1217
X9.1262Y-4.425
X9.1262Y-4.488
X9.17Y-3.87
X9.23Y-4.21
X9.28Y-3.51
X9.2992Y-2.9646
X9.2992Y-3.0709
X9.3031Y-1.6654
X9.31Y-4.63
X9.36Y-4.3
X9.52Y-3.92
X9.53Y-4.15
X9.6Y-1.56
X9.6575Y-3.6915
X9.6575Y-3.7913
X9.6575Y-4.0709
X9.6929Y-4.1379
X9.83Y-5.0
X9.89Y-5.16
X10.09Y-5.18
X10.1215Y-1.0585
X10.3276Y-0.92
X10.3378Y-5.3708
X10.34Y-5.27
X10.37Y-1.92
X10.39Y-5.03
X10.61Y-5.2
X10.63Y-4.27
X10.81Y-3.04
X10.9Y-2.84
X10.91Y-2.69
X11.02Y-3.83
X11.04Y-1.13
X11.05Y-5.63
X11.06Y-3.52
X11.09Y-1.57
X11.1614Y-2.9882
X11.1654Y-2.9252
X11.1732Y-2.4724
X11.1887Y-3.3187
X11.189Y-3.4055
X11.3189Y-3.9646
X11.3189Y-4.0512
X11.3228Y-3.6772
X11.3228Y-3.7441
X11.3976Y-1.0485
X11.4646Y-5.2087
X11.5Y-0.9606
X11.5051Y-5.0697
X11.54Y-3.85
X11.54Y-4.52
X11.555Y-1.6694
X11.59Y-1.1
X11.6Y-5.4
X11.61Y-2.57
X11.61Y-5.25
X11.63Y-4.94
X11.67Y-5.1883
X11.78Y-4.42
X11.83Y-5.66
X11.85Y-4.93
X11.89Y-2.85
X11.9055Y-2.622
X11.9531Y-2.6697
X12.0Y-3.67
X12.0Y-3.7441
X12.0Y-3.9764
X12.0Y-4.0551
X12.18Y-3.11
X12.18Y-3.89
X12.2Y-3.49
X12.32Y-4.27
X12.32Y-5.32
X12.58Y-1.1
X12.5906Y-3.3189
X12.5917Y-3.005
X12.6Y-1.98
X12.77Y-3.17
X12.99Y-4.27
X13.0512Y-3.6693
X13.0551Y-3.7402
X13.09Y-1.56
X13.18Y-2.9
X13.18Y-3.0
X13.27Y-3.08
X13.3425Y-2.9252
X13.3465Y-2.9921
X13.3465Y-3.3228
X13.3661Y-3.8071
X13.3701Y-3.6772
X13.3701Y-5.185
X13.3701Y-5.2756
X13.3701Y-5.5015
X13.3701Y-5.5709
X13.3925Y-1.6626
X13.3925Y-2.5524
X13.3976Y-0.9915
X13.3976Y-1.063
X13.49Y-3.13
X13.53Y-4.25
X13.63Y-2.07
X13.69Y-2.73
X13.75Y-2.9
X13.87Y-2.68
X13.91Y-5.57
X14.0207Y-5.5817
X14.04Y-1.97
X14.1299Y-2.9294
X14.1299Y-2.9961
X14.1339Y-3.3228
X14.17Y-5.32
X14.24Y-3.14
X14.46Y-1.34
X14.47Y-2.75
X14.48Y-5.37
X14.52Y-2.91
X14.52Y-3.01
X14.53Y-3.62
X14.54Y-3.75
X14.5748Y-3.8937
X14.626Y-5.1102
X14.6262Y-3.8407
X14.6495Y-3.049
X14.6535Y-5.3425
X14.6535Y-5.7244
X14.6614Y-3.8583
X14.68Y-5.92
X14.6889Y-3.0385
X14.689Y-5.1378
X14.689Y-5.3189
X14.691Y-3.4961
X14.6969Y-3.878
X14.7066Y-3.0906
X14.7087Y-3.538
X14.7198Y-5.208
X14.7249Y-5.1218
X14.733Y-3.8935
X14.7372Y-3.5709
X14.7459Y-3.6105
X14.7549Y-3.1224
X14.7636Y-3.6457
X14.7649Y-3.0841
X14.7677Y-3.7992
X14.7874Y-3.6772
X14.79Y-3.75
X14.79Y-4.97
X14.8Y-5.47
X14.8031Y-3.0748
X14.8071Y-2.6417
X14.8071Y-5.0315
X14.8307Y-3.0433
X14.8381Y-2.6767
X14.84Y-5.9
X14.874Y-2.7677
X14.878Y-2.7283
X14.88Y-4.23
X14.9012Y-2.6886
X14.93Y-5.09
X14.9856Y-2.71
X15.0394Y-2.6969
X15.04Y-2.9
X15.08Y-5.4594
X15.08Y-5.546
X15.18Y-0.99
X15.1858Y-5.2842
X15.2008Y-5.1794
X15.26Y-4.68
X15.2717Y-4.5118
X15.31Y-3.09
X15.3118Y-1.1016
X15.3228Y-4.563
X15.36Y-5.43
X15.45Y-4.58
X15.53Y-5.0
X15.54Y-2.76
X15.54Y-4.25
X15.54Y-5.32
X15.56Y-0.92
X15.56Y-1.04
X15.56Y-3.51
X15.71Y-4.17
X15.7598Y-5.2315
X15.7598Y-5.2913
X15.78Y-2.28
X15.7828Y-1.166
X15.8031Y-4.9961
X15.84Y-0.99
X15.9291Y-2.9252
X15.9291Y-3.0433
X15.9291Y-3.7913
X15.9295Y-3.6775
X15.97Y-0.99
X15.9748Y-4.837
X15.9764Y-4.4252
X15.9764Y-4.4921
X15.9764Y-5.6496
X15.9803Y-5.7835
X16.0276Y-2.5669
X16.0315Y-1.9331
X16.0315Y-2.126
X16.0315Y-2.4213
X16.08Y-4.58
X16.1017Y-1.04
X16.11Y-3.11
X16.11Y-3.89
X16.11Y-5.33
X16.13Y-1.85
X16.21Y-0.99
X16.21Y-1.04
X16.24Y-1.3191
X16.24Y-1.4214
X16.24Y-2.76
X16.28Y-0.99
X16.28Y-1.04
X16.29Y-2.63
X16.29Y-5.01
X16.3Y-4.25
X16.34Y-1.49
X16.39Y-1.15
X16.39Y-5.9
X16.41Y-5.73
X16.4174Y-1.3376
X16.4488Y-4.1969
X16.48Y-4.71
X16.4824Y-1.8092
X16.49Y-2.55
X16.5Y-1.06
X16.5088Y-1.3199
X16.5157Y-1.3858
X16.5276Y-4.2598
X16.5433Y-1.2913
X16.55Y-4.31
X16.56Y-1.0174
X16.5748Y-1.4213
X16.6Y-3.41
X16.6102Y-1.3647
X16.64Y-0.76
X16.65Y-0.82
X16.65Y-2.1748
X16.6535Y-2.2402
X16.66Y-1.37
X16.6693Y-2.3504
X16.69Y-0.76
X16.69Y-0.82
X16.6969Y-4.4213
X16.6969Y-5.9528
X16.6971Y-6.02
X16.6973Y-1.3576
X16.7008Y-5.1693
X16.7008Y-5.2362
X16.7126Y-4.5079
X16.7283Y-5.4449
X16.7283Y-5.5236
X16.7341Y-1.3716
X16.7638Y-2.5945
X16.8031Y-2.4882
X16.83Y-4.59
X16.83Y-5.37
X16.85Y-3.09
X16.85Y-3.87
X16.8858Y-2.0315
X16.89Y-1.05
X16.8956Y-1.9713
X16.9477Y-1.3827
X17.0152Y-1.34
X17.02Y-2.77
X17.02Y-3.5
X17.0354Y-1.6969
X17.05Y-2.65
X17.06Y-5.75
X17.0827Y-1.4882
X17.126Y-2.0197
X17.1457Y-1.6142
X17.16Y-1.1
X17.23Y-1.04
X17.23Y-3.21
X17.26Y-2.52
X17.26Y-2.5825
X17.2835Y-2.7244
X17.2835Y-5.5866
X17.3Y-1.04
X17.32Y-1.09
X17.3346Y-1.5748
X17.36Y-4.91
X17.42Y-1.66
X17.4215Y-5.7795
X17.43Y-3.696
X17.4882Y-5.315
X17.4882Y-5.4055
X17.4898Y-4.8102
X17.5Y-2.09
X17.5Y-4.72
X17.5085Y-5.7756
X17.5087Y-2.5587
X17.52Y-3.99
X17.59Y-2.55
X17.61Y-3.96
X17.66Y-5.61
X17.9134Y-0.8425
T2
X15.0787Y-1.103
X15.1287Y-1.103
X15.1787Y-1.103
X15.2287Y-1.103
X15.8661Y-1.103
X15.9161Y-1.103
X15.9661Y-1.103
X16.0161Y-1.103
X16.6535Y-1.103
X16.7035Y-1.103
X16.7535Y-1.103
X16.8035Y-1.103
T3
X0.955Y-1.2625
X0.9778Y-1.2641
X0.9975Y-1.4609
X1.005Y-2.7625
X1.055Y-1.5125
X1.0566Y-2.705
X1.1925Y-3.5125
X1.1925Y-5.7625
X1.2441Y-3.455
X1.2441Y-5.705
X1.2534Y-2.6853
X1.255Y-2.6625
X1.2862Y-4.2625
X1.3378Y-4.205
X1.4409Y-3.4353
X1.4409Y-5.6853
X1.4425Y-3.4125
X1.4425Y-5.6625
X1.4737Y-5.0125
X1.5253Y-4.955
X1.5347Y-4.1853
X1.5362Y-4.1625
X1.7222Y-4.9353
X1.7237Y-4.9125
X1.755Y-2.7625
X1.8066Y-2.705
X2.0034Y-2.6853
X2.005Y-2.6625
X2.13Y-3.5125
X2.1816Y-3.455
X2.2237Y-5.7625
X2.2753Y-5.705
X2.3175Y-4.2625
X2.3691Y-4.205
X2.3784Y-3.4353
X2.38Y-3.4125
X2.455Y-1.2625
X2.4722Y-5.6853
X2.4737Y-5.6625
X2.4778Y-1.2641
X2.4975Y-1.4609
X2.505Y-2.7625
X2.555Y-1.5125
X2.5566Y-2.705
X2.5659Y-4.1853
X2.5675Y-4.1625
X2.6925Y-5.0125
X2.7441Y-4.955
X2.7534Y-2.6853
X2.755Y-2.6625
X2.88Y-3.5125
X2.9316Y-3.455
X2.9409Y-4.9353
X2.9425Y-4.9125
X3.0675Y-4.2625
X3.1191Y-4.205
X3.1284Y-3.4353
X3.13Y-3.4125
X3.205Y-1.2625
X3.2278Y-1.2641
X3.2475Y-1.4609
X3.255Y-2.7625
X3.255Y-5.7625
X3.305Y-1.5125
X3.3066Y-2.705
X3.3066Y-5.705
X3.3159Y-4.1853
X3.3175Y-4.1625
X3.4425Y-5.0125
X3.4941Y-4.955
X3.5034Y-2.6853
X3.5034Y-5.6853
X3.505Y-2.6625
X3.505Y-5.6625
X3.63Y-3.5125
X3.6816Y-3.455
X3.6909Y-4.9353
X3.6925Y-4.9125
X3.8175Y-4.2625
X3.8691Y-4.205
X3.8784Y-3.4353
X3.88Y-3.4125
X3.955Y-1.2625
X3.9778Y-1.2641
X3.9975Y-1.4609
X4.005Y-2.7625
X4.055Y-1.5125
X4.0566Y-2.705
X4.0659Y-4.1853
X4.0675Y-4.1625
X4.1925Y-5.0125
X4.2441Y-4.955
X4.2534Y-2.6853
X4.255Y-2.6625
X4.38Y-3.5125
X4.4316Y-3.455
X4.4409Y-4.9353
X4.4425Y-4.9125
X4.5675Y-4.2625
X4.6191Y-4.205
X4.6284Y-3.4353
X4.63Y-3.4125
X4.705Y-1.2625
X4.7278Y-1.2641
X4.7475Y-1.4609
X4.755Y-2.7625
X4.805Y-1.5125
X4.8066Y-2.705
X4.8159Y-4.1853
X4.8175Y-4.1625
X4.9425Y-5.0125
X4.9941Y-4.955
X5.0034Y-2.6853
X5.005Y-2.6625
X5.13Y-3.5125
X5.1816Y-3.455
X5.1909Y-4.9353
X5.1925Y-4.9125
X5.3175Y-4.2625
X5.3691Y-4.205
X5.3784Y-3.4353
X5.38Y-3.4125
X5.505Y-2.7625
X5.5566Y-2.705
X5.5659Y-4.1853
X5.5675Y-4.1625
X5.6925Y-5.0125
X5.7441Y-4.955
X5.7534Y-2.6853
X5.755Y-2.6625
X5.83Y-1.2625
X5.8528Y-1.2641
X5.8725Y-1.4609
X5.88Y-3.5125
X5.93Y-1.5125
X5.9316Y-3.455
X5.9409Y-4.9353
X5.9425Y-4.9125
X6.0675Y-4.2625
X6.1191Y-4.205
X6.1284Y-3.4353
X6.13Y-3.4125
X6.255Y-2.7625
X6.255Y-5.7625
X6.3066Y-2.705
X6.3066Y-5.705
X6.3159Y-4.1853
X6.3175Y-4.1625
X6.4425Y-5.0125
X6.4941Y-4.955
X6.5034Y-2.6853
X6.5034Y-5.6853
X6.505Y-2.6625
X6.505Y-5.6625
X6.58Y-1.2625
X6.6028Y-1.2641
X6.6225Y-1.4609
X6.63Y-3.5125
X6.68Y-1.5125
X6.6816Y-3.455
X6.6909Y-4.9353
X6.6925Y-4.9125
X6.8175Y-4.2625
X6.8691Y-4.205
X6.8784Y-3.4353
X6.88Y-3.4125
X7.005Y-2.7625
X7.0566Y-2.705
X7.0659Y-4.1853
X7.0675Y-4.1625
X7.1925Y-5.0125
X7.2441Y-4.955
X7.2534Y-2.6853
X7.255Y-2.6625
X7.33Y-1.2625
X7.3528Y-1.2641
X7.3725Y-1.4609
X7.38Y-3.5125
X7.43Y-1.5125
X7.4316Y-3.455
X7.4409Y-4.9353
X7.4425Y-4.9125
X7.5675Y-4.2625
X7.6191Y-4.205
X7.6284Y-3.4353
X7.63Y-3.4125
X7.755Y-2.7625
X7.8066Y-2.705
X7.8159Y-4.1853
X7.8175Y-4.1625
X7.9425Y-5.0125
X7.9941Y-4.955
X8.0034Y-2.6853
X8.005Y-2.6625
X8.08Y-1.2625
X8.1028Y-1.2641
X8.1225Y-1.4609
X8.13Y-3.5125
X8.18Y-1.5125
X8.1816Y-3.455
X8.1909Y-4.9353
X8.1925Y-4.9125
X8.3175Y-4.2625
X8.3691Y-4.205
X8.3784Y-3.4353
X8.38Y-3.4125
X8.505Y-2.7625
X8.5566Y-2.705
X8.5659Y-4.1853
X8.5675Y-4.1625
X8.6925Y-5.0125
X8.7441Y-4.955
X8.7534Y-2.6853
X8.755Y-2.6625
X8.88Y-3.5125
X8.9316Y-3.455
X8.9409Y-4.9353
X8.9425Y-4.9125
X9.0675Y-4.2625
X9.1191Y-4.205
X9.1284Y-3.4353
X9.13Y-3.4125
X9.205Y-1.2625
X9.2278Y-1.2641
X9.2475Y-1.4609
X9.255Y-2.7625
X9.255Y-5.7625
X9.305Y-1.5125
X9.3066Y-2.705
X9.3066Y-5.705
X9.3159Y-4.1853
X9.3175Y-4.1625
X9.4425Y-5.0125
X9.4941Y-4.955
X9.5034Y-2.6853
X9.5034Y-5.6853
X9.505Y-2.6625
X9.505Y-5.6625
X9.63Y-3.5125
X9.6816Y-3.455
X9.6909Y-4.9353
X9.6925Y-4.9125
X9.8175Y-4.2625
X9.8691Y-4.205
X9.8784Y-3.4353
X9.88Y-3.4125
X9.955Y-1.2625
X9.9778Y-1.2641
X9.9975Y-1.4609
X10.005Y-2.7625
X10.055Y-1.5125
X10.0566Y-2.705
X10.0659Y-4.1853
X10.0675Y-4.1625
X10.2534Y-2.6853
X10.255Y-2.6625
X10.2862Y-5.7625
X10.3378Y-5.705
X10.38Y-3.5125
X10.4316Y-3.455
X10.5347Y-5.6853
X10.5362Y-5.6625
X10.6284Y-3.4353
X10.63Y-3.4125
X10.705Y-1.2625
X10.7278Y-1.2641
X10.7475Y-1.4609
X10.805Y-1.5125
X10.8487Y-5.0125
X10.9003Y-4.955
X11.0362Y-4.2625
X11.0878Y-4.205
X11.0972Y-4.9353
X11.0987Y-4.9125
X11.13Y-2.7625
X11.1816Y-2.705
X11.2847Y-4.1853
X11.2862Y-4.1625
X11.3175Y-3.5125
X11.3175Y-5.7625
X11.3691Y-3.455
X11.3691Y-5.705
X11.3784Y-2.6853
X11.38Y-2.6625
X11.455Y-1.2625
X11.4778Y-1.2641
X11.4975Y-1.4609
X11.555Y-1.5125
X11.5659Y-3.4353
X11.5659Y-5.6853
X11.5675Y-3.4125
X11.5675Y-5.6625
X12.5425Y-1.2625
X12.5653Y-1.2641
X12.585Y-1.4609
X12.5925Y-2.7625
X12.5925Y-3.5125
X12.5925Y-5.7625
X12.6425Y-1.5125
X12.6441Y-2.705
X12.6441Y-3.455
X12.6441Y-5.705
X12.8409Y-2.6853
X12.8409Y-3.4353
X12.8409Y-5.6853
X12.8425Y-2.6625
X12.8425Y-3.4125
X12.8425Y-5.6625
X13.2925Y-1.2625
X13.3153Y-1.2641
X13.335Y-1.4609
X13.3425Y-2.7625
X13.3425Y-3.5125
X13.3425Y-5.0125
X13.3425Y-5.7625
X13.3925Y-1.5125
X13.3941Y-2.705
X13.3941Y-3.455
X13.3941Y-4.955
X13.3941Y-5.705
X13.5909Y-2.6853
X13.5909Y-3.4353
X13.5909Y-4.9353
X13.5909Y-5.6853
X13.5925Y-2.6625
X13.5925Y-3.4125
X13.5925Y-4.9125
X13.5925Y-5.6625
X14.0425Y-1.2625
X14.0653Y-1.2641
X14.085Y-1.4609
X14.0925Y-2.7625
X14.0925Y-3.5125
X14.0925Y-5.7625
X14.1425Y-1.5125
X14.1441Y-2.705
X14.1441Y-3.455
X14.1441Y-5.705
X14.3409Y-2.6853
X14.3409Y-3.4353
X14.3409Y-5.6853
X14.3425Y-2.6625
X14.3425Y-3.4125
X14.3425Y-5.6625
X15.18Y-2.7625
X15.18Y-3.5125
X15.18Y-4.2625
X15.18Y-5.0125
X15.18Y-5.7625
X15.2316Y-2.705
X15.2316Y-3.455
X15.2316Y-4.205
X15.2316Y-4.955
X15.2316Y-5.705
X15.4284Y-2.6853
X15.4284Y-3.4353
X15.4284Y-4.1853
X15.4284Y-4.9353
X15.4284Y-5.6853
X15.43Y-2.6625
X15.43Y-3.4125
X15.43Y-4.1625
X15.43Y-4.9125
X15.43Y-5.6625
X15.555Y-5.7625
X15.6066Y-5.705
X15.8034Y-5.6853
X15.805Y-5.6625
X15.93Y-2.7625
X15.93Y-3.5125
X15.93Y-4.2625
X15.93Y-5.0125
X15.98Y-6.0625
X15.9816Y-2.705
X15.9816Y-3.455
X15.9816Y-4.205
X15.9816Y-4.955
X15.9816Y-6.0397
X16.1784Y-2.6853
X16.1784Y-3.4353
X16.1784Y-4.1853
X16.1784Y-4.9353
X16.1784Y-6.02
X16.18Y-2.6625
X16.18Y-3.4125
X16.18Y-4.1625
X16.18Y-4.9125
X16.23Y-5.9625
X16.68Y-2.7625
X16.68Y-3.5125
X16.68Y-4.2625
X16.68Y-5.0125
X16.68Y-5.7625
X16.7316Y-2.705
X16.7316Y-3.455
X16.7316Y-4.205
X16.7316Y-4.955
X16.7316Y-5.705
X16.9284Y-2.6853
X16.9284Y-3.4353
X16.9284Y-4.1853
X16.9284Y-4.9353
X16.9284Y-5.6853
X16.93Y-2.6625
X16.93Y-3.4125
X16.93Y-4.1625
X16.93Y-4.9125
X16.93Y-5.6625
X17.38Y-1.2625
X17.38Y-5.3875
X17.4028Y-1.2641
X17.4028Y-5.3891
X17.4225Y-1.4609
X17.4225Y-5.5859
X17.43Y-2.7625
X17.43Y-3.5125
X17.43Y-4.2625
X17.43Y-5.0125
X17.48Y-1.5125
X17.48Y-5.6375
X17.48Y-6.0625
X17.4816Y-2.705
X17.4816Y-3.455
X17.4816Y-4.205
X17.4816Y-4.955
X17.4816Y-6.0397
X17.6784Y-2.6853
X17.6784Y-3.4353
X17.6784Y-4.1853
X17.6784Y-4.9353
X17.6784Y-6.02
X17.68Y-2.6625
X17.68Y-3.4125
X17.68Y-4.1625
X17.68Y-4.9125
X17.73Y-5.9625
T4
X0.937Y-2.0761
X17.8228Y-2.0761
T0
M30
