M48
; DRILL file {KiCad 5.99.0-unknown-ae51e60f70~131~ubuntu21.10.1} date Thu Sep  2 01:25:02 2021
; FORMAT={-:-/ absolute / metric / decimal}
; #@! TF.CreationDate,2021-09-02T01:25:02-04:00
; #@! TF.GenerationSoftware,Kicad,Pcbnew,5.99.0-unknown-ae51e60f70~131~ubuntu21.10.1
; #@! TF.FileFunction,Plated,1,2,PTH
FMAT,2
METRIC
; #@! TA.AperFunction,Plated,PTH,ViaDrill
T1C0.400
; #@! TA.AperFunction,Plated,PTH,ComponentDrill
T2C1.000
; #@! TA.AperFunction,Plated,PTH,ComponentDrill
T3C1.470
; #@! TA.AperFunction,Plated,PTH,ComponentDrill
T4C2.700
%
G90
G05
T1
X93.218Y-116.84
X96.012Y-76.708
X97.028Y-117.602
X98.298Y-73.914
X107.696Y-92.71
X107.696Y-96.012
X111.506Y-114.554
X112.014Y-111.76
X124.714Y-94.996
X126.238Y-91.948
X135.382Y-149.352
X135.382Y-153.162
X148.336Y-114.3
X148.59Y-78.74
X148.59Y-81.534
X149.86Y-112.268
X154.686Y-121.412
X154.686Y-123.444
X172.212Y-76.962
X172.72Y-64.516
X172.72Y-67.31
X173.99Y-74.168
X183.642Y-92.964
X183.642Y-94.996
X189.484Y-111.76
X194.437Y-134.493
X195.834Y-138.684
X196.088Y-132.588
X206.502Y-102.87
X206.502Y-105.156
X210.566Y-118.618
X211.836Y-121.412
X224.282Y-37.846
X224.536Y-23.114
X224.536Y-28.194
X270.002Y-62.484
X270.002Y-66.802
X276.098Y-72.898
X276.098Y-76.454
X294.894Y-133.35
X296.418Y-130.556
X304.8Y-93.218
X304.8Y-130.556
X308.864Y-99.568
X308.864Y-104.394
X309.626Y-63.373
X309.626Y-68.199
X309.626Y-83.566
X309.626Y-86.36
X317.246Y-130.81
X317.246Y-136.652
X334.518Y-95.758
X334.772Y-73.66
X334.772Y-76.2
X335.28Y-92.71
X347.218Y-111.506
X349.25Y-109.474
X355.092Y-73.914
X355.092Y-76.454
X361.95Y-126.238
X362.204Y-135.128
X364.49Y-137.414
X366.014Y-65.452
X367.284Y-126.238
X368.808Y-73.914
X368.808Y-76.454
X369.062Y-91.948
X369.316Y-95.25
X372.364Y-34.29
X372.872Y-150.368
X374.193Y-132.283
X374.65Y-148.082
X374.941Y-126.963
X375.666Y-95.25
X375.666Y-126.238
X376.733Y-94.183
X377.19Y-151.892
X377.19Y-154.432
X378.206Y-92.71
X378.46Y-96.012
X380.584Y-28.016
X385.318Y-115.824
X385.719Y-134.219
X387.35Y-31.242
X387.604Y-118.11
X398.018Y-64.77
X398.018Y-67.31
X400.304Y-131.558
X400.812Y-137.414
X401.066Y-27.94
X405.638Y-141.478
X405.638Y-147.828
X407.67Y-80.772
X407.67Y-83.82
X409.2Y-28.0
X412.779Y-59.211
X413.299Y-60.065
X414.267Y-59.812
X414.528Y-60.96
X415.29Y-61.722
X416.122Y-62.447
X416.759Y-42.903
X416.814Y-41.328
X416.814Y-63.246
X417.068Y-60.198
X417.597Y-43.778
X417.609Y-42.178
X417.646Y-40.578
X418.846Y-60.198
X419.1Y-65.024
X420.116Y-64.008
X420.37Y-60.198
X420.573Y-75.133
X420.624Y-27.178
X421.883Y-38.285
X421.883Y-45.428
X422.91Y-31.242
X423.164Y-34.798
X423.926Y-23.622
X424.112Y-34.482
X424.48Y-22.79
X424.688Y-73.914
X424.688Y-77.216
X425.046Y-34.838
X428.233Y-46.222
X429.006Y-26.67
X429.006Y-52.324
X429.006Y-54.356
X429.821Y-39.078
X429.821Y-43.047
X430.471Y-35.121
X437.134Y-54.61
X437.134Y-56.896
X438.404Y-64.008
X439.928Y-146.812
X440.277Y-69.437
X442.468Y-42.164
X445.262Y-45.466
X448.818Y-47.244
X451.612Y-124.46
T2
X433.299Y-21.082
X438.299Y-21.082
T3
X24.257Y-32.067
X24.837Y-32.108
X25.337Y-37.108
X25.527Y-70.167
X26.797Y-38.417
X26.837Y-68.707
X30.29Y-89.218
X30.29Y-146.368
X31.599Y-87.757
X31.599Y-144.907
X31.837Y-68.207
X31.877Y-67.627
X32.671Y-108.267
X33.981Y-106.807
X36.599Y-87.257
X36.599Y-144.407
X36.639Y-86.677
X36.639Y-143.827
X37.433Y-127.317
X38.743Y-125.857
X38.981Y-106.307
X39.021Y-105.727
X43.743Y-125.357
X43.783Y-124.777
X44.577Y-70.167
X45.887Y-68.707
X50.887Y-68.207
X50.927Y-67.627
X54.102Y-89.218
X55.412Y-87.757
X56.483Y-146.368
X57.793Y-144.907
X58.864Y-108.267
X60.174Y-106.807
X60.412Y-87.257
X60.452Y-86.677
X62.357Y-32.067
X62.793Y-144.407
X62.833Y-143.827
X62.937Y-32.108
X63.437Y-37.108
X63.627Y-70.167
X64.897Y-38.417
X64.937Y-68.707
X65.174Y-106.307
X65.215Y-105.727
X68.389Y-127.317
X69.7Y-125.857
X69.937Y-68.207
X69.977Y-67.627
X73.152Y-89.218
X74.462Y-87.757
X74.7Y-125.357
X74.739Y-124.777
X77.914Y-108.267
X79.224Y-106.807
X79.462Y-87.257
X79.502Y-86.677
X81.407Y-32.067
X81.987Y-32.108
X82.487Y-37.108
X82.677Y-70.167
X82.677Y-146.368
X83.947Y-38.417
X83.987Y-68.707
X83.987Y-144.907
X84.224Y-106.307
X84.264Y-105.727
X87.439Y-127.317
X88.749Y-125.857
X88.987Y-68.207
X88.987Y-144.407
X89.027Y-67.627
X89.027Y-143.827
X92.202Y-89.218
X93.512Y-87.757
X93.749Y-125.357
X93.789Y-124.777
X96.965Y-108.267
X98.274Y-106.807
X98.512Y-87.257
X98.552Y-86.677
X100.457Y-32.067
X101.037Y-32.108
X101.537Y-37.108
X101.727Y-70.167
X102.997Y-38.417
X103.037Y-68.707
X103.274Y-106.307
X103.314Y-105.727
X106.489Y-127.317
X107.799Y-125.857
X108.037Y-68.207
X108.077Y-67.627
X111.252Y-89.218
X112.562Y-87.757
X112.799Y-125.357
X112.84Y-124.777
X116.014Y-108.267
X117.325Y-106.807
X117.562Y-87.257
X117.602Y-86.677
X119.507Y-32.067
X120.087Y-32.108
X120.587Y-37.108
X120.777Y-70.167
X122.047Y-38.417
X122.087Y-68.707
X122.325Y-106.307
X122.364Y-105.727
X125.539Y-127.317
X126.849Y-125.857
X127.087Y-68.207
X127.127Y-67.627
X130.302Y-89.218
X131.612Y-87.757
X131.85Y-125.357
X131.889Y-124.777
X135.064Y-108.267
X136.374Y-106.807
X136.612Y-87.257
X136.652Y-86.677
X139.827Y-70.167
X141.137Y-68.707
X141.374Y-106.307
X141.415Y-105.727
X144.589Y-127.317
X145.899Y-125.857
X146.137Y-68.207
X146.177Y-67.627
X148.082Y-32.067
X148.662Y-32.108
X149.162Y-37.108
X149.352Y-89.218
X150.622Y-38.417
X150.662Y-87.757
X150.899Y-125.357
X150.939Y-124.777
X154.114Y-108.267
X155.424Y-106.807
X155.662Y-87.257
X155.702Y-86.677
X158.877Y-70.167
X158.877Y-146.368
X160.187Y-68.707
X160.187Y-144.907
X160.424Y-106.307
X160.464Y-105.727
X163.639Y-127.317
X164.95Y-125.857
X165.187Y-68.207
X165.187Y-144.407
X165.227Y-67.627
X165.227Y-143.827
X167.132Y-32.067
X167.712Y-32.108
X168.212Y-37.108
X168.402Y-89.218
X169.672Y-38.417
X169.712Y-87.757
X169.95Y-125.357
X169.989Y-124.777
X173.165Y-108.267
X174.475Y-106.807
X174.712Y-87.257
X174.752Y-86.677
X177.927Y-70.167
X179.237Y-68.707
X179.474Y-106.307
X179.514Y-105.727
X182.689Y-127.317
X183.999Y-125.857
X184.237Y-68.207
X184.277Y-67.627
X186.182Y-32.067
X186.762Y-32.108
X187.262Y-37.108
X187.452Y-89.218
X188.722Y-38.417
X188.762Y-87.757
X188.999Y-125.357
X189.04Y-124.777
X192.214Y-108.267
X193.524Y-106.807
X193.762Y-87.257
X193.802Y-86.677
X196.977Y-70.167
X198.287Y-68.707
X198.524Y-106.307
X198.564Y-105.727
X201.739Y-127.317
X203.049Y-125.857
X203.287Y-68.207
X203.327Y-67.627
X205.232Y-32.067
X205.812Y-32.108
X206.312Y-37.108
X206.502Y-89.218
X207.772Y-38.417
X207.812Y-87.757
X208.049Y-125.357
X208.089Y-124.777
X211.264Y-108.267
X212.575Y-106.807
X212.812Y-87.257
X212.852Y-86.677
X216.027Y-70.167
X217.337Y-68.707
X217.575Y-106.307
X217.614Y-105.727
X220.79Y-127.317
X222.099Y-125.857
X222.337Y-68.207
X222.377Y-67.627
X225.552Y-89.218
X226.862Y-87.757
X227.099Y-125.357
X227.139Y-124.777
X230.314Y-108.267
X231.624Y-106.807
X231.862Y-87.257
X231.902Y-86.677
X233.807Y-32.067
X234.387Y-32.108
X234.887Y-37.108
X235.077Y-70.167
X235.077Y-146.368
X236.347Y-38.417
X236.387Y-68.707
X236.387Y-144.907
X236.624Y-106.307
X236.664Y-105.727
X239.839Y-127.317
X241.149Y-125.857
X241.387Y-68.207
X241.387Y-144.407
X241.427Y-67.627
X241.427Y-143.827
X244.602Y-89.218
X245.912Y-87.757
X246.149Y-125.357
X246.189Y-124.777
X249.364Y-108.267
X250.674Y-106.807
X250.912Y-87.257
X250.952Y-86.677
X252.857Y-32.067
X253.437Y-32.108
X253.937Y-37.108
X254.127Y-70.167
X255.397Y-38.417
X255.437Y-68.707
X255.674Y-106.307
X255.714Y-105.727
X260.437Y-68.207
X260.477Y-67.627
X261.271Y-146.368
X262.581Y-144.907
X263.652Y-89.218
X264.962Y-87.757
X267.581Y-144.407
X267.621Y-143.827
X269.962Y-87.257
X270.002Y-86.677
X271.907Y-32.067
X272.487Y-32.108
X272.987Y-37.108
X274.447Y-38.417
X275.558Y-127.317
X276.868Y-125.857
X280.321Y-108.267
X281.631Y-106.807
X281.868Y-125.357
X281.908Y-124.777
X282.702Y-70.167
X284.012Y-68.707
X286.631Y-106.307
X286.671Y-105.727
X287.464Y-89.218
X287.464Y-146.368
X288.774Y-87.757
X288.774Y-144.907
X289.012Y-68.207
X289.052Y-67.627
X290.957Y-32.067
X291.537Y-32.108
X292.037Y-37.108
X293.497Y-38.417
X293.774Y-87.257
X293.774Y-144.407
X293.815Y-86.677
X293.815Y-143.827
X318.579Y-32.067
X319.159Y-32.108
X319.659Y-37.108
X319.849Y-70.167
X319.849Y-89.218
X319.849Y-146.368
X321.119Y-38.417
X321.159Y-68.707
X321.159Y-87.757
X321.159Y-144.907
X326.159Y-68.207
X326.159Y-87.257
X326.159Y-144.407
X326.2Y-67.627
X326.2Y-86.677
X326.2Y-143.827
X337.63Y-32.067
X338.209Y-32.108
X338.709Y-37.108
X338.899Y-70.167
X338.899Y-89.218
X338.899Y-127.317
X338.899Y-146.368
X340.169Y-38.417
X340.209Y-68.707
X340.209Y-87.757
X340.209Y-125.857
X340.209Y-144.907
X345.209Y-68.207
X345.209Y-87.257
X345.209Y-125.357
X345.209Y-144.407
X345.25Y-67.627
X345.25Y-86.677
X345.25Y-124.777
X345.25Y-143.827
X356.679Y-32.067
X357.26Y-32.108
X357.76Y-37.108
X357.95Y-70.167
X357.95Y-89.218
X357.95Y-146.368
X359.219Y-38.417
X359.26Y-68.707
X359.26Y-87.757
X359.26Y-144.907
X364.26Y-68.207
X364.26Y-87.257
X364.26Y-144.407
X364.299Y-67.627
X364.299Y-86.677
X364.299Y-143.827
X385.572Y-70.167
X385.572Y-89.218
X385.572Y-108.267
X385.572Y-127.317
X385.572Y-146.368
X386.882Y-68.707
X386.882Y-87.757
X386.882Y-106.807
X386.882Y-125.857
X386.882Y-144.907
X391.882Y-68.207
X391.882Y-87.257
X391.882Y-106.307
X391.882Y-125.357
X391.882Y-144.407
X391.922Y-67.627
X391.922Y-86.677
X391.922Y-105.727
X391.922Y-124.777
X391.922Y-143.827
X395.097Y-146.368
X396.407Y-144.907
X401.407Y-144.407
X401.447Y-143.827
X404.622Y-70.167
X404.622Y-89.218
X404.622Y-108.267
X404.622Y-127.317
X405.892Y-153.987
X405.932Y-68.707
X405.932Y-87.757
X405.932Y-106.807
X405.932Y-125.857
X405.932Y-153.407
X410.932Y-68.207
X410.932Y-87.257
X410.932Y-106.307
X410.932Y-125.357
X410.932Y-152.907
X410.972Y-67.627
X410.972Y-86.677
X410.972Y-105.727
X410.972Y-124.777
X412.242Y-151.447
X423.672Y-70.167
X423.672Y-89.218
X423.672Y-108.267
X423.672Y-127.317
X423.672Y-146.368
X424.982Y-68.707
X424.982Y-87.757
X424.982Y-106.807
X424.982Y-125.857
X424.982Y-144.907
X429.982Y-68.207
X429.982Y-87.257
X429.982Y-106.307
X429.982Y-125.357
X429.982Y-144.407
X430.022Y-67.627
X430.022Y-86.677
X430.022Y-105.727
X430.022Y-124.777
X430.022Y-143.827
X441.452Y-32.067
X441.452Y-136.843
X442.032Y-32.108
X442.032Y-136.882
X442.532Y-37.108
X442.532Y-141.882
X442.722Y-70.167
X442.722Y-89.218
X442.722Y-108.267
X442.722Y-127.317
X443.992Y-38.417
X443.992Y-143.192
X443.992Y-153.987
X444.032Y-68.707
X444.032Y-87.757
X444.032Y-106.807
X444.032Y-125.857
X444.032Y-153.407
X449.032Y-68.207
X449.032Y-87.257
X449.032Y-106.307
X449.032Y-125.357
X449.032Y-152.907
X449.072Y-67.627
X449.072Y-86.677
X449.072Y-105.727
X449.072Y-124.777
X450.342Y-151.447
T4
X24.8Y-54.734
X451.698Y-54.734
T0
M30
