%TF.GenerationSoftware,KiCad,Pcbnew,5.99.0-unknown-ae51e60f70~131~ubuntu21.10.1*%
%TF.CreationDate,2021-08-23T23:28:42-04:00*%
%TF.ProjectId,aek,61656b2e-6b69-4636-9164-5f7063625858,rev?*%
%TF.SameCoordinates,Original*%
%TF.FileFunction,Soldermask,Top*%
%TF.FilePolarity,Negative*%
%FSLAX46Y46*%
G04 Gerber Fmt 4.6, Leading zero omitted, Abs format (unit mm)*
G04 Created by KiCad (PCBNEW 5.99.0-unknown-ae51e60f70~131~ubuntu21.10.1) date 2021-08-23 23:28:42*
%MOMM*%
%LPD*%
G01*
G04 APERTURE LIST*
%TA.AperFunction,Profile*%
%ADD10C,0.150000*%
%TD*%
%TA.AperFunction,Profile*%
%ADD11C,0.050000*%
%TD*%
%ADD12R,2.000000X2.000000*%
%ADD13C,2.000000*%
%ADD14R,1.500000X1.000000*%
%ADD15C,5.400000*%
%ADD16C,1.750000*%
%ADD17C,3.987800*%
%ADD18C,3.048000*%
G04 APERTURE END LIST*
D10*
X456882500Y-154432000D02*
G75*
G02*
X453834500Y-157480000I-3048000J0D01*
G01*
X18986500Y-17780000D02*
G75*
G02*
X22034500Y-14732000I3048000J0D01*
G01*
X22034500Y-157480000D02*
G75*
G02*
X18986500Y-154432000I0J3048000D01*
G01*
D11*
X22034500Y-157480000D02*
X453834500Y-157480000D01*
X456882500Y-154432000D02*
X456882500Y-17780000D01*
X18986500Y-17780000D02*
X18986500Y-154432000D01*
X171986500Y-52730000D02*
G75*
G03*
X171986500Y-52730000I-6000000J0D01*
G01*
X147986500Y-56028000D02*
G75*
G03*
X147986500Y-56028000I-9000000J0D01*
G01*
X148780501Y-14731999D02*
X22034500Y-14732000D01*
X162496499Y-14731999D02*
X453834500Y-14732000D01*
X108385512Y-56830000D02*
G75*
G03*
X108385512Y-56830000I-8000000J0D01*
G01*
X162496499Y-14731999D02*
G75*
G02*
X148780501Y-14731999I-6857999J6501999D01*
G01*
X315886500Y-52730000D02*
G75*
G03*
X315886500Y-52730000I-6000000J0D01*
G01*
X383485512Y-56830000D02*
G75*
G03*
X383485512Y-56830000I-8000000J0D01*
G01*
D10*
X453834500Y-14732000D02*
G75*
G02*
X456882500Y-17780000I0J-3048000D01*
G01*
D12*
%TO.C,BUZ1*%
X433299216Y-21082000D03*
D13*
X438299216Y-21082000D03*
%TD*%
D14*
%TO.C,LED1*%
X382454000Y-26416000D03*
X382454000Y-29616000D03*
X387354000Y-29616000D03*
X387354000Y-26416000D03*
%TD*%
%TO.C,LED2*%
X402454000Y-26416000D03*
X402454000Y-29616000D03*
X407354000Y-29616000D03*
X407354000Y-26416000D03*
%TD*%
%TO.C,LED3*%
X422454000Y-26416000D03*
X422454000Y-29616000D03*
X427354000Y-29616000D03*
X427354000Y-26416000D03*
%TD*%
D15*
%TO.C,H2*%
X451698000Y-54734000D03*
%TD*%
D16*
%TO.C,SW_0*%
X214757000Y-72707500D03*
X224917000Y-72707500D03*
D17*
X219837000Y-72707500D03*
%TD*%
D16*
%TO.C,SW_1*%
X53467000Y-72707500D03*
X43307000Y-72707500D03*
D17*
X48387000Y-72707500D03*
%TD*%
D16*
%TO.C,SW_2*%
X72517000Y-72707500D03*
X62357000Y-72707500D03*
D17*
X67437000Y-72707500D03*
%TD*%
D16*
%TO.C,SW_3*%
X91567000Y-72707500D03*
D17*
X86487000Y-72707500D03*
D16*
X81407000Y-72707500D03*
%TD*%
%TO.C,SW_6*%
X148717000Y-72707500D03*
X138557000Y-72707500D03*
D17*
X143637000Y-72707500D03*
%TD*%
D16*
%TO.C,SW_7*%
X157607000Y-72707500D03*
D17*
X162687000Y-72707500D03*
D16*
X167767000Y-72707500D03*
%TD*%
%TO.C,SW_8*%
X176657000Y-72707500D03*
X186817000Y-72707500D03*
D17*
X181737000Y-72707500D03*
%TD*%
D16*
%TO.C,SW_9*%
X205867000Y-72707500D03*
D17*
X200787000Y-72707500D03*
D16*
X195707000Y-72707500D03*
%TD*%
%TO.C,SW_A1*%
X57594500Y-110807500D03*
X67754500Y-110807500D03*
D17*
X62674500Y-110807500D03*
%TD*%
D16*
%TO.C,SW_APOS1*%
X248094500Y-110807500D03*
D17*
X253174500Y-110807500D03*
D16*
X258254500Y-110807500D03*
%TD*%
D17*
%TO.C,SW_B1*%
X148399500Y-129857500D03*
D16*
X143319500Y-129857500D03*
X153479500Y-129857500D03*
%TD*%
D17*
%TO.C,SW_BACKSP1*%
X298450000Y-80962500D03*
D18*
X298450000Y-65722500D03*
D16*
X281432000Y-72707500D03*
D17*
X286512000Y-72707500D03*
X274574000Y-80962500D03*
D18*
X274574000Y-65722500D03*
D16*
X291592000Y-72707500D03*
%TD*%
%TO.C,SW_BKSLS1*%
X286194500Y-91757500D03*
D17*
X291274500Y-91757500D03*
D16*
X296354500Y-91757500D03*
%TD*%
D17*
%TO.C,SW_C1*%
X110299500Y-129857500D03*
D16*
X105219500Y-129857500D03*
X115379500Y-129857500D03*
%TD*%
%TO.C,SW_CAP1*%
X31400750Y-110807500D03*
D17*
X36480750Y-110807500D03*
D16*
X41560750Y-110807500D03*
%TD*%
%TO.C,SW_COLON1*%
X239204500Y-110807500D03*
X229044500Y-110807500D03*
D17*
X234124500Y-110807500D03*
%TD*%
D16*
%TO.C,SW_COMMA1*%
X210629500Y-129857500D03*
X200469500Y-129857500D03*
D17*
X205549500Y-129857500D03*
%TD*%
D16*
%TO.C,SW_D1*%
X105854500Y-110807500D03*
D17*
X100774500Y-110807500D03*
D16*
X95694500Y-110807500D03*
%TD*%
%TO.C,SW_DEL1*%
X318579500Y-91757500D03*
X328739500Y-91757500D03*
D17*
X323659500Y-91757500D03*
%TD*%
%TO.C,SW_DOWN1*%
X342709500Y-148907500D03*
D16*
X347789500Y-148907500D03*
X337629500Y-148907500D03*
%TD*%
%TO.C,SW_E1*%
X101092000Y-91757500D03*
X90932000Y-91757500D03*
D17*
X96012000Y-91757500D03*
%TD*%
D16*
%TO.C,SW_END1*%
X337629500Y-91757500D03*
D17*
X342709500Y-91757500D03*
D16*
X347789500Y-91757500D03*
%TD*%
D17*
%TO.C,SW_ENTER1*%
X272192750Y-119062500D03*
D16*
X289210750Y-110807500D03*
D18*
X296068750Y-103822500D03*
D17*
X296068750Y-119062500D03*
X284130750Y-110807500D03*
D16*
X279050750Y-110807500D03*
D18*
X272192750Y-103822500D03*
%TD*%
D16*
%TO.C,SW_EQ1*%
X263017000Y-72707500D03*
D17*
X257937000Y-72707500D03*
D16*
X252857000Y-72707500D03*
%TD*%
%TO.C,SW_ESC1*%
X29337000Y-39687500D03*
X29337000Y-29527500D03*
D17*
X29337000Y-34607500D03*
%TD*%
D16*
%TO.C,SW_F1*%
X67437000Y-29527500D03*
X67437000Y-39687500D03*
D17*
X67437000Y-34607500D03*
%TD*%
%TO.C,SW_F2*%
X86487000Y-34607500D03*
D16*
X86487000Y-39687500D03*
X86487000Y-29527500D03*
%TD*%
D17*
%TO.C,SW_F3*%
X105537000Y-34607500D03*
D16*
X105537000Y-39687500D03*
X105537000Y-29527500D03*
%TD*%
%TO.C,SW_F4*%
X124587000Y-29527500D03*
D17*
X124587000Y-34607500D03*
D16*
X124587000Y-39687500D03*
%TD*%
%TO.C,SW_F5*%
X153162000Y-29527500D03*
D17*
X153162000Y-34607500D03*
D16*
X153162000Y-39687500D03*
%TD*%
%TO.C,SW_F6*%
X172212000Y-29527500D03*
X172212000Y-39687500D03*
D17*
X172212000Y-34607500D03*
%TD*%
%TO.C,SW_F7*%
X191262000Y-34607500D03*
D16*
X191262000Y-39687500D03*
X191262000Y-29527500D03*
%TD*%
%TO.C,SW_F8*%
X210312000Y-29527500D03*
D17*
X210312000Y-34607500D03*
D16*
X210312000Y-39687500D03*
%TD*%
%TO.C,SW_F9*%
X238887000Y-39687500D03*
D17*
X238887000Y-34607500D03*
D16*
X238887000Y-29527500D03*
%TD*%
%TO.C,SW_F10*%
X257937000Y-39687500D03*
D17*
X257937000Y-34607500D03*
D16*
X257937000Y-29527500D03*
%TD*%
D17*
%TO.C,SW_F11*%
X276987000Y-34607500D03*
D16*
X276987000Y-29527500D03*
X276987000Y-39687500D03*
%TD*%
%TO.C,SW_F12*%
X296037000Y-29527500D03*
X296037000Y-39687500D03*
D17*
X296037000Y-34607500D03*
%TD*%
%TO.C,SW_F13*%
X119824500Y-110807500D03*
D16*
X124904500Y-110807500D03*
X114744500Y-110807500D03*
%TD*%
D17*
%TO.C,SW_G1*%
X138874500Y-110807500D03*
D16*
X133794500Y-110807500D03*
X143954500Y-110807500D03*
%TD*%
%TO.C,SW_H1*%
X152844500Y-110807500D03*
X163004500Y-110807500D03*
D17*
X157924500Y-110807500D03*
%TD*%
D16*
%TO.C,SW_HOME1*%
X347789500Y-72707500D03*
D17*
X342709500Y-72707500D03*
D16*
X337629500Y-72707500D03*
%TD*%
%TO.C,SW_I1*%
X186182000Y-91757500D03*
X196342000Y-91757500D03*
D17*
X191262000Y-91757500D03*
%TD*%
D16*
%TO.C,SW_INS1*%
X328739500Y-72707500D03*
D17*
X323659500Y-72707500D03*
D16*
X318579500Y-72707500D03*
%TD*%
%TO.C,SW_J1*%
X182054500Y-110807500D03*
D17*
X176974500Y-110807500D03*
D16*
X171894500Y-110807500D03*
%TD*%
D17*
%TO.C,SW_K1*%
X196024500Y-110807500D03*
D16*
X190944500Y-110807500D03*
X201104500Y-110807500D03*
%TD*%
D18*
%TO.C,SW_KP0*%
X386969000Y-155892500D03*
D17*
X410845000Y-140652500D03*
D16*
X403987000Y-148907500D03*
D17*
X398907000Y-148907500D03*
X386969000Y-140652500D03*
D16*
X393827000Y-148907500D03*
D18*
X410845000Y-155892500D03*
%TD*%
D16*
%TO.C,SW_KP1*%
X394462000Y-129857500D03*
X384302000Y-129857500D03*
D17*
X389382000Y-129857500D03*
%TD*%
D16*
%TO.C,SW_KP2*%
X403352000Y-129857500D03*
D17*
X408432000Y-129857500D03*
D16*
X413512000Y-129857500D03*
%TD*%
D17*
%TO.C,SW_KP3*%
X427482000Y-129857500D03*
D16*
X422402000Y-129857500D03*
X432562000Y-129857500D03*
%TD*%
%TO.C,SW_KP4*%
X394462000Y-110807500D03*
D17*
X389382000Y-110807500D03*
D16*
X384302000Y-110807500D03*
%TD*%
%TO.C,SW_KP5*%
X403352000Y-110807500D03*
D17*
X408432000Y-110807500D03*
D16*
X413512000Y-110807500D03*
%TD*%
D17*
%TO.C,SW_KP6*%
X427482000Y-110807500D03*
D16*
X422402000Y-110807500D03*
X432562000Y-110807500D03*
%TD*%
%TO.C,SW_KP7*%
X394462000Y-91757500D03*
D17*
X389382000Y-91757500D03*
D16*
X384302000Y-91757500D03*
%TD*%
%TO.C,SW_KP8*%
X403352000Y-91757500D03*
X413512000Y-91757500D03*
D17*
X408432000Y-91757500D03*
%TD*%
D16*
%TO.C,SW_KP9*%
X432562000Y-91757500D03*
D17*
X427482000Y-91757500D03*
D16*
X422402000Y-91757500D03*
%TD*%
%TO.C,SW_KPASTR1*%
X451612000Y-72707500D03*
X441452000Y-72707500D03*
D17*
X446532000Y-72707500D03*
%TD*%
D18*
%TO.C,SW_KPENTER1*%
X453517000Y-151320500D03*
X453517000Y-127444500D03*
D17*
X438277000Y-127444500D03*
D16*
X446532000Y-144462500D03*
D17*
X438277000Y-151320500D03*
D16*
X446532000Y-134302500D03*
D17*
X446532000Y-139382500D03*
%TD*%
D16*
%TO.C,SW_KPEQ1*%
X403352000Y-72707500D03*
D17*
X408432000Y-72707500D03*
D16*
X413512000Y-72707500D03*
%TD*%
%TO.C,SW_KPMINUS1*%
X451612000Y-91757500D03*
D17*
X446532000Y-91757500D03*
D16*
X441452000Y-91757500D03*
%TD*%
%TO.C,SW_KPPER1*%
X432562000Y-148907500D03*
D17*
X427482000Y-148907500D03*
D16*
X422402000Y-148907500D03*
%TD*%
%TO.C,SW_KPPLUS1*%
X451612000Y-110807500D03*
X441452000Y-110807500D03*
D17*
X446532000Y-110807500D03*
%TD*%
%TO.C,SW_KPSLASH1*%
X427482000Y-72707500D03*
D16*
X422402000Y-72707500D03*
X432562000Y-72707500D03*
%TD*%
D17*
%TO.C,SW_L1*%
X215074500Y-110807500D03*
D16*
X209994500Y-110807500D03*
X220154500Y-110807500D03*
%TD*%
%TO.C,SW_LALT1*%
X91567000Y-148907500D03*
D17*
X86487000Y-148907500D03*
D16*
X81407000Y-148907500D03*
%TD*%
D17*
%TO.C,SW_LBRAC1*%
X248412000Y-91757500D03*
D16*
X243332000Y-91757500D03*
X253492000Y-91757500D03*
%TD*%
D17*
%TO.C,SW_LCTR1*%
X34099500Y-148907500D03*
D16*
X39179500Y-148907500D03*
X29019500Y-148907500D03*
%TD*%
%TO.C,SW_LEFT1*%
X318579500Y-148907500D03*
X328739500Y-148907500D03*
D17*
X323659500Y-148907500D03*
%TD*%
D16*
%TO.C,SW_LMOD1*%
X55213250Y-148907500D03*
X65373250Y-148907500D03*
D17*
X60293250Y-148907500D03*
%TD*%
%TO.C,SW_LSH1*%
X29305250Y-138112500D03*
X53181250Y-138112500D03*
D16*
X46323250Y-129857500D03*
D17*
X41243250Y-129857500D03*
D16*
X36163250Y-129857500D03*
D18*
X53181250Y-122872500D03*
X29305250Y-122872500D03*
%TD*%
D16*
%TO.C,SW_M1*%
X181419500Y-129857500D03*
D17*
X186499500Y-129857500D03*
D16*
X191579500Y-129857500D03*
%TD*%
%TO.C,SW_MINUS1*%
X243967000Y-72707500D03*
X233807000Y-72707500D03*
D17*
X238887000Y-72707500D03*
%TD*%
%TO.C,SW_N1*%
X167449500Y-129857500D03*
D16*
X172529500Y-129857500D03*
X162369500Y-129857500D03*
%TD*%
D17*
%TO.C,SW_O1*%
X210312000Y-91757500D03*
D16*
X215392000Y-91757500D03*
X205232000Y-91757500D03*
%TD*%
D17*
%TO.C,SW_P1*%
X229362000Y-91757500D03*
D16*
X224282000Y-91757500D03*
X234442000Y-91757500D03*
%TD*%
%TO.C,SW_PAUSE1*%
X361759500Y-39687500D03*
X361759500Y-29527500D03*
D17*
X361759500Y-34607500D03*
%TD*%
%TO.C,SW_PERIOD1*%
X224599500Y-129857500D03*
D16*
X219519500Y-129857500D03*
X229679500Y-129857500D03*
%TD*%
%TO.C,SW_PGDN1*%
X366839500Y-91757500D03*
X356679500Y-91757500D03*
D17*
X361759500Y-91757500D03*
%TD*%
D16*
%TO.C,SW_PGUP1*%
X366839500Y-72707500D03*
X356679500Y-72707500D03*
D17*
X361759500Y-72707500D03*
%TD*%
%TO.C,SW_POW1*%
X446532000Y-34607500D03*
D16*
X446532000Y-29527500D03*
X446532000Y-39687500D03*
%TD*%
%TO.C,SW_PRSC1*%
X323659500Y-29527500D03*
X323659500Y-39687500D03*
D17*
X323659500Y-34607500D03*
%TD*%
%TO.C,SW_Q1*%
X57912000Y-91757500D03*
D16*
X52832000Y-91757500D03*
X62992000Y-91757500D03*
%TD*%
%TO.C,SW_R1*%
X109982000Y-91757500D03*
D17*
X115062000Y-91757500D03*
D16*
X120142000Y-91757500D03*
%TD*%
D17*
%TO.C,SW_RALT1*%
X238887000Y-148907500D03*
D16*
X233807000Y-148907500D03*
X243967000Y-148907500D03*
%TD*%
D17*
%TO.C,SW_RBRAC1*%
X267462000Y-91757500D03*
D16*
X272542000Y-91757500D03*
X262382000Y-91757500D03*
%TD*%
%TO.C,SW_RCTR1*%
X286194500Y-148907500D03*
D17*
X291274500Y-148907500D03*
D16*
X296354500Y-148907500D03*
%TD*%
%TO.C,SW_RIGHT1*%
X366839500Y-148907500D03*
D17*
X361759500Y-148907500D03*
D16*
X356679500Y-148907500D03*
%TD*%
%TO.C,SW_RMOD1*%
X260000750Y-148907500D03*
X270160750Y-148907500D03*
D17*
X265080750Y-148907500D03*
%TD*%
D16*
%TO.C,SW_RSH1*%
X284448250Y-129857500D03*
X274288250Y-129857500D03*
D17*
X267430250Y-138112500D03*
D18*
X267430250Y-122872500D03*
D17*
X291306250Y-138112500D03*
D18*
X291306250Y-122872500D03*
D17*
X279368250Y-129857500D03*
%TD*%
D16*
%TO.C,SW_S1*%
X86804500Y-110807500D03*
D17*
X81724500Y-110807500D03*
D16*
X76644500Y-110807500D03*
%TD*%
%TO.C,SW_SCLK1*%
X342709500Y-39687500D03*
D17*
X342709500Y-34607500D03*
D16*
X342709500Y-29527500D03*
%TD*%
D17*
%TO.C,SW_SLASH1*%
X243649500Y-129857500D03*
D16*
X248729500Y-129857500D03*
X238569500Y-129857500D03*
%TD*%
D17*
%TO.C,SW_SPACE1*%
X112687100Y-140652500D03*
D16*
X157607000Y-148907500D03*
D18*
X112687100Y-155892500D03*
D17*
X162687000Y-148907500D03*
D16*
X167767000Y-148907500D03*
D17*
X212686900Y-140652500D03*
D18*
X212686900Y-155892500D03*
%TD*%
D16*
%TO.C,SW_T1*%
X139192000Y-91757500D03*
X129032000Y-91757500D03*
D17*
X134112000Y-91757500D03*
%TD*%
%TO.C,SW_TAB1*%
X34099500Y-91757500D03*
D16*
X29019500Y-91757500D03*
X39179500Y-91757500D03*
%TD*%
%TO.C,SW_TICK1*%
X24257000Y-72707500D03*
X34417000Y-72707500D03*
D17*
X29337000Y-72707500D03*
%TD*%
%TO.C,SW_U1*%
X172212000Y-91757500D03*
D16*
X167132000Y-91757500D03*
X177292000Y-91757500D03*
%TD*%
%TO.C,SW_UP1*%
X347789500Y-129857500D03*
X337629500Y-129857500D03*
D17*
X342709500Y-129857500D03*
%TD*%
%TO.C,SW_V1*%
X129349500Y-129857500D03*
D16*
X134429500Y-129857500D03*
X124269500Y-129857500D03*
%TD*%
%TO.C,SW_W1*%
X82042000Y-91757500D03*
D17*
X76962000Y-91757500D03*
D16*
X71882000Y-91757500D03*
%TD*%
D17*
%TO.C,SW_X1*%
X91249500Y-129857500D03*
D16*
X96329500Y-129857500D03*
X86169500Y-129857500D03*
%TD*%
%TO.C,SW_Y1*%
X158242000Y-91757500D03*
X148082000Y-91757500D03*
D17*
X153162000Y-91757500D03*
%TD*%
%TO.C,SW_Z1*%
X72199500Y-129857500D03*
D16*
X77279500Y-129857500D03*
X67119500Y-129857500D03*
%TD*%
D15*
%TO.C,H1*%
X24800000Y-54734000D03*
%TD*%
D16*
%TO.C,SW_4*%
X100457000Y-72707500D03*
D17*
X105537000Y-72707500D03*
D16*
X110617000Y-72707500D03*
%TD*%
D17*
%TO.C,SW_5*%
X124587000Y-72707500D03*
D16*
X119507000Y-72707500D03*
X129667000Y-72707500D03*
%TD*%
%TO.C,SW_NUMLK1*%
X394462000Y-72707500D03*
X384302000Y-72707500D03*
D17*
X389382000Y-72707500D03*
%TD*%
M02*
