%TF.GenerationSoftware,KiCad,Pcbnew,5.99.0-unknown-ae51e60f70~131~ubuntu21.10.1*%
%TF.CreationDate,2021-08-21T15:51:35-04:00*%
%TF.ProjectId,aek,61656b2e-6b69-4636-9164-5f7063625858,rev?*%
%TF.SameCoordinates,Original*%
%TF.FileFunction,Legend,Top*%
%TF.FilePolarity,Positive*%
%FSLAX46Y46*%
G04 Gerber Fmt 4.6, Leading zero omitted, Abs format (unit mm)*
G04 Created by KiCad (PCBNEW 5.99.0-unknown-ae51e60f70~131~ubuntu21.10.1) date 2021-08-21 15:51:35*
%MOMM*%
%LPD*%
G01*
G04 APERTURE LIST*
%TA.AperFunction,Profile*%
%ADD10C,0.050000*%
%TD*%
%TA.AperFunction,Profile*%
%ADD11C,0.150000*%
%TD*%
%ADD12C,0.150000*%
%ADD13C,0.120000*%
G04 APERTURE END LIST*
D10*
X108703012Y-56830000D02*
G75*
G03*
X108703012Y-56830000I-8000000J0D01*
G01*
X162813999Y-14731999D02*
X454152000Y-14732000D01*
X149098001Y-14731999D02*
X22352000Y-14732000D01*
X162813999Y-14731999D02*
G75*
G02*
X149098001Y-14731999I-6857999J6501999D01*
G01*
X148304000Y-56028000D02*
G75*
G03*
X148304000Y-56028000I-9000000J0D01*
G01*
X383803012Y-56830000D02*
G75*
G03*
X383803012Y-56830000I-8000000J0D01*
G01*
X172304000Y-52730000D02*
G75*
G03*
X172304000Y-52730000I-6000000J0D01*
G01*
X316204000Y-52730000D02*
G75*
G03*
X316204000Y-52730000I-6000000J0D01*
G01*
X19304000Y-17780000D02*
X19304000Y-154432000D01*
X457200000Y-154432000D02*
X457200000Y-17780000D01*
X22352000Y-157480000D02*
X454152000Y-157480000D01*
D11*
X22352000Y-157480000D02*
G75*
G02*
X19304000Y-154432000I0J3048000D01*
G01*
X19304000Y-17780000D02*
G75*
G02*
X22352000Y-14732000I3048000J0D01*
G01*
X457200000Y-154432000D02*
G75*
G02*
X454152000Y-157480000I-3048000J0D01*
G01*
X454152000Y-14732000D02*
G75*
G02*
X457200000Y-17780000I0J-3048000D01*
G01*
D12*
%TO.C,R1*%
X427554380Y-33036166D02*
X427078190Y-33369500D01*
X427554380Y-33607595D02*
X426554380Y-33607595D01*
X426554380Y-33226642D01*
X426602000Y-33131404D01*
X426649619Y-33083785D01*
X426744857Y-33036166D01*
X426887714Y-33036166D01*
X426982952Y-33083785D01*
X427030571Y-33131404D01*
X427078190Y-33226642D01*
X427078190Y-33607595D01*
X427554380Y-32083785D02*
X427554380Y-32655214D01*
X427554380Y-32369500D02*
X426554380Y-32369500D01*
X426697238Y-32464738D01*
X426792476Y-32559976D01*
X426840095Y-32655214D01*
%TO.C,LED3*%
X423784952Y-24968380D02*
X423308761Y-24968380D01*
X423308761Y-23968380D01*
X424118285Y-24444571D02*
X424451619Y-24444571D01*
X424594476Y-24968380D02*
X424118285Y-24968380D01*
X424118285Y-23968380D01*
X424594476Y-23968380D01*
X425023047Y-24968380D02*
X425023047Y-23968380D01*
X425261142Y-23968380D01*
X425404000Y-24016000D01*
X425499238Y-24111238D01*
X425546857Y-24206476D01*
X425594476Y-24396952D01*
X425594476Y-24539809D01*
X425546857Y-24730285D01*
X425499238Y-24825523D01*
X425404000Y-24920761D01*
X425261142Y-24968380D01*
X425023047Y-24968380D01*
X425927809Y-23968380D02*
X426546857Y-23968380D01*
X426213523Y-24349333D01*
X426356380Y-24349333D01*
X426451619Y-24396952D01*
X426499238Y-24444571D01*
X426546857Y-24539809D01*
X426546857Y-24777904D01*
X426499238Y-24873142D01*
X426451619Y-24920761D01*
X426356380Y-24968380D01*
X426070666Y-24968380D01*
X425975428Y-24920761D01*
X425927809Y-24873142D01*
X421039714Y-26868380D02*
X420468285Y-26868380D01*
X420754000Y-26868380D02*
X420754000Y-25868380D01*
X420658761Y-26011238D01*
X420563523Y-26106476D01*
X420468285Y-26154095D01*
%TO.C,LED2*%
X403784952Y-24968380D02*
X403308761Y-24968380D01*
X403308761Y-23968380D01*
X404118285Y-24444571D02*
X404451619Y-24444571D01*
X404594476Y-24968380D02*
X404118285Y-24968380D01*
X404118285Y-23968380D01*
X404594476Y-23968380D01*
X405023047Y-24968380D02*
X405023047Y-23968380D01*
X405261142Y-23968380D01*
X405404000Y-24016000D01*
X405499238Y-24111238D01*
X405546857Y-24206476D01*
X405594476Y-24396952D01*
X405594476Y-24539809D01*
X405546857Y-24730285D01*
X405499238Y-24825523D01*
X405404000Y-24920761D01*
X405261142Y-24968380D01*
X405023047Y-24968380D01*
X405975428Y-24063619D02*
X406023047Y-24016000D01*
X406118285Y-23968380D01*
X406356380Y-23968380D01*
X406451619Y-24016000D01*
X406499238Y-24063619D01*
X406546857Y-24158857D01*
X406546857Y-24254095D01*
X406499238Y-24396952D01*
X405927809Y-24968380D01*
X406546857Y-24968380D01*
X401039714Y-26868380D02*
X400468285Y-26868380D01*
X400754000Y-26868380D02*
X400754000Y-25868380D01*
X400658761Y-26011238D01*
X400563523Y-26106476D01*
X400468285Y-26154095D01*
%TO.C,LED1*%
X383784952Y-24968380D02*
X383308761Y-24968380D01*
X383308761Y-23968380D01*
X384118285Y-24444571D02*
X384451619Y-24444571D01*
X384594476Y-24968380D02*
X384118285Y-24968380D01*
X384118285Y-23968380D01*
X384594476Y-23968380D01*
X385023047Y-24968380D02*
X385023047Y-23968380D01*
X385261142Y-23968380D01*
X385404000Y-24016000D01*
X385499238Y-24111238D01*
X385546857Y-24206476D01*
X385594476Y-24396952D01*
X385594476Y-24539809D01*
X385546857Y-24730285D01*
X385499238Y-24825523D01*
X385404000Y-24920761D01*
X385261142Y-24968380D01*
X385023047Y-24968380D01*
X386546857Y-24968380D02*
X385975428Y-24968380D01*
X386261142Y-24968380D02*
X386261142Y-23968380D01*
X386165904Y-24111238D01*
X386070666Y-24206476D01*
X385975428Y-24254095D01*
X381039714Y-26868380D02*
X380468285Y-26868380D01*
X380754000Y-26868380D02*
X380754000Y-25868380D01*
X380658761Y-26011238D01*
X380563523Y-26106476D01*
X380468285Y-26154095D01*
%TO.C,C10*%
X433211142Y-26693142D02*
X433163523Y-26740761D01*
X433020666Y-26788380D01*
X432925428Y-26788380D01*
X432782571Y-26740761D01*
X432687333Y-26645523D01*
X432639714Y-26550285D01*
X432592095Y-26359809D01*
X432592095Y-26216952D01*
X432639714Y-26026476D01*
X432687333Y-25931238D01*
X432782571Y-25836000D01*
X432925428Y-25788380D01*
X433020666Y-25788380D01*
X433163523Y-25836000D01*
X433211142Y-25883619D01*
X434163523Y-26788380D02*
X433592095Y-26788380D01*
X433877809Y-26788380D02*
X433877809Y-25788380D01*
X433782571Y-25931238D01*
X433687333Y-26026476D01*
X433592095Y-26074095D01*
X434782571Y-25788380D02*
X434877809Y-25788380D01*
X434973047Y-25836000D01*
X435020666Y-25883619D01*
X435068285Y-25978857D01*
X435115904Y-26169333D01*
X435115904Y-26407428D01*
X435068285Y-26597904D01*
X435020666Y-26693142D01*
X434973047Y-26740761D01*
X434877809Y-26788380D01*
X434782571Y-26788380D01*
X434687333Y-26740761D01*
X434639714Y-26693142D01*
X434592095Y-26597904D01*
X434544476Y-26407428D01*
X434544476Y-26169333D01*
X434592095Y-25978857D01*
X434639714Y-25883619D01*
X434687333Y-25836000D01*
X434782571Y-25788380D01*
%TO.C,C9*%
X391787333Y-26693142D02*
X391739714Y-26740761D01*
X391596857Y-26788380D01*
X391501619Y-26788380D01*
X391358761Y-26740761D01*
X391263523Y-26645523D01*
X391215904Y-26550285D01*
X391168285Y-26359809D01*
X391168285Y-26216952D01*
X391215904Y-26026476D01*
X391263523Y-25931238D01*
X391358761Y-25836000D01*
X391501619Y-25788380D01*
X391596857Y-25788380D01*
X391739714Y-25836000D01*
X391787333Y-25883619D01*
X392263523Y-26788380D02*
X392454000Y-26788380D01*
X392549238Y-26740761D01*
X392596857Y-26693142D01*
X392692095Y-26550285D01*
X392739714Y-26359809D01*
X392739714Y-25978857D01*
X392692095Y-25883619D01*
X392644476Y-25836000D01*
X392549238Y-25788380D01*
X392358761Y-25788380D01*
X392263523Y-25836000D01*
X392215904Y-25883619D01*
X392168285Y-25978857D01*
X392168285Y-26216952D01*
X392215904Y-26312190D01*
X392263523Y-26359809D01*
X392358761Y-26407428D01*
X392549238Y-26407428D01*
X392644476Y-26359809D01*
X392692095Y-26312190D01*
X392739714Y-26216952D01*
%TO.C,C8*%
X411787333Y-26693142D02*
X411739714Y-26740761D01*
X411596857Y-26788380D01*
X411501619Y-26788380D01*
X411358761Y-26740761D01*
X411263523Y-26645523D01*
X411215904Y-26550285D01*
X411168285Y-26359809D01*
X411168285Y-26216952D01*
X411215904Y-26026476D01*
X411263523Y-25931238D01*
X411358761Y-25836000D01*
X411501619Y-25788380D01*
X411596857Y-25788380D01*
X411739714Y-25836000D01*
X411787333Y-25883619D01*
X412358761Y-26216952D02*
X412263523Y-26169333D01*
X412215904Y-26121714D01*
X412168285Y-26026476D01*
X412168285Y-25978857D01*
X412215904Y-25883619D01*
X412263523Y-25836000D01*
X412358761Y-25788380D01*
X412549238Y-25788380D01*
X412644476Y-25836000D01*
X412692095Y-25883619D01*
X412739714Y-25978857D01*
X412739714Y-26026476D01*
X412692095Y-26121714D01*
X412644476Y-26169333D01*
X412549238Y-26216952D01*
X412358761Y-26216952D01*
X412263523Y-26264571D01*
X412215904Y-26312190D01*
X412168285Y-26407428D01*
X412168285Y-26597904D01*
X412215904Y-26693142D01*
X412263523Y-26740761D01*
X412358761Y-26788380D01*
X412549238Y-26788380D01*
X412644476Y-26740761D01*
X412692095Y-26693142D01*
X412739714Y-26597904D01*
X412739714Y-26407428D01*
X412692095Y-26312190D01*
X412644476Y-26264571D01*
X412549238Y-26216952D01*
%TO.C,H1*%
X24038095Y-51486380D02*
X24038095Y-50486380D01*
X24038095Y-50962571D02*
X24609523Y-50962571D01*
X24609523Y-51486380D02*
X24609523Y-50486380D01*
X25609523Y-51486380D02*
X25038095Y-51486380D01*
X25323809Y-51486380D02*
X25323809Y-50486380D01*
X25228571Y-50629238D01*
X25133333Y-50724476D01*
X25038095Y-50772095D01*
%TO.C,H2*%
X450936095Y-51486380D02*
X450936095Y-50486380D01*
X450936095Y-50962571D02*
X451507523Y-50962571D01*
X451507523Y-51486380D02*
X451507523Y-50486380D01*
X451936095Y-50581619D02*
X451983714Y-50534000D01*
X452078952Y-50486380D01*
X452317047Y-50486380D01*
X452412285Y-50534000D01*
X452459904Y-50581619D01*
X452507523Y-50676857D01*
X452507523Y-50772095D01*
X452459904Y-50914952D01*
X451888476Y-51486380D01*
X452507523Y-51486380D01*
%TO.C,SW1*%
X429398666Y-62452761D02*
X429541523Y-62500380D01*
X429779619Y-62500380D01*
X429874857Y-62452761D01*
X429922476Y-62405142D01*
X429970095Y-62309904D01*
X429970095Y-62214666D01*
X429922476Y-62119428D01*
X429874857Y-62071809D01*
X429779619Y-62024190D01*
X429589142Y-61976571D01*
X429493904Y-61928952D01*
X429446285Y-61881333D01*
X429398666Y-61786095D01*
X429398666Y-61690857D01*
X429446285Y-61595619D01*
X429493904Y-61548000D01*
X429589142Y-61500380D01*
X429827238Y-61500380D01*
X429970095Y-61548000D01*
X430303428Y-61500380D02*
X430541523Y-62500380D01*
X430732000Y-61786095D01*
X430922476Y-62500380D01*
X431160571Y-61500380D01*
X432065333Y-62500380D02*
X431493904Y-62500380D01*
X431779619Y-62500380D02*
X431779619Y-61500380D01*
X431684380Y-61643238D01*
X431589142Y-61738476D01*
X431493904Y-61786095D01*
%TO.C,R3*%
X438474380Y-55435166D02*
X437998190Y-55768500D01*
X438474380Y-56006595D02*
X437474380Y-56006595D01*
X437474380Y-55625642D01*
X437522000Y-55530404D01*
X437569619Y-55482785D01*
X437664857Y-55435166D01*
X437807714Y-55435166D01*
X437902952Y-55482785D01*
X437950571Y-55530404D01*
X437998190Y-55625642D01*
X437998190Y-56006595D01*
X437474380Y-55101833D02*
X437474380Y-54482785D01*
X437855333Y-54816119D01*
X437855333Y-54673261D01*
X437902952Y-54578023D01*
X437950571Y-54530404D01*
X438045809Y-54482785D01*
X438283904Y-54482785D01*
X438379142Y-54530404D01*
X438426761Y-54578023D01*
X438474380Y-54673261D01*
X438474380Y-54958976D01*
X438426761Y-55054214D01*
X438379142Y-55101833D01*
%TO.C,Y1*%
X425863309Y-54204440D02*
X425863309Y-54680630D01*
X425529976Y-53680630D02*
X425863309Y-54204440D01*
X426196642Y-53680630D01*
X427053785Y-54680630D02*
X426482357Y-54680630D01*
X426768071Y-54680630D02*
X426768071Y-53680630D01*
X426672833Y-53823488D01*
X426577595Y-53918726D01*
X426482357Y-53966345D01*
%TO.C,U1*%
X425090095Y-34255630D02*
X425090095Y-35065154D01*
X425137714Y-35160392D01*
X425185333Y-35208011D01*
X425280571Y-35255630D01*
X425471047Y-35255630D01*
X425566285Y-35208011D01*
X425613904Y-35160392D01*
X425661523Y-35065154D01*
X425661523Y-34255630D01*
X426661523Y-35255630D02*
X426090095Y-35255630D01*
X426375809Y-35255630D02*
X426375809Y-34255630D01*
X426280571Y-34398488D01*
X426185333Y-34493726D01*
X426090095Y-34541345D01*
%TO.C,R4*%
X415129380Y-36744916D02*
X414653190Y-37078250D01*
X415129380Y-37316345D02*
X414129380Y-37316345D01*
X414129380Y-36935392D01*
X414177000Y-36840154D01*
X414224619Y-36792535D01*
X414319857Y-36744916D01*
X414462714Y-36744916D01*
X414557952Y-36792535D01*
X414605571Y-36840154D01*
X414653190Y-36935392D01*
X414653190Y-37316345D01*
X414462714Y-35887773D02*
X415129380Y-35887773D01*
X414081761Y-36125869D02*
X414796047Y-36363964D01*
X414796047Y-35744916D01*
%TO.C,J1*%
X448142416Y-21983130D02*
X448142416Y-22697416D01*
X448094797Y-22840273D01*
X447999559Y-22935511D01*
X447856702Y-22983130D01*
X447761464Y-22983130D01*
X449142416Y-22983130D02*
X448570988Y-22983130D01*
X448856702Y-22983130D02*
X448856702Y-21983130D01*
X448761464Y-22125988D01*
X448666226Y-22221226D01*
X448570988Y-22268845D01*
%TO.C,C7*%
X435514142Y-52101166D02*
X435561761Y-52148785D01*
X435609380Y-52291642D01*
X435609380Y-52386880D01*
X435561761Y-52529738D01*
X435466523Y-52624976D01*
X435371285Y-52672595D01*
X435180809Y-52720214D01*
X435037952Y-52720214D01*
X434847476Y-52672595D01*
X434752238Y-52624976D01*
X434657000Y-52529738D01*
X434609380Y-52386880D01*
X434609380Y-52291642D01*
X434657000Y-52148785D01*
X434704619Y-52101166D01*
X434609380Y-51767833D02*
X434609380Y-51101166D01*
X435609380Y-51529738D01*
%TO.C,C6*%
X437795333Y-43439142D02*
X437747714Y-43486761D01*
X437604857Y-43534380D01*
X437509619Y-43534380D01*
X437366761Y-43486761D01*
X437271523Y-43391523D01*
X437223904Y-43296285D01*
X437176285Y-43105809D01*
X437176285Y-42962952D01*
X437223904Y-42772476D01*
X437271523Y-42677238D01*
X437366761Y-42582000D01*
X437509619Y-42534380D01*
X437604857Y-42534380D01*
X437747714Y-42582000D01*
X437795333Y-42629619D01*
X438652476Y-42534380D02*
X438462000Y-42534380D01*
X438366761Y-42582000D01*
X438319142Y-42629619D01*
X438223904Y-42772476D01*
X438176285Y-42962952D01*
X438176285Y-43343904D01*
X438223904Y-43439142D01*
X438271523Y-43486761D01*
X438366761Y-43534380D01*
X438557238Y-43534380D01*
X438652476Y-43486761D01*
X438700095Y-43439142D01*
X438747714Y-43343904D01*
X438747714Y-43105809D01*
X438700095Y-43010571D01*
X438652476Y-42962952D01*
X438557238Y-42915333D01*
X438366761Y-42915333D01*
X438271523Y-42962952D01*
X438223904Y-43010571D01*
X438176285Y-43105809D01*
%TO.C,C5*%
X415004142Y-47026166D02*
X415051761Y-47073785D01*
X415099380Y-47216642D01*
X415099380Y-47311880D01*
X415051761Y-47454738D01*
X414956523Y-47549976D01*
X414861285Y-47597595D01*
X414670809Y-47645214D01*
X414527952Y-47645214D01*
X414337476Y-47597595D01*
X414242238Y-47549976D01*
X414147000Y-47454738D01*
X414099380Y-47311880D01*
X414099380Y-47216642D01*
X414147000Y-47073785D01*
X414194619Y-47026166D01*
X414099380Y-46121404D02*
X414099380Y-46597595D01*
X414575571Y-46645214D01*
X414527952Y-46597595D01*
X414480333Y-46502357D01*
X414480333Y-46264261D01*
X414527952Y-46169023D01*
X414575571Y-46121404D01*
X414670809Y-46073785D01*
X414908904Y-46073785D01*
X415004142Y-46121404D01*
X415051761Y-46169023D01*
X415099380Y-46264261D01*
X415099380Y-46502357D01*
X415051761Y-46597595D01*
X415004142Y-46645214D01*
%TO.C,C4*%
X432651642Y-52101166D02*
X432699261Y-52148785D01*
X432746880Y-52291642D01*
X432746880Y-52386880D01*
X432699261Y-52529738D01*
X432604023Y-52624976D01*
X432508785Y-52672595D01*
X432318309Y-52720214D01*
X432175452Y-52720214D01*
X431984976Y-52672595D01*
X431889738Y-52624976D01*
X431794500Y-52529738D01*
X431746880Y-52386880D01*
X431746880Y-52291642D01*
X431794500Y-52148785D01*
X431842119Y-52101166D01*
X432080214Y-51244023D02*
X432746880Y-51244023D01*
X431699261Y-51482119D02*
X432413547Y-51720214D01*
X432413547Y-51101166D01*
%TO.C,C3*%
X421587142Y-54456666D02*
X421634761Y-54504285D01*
X421682380Y-54647142D01*
X421682380Y-54742380D01*
X421634761Y-54885238D01*
X421539523Y-54980476D01*
X421444285Y-55028095D01*
X421253809Y-55075714D01*
X421110952Y-55075714D01*
X420920476Y-55028095D01*
X420825238Y-54980476D01*
X420730000Y-54885238D01*
X420682380Y-54742380D01*
X420682380Y-54647142D01*
X420730000Y-54504285D01*
X420777619Y-54456666D01*
X420682380Y-54123333D02*
X420682380Y-53504285D01*
X421063333Y-53837619D01*
X421063333Y-53694761D01*
X421110952Y-53599523D01*
X421158571Y-53551904D01*
X421253809Y-53504285D01*
X421491904Y-53504285D01*
X421587142Y-53551904D01*
X421634761Y-53599523D01*
X421682380Y-53694761D01*
X421682380Y-53980476D01*
X421634761Y-54075714D01*
X421587142Y-54123333D01*
%TO.C,C1*%
X432969333Y-32713142D02*
X432921714Y-32760761D01*
X432778857Y-32808380D01*
X432683619Y-32808380D01*
X432540761Y-32760761D01*
X432445523Y-32665523D01*
X432397904Y-32570285D01*
X432350285Y-32379809D01*
X432350285Y-32236952D01*
X432397904Y-32046476D01*
X432445523Y-31951238D01*
X432540761Y-31856000D01*
X432683619Y-31808380D01*
X432778857Y-31808380D01*
X432921714Y-31856000D01*
X432969333Y-31903619D01*
X433921714Y-32808380D02*
X433350285Y-32808380D01*
X433636000Y-32808380D02*
X433636000Y-31808380D01*
X433540761Y-31951238D01*
X433445523Y-32046476D01*
X433350285Y-32094095D01*
D13*
%TO.C,R1*%
X428017000Y-33096564D02*
X428017000Y-32642436D01*
X429487000Y-33096564D02*
X429487000Y-32642436D01*
%TO.C,LED3*%
X421254000Y-25266000D02*
X428554000Y-25266000D01*
X421254000Y-30766000D02*
X428554000Y-30766000D01*
X428554000Y-30766000D02*
X428554000Y-29616000D01*
%TO.C,LED2*%
X401254000Y-25266000D02*
X408554000Y-25266000D01*
X401254000Y-30766000D02*
X408554000Y-30766000D01*
X408554000Y-30766000D02*
X408554000Y-29616000D01*
%TO.C,LED1*%
X381254000Y-25266000D02*
X388554000Y-25266000D01*
X381254000Y-30766000D02*
X388554000Y-30766000D01*
X388554000Y-30766000D02*
X388554000Y-29616000D01*
%TO.C,C10*%
X433592748Y-27281000D02*
X434115252Y-27281000D01*
X433592748Y-28751000D02*
X434115252Y-28751000D01*
%TO.C,C9*%
X391692748Y-27281000D02*
X392215252Y-27281000D01*
X391692748Y-28751000D02*
X392215252Y-28751000D01*
%TO.C,C8*%
X411692748Y-27281000D02*
X412215252Y-27281000D01*
X411692748Y-28751000D02*
X412215252Y-28751000D01*
%TD*%
M02*
