%TF.GenerationSoftware,KiCad,Pcbnew,5.99.0-unknown-ae51e60f70~131~ubuntu21.10.1*%
%TF.CreationDate,2021-10-26T00:01:24-04:00*%
%TF.ProjectId,aek,61656b2e-6b69-4636-9164-5f7063625858,rev?*%
%TF.SameCoordinates,Original*%
%TF.FileFunction,Soldermask,Bot*%
%TF.FilePolarity,Negative*%
%FSLAX46Y46*%
G04 Gerber Fmt 4.6, Leading zero omitted, Abs format (unit mm)*
G04 Created by KiCad (PCBNEW 5.99.0-unknown-ae51e60f70~131~ubuntu21.10.1) date 2021-10-26 00:01:24*
%MOMM*%
%LPD*%
G01*
G04 APERTURE LIST*
G04 Aperture macros list*
%AMRoundRect*
0 Rectangle with rounded corners*
0 $1 Rounding radius*
0 $2 $3 $4 $5 $6 $7 $8 $9 X,Y pos of 4 corners*
0 Add a 4 corners polygon primitive as box body*
4,1,4,$2,$3,$4,$5,$6,$7,$8,$9,$2,$3,0*
0 Add four circle primitives for the rounded corners*
1,1,$1+$1,$2,$3*
1,1,$1+$1,$4,$5*
1,1,$1+$1,$6,$7*
1,1,$1+$1,$8,$9*
0 Add four rect primitives between the rounded corners*
20,1,$1+$1,$2,$3,$4,$5,0*
20,1,$1+$1,$4,$5,$6,$7,0*
20,1,$1+$1,$6,$7,$8,$9,0*
20,1,$1+$1,$8,$9,$2,$3,0*%
%AMHorizOval*
0 Thick line with rounded ends*
0 $1 width*
0 $2 $3 position (X,Y) of the first rounded end (center of the circle)*
0 $4 $5 position (X,Y) of the second rounded end (center of the circle)*
0 Add line between two ends*
20,1,$1,$2,$3,$4,$5,0*
0 Add two circle primitives to create the rounded ends*
1,1,$1,$2,$3*
1,1,$1,$4,$5*%
G04 Aperture macros list end*
%TA.AperFunction,Profile*%
%ADD10C,0.150000*%
%TD*%
%TA.AperFunction,Profile*%
%ADD11C,0.050000*%
%TD*%
%ADD12O,1.070000X1.800000*%
%ADD13R,1.070000X1.800000*%
%ADD14C,9.000000*%
%ADD15C,3.987800*%
%ADD16C,1.750000*%
%ADD17HorizOval,2.250000X0.655001X0.730000X-0.655001X-0.730000X0*%
%ADD18C,2.250000*%
%ADD19HorizOval,2.250000X0.020000X0.290000X-0.020000X-0.290000X0*%
%ADD20C,3.048000*%
%ADD21HorizOval,2.250000X-0.730000X0.655001X0.730000X-0.655001X0*%
%ADD22HorizOval,2.250000X-0.290000X0.020000X0.290000X-0.020000X0*%
%ADD23HorizOval,2.250000X-0.655001X-0.730000X0.655001X0.730000X0*%
%ADD24HorizOval,2.250000X-0.020000X-0.290000X0.020000X0.290000X0*%
%ADD25R,1.200000X0.900000*%
%ADD26RoundRect,0.250000X0.250000X0.475000X-0.250000X0.475000X-0.250000X-0.475000X0.250000X-0.475000X0*%
%ADD27RoundRect,0.250000X-0.450000X0.262500X-0.450000X-0.262500X0.450000X-0.262500X0.450000X0.262500X0*%
%ADD28R,1.800000X1.100000*%
%ADD29RoundRect,0.250000X-0.475000X0.250000X-0.475000X-0.250000X0.475000X-0.250000X0.475000X0.250000X0*%
%ADD30RoundRect,0.250000X-0.250000X-0.475000X0.250000X-0.475000X0.250000X0.475000X-0.250000X0.475000X0*%
%ADD31RoundRect,0.250000X0.475000X-0.250000X0.475000X0.250000X-0.475000X0.250000X-0.475000X-0.250000X0*%
%ADD32RoundRect,0.150000X-0.150000X-0.625000X0.150000X-0.625000X0.150000X0.625000X-0.150000X0.625000X0*%
%ADD33RoundRect,0.250000X-0.350000X-0.650000X0.350000X-0.650000X0.350000X0.650000X-0.350000X0.650000X0*%
%ADD34RoundRect,0.250000X0.450000X-0.262500X0.450000X0.262500X-0.450000X0.262500X-0.450000X-0.262500X0*%
%ADD35RoundRect,0.250000X0.262500X0.450000X-0.262500X0.450000X-0.262500X-0.450000X0.262500X-0.450000X0*%
%ADD36R,1.500000X0.550000*%
%ADD37RoundRect,0.062500X0.475000X0.062500X-0.475000X0.062500X-0.475000X-0.062500X0.475000X-0.062500X0*%
%ADD38RoundRect,0.062500X0.062500X0.475000X-0.062500X0.475000X-0.062500X-0.475000X0.062500X-0.475000X0*%
%ADD39R,0.550000X1.500000*%
%ADD40R,5.200000X5.200000*%
%ADD41R,1.400000X1.200000*%
%ADD42RoundRect,0.250000X-0.262500X-0.450000X0.262500X-0.450000X0.262500X0.450000X-0.262500X0.450000X0*%
%ADD43R,2.200000X2.200000*%
G04 APERTURE END LIST*
D10*
X456882500Y-153432000D02*
G75*
G02*
X453834500Y-156480000I-3048000J0D01*
G01*
X18986500Y-17780000D02*
G75*
G02*
X22034500Y-14732000I3048000J0D01*
G01*
X22034500Y-156480000D02*
G75*
G02*
X18986500Y-153432000I0J3048000D01*
G01*
D11*
X22034500Y-156480000D02*
X453834500Y-156480000D01*
X456882500Y-153432000D02*
X456882500Y-17780000D01*
X18986500Y-17780000D02*
X18986500Y-153432000D01*
X172986500Y-53980000D02*
G75*
G03*
X172986500Y-53980000I-7000000J0D01*
G01*
X148236500Y-55850000D02*
G75*
G03*
X148236500Y-55850000I-9250000J0D01*
G01*
X248692001Y-14731999D02*
X22034500Y-14732000D01*
X262407999Y-14731999D02*
X453834500Y-14732000D01*
X108885512Y-56400000D02*
G75*
G03*
X108885512Y-56400000I-8500000J0D01*
G01*
X262407998Y-14731999D02*
G75*
G02*
X248692001Y-14731999I-6857998J6496633D01*
G01*
X316886500Y-53980000D02*
G75*
G03*
X316886500Y-53980000I-7000000J0D01*
G01*
X383985512Y-56830000D02*
G75*
G03*
X383985512Y-56830000I-8500000J0D01*
G01*
D10*
X453834500Y-14732000D02*
G75*
G02*
X456882500Y-17780000I0J-3048000D01*
G01*
D12*
%TO.C,LED1*%
X385539000Y-28016000D03*
X382999000Y-28016000D03*
D13*
X384269000Y-28016000D03*
D12*
X386809000Y-28016000D03*
%TD*%
%TO.C,LED2*%
X406809000Y-28016000D03*
D13*
X404269000Y-28016000D03*
D12*
X402999000Y-28016000D03*
X405539000Y-28016000D03*
%TD*%
%TO.C,LED3*%
X425539000Y-28016000D03*
X422999000Y-28016000D03*
D13*
X424269000Y-28016000D03*
D12*
X426809000Y-28016000D03*
%TD*%
D14*
%TO.C,H2*%
X452698000Y-52734000D03*
%TD*%
D15*
%TO.C,SW_0*%
X219837000Y-72707500D03*
D16*
X224917000Y-72707500D03*
X214757000Y-72707500D03*
D17*
X216682001Y-69437500D03*
D18*
X217337000Y-68707500D03*
X222377000Y-67627500D03*
D19*
X222357000Y-67917500D03*
%TD*%
D15*
%TO.C,SW_1*%
X48387000Y-72707500D03*
D16*
X43307000Y-72707500D03*
X53467000Y-72707500D03*
D17*
X45232001Y-69437500D03*
D18*
X45887000Y-68707500D03*
X50927000Y-67627500D03*
D19*
X50907000Y-67917500D03*
%TD*%
D15*
%TO.C,SW_2*%
X67437000Y-72707500D03*
D16*
X62357000Y-72707500D03*
X72517000Y-72707500D03*
D18*
X64937000Y-68707500D03*
D17*
X64282001Y-69437500D03*
D19*
X69957000Y-67917500D03*
D18*
X69977000Y-67627500D03*
%TD*%
D16*
%TO.C,SW_3*%
X81407000Y-72707500D03*
D15*
X86487000Y-72707500D03*
D16*
X91567000Y-72707500D03*
D17*
X83332001Y-69437500D03*
D18*
X83987000Y-68707500D03*
X89027000Y-67627500D03*
D19*
X89007000Y-67917500D03*
%TD*%
D15*
%TO.C,SW_6*%
X143637000Y-72707500D03*
D16*
X138557000Y-72707500D03*
X148717000Y-72707500D03*
D17*
X140482001Y-69437500D03*
D18*
X141137000Y-68707500D03*
D19*
X146157000Y-67917500D03*
D18*
X146177000Y-67627500D03*
%TD*%
D16*
%TO.C,SW_7*%
X167767000Y-72707500D03*
D15*
X162687000Y-72707500D03*
D16*
X157607000Y-72707500D03*
D17*
X159532001Y-69437500D03*
D18*
X160187000Y-68707500D03*
X165227000Y-67627500D03*
D19*
X165207000Y-67917500D03*
%TD*%
D15*
%TO.C,SW_8*%
X181737000Y-72707500D03*
D16*
X186817000Y-72707500D03*
X176657000Y-72707500D03*
D17*
X178582001Y-69437500D03*
D18*
X179237000Y-68707500D03*
X184277000Y-67627500D03*
D19*
X184257000Y-67917500D03*
%TD*%
D16*
%TO.C,SW_9*%
X195707000Y-72707500D03*
D15*
X200787000Y-72707500D03*
D16*
X205867000Y-72707500D03*
D18*
X198287000Y-68707500D03*
D17*
X197632001Y-69437500D03*
D18*
X203327000Y-67627500D03*
D19*
X203307000Y-67917500D03*
%TD*%
D15*
%TO.C,SW_A1*%
X62674500Y-110807500D03*
D16*
X67754500Y-110807500D03*
X57594500Y-110807500D03*
D18*
X60174500Y-106807500D03*
D17*
X59519501Y-107537500D03*
D19*
X65194500Y-106017500D03*
D18*
X65214500Y-105727500D03*
%TD*%
D16*
%TO.C,SW_APOS1*%
X258254500Y-110807500D03*
D15*
X253174500Y-110807500D03*
D16*
X248094500Y-110807500D03*
D18*
X250674500Y-106807500D03*
D17*
X250019501Y-107537500D03*
D19*
X255694500Y-106017500D03*
D18*
X255714500Y-105727500D03*
%TD*%
D16*
%TO.C,SW_B1*%
X153479500Y-129857500D03*
X143319500Y-129857500D03*
D15*
X148399500Y-129857500D03*
D18*
X145899500Y-125857500D03*
D17*
X145244501Y-126587500D03*
D19*
X150919500Y-125067500D03*
D18*
X150939500Y-124777500D03*
%TD*%
D16*
%TO.C,SW_BACKSP1*%
X291592000Y-72707500D03*
D20*
X274574000Y-65722500D03*
D15*
X274574000Y-80962500D03*
X286512000Y-72707500D03*
D16*
X281432000Y-72707500D03*
D20*
X298450000Y-65722500D03*
D15*
X298450000Y-80962500D03*
D18*
X284012000Y-68707500D03*
D17*
X283357001Y-69437500D03*
D19*
X289032000Y-67917500D03*
D18*
X289052000Y-67627500D03*
%TD*%
D16*
%TO.C,SW_BKSLS1*%
X296354500Y-91757500D03*
D15*
X291274500Y-91757500D03*
D16*
X286194500Y-91757500D03*
D18*
X288774500Y-87757500D03*
D17*
X288119501Y-88487500D03*
D19*
X293794500Y-86967500D03*
D18*
X293814500Y-86677500D03*
%TD*%
D16*
%TO.C,SW_C1*%
X115379500Y-129857500D03*
X105219500Y-129857500D03*
D15*
X110299500Y-129857500D03*
D18*
X107799500Y-125857500D03*
D17*
X107144501Y-126587500D03*
D18*
X112839500Y-124777500D03*
D19*
X112819500Y-125067500D03*
%TD*%
D16*
%TO.C,SW_CAP1*%
X41560750Y-110807500D03*
D15*
X36480750Y-110807500D03*
D16*
X31400750Y-110807500D03*
D18*
X33980750Y-106807500D03*
D17*
X33325751Y-107537500D03*
D19*
X39000750Y-106017500D03*
D18*
X39020750Y-105727500D03*
%TD*%
D15*
%TO.C,SW_COLON1*%
X234124500Y-110807500D03*
D16*
X229044500Y-110807500D03*
X239204500Y-110807500D03*
D17*
X230969501Y-107537500D03*
D18*
X231624500Y-106807500D03*
X236664500Y-105727500D03*
D19*
X236644500Y-106017500D03*
%TD*%
D15*
%TO.C,SW_COMMA1*%
X205549500Y-129857500D03*
D16*
X200469500Y-129857500D03*
X210629500Y-129857500D03*
D18*
X203049500Y-125857500D03*
D17*
X202394501Y-126587500D03*
D18*
X208089500Y-124777500D03*
D19*
X208069500Y-125067500D03*
%TD*%
D16*
%TO.C,SW_D1*%
X95694500Y-110807500D03*
D15*
X100774500Y-110807500D03*
D16*
X105854500Y-110807500D03*
D17*
X97619501Y-107537500D03*
D18*
X98274500Y-106807500D03*
D19*
X103294500Y-106017500D03*
D18*
X103314500Y-105727500D03*
%TD*%
D15*
%TO.C,SW_DEL1*%
X323659500Y-91757500D03*
D16*
X328739500Y-91757500D03*
X318579500Y-91757500D03*
D17*
X320504501Y-88487500D03*
D18*
X321159500Y-87757500D03*
D19*
X326179500Y-86967500D03*
D18*
X326199500Y-86677500D03*
%TD*%
D16*
%TO.C,SW_DOWN1*%
X337629500Y-148907500D03*
X347789500Y-148907500D03*
D15*
X342709500Y-148907500D03*
D18*
X340209500Y-144907500D03*
D17*
X339554501Y-145637500D03*
D19*
X345229500Y-144117500D03*
D18*
X345249500Y-143827500D03*
%TD*%
D15*
%TO.C,SW_E1*%
X96012000Y-91757500D03*
D16*
X90932000Y-91757500D03*
X101092000Y-91757500D03*
D18*
X93512000Y-87757500D03*
D17*
X92857001Y-88487500D03*
D19*
X98532000Y-86967500D03*
D18*
X98552000Y-86677500D03*
%TD*%
D16*
%TO.C,SW_END1*%
X347789500Y-91757500D03*
D15*
X342709500Y-91757500D03*
D16*
X337629500Y-91757500D03*
D18*
X340209500Y-87757500D03*
D17*
X339554501Y-88487500D03*
D18*
X345249500Y-86677500D03*
D19*
X345229500Y-86967500D03*
%TD*%
D20*
%TO.C,SW_ENTER1*%
X272192750Y-103822500D03*
D16*
X279050750Y-110807500D03*
D15*
X284130750Y-110807500D03*
X296068750Y-119062500D03*
D20*
X296068750Y-103822500D03*
D16*
X289210750Y-110807500D03*
D15*
X272192750Y-119062500D03*
D18*
X281630750Y-106807500D03*
D17*
X280975751Y-107537500D03*
D18*
X286670750Y-105727500D03*
D19*
X286650750Y-106017500D03*
%TD*%
D16*
%TO.C,SW_EQ1*%
X252857000Y-72707500D03*
D15*
X257937000Y-72707500D03*
D16*
X263017000Y-72707500D03*
D17*
X254782001Y-69437500D03*
D18*
X255437000Y-68707500D03*
X260477000Y-67627500D03*
D19*
X260457000Y-67917500D03*
%TD*%
D15*
%TO.C,SW_ESC1*%
X29337000Y-34607500D03*
D16*
X29337000Y-29527500D03*
X29337000Y-39687500D03*
D18*
X25337000Y-37107500D03*
D21*
X26067000Y-37762499D03*
D18*
X24257000Y-32067500D03*
D22*
X24547000Y-32087500D03*
%TD*%
D15*
%TO.C,SW_F1*%
X67437000Y-34607500D03*
D16*
X67437000Y-39687500D03*
X67437000Y-29527500D03*
D18*
X63437000Y-37107500D03*
D21*
X64167000Y-37762499D03*
D22*
X62647000Y-32087500D03*
D18*
X62357000Y-32067500D03*
%TD*%
D16*
%TO.C,SW_F2*%
X86487000Y-29527500D03*
X86487000Y-39687500D03*
D15*
X86487000Y-34607500D03*
D18*
X82487000Y-37107500D03*
D21*
X83217000Y-37762499D03*
D18*
X81407000Y-32067500D03*
D22*
X81697000Y-32087500D03*
%TD*%
D16*
%TO.C,SW_F3*%
X105537000Y-29527500D03*
X105537000Y-39687500D03*
D15*
X105537000Y-34607500D03*
D18*
X101537000Y-37107500D03*
D21*
X102267000Y-37762499D03*
D18*
X100457000Y-32067500D03*
D22*
X100747000Y-32087500D03*
%TD*%
D16*
%TO.C,SW_F4*%
X124587000Y-39687500D03*
D15*
X124587000Y-34607500D03*
D16*
X124587000Y-29527500D03*
D18*
X120587000Y-37107500D03*
D21*
X121317000Y-37762499D03*
D22*
X119797000Y-32087500D03*
D18*
X119507000Y-32067500D03*
%TD*%
D16*
%TO.C,SW_F5*%
X153162000Y-39687500D03*
D15*
X153162000Y-34607500D03*
D16*
X153162000Y-29527500D03*
D18*
X149162000Y-37107500D03*
D21*
X149892000Y-37762499D03*
D22*
X148372000Y-32087500D03*
D18*
X148082000Y-32067500D03*
%TD*%
D15*
%TO.C,SW_F6*%
X172212000Y-34607500D03*
D16*
X172212000Y-39687500D03*
X172212000Y-29527500D03*
D18*
X168212000Y-37107500D03*
D21*
X168942000Y-37762499D03*
D22*
X167422000Y-32087500D03*
D18*
X167132000Y-32067500D03*
%TD*%
D16*
%TO.C,SW_F7*%
X191262000Y-29527500D03*
X191262000Y-39687500D03*
D15*
X191262000Y-34607500D03*
D18*
X187262000Y-37107500D03*
D21*
X187992000Y-37762499D03*
D18*
X186182000Y-32067500D03*
D22*
X186472000Y-32087500D03*
%TD*%
D16*
%TO.C,SW_F8*%
X210312000Y-39687500D03*
D15*
X210312000Y-34607500D03*
D16*
X210312000Y-29527500D03*
D21*
X207042000Y-37762499D03*
D18*
X206312000Y-37107500D03*
D22*
X205522000Y-32087500D03*
D18*
X205232000Y-32067500D03*
%TD*%
D16*
%TO.C,SW_F9*%
X238887000Y-29527500D03*
D15*
X238887000Y-34607500D03*
D16*
X238887000Y-39687500D03*
D21*
X235617000Y-37762499D03*
D18*
X234887000Y-37107500D03*
D22*
X234097000Y-32087500D03*
D18*
X233807000Y-32067500D03*
%TD*%
D16*
%TO.C,SW_F10*%
X257937000Y-29527500D03*
D15*
X257937000Y-34607500D03*
D16*
X257937000Y-39687500D03*
D18*
X253937000Y-37107500D03*
D21*
X254667000Y-37762499D03*
D22*
X253147000Y-32087500D03*
D18*
X252857000Y-32067500D03*
%TD*%
D16*
%TO.C,SW_F11*%
X276987000Y-39687500D03*
X276987000Y-29527500D03*
D15*
X276987000Y-34607500D03*
D18*
X272987000Y-37107500D03*
D21*
X273717000Y-37762499D03*
D18*
X271907000Y-32067500D03*
D22*
X272197000Y-32087500D03*
%TD*%
D15*
%TO.C,SW_F12*%
X296037000Y-34607500D03*
D16*
X296037000Y-39687500D03*
X296037000Y-29527500D03*
D18*
X292037000Y-37107500D03*
D21*
X292767000Y-37762499D03*
D18*
X290957000Y-32067500D03*
D22*
X291247000Y-32087500D03*
%TD*%
D16*
%TO.C,SW_F13*%
X114744500Y-110807500D03*
X124904500Y-110807500D03*
D15*
X119824500Y-110807500D03*
D18*
X117324500Y-106807500D03*
D17*
X116669501Y-107537500D03*
D18*
X122364500Y-105727500D03*
D19*
X122344500Y-106017500D03*
%TD*%
D16*
%TO.C,SW_G1*%
X143954500Y-110807500D03*
X133794500Y-110807500D03*
D15*
X138874500Y-110807500D03*
D17*
X135719501Y-107537500D03*
D18*
X136374500Y-106807500D03*
X141414500Y-105727500D03*
D19*
X141394500Y-106017500D03*
%TD*%
D15*
%TO.C,SW_H1*%
X157924500Y-110807500D03*
D16*
X163004500Y-110807500D03*
X152844500Y-110807500D03*
D18*
X155424500Y-106807500D03*
D17*
X154769501Y-107537500D03*
D19*
X160444500Y-106017500D03*
D18*
X160464500Y-105727500D03*
%TD*%
D16*
%TO.C,SW_HOME1*%
X337629500Y-72707500D03*
D15*
X342709500Y-72707500D03*
D16*
X347789500Y-72707500D03*
D18*
X340209500Y-68707500D03*
D17*
X339554501Y-69437500D03*
D19*
X345229500Y-67917500D03*
D18*
X345249500Y-67627500D03*
%TD*%
D15*
%TO.C,SW_I1*%
X191262000Y-91757500D03*
D16*
X196342000Y-91757500D03*
X186182000Y-91757500D03*
D17*
X188107001Y-88487500D03*
D18*
X188762000Y-87757500D03*
D19*
X193782000Y-86967500D03*
D18*
X193802000Y-86677500D03*
%TD*%
D16*
%TO.C,SW_INS1*%
X318579500Y-72707500D03*
D15*
X323659500Y-72707500D03*
D16*
X328739500Y-72707500D03*
D17*
X320504501Y-69437500D03*
D18*
X321159500Y-68707500D03*
X326199500Y-67627500D03*
D19*
X326179500Y-67917500D03*
%TD*%
D16*
%TO.C,SW_J1*%
X171894500Y-110807500D03*
D15*
X176974500Y-110807500D03*
D16*
X182054500Y-110807500D03*
D18*
X174474500Y-106807500D03*
D17*
X173819501Y-107537500D03*
D19*
X179494500Y-106017500D03*
D18*
X179514500Y-105727500D03*
%TD*%
D16*
%TO.C,SW_K1*%
X201104500Y-110807500D03*
X190944500Y-110807500D03*
D15*
X196024500Y-110807500D03*
D17*
X192869501Y-107537500D03*
D18*
X193524500Y-106807500D03*
X198564500Y-105727500D03*
D19*
X198544500Y-106017500D03*
%TD*%
D20*
%TO.C,SW_KP0*%
X410845000Y-155892500D03*
D16*
X393827000Y-148907500D03*
D15*
X386969000Y-140652500D03*
X398907000Y-148907500D03*
D16*
X403987000Y-148907500D03*
D15*
X410845000Y-140652500D03*
D20*
X386969000Y-155892500D03*
D18*
X396407000Y-144907500D03*
D17*
X395752001Y-145637500D03*
D19*
X401427000Y-144117500D03*
D18*
X401447000Y-143827500D03*
%TD*%
D15*
%TO.C,SW_KP1*%
X389382000Y-129857500D03*
D16*
X384302000Y-129857500D03*
X394462000Y-129857500D03*
D18*
X386882000Y-125857500D03*
D17*
X386227001Y-126587500D03*
D19*
X391902000Y-125067500D03*
D18*
X391922000Y-124777500D03*
%TD*%
D16*
%TO.C,SW_KP2*%
X413512000Y-129857500D03*
D15*
X408432000Y-129857500D03*
D16*
X403352000Y-129857500D03*
D18*
X405932000Y-125857500D03*
D17*
X405277001Y-126587500D03*
D18*
X410972000Y-124777500D03*
D19*
X410952000Y-125067500D03*
%TD*%
D16*
%TO.C,SW_KP3*%
X432562000Y-129857500D03*
X422402000Y-129857500D03*
D15*
X427482000Y-129857500D03*
D17*
X424327001Y-126587500D03*
D18*
X424982000Y-125857500D03*
D19*
X430002000Y-125067500D03*
D18*
X430022000Y-124777500D03*
%TD*%
D16*
%TO.C,SW_KP4*%
X384302000Y-110807500D03*
D15*
X389382000Y-110807500D03*
D16*
X394462000Y-110807500D03*
D17*
X386227001Y-107537500D03*
D18*
X386882000Y-106807500D03*
X391922000Y-105727500D03*
D19*
X391902000Y-106017500D03*
%TD*%
D16*
%TO.C,SW_KP5*%
X413512000Y-110807500D03*
D15*
X408432000Y-110807500D03*
D16*
X403352000Y-110807500D03*
D18*
X405932000Y-106807500D03*
D17*
X405277001Y-107537500D03*
D19*
X410952000Y-106017500D03*
D18*
X410972000Y-105727500D03*
%TD*%
D16*
%TO.C,SW_KP6*%
X432562000Y-110807500D03*
X422402000Y-110807500D03*
D15*
X427482000Y-110807500D03*
D18*
X424982000Y-106807500D03*
D17*
X424327001Y-107537500D03*
D18*
X430022000Y-105727500D03*
D19*
X430002000Y-106017500D03*
%TD*%
D16*
%TO.C,SW_KP7*%
X384302000Y-91757500D03*
D15*
X389382000Y-91757500D03*
D16*
X394462000Y-91757500D03*
D17*
X386227001Y-88487500D03*
D18*
X386882000Y-87757500D03*
D19*
X391902000Y-86967500D03*
D18*
X391922000Y-86677500D03*
%TD*%
D15*
%TO.C,SW_KP8*%
X408432000Y-91757500D03*
D16*
X413512000Y-91757500D03*
X403352000Y-91757500D03*
D17*
X405277001Y-88487500D03*
D18*
X405932000Y-87757500D03*
X410972000Y-86677500D03*
D19*
X410952000Y-86967500D03*
%TD*%
D16*
%TO.C,SW_KP9*%
X422402000Y-91757500D03*
D15*
X427482000Y-91757500D03*
D16*
X432562000Y-91757500D03*
D18*
X424982000Y-87757500D03*
D17*
X424327001Y-88487500D03*
D19*
X430002000Y-86967500D03*
D18*
X430022000Y-86677500D03*
%TD*%
D15*
%TO.C,SW_KPASTR1*%
X446532000Y-72707500D03*
D16*
X441452000Y-72707500D03*
X451612000Y-72707500D03*
D17*
X443377001Y-69437500D03*
D18*
X444032000Y-68707500D03*
D19*
X449052000Y-67917500D03*
D18*
X449072000Y-67627500D03*
%TD*%
D15*
%TO.C,SW_KPENTER1*%
X446532000Y-139382500D03*
D16*
X446532000Y-134302500D03*
D15*
X438277000Y-151320500D03*
D16*
X446532000Y-144462500D03*
D15*
X438277000Y-127444500D03*
D20*
X453517000Y-127444500D03*
X453517000Y-151320500D03*
D18*
X442532000Y-141882500D03*
D21*
X443262000Y-142537499D03*
D18*
X441452000Y-136842500D03*
D22*
X441742000Y-136862500D03*
%TD*%
D16*
%TO.C,SW_KPEQ1*%
X413512000Y-72707500D03*
D15*
X408432000Y-72707500D03*
D16*
X403352000Y-72707500D03*
D17*
X405277001Y-69437500D03*
D18*
X405932000Y-68707500D03*
X410972000Y-67627500D03*
D19*
X410952000Y-67917500D03*
%TD*%
D16*
%TO.C,SW_KPMINUS1*%
X441452000Y-91757500D03*
D15*
X446532000Y-91757500D03*
D16*
X451612000Y-91757500D03*
D18*
X444032000Y-87757500D03*
D17*
X443377001Y-88487500D03*
D18*
X449072000Y-86677500D03*
D19*
X449052000Y-86967500D03*
%TD*%
D16*
%TO.C,SW_KPPER1*%
X422402000Y-148907500D03*
D15*
X427482000Y-148907500D03*
D16*
X432562000Y-148907500D03*
D18*
X424982000Y-144907500D03*
D17*
X424327001Y-145637500D03*
D18*
X430022000Y-143827500D03*
D19*
X430002000Y-144117500D03*
%TD*%
D15*
%TO.C,SW_KPPLUS1*%
X446532000Y-110807500D03*
D16*
X441452000Y-110807500D03*
X451612000Y-110807500D03*
D18*
X444032000Y-106807500D03*
D17*
X443377001Y-107537500D03*
D19*
X449052000Y-106017500D03*
D18*
X449072000Y-105727500D03*
%TD*%
D16*
%TO.C,SW_L1*%
X220154500Y-110807500D03*
X209994500Y-110807500D03*
D15*
X215074500Y-110807500D03*
D17*
X211919501Y-107537500D03*
D18*
X212574500Y-106807500D03*
X217614500Y-105727500D03*
D19*
X217594500Y-106017500D03*
%TD*%
D16*
%TO.C,SW_LALT1*%
X81407000Y-148907500D03*
D15*
X86487000Y-148907500D03*
D16*
X91567000Y-148907500D03*
D17*
X83332001Y-145637500D03*
D18*
X83987000Y-144907500D03*
X89027000Y-143827500D03*
D19*
X89007000Y-144117500D03*
%TD*%
D16*
%TO.C,SW_LBRAC1*%
X253492000Y-91757500D03*
X243332000Y-91757500D03*
D15*
X248412000Y-91757500D03*
D17*
X245257001Y-88487500D03*
D18*
X245912000Y-87757500D03*
D19*
X250932000Y-86967500D03*
D18*
X250952000Y-86677500D03*
%TD*%
D16*
%TO.C,SW_LCTR1*%
X29019500Y-148907500D03*
X39179500Y-148907500D03*
D15*
X34099500Y-148907500D03*
D18*
X31599500Y-144907500D03*
D17*
X30944501Y-145637500D03*
D19*
X36619500Y-144117500D03*
D18*
X36639500Y-143827500D03*
%TD*%
D15*
%TO.C,SW_LEFT1*%
X323659500Y-148907500D03*
D16*
X328739500Y-148907500D03*
X318579500Y-148907500D03*
D18*
X321159500Y-144907500D03*
D17*
X320504501Y-145637500D03*
D19*
X326179500Y-144117500D03*
D18*
X326199500Y-143827500D03*
%TD*%
D15*
%TO.C,SW_LMOD1*%
X60293250Y-148907500D03*
D16*
X65373250Y-148907500D03*
X55213250Y-148907500D03*
D17*
X57138251Y-145637500D03*
D18*
X57793250Y-144907500D03*
X62833250Y-143827500D03*
D19*
X62813250Y-144117500D03*
%TD*%
D20*
%TO.C,SW_LSH1*%
X29305250Y-122872500D03*
X53181250Y-122872500D03*
D16*
X36163250Y-129857500D03*
D15*
X41243250Y-129857500D03*
D16*
X46323250Y-129857500D03*
D15*
X53181250Y-138112500D03*
X29305250Y-138112500D03*
D17*
X38088251Y-126587500D03*
D18*
X38743250Y-125857500D03*
X43783250Y-124777500D03*
D19*
X43763250Y-125067500D03*
%TD*%
D16*
%TO.C,SW_M1*%
X191579500Y-129857500D03*
D15*
X186499500Y-129857500D03*
D16*
X181419500Y-129857500D03*
D18*
X183999500Y-125857500D03*
D17*
X183344501Y-126587500D03*
D18*
X189039500Y-124777500D03*
D19*
X189019500Y-125067500D03*
%TD*%
D15*
%TO.C,SW_MINUS1*%
X238887000Y-72707500D03*
D16*
X233807000Y-72707500D03*
X243967000Y-72707500D03*
D18*
X236387000Y-68707500D03*
D17*
X235732001Y-69437500D03*
D19*
X241407000Y-67917500D03*
D18*
X241427000Y-67627500D03*
%TD*%
D16*
%TO.C,SW_N1*%
X162369500Y-129857500D03*
X172529500Y-129857500D03*
D15*
X167449500Y-129857500D03*
D17*
X164294501Y-126587500D03*
D18*
X164949500Y-125857500D03*
D19*
X169969500Y-125067500D03*
D18*
X169989500Y-124777500D03*
%TD*%
D16*
%TO.C,SW_O1*%
X205232000Y-91757500D03*
X215392000Y-91757500D03*
D15*
X210312000Y-91757500D03*
D18*
X207812000Y-87757500D03*
D17*
X207157001Y-88487500D03*
D19*
X212832000Y-86967500D03*
D18*
X212852000Y-86677500D03*
%TD*%
D16*
%TO.C,SW_P1*%
X234442000Y-91757500D03*
X224282000Y-91757500D03*
D15*
X229362000Y-91757500D03*
D18*
X226862000Y-87757500D03*
D17*
X226207001Y-88487500D03*
D19*
X231882000Y-86967500D03*
D18*
X231902000Y-86677500D03*
%TD*%
D15*
%TO.C,SW_PAUSE1*%
X361759500Y-34607500D03*
D16*
X361759500Y-29527500D03*
X361759500Y-39687500D03*
D18*
X357759500Y-37107500D03*
D21*
X358489500Y-37762499D03*
D22*
X356969500Y-32087500D03*
D18*
X356679500Y-32067500D03*
%TD*%
D16*
%TO.C,SW_PERIOD1*%
X229679500Y-129857500D03*
X219519500Y-129857500D03*
D15*
X224599500Y-129857500D03*
D18*
X222099500Y-125857500D03*
D17*
X221444501Y-126587500D03*
D19*
X227119500Y-125067500D03*
D18*
X227139500Y-124777500D03*
%TD*%
D15*
%TO.C,SW_PGDN1*%
X361759500Y-91757500D03*
D16*
X356679500Y-91757500D03*
X366839500Y-91757500D03*
D17*
X358604501Y-88487500D03*
D18*
X359259500Y-87757500D03*
D19*
X364279500Y-86967500D03*
D18*
X364299500Y-86677500D03*
%TD*%
D15*
%TO.C,SW_PGUP1*%
X361759500Y-72707500D03*
D16*
X356679500Y-72707500D03*
X366839500Y-72707500D03*
D18*
X359259500Y-68707500D03*
D17*
X358604501Y-69437500D03*
D19*
X364279500Y-67917500D03*
D18*
X364299500Y-67627500D03*
%TD*%
D16*
%TO.C,SW_POW1*%
X446532000Y-39687500D03*
X446532000Y-29527500D03*
D15*
X446532000Y-34607500D03*
D18*
X442532000Y-37107500D03*
D21*
X443262000Y-37762499D03*
D22*
X441742000Y-32087500D03*
D18*
X441452000Y-32067500D03*
%TD*%
D15*
%TO.C,SW_PRSC1*%
X323659500Y-34607500D03*
D16*
X323659500Y-39687500D03*
X323659500Y-29527500D03*
D21*
X320389500Y-37762499D03*
D18*
X319659500Y-37107500D03*
X318579500Y-32067500D03*
D22*
X318869500Y-32087500D03*
%TD*%
D16*
%TO.C,SW_Q1*%
X62992000Y-91757500D03*
X52832000Y-91757500D03*
D15*
X57912000Y-91757500D03*
D17*
X54757001Y-88487500D03*
D18*
X55412000Y-87757500D03*
X60452000Y-86677500D03*
D19*
X60432000Y-86967500D03*
%TD*%
D16*
%TO.C,SW_R1*%
X120142000Y-91757500D03*
D15*
X115062000Y-91757500D03*
D16*
X109982000Y-91757500D03*
D17*
X111907001Y-88487500D03*
D18*
X112562000Y-87757500D03*
D19*
X117582000Y-86967500D03*
D18*
X117602000Y-86677500D03*
%TD*%
D16*
%TO.C,SW_RALT1*%
X243967000Y-148907500D03*
X233807000Y-148907500D03*
D15*
X238887000Y-148907500D03*
D18*
X236387000Y-144907500D03*
D17*
X235732001Y-145637500D03*
D19*
X241407000Y-144117500D03*
D18*
X241427000Y-143827500D03*
%TD*%
D16*
%TO.C,SW_RBRAC1*%
X262382000Y-91757500D03*
X272542000Y-91757500D03*
D15*
X267462000Y-91757500D03*
D18*
X264962000Y-87757500D03*
D17*
X264307001Y-88487500D03*
D19*
X269982000Y-86967500D03*
D18*
X270002000Y-86677500D03*
%TD*%
D16*
%TO.C,SW_RCTR1*%
X296354500Y-148907500D03*
D15*
X291274500Y-148907500D03*
D16*
X286194500Y-148907500D03*
D18*
X288774500Y-144907500D03*
D17*
X288119501Y-145637500D03*
D19*
X293794500Y-144117500D03*
D18*
X293814500Y-143827500D03*
%TD*%
D16*
%TO.C,SW_RIGHT1*%
X356679500Y-148907500D03*
D15*
X361759500Y-148907500D03*
D16*
X366839500Y-148907500D03*
D17*
X358604501Y-145637500D03*
D18*
X359259500Y-144907500D03*
X364299500Y-143827500D03*
D19*
X364279500Y-144117500D03*
%TD*%
D15*
%TO.C,SW_RMOD1*%
X265080750Y-148907500D03*
D16*
X270160750Y-148907500D03*
X260000750Y-148907500D03*
D18*
X262580750Y-144907500D03*
D17*
X261925751Y-145637500D03*
D19*
X267600750Y-144117500D03*
D18*
X267620750Y-143827500D03*
%TD*%
D15*
%TO.C,SW_RSH1*%
X279368250Y-129857500D03*
D20*
X291306250Y-122872500D03*
D15*
X291306250Y-138112500D03*
D20*
X267430250Y-122872500D03*
D15*
X267430250Y-138112500D03*
D16*
X274288250Y-129857500D03*
X284448250Y-129857500D03*
D18*
X276868250Y-125857500D03*
D17*
X276213251Y-126587500D03*
D18*
X281908250Y-124777500D03*
D19*
X281888250Y-125067500D03*
%TD*%
D16*
%TO.C,SW_S1*%
X76644500Y-110807500D03*
D15*
X81724500Y-110807500D03*
D16*
X86804500Y-110807500D03*
D17*
X78569501Y-107537500D03*
D18*
X79224500Y-106807500D03*
X84264500Y-105727500D03*
D19*
X84244500Y-106017500D03*
%TD*%
D16*
%TO.C,SW_SCLK1*%
X342709500Y-29527500D03*
D15*
X342709500Y-34607500D03*
D16*
X342709500Y-39687500D03*
D21*
X339439500Y-37762499D03*
D18*
X338709500Y-37107500D03*
D22*
X337919500Y-32087500D03*
D18*
X337629500Y-32067500D03*
%TD*%
D16*
%TO.C,SW_SLASH1*%
X238569500Y-129857500D03*
X248729500Y-129857500D03*
D15*
X243649500Y-129857500D03*
D17*
X240494501Y-126587500D03*
D18*
X241149500Y-125857500D03*
X246189500Y-124777500D03*
D19*
X246169500Y-125067500D03*
%TD*%
D20*
%TO.C,SW_SPACE1*%
X212686900Y-155892500D03*
D15*
X212686900Y-140652500D03*
D16*
X167767000Y-148907500D03*
D15*
X162687000Y-148907500D03*
D20*
X112687100Y-155892500D03*
D16*
X157607000Y-148907500D03*
D15*
X112687100Y-140652500D03*
D18*
X160187000Y-144907500D03*
D17*
X159532001Y-145637500D03*
D19*
X165207000Y-144117500D03*
D18*
X165227000Y-143827500D03*
%TD*%
D15*
%TO.C,SW_T1*%
X134112000Y-91757500D03*
D16*
X129032000Y-91757500D03*
X139192000Y-91757500D03*
D18*
X131612000Y-87757500D03*
D17*
X130957001Y-88487500D03*
D18*
X136652000Y-86677500D03*
D19*
X136632000Y-86967500D03*
%TD*%
D16*
%TO.C,SW_TAB1*%
X39179500Y-91757500D03*
X29019500Y-91757500D03*
D15*
X34099500Y-91757500D03*
D18*
X31599500Y-87757500D03*
D17*
X30944501Y-88487500D03*
D18*
X36639500Y-86677500D03*
D19*
X36619500Y-86967500D03*
%TD*%
D15*
%TO.C,SW_TICK1*%
X29337000Y-72707500D03*
D16*
X34417000Y-72707500D03*
X24257000Y-72707500D03*
D17*
X26182001Y-69437500D03*
D18*
X26837000Y-68707500D03*
X31877000Y-67627500D03*
D19*
X31857000Y-67917500D03*
%TD*%
D16*
%TO.C,SW_U1*%
X177292000Y-91757500D03*
X167132000Y-91757500D03*
D15*
X172212000Y-91757500D03*
D17*
X169057001Y-88487500D03*
D18*
X169712000Y-87757500D03*
X174752000Y-86677500D03*
D19*
X174732000Y-86967500D03*
%TD*%
D15*
%TO.C,SW_UP1*%
X342709500Y-129857500D03*
D16*
X337629500Y-129857500D03*
X347789500Y-129857500D03*
D17*
X339554501Y-126587500D03*
D18*
X340209500Y-125857500D03*
X345249500Y-124777500D03*
D19*
X345229500Y-125067500D03*
%TD*%
D16*
%TO.C,SW_V1*%
X124269500Y-129857500D03*
X134429500Y-129857500D03*
D15*
X129349500Y-129857500D03*
D17*
X126194501Y-126587500D03*
D18*
X126849500Y-125857500D03*
D19*
X131869500Y-125067500D03*
D18*
X131889500Y-124777500D03*
%TD*%
D16*
%TO.C,SW_W1*%
X71882000Y-91757500D03*
D15*
X76962000Y-91757500D03*
D16*
X82042000Y-91757500D03*
D17*
X73807001Y-88487500D03*
D18*
X74462000Y-87757500D03*
X79502000Y-86677500D03*
D19*
X79482000Y-86967500D03*
%TD*%
D16*
%TO.C,SW_X1*%
X86169500Y-129857500D03*
X96329500Y-129857500D03*
D15*
X91249500Y-129857500D03*
D18*
X88749500Y-125857500D03*
D17*
X88094501Y-126587500D03*
D19*
X93769500Y-125067500D03*
D18*
X93789500Y-124777500D03*
%TD*%
D15*
%TO.C,SW_Y1*%
X153162000Y-91757500D03*
D16*
X148082000Y-91757500D03*
X158242000Y-91757500D03*
D17*
X150007001Y-88487500D03*
D18*
X150662000Y-87757500D03*
D19*
X155682000Y-86967500D03*
D18*
X155702000Y-86677500D03*
%TD*%
D16*
%TO.C,SW_Z1*%
X67119500Y-129857500D03*
X77279500Y-129857500D03*
D15*
X72199500Y-129857500D03*
D18*
X69699500Y-125857500D03*
D17*
X69044501Y-126587500D03*
D19*
X74719500Y-125067500D03*
D18*
X74739500Y-124777500D03*
%TD*%
D14*
%TO.C,H1*%
X23800000Y-52734000D03*
%TD*%
D16*
%TO.C,SW_4*%
X110617000Y-72707500D03*
D15*
X105537000Y-72707500D03*
D16*
X100457000Y-72707500D03*
D17*
X102382001Y-69437500D03*
D18*
X103037000Y-68707500D03*
D19*
X108057000Y-67917500D03*
D18*
X108077000Y-67627500D03*
%TD*%
D16*
%TO.C,SW_5*%
X129667000Y-72707500D03*
X119507000Y-72707500D03*
D15*
X124587000Y-72707500D03*
D18*
X122087000Y-68707500D03*
D17*
X121432001Y-69437500D03*
D19*
X127107000Y-67917500D03*
D18*
X127127000Y-67627500D03*
%TD*%
D15*
%TO.C,SW_NUMLK1*%
X389382000Y-72707500D03*
D16*
X384302000Y-72707500D03*
X394462000Y-72707500D03*
D17*
X386227001Y-69437500D03*
D18*
X386882000Y-68707500D03*
D19*
X391902000Y-67917500D03*
D18*
X391922000Y-67627500D03*
%TD*%
D16*
%TO.C,SW_KP0X1*%
X413512000Y-148907500D03*
X403352000Y-148907500D03*
D15*
X408432000Y-148907500D03*
D23*
X411586999Y-152177500D03*
D18*
X410932000Y-152907500D03*
D24*
X405912000Y-153697500D03*
D18*
X405892000Y-153987500D03*
%TD*%
D16*
%TO.C,SW_KPENTERALT1*%
X451612000Y-148907500D03*
X441452000Y-148907500D03*
D15*
X446532000Y-148907500D03*
D18*
X449032000Y-152907500D03*
D23*
X449686999Y-152177500D03*
D18*
X443992000Y-153987500D03*
D24*
X444012000Y-153697500D03*
%TD*%
D15*
%TO.C,SW_KPSLASH1*%
X427482000Y-72707500D03*
D16*
X432562000Y-72707500D03*
X422402000Y-72707500D03*
D17*
X424327001Y-69437500D03*
D18*
X424982000Y-68707500D03*
D19*
X430002000Y-67917500D03*
D18*
X430022000Y-67627500D03*
%TD*%
D16*
%TO.C,SW_KP0ALT1*%
X394462000Y-148907500D03*
D15*
X389382000Y-148907500D03*
D16*
X384302000Y-148907500D03*
D18*
X386882000Y-144907500D03*
D17*
X386227001Y-145637500D03*
D19*
X391902000Y-144117500D03*
D18*
X391922000Y-143827500D03*
%TD*%
D16*
%TO.C,SW_KPENTERX1*%
X451612000Y-129857500D03*
X441452000Y-129857500D03*
D15*
X446532000Y-129857500D03*
D18*
X444032000Y-125857500D03*
D17*
X443377001Y-126587500D03*
D19*
X449052000Y-125067500D03*
D18*
X449072000Y-124777500D03*
%TD*%
D25*
%TO.C,D16*%
X100774500Y-131507500D03*
X100774500Y-128207500D03*
%TD*%
D26*
%TO.C,C8*%
X397068000Y-27686000D03*
X398968000Y-27686000D03*
%TD*%
%TO.C,C9*%
X385760000Y-22352000D03*
X383860000Y-22352000D03*
%TD*%
%TO.C,C10*%
X423098000Y-23876000D03*
X421198000Y-23876000D03*
%TD*%
D27*
%TO.C,R1*%
X426466000Y-31599500D03*
X426466000Y-33424500D03*
%TD*%
D28*
%TO.C,SW1*%
X425600000Y-59580000D03*
X431800000Y-55880000D03*
X425600000Y-55880000D03*
X431800000Y-59580000D03*
%TD*%
D26*
%TO.C,C1*%
X434086000Y-34036000D03*
X432186000Y-34036000D03*
%TD*%
D29*
%TO.C,C2*%
X414686750Y-46548000D03*
X414686750Y-48448000D03*
%TD*%
%TO.C,C5*%
X417068000Y-46548000D03*
X417068000Y-48448000D03*
%TD*%
D30*
%TO.C,C6*%
X435930000Y-42418000D03*
X437830000Y-42418000D03*
%TD*%
D31*
%TO.C,C7*%
X433477000Y-52884500D03*
X433477000Y-50984500D03*
%TD*%
D25*
%TO.C,D1*%
X38862000Y-36257500D03*
X38862000Y-32957500D03*
%TD*%
%TO.C,D2*%
X38862000Y-74357500D03*
X38862000Y-71057500D03*
%TD*%
%TO.C,D3*%
X43624500Y-93407500D03*
X43624500Y-90107500D03*
%TD*%
%TO.C,D4*%
X46005750Y-112457500D03*
X46005750Y-109157500D03*
%TD*%
%TO.C,D5*%
X50768250Y-131507500D03*
X50768250Y-128207500D03*
%TD*%
%TO.C,D6*%
X43624500Y-150557500D03*
X43624500Y-147257500D03*
%TD*%
%TO.C,D7*%
X69818250Y-150557500D03*
X69818250Y-147257500D03*
%TD*%
%TO.C,D8*%
X81724500Y-131507500D03*
X81724500Y-128207500D03*
%TD*%
%TO.C,D9*%
X72199500Y-112457500D03*
X72199500Y-109157500D03*
%TD*%
%TO.C,D10*%
X67437000Y-93407500D03*
X67437000Y-90107500D03*
%TD*%
%TO.C,D11*%
X57912000Y-74357500D03*
X57912000Y-71057500D03*
%TD*%
%TO.C,D12*%
X76962000Y-36257500D03*
X76962000Y-32957500D03*
%TD*%
%TO.C,D13*%
X76962000Y-74357500D03*
X76962000Y-71057500D03*
%TD*%
%TO.C,D14*%
X86487000Y-93407500D03*
X86487000Y-90107500D03*
%TD*%
%TO.C,D15*%
X91249500Y-112457500D03*
X91249500Y-109157500D03*
%TD*%
%TO.C,D17*%
X96012000Y-150557500D03*
X96012000Y-147257500D03*
%TD*%
%TO.C,D18*%
X119824500Y-131507500D03*
X119824500Y-128207500D03*
%TD*%
%TO.C,D19*%
X110299500Y-112457500D03*
X110299500Y-109157500D03*
%TD*%
%TO.C,D20*%
X105537000Y-95057500D03*
X105537000Y-91757500D03*
%TD*%
%TO.C,D21*%
X96012000Y-74357500D03*
X96012000Y-71057500D03*
%TD*%
%TO.C,D22*%
X96012000Y-36257500D03*
X96012000Y-32957500D03*
%TD*%
%TO.C,D23*%
X115062000Y-36257500D03*
X115062000Y-32957500D03*
%TD*%
%TO.C,D24*%
X115062000Y-74357500D03*
X115062000Y-71057500D03*
%TD*%
%TO.C,D25*%
X124587000Y-93407500D03*
X124587000Y-90107500D03*
%TD*%
%TO.C,D26*%
X129349500Y-112457500D03*
X129349500Y-109157500D03*
%TD*%
%TO.C,D27*%
X138874500Y-131507500D03*
X138874500Y-128207500D03*
%TD*%
%TO.C,D28*%
X172212000Y-150557500D03*
X172212000Y-147257500D03*
%TD*%
%TO.C,D29*%
X157924500Y-131507500D03*
X157924500Y-128207500D03*
%TD*%
%TO.C,D30*%
X148399500Y-112457500D03*
X148399500Y-109157500D03*
%TD*%
%TO.C,D31*%
X143637000Y-93407500D03*
X143637000Y-90107500D03*
%TD*%
%TO.C,D32*%
X134112000Y-74357500D03*
X134112000Y-71057500D03*
%TD*%
%TO.C,D33*%
X134112000Y-36257500D03*
X134112000Y-32957500D03*
%TD*%
%TO.C,D34*%
X162687000Y-36257500D03*
X162687000Y-32957500D03*
%TD*%
%TO.C,D35*%
X153162000Y-74357500D03*
X153162000Y-71057500D03*
%TD*%
%TO.C,D36*%
X162687000Y-93407500D03*
X162687000Y-90107500D03*
%TD*%
%TO.C,D37*%
X167449500Y-112457500D03*
X167449500Y-109157500D03*
%TD*%
%TO.C,D38*%
X176974500Y-131507500D03*
X176974500Y-128207500D03*
%TD*%
%TO.C,D39*%
X196024500Y-131507500D03*
X196024500Y-128207500D03*
%TD*%
%TO.C,D40*%
X186499500Y-112457500D03*
X186499500Y-109157500D03*
%TD*%
%TO.C,D41*%
X181737000Y-93407500D03*
X181737000Y-90107500D03*
%TD*%
%TO.C,D42*%
X172212000Y-74357500D03*
X172212000Y-71057500D03*
%TD*%
%TO.C,D44*%
X181737000Y-36257500D03*
X181737000Y-32957500D03*
%TD*%
%TO.C,D45*%
X200787000Y-36257500D03*
X200787000Y-32957500D03*
%TD*%
%TO.C,D46*%
X191262000Y-74357500D03*
X191262000Y-71057500D03*
%TD*%
%TO.C,D47*%
X200787000Y-93407500D03*
X200787000Y-90107500D03*
%TD*%
%TO.C,D48*%
X205549500Y-112457500D03*
X205549500Y-109157500D03*
%TD*%
%TO.C,D49*%
X215074500Y-131507500D03*
X215074500Y-128207500D03*
%TD*%
%TO.C,D50*%
X248412000Y-150557500D03*
X248412000Y-147257500D03*
%TD*%
%TO.C,D51*%
X234124500Y-131507500D03*
X234124500Y-128207500D03*
%TD*%
%TO.C,D52*%
X224599500Y-112457500D03*
X224599500Y-109157500D03*
%TD*%
%TO.C,D53*%
X219837000Y-93407500D03*
X219837000Y-90107500D03*
%TD*%
%TO.C,D54*%
X210312000Y-74357500D03*
X210312000Y-71057500D03*
%TD*%
%TO.C,D55*%
X219837000Y-36257500D03*
X219837000Y-32957500D03*
%TD*%
%TO.C,D56*%
X248412000Y-36257500D03*
X248412000Y-32957500D03*
%TD*%
%TO.C,D57*%
X229362000Y-74357500D03*
X229362000Y-71057500D03*
%TD*%
%TO.C,D58*%
X238887000Y-93407500D03*
X238887000Y-90107500D03*
%TD*%
%TO.C,D59*%
X243649500Y-112457500D03*
X243649500Y-109157500D03*
%TD*%
%TO.C,D60*%
X253174500Y-131507500D03*
X253174500Y-128207500D03*
%TD*%
%TO.C,D61*%
X274605750Y-150557500D03*
X274605750Y-147257500D03*
%TD*%
%TO.C,D62*%
X288893250Y-129857500D03*
X288893250Y-126557500D03*
%TD*%
%TO.C,D63*%
X262699500Y-112457500D03*
X262699500Y-109157500D03*
%TD*%
%TO.C,D64*%
X257937000Y-93407500D03*
X257937000Y-90107500D03*
%TD*%
%TO.C,D65*%
X248412000Y-74357500D03*
X248412000Y-71057500D03*
%TD*%
%TO.C,D66*%
X267462000Y-36257500D03*
X267462000Y-32957500D03*
%TD*%
%TO.C,D67*%
X286512000Y-36257500D03*
X286512000Y-32957500D03*
%TD*%
%TO.C,D68*%
X267462000Y-74357500D03*
X267462000Y-71057500D03*
%TD*%
%TO.C,D69*%
X276987000Y-93407500D03*
X276987000Y-90107500D03*
%TD*%
%TO.C,D70*%
X300799500Y-93407500D03*
X300799500Y-90107500D03*
%TD*%
%TO.C,D71*%
X293655750Y-112457500D03*
X293655750Y-109157500D03*
%TD*%
%TO.C,D72*%
X300799500Y-150557500D03*
X300799500Y-147257500D03*
%TD*%
%TO.C,D73*%
X333184500Y-150557500D03*
X333184500Y-147257500D03*
%TD*%
%TO.C,D74*%
X333184500Y-93407500D03*
X333184500Y-90107500D03*
%TD*%
%TO.C,D75*%
X333184500Y-74357500D03*
X333184500Y-71057500D03*
%TD*%
%TO.C,D76*%
X296037000Y-74357500D03*
X296037000Y-71057500D03*
%TD*%
%TO.C,D77*%
X305562000Y-36257500D03*
X305562000Y-32957500D03*
%TD*%
%TO.C,D78*%
X333184500Y-36257500D03*
X333184500Y-32957500D03*
%TD*%
%TO.C,D79*%
X352234500Y-74357500D03*
X352234500Y-71057500D03*
%TD*%
%TO.C,D80*%
X352234500Y-93407500D03*
X352234500Y-90107500D03*
%TD*%
%TO.C,D81*%
X352234500Y-131507500D03*
X352234500Y-128207500D03*
%TD*%
%TO.C,D82*%
X352234500Y-150557500D03*
X352234500Y-147257500D03*
%TD*%
%TO.C,D83*%
X371284500Y-150557500D03*
X371284500Y-147257500D03*
%TD*%
%TO.C,D84*%
X395478000Y-137416000D03*
X395478000Y-140716000D03*
%TD*%
%TO.C,D85*%
X398907000Y-131507500D03*
X398907000Y-128207500D03*
%TD*%
%TO.C,D86*%
X371284500Y-93407500D03*
X371284500Y-90107500D03*
%TD*%
%TO.C,D87*%
X371284500Y-74357500D03*
X371284500Y-71057500D03*
%TD*%
%TO.C,D88*%
X352234500Y-36257500D03*
X352234500Y-32957500D03*
%TD*%
%TO.C,D89*%
X371284500Y-36257500D03*
X371284500Y-32957500D03*
%TD*%
%TO.C,D90*%
X398907000Y-74357500D03*
X398907000Y-71057500D03*
%TD*%
%TO.C,D91*%
X398907000Y-93407500D03*
X398907000Y-90107500D03*
%TD*%
%TO.C,D92*%
X398907000Y-112457500D03*
X398907000Y-109157500D03*
%TD*%
%TO.C,D93*%
X417957000Y-131507500D03*
X417957000Y-128207500D03*
%TD*%
%TO.C,D94*%
X437896000Y-146810000D03*
X437896000Y-143510000D03*
%TD*%
%TO.C,D95*%
X436880000Y-135636000D03*
X436880000Y-132336000D03*
%TD*%
%TO.C,D96*%
X437007000Y-112457500D03*
X437007000Y-109157500D03*
%TD*%
%TO.C,D97*%
X417957000Y-112457500D03*
X417957000Y-109157500D03*
%TD*%
%TO.C,D99*%
X417957000Y-74357500D03*
X417957000Y-71057500D03*
%TD*%
%TO.C,D100*%
X441960000Y-48006000D03*
X441960000Y-44706000D03*
%TD*%
%TO.C,D101*%
X437007000Y-74357500D03*
X437007000Y-71057500D03*
%TD*%
%TO.C,D102*%
X437007000Y-93407500D03*
X437007000Y-90107500D03*
%TD*%
%TO.C,D103*%
X449326000Y-99314000D03*
X449326000Y-102614000D03*
%TD*%
%TO.C,D104*%
X441832000Y-122300000D03*
X441832000Y-119000000D03*
%TD*%
%TO.C,D109*%
X446532000Y-83882500D03*
X446532000Y-80582500D03*
%TD*%
%TO.C,D110*%
X450596000Y-64768000D03*
X450596000Y-61468000D03*
%TD*%
D32*
%TO.C,J1*%
X446975750Y-20550750D03*
X447975750Y-20550750D03*
X448975750Y-20550750D03*
X449975750Y-20550750D03*
D33*
X445675750Y-16675750D03*
X451275750Y-16675750D03*
%TD*%
D34*
%TO.C,R3*%
X435610000Y-55927000D03*
X435610000Y-54102000D03*
%TD*%
D35*
%TO.C,R4*%
X418084000Y-35814000D03*
X416259000Y-35814000D03*
%TD*%
D36*
%TO.C,U1*%
X431552000Y-38253250D03*
D37*
X429189500Y-39753250D03*
D36*
X431552000Y-39053250D03*
D37*
X429189500Y-40253250D03*
D36*
X431552000Y-39853250D03*
D37*
X429189500Y-40753250D03*
X429189500Y-41253250D03*
D36*
X431552000Y-40653250D03*
D37*
X429189500Y-41753250D03*
D36*
X431552000Y-41453250D03*
D37*
X429189500Y-42253250D03*
D36*
X431552000Y-42253250D03*
D37*
X429189500Y-42753250D03*
D36*
X431552000Y-43053250D03*
X431552000Y-43853250D03*
D37*
X429189500Y-43253250D03*
X429189500Y-43753250D03*
D36*
X431552000Y-44653250D03*
X431552000Y-45453250D03*
D37*
X429189500Y-44253250D03*
X429189500Y-44753250D03*
D36*
X431552000Y-46253250D03*
D38*
X428352000Y-45590750D03*
D39*
X429852000Y-47953250D03*
X429052000Y-47953250D03*
D38*
X427852000Y-45590750D03*
X427352000Y-45590750D03*
D39*
X428252000Y-47953250D03*
D38*
X426852000Y-45590750D03*
D39*
X427452000Y-47953250D03*
X426652000Y-47953250D03*
D38*
X426352000Y-45590750D03*
D39*
X425852000Y-47953250D03*
D38*
X425852000Y-45590750D03*
X425352000Y-45590750D03*
D39*
X425052000Y-47953250D03*
X424252000Y-47953250D03*
D38*
X424852000Y-45590750D03*
X424352000Y-45590750D03*
D39*
X423452000Y-47953250D03*
X422652000Y-47953250D03*
D38*
X423852000Y-45590750D03*
D39*
X421852000Y-47953250D03*
D38*
X423352000Y-45590750D03*
D36*
X420152000Y-46253250D03*
D37*
X422514500Y-44753250D03*
X422514500Y-44253250D03*
D36*
X420152000Y-45453250D03*
X420152000Y-44653250D03*
D37*
X422514500Y-43753250D03*
D36*
X420152000Y-43853250D03*
D37*
X422514500Y-43253250D03*
X422514500Y-42753250D03*
D36*
X420152000Y-43053250D03*
D37*
X422514500Y-42253250D03*
D36*
X420152000Y-42253250D03*
X420152000Y-41453250D03*
D37*
X422514500Y-41753250D03*
X422514500Y-41253250D03*
D36*
X420152000Y-40653250D03*
D37*
X422514500Y-40753250D03*
D36*
X420152000Y-39853250D03*
D37*
X422514500Y-40253250D03*
D36*
X420152000Y-39053250D03*
D37*
X422514500Y-39753250D03*
D36*
X420152000Y-38253250D03*
D38*
X423352000Y-38915750D03*
D39*
X421852000Y-36553250D03*
X422652000Y-36553250D03*
D38*
X423852000Y-38915750D03*
X424352000Y-38915750D03*
D39*
X423452000Y-36553250D03*
X424252000Y-36553250D03*
D38*
X424852000Y-38915750D03*
X425352000Y-38915750D03*
D39*
X425052000Y-36553250D03*
X425852000Y-36553250D03*
D38*
X425852000Y-38915750D03*
D39*
X426652000Y-36553250D03*
D38*
X426352000Y-38915750D03*
X426852000Y-38915750D03*
D39*
X427452000Y-36553250D03*
X428252000Y-36553250D03*
D38*
X427352000Y-38915750D03*
D39*
X429052000Y-36553250D03*
D38*
X427852000Y-38915750D03*
D39*
X429852000Y-36553250D03*
D38*
X428352000Y-38915750D03*
D40*
X425852000Y-42253250D03*
%TD*%
D41*
%TO.C,Y1*%
X425239500Y-50928250D03*
X427439500Y-50928250D03*
X427439500Y-52628250D03*
X425239500Y-52628250D03*
%TD*%
D29*
%TO.C,C3*%
X422910000Y-53340000D03*
X422910000Y-55240000D03*
%TD*%
D31*
%TO.C,C4*%
X430614500Y-52884500D03*
X430614500Y-50984500D03*
%TD*%
D25*
%TO.C,D98*%
X417957000Y-93407500D03*
X417957000Y-90107500D03*
%TD*%
%TO.C,D105*%
X449072000Y-118618000D03*
X449072000Y-121918000D03*
%TD*%
D30*
%TO.C,C11*%
X416560000Y-22352000D03*
X418460000Y-22352000D03*
%TD*%
D42*
%TO.C,R5*%
X441452000Y-24892000D03*
X443277000Y-24892000D03*
%TD*%
%TO.C,R2*%
X441405000Y-22860000D03*
X443230000Y-22860000D03*
%TD*%
D25*
%TO.C,D43*%
X403352000Y-136146000D03*
X403352000Y-139446000D03*
%TD*%
D42*
%TO.C,R6*%
X412599500Y-22352000D03*
X414424500Y-22352000D03*
%TD*%
D43*
%TO.C,BUZ1*%
X426216000Y-20066000D03*
X439416000Y-20066000D03*
%TD*%
M02*
