M48
; DRILL file {KiCad 5.99.0-unknown-ae51e60f70~131~ubuntu21.10.1} date Thu Sep  2 01:21:21 2021
; FORMAT={-:-/ absolute / inch / decimal}
; #@! TF.CreationDate,2021-09-02T01:21:21-04:00
; #@! TF.GenerationSoftware,Kicad,Pcbnew,5.99.0-unknown-ae51e60f70~131~ubuntu21.10.1
; #@! TF.FileFunction,MixedPlating,1,2
FMAT,2
INCH
; #@! TA.AperFunction,Plated,PTH,ViaDrill
T1C0.0157
; #@! TA.AperFunction,Plated,PTH,ComponentDrill
T2C0.0394
; #@! TA.AperFunction,Plated,PTH,ComponentDrill
T3C0.0579
; #@! TA.AperFunction,Plated,PTH,ComponentDrill
T4C0.1063
; #@! TA.AperFunction,NonPlated,NPTH,ComponentDrill
T5C0.0689
; #@! TA.AperFunction,NonPlated,NPTH,ComponentDrill
T6C0.1200
; #@! TA.AperFunction,NonPlated,NPTH,ComponentDrill
T7C0.1570
%
G90
G05
T1
X3.67Y-4.6
X3.78Y-3.02
X3.82Y-4.63
X3.87Y-2.91
X4.24Y-3.65
X4.24Y-3.78
X4.39Y-4.51
X4.41Y-4.4
X4.91Y-3.74
X4.97Y-3.62
X5.33Y-5.88
X5.33Y-6.03
X5.84Y-4.5
X5.85Y-3.1
X5.85Y-3.21
X5.9Y-4.42
X6.09Y-4.78
X6.09Y-4.86
X6.78Y-3.03
X6.8Y-2.54
X6.8Y-2.65
X6.85Y-2.92
X7.23Y-3.66
X7.23Y-3.74
X7.46Y-4.4
X7.655Y-5.295
X7.71Y-5.46
X7.72Y-5.22
X8.13Y-4.05
X8.13Y-4.14
X8.29Y-4.67
X8.34Y-4.78
X8.83Y-1.49
X8.84Y-0.91
X8.84Y-1.11
X10.63Y-2.46
X10.63Y-2.63
X10.87Y-2.87
X10.87Y-3.01
X11.61Y-5.25
X11.67Y-5.14
X12.0Y-3.67
X12.0Y-5.14
X12.16Y-3.92
X12.16Y-4.11
X12.19Y-2.495
X12.19Y-2.685
X12.19Y-3.29
X12.19Y-3.4
X12.49Y-5.15
X12.49Y-5.38
X13.17Y-3.77
X13.18Y-2.9
X13.18Y-3.0
X13.2Y-3.65
X13.67Y-4.39
X13.75Y-4.31
X13.98Y-2.91
X13.98Y-3.01
X14.25Y-4.97
X14.26Y-5.32
X14.35Y-5.41
X14.41Y-2.5769
X14.46Y-4.97
X14.52Y-2.91
X14.52Y-3.01
X14.53Y-3.62
X14.54Y-3.75
X14.66Y-1.35
X14.68Y-5.92
X14.732Y-5.208
X14.75Y-5.83
X14.7615Y-4.9985
X14.79Y-3.75
X14.79Y-4.97
X14.832Y-3.708
X14.85Y-5.98
X14.85Y-6.08
X14.89Y-3.65
X14.9Y-3.78
X14.9836Y-1.103
X15.17Y-4.56
X15.1858Y-5.2842
X15.25Y-1.23
X15.26Y-4.65
X15.67Y-2.55
X15.67Y-2.65
X15.76Y-5.1794
X15.78Y-5.41
X15.79Y-1.1
X15.97Y-5.57
X15.97Y-5.82
X16.05Y-3.18
X16.05Y-3.3
X16.1102Y-1.1024
X16.2511Y-2.3311
X16.2716Y-2.3648
X16.3097Y-2.3548
X16.32Y-2.4
X16.35Y-2.43
X16.3828Y-2.4585
X16.4078Y-1.6891
X16.41Y-1.6271
X16.41Y-2.49
X16.42Y-2.37
X16.4408Y-1.7235
X16.4413Y-1.6606
X16.4428Y-1.5976
X16.49Y-2.37
X16.5Y-2.56
X16.54Y-2.52
X16.55Y-2.37
X16.558Y-2.958
X16.56Y-1.07
X16.6096Y-1.5073
X16.6096Y-1.7885
X16.65Y-1.23
X16.66Y-1.37
X16.69Y-0.93
X16.6973Y-1.3576
X16.7118Y-0.8973
X16.72Y-2.91
X16.72Y-3.04
X16.7341Y-1.3716
X16.8596Y-1.8198
X16.89Y-1.05
X16.89Y-2.06
X16.89Y-2.14
X16.9221Y-1.5385
X16.9221Y-1.6948
X16.9477Y-1.3827
X17.21Y-2.15
X17.21Y-2.24
X17.26Y-2.52
X17.32Y-5.78
X17.3337Y-2.7338
X17.42Y-1.66
X17.53Y-1.79
X17.67Y-1.86
X17.78Y-4.9
T2
X17.059Y-0.83
X17.2559Y-0.83
T3
X0.955Y-1.2625
X0.9778Y-1.2641
X0.9975Y-1.4609
X1.005Y-2.7625
X1.055Y-1.5125
X1.0566Y-2.705
X1.1925Y-3.5125
X1.1925Y-5.7625
X1.2441Y-3.455
X1.2441Y-5.705
X1.2534Y-2.6853
X1.255Y-2.6625
X1.2862Y-4.2625
X1.3378Y-4.205
X1.4409Y-3.4353
X1.4409Y-5.6853
X1.4425Y-3.4125
X1.4425Y-5.6625
X1.4737Y-5.0125
X1.5253Y-4.955
X1.5347Y-4.1853
X1.5362Y-4.1625
X1.7222Y-4.9353
X1.7237Y-4.9125
X1.755Y-2.7625
X1.8066Y-2.705
X2.0034Y-2.6853
X2.005Y-2.6625
X2.13Y-3.5125
X2.1816Y-3.455
X2.2237Y-5.7625
X2.2753Y-5.705
X2.3175Y-4.2625
X2.3691Y-4.205
X2.3784Y-3.4353
X2.38Y-3.4125
X2.455Y-1.2625
X2.4722Y-5.6853
X2.4737Y-5.6625
X2.4778Y-1.2641
X2.4975Y-1.4609
X2.505Y-2.7625
X2.555Y-1.5125
X2.5566Y-2.705
X2.5659Y-4.1853
X2.5675Y-4.1625
X2.6925Y-5.0125
X2.7441Y-4.955
X2.7534Y-2.6853
X2.755Y-2.6625
X2.88Y-3.5125
X2.9316Y-3.455
X2.9409Y-4.9353
X2.9425Y-4.9125
X3.0675Y-4.2625
X3.1191Y-4.205
X3.1284Y-3.4353
X3.13Y-3.4125
X3.205Y-1.2625
X3.2278Y-1.2641
X3.2475Y-1.4609
X3.255Y-2.7625
X3.255Y-5.7625
X3.305Y-1.5125
X3.3066Y-2.705
X3.3066Y-5.705
X3.3159Y-4.1853
X3.3175Y-4.1625
X3.4425Y-5.0125
X3.4941Y-4.955
X3.5034Y-2.6853
X3.5034Y-5.6853
X3.505Y-2.6625
X3.505Y-5.6625
X3.63Y-3.5125
X3.6816Y-3.455
X3.6909Y-4.9353
X3.6925Y-4.9125
X3.8175Y-4.2625
X3.8691Y-4.205
X3.8784Y-3.4353
X3.88Y-3.4125
X3.955Y-1.2625
X3.9778Y-1.2641
X3.9975Y-1.4609
X4.005Y-2.7625
X4.055Y-1.5125
X4.0566Y-2.705
X4.0659Y-4.1853
X4.0675Y-4.1625
X4.1925Y-5.0125
X4.2441Y-4.955
X4.2534Y-2.6853
X4.255Y-2.6625
X4.38Y-3.5125
X4.4316Y-3.455
X4.4409Y-4.9353
X4.4425Y-4.9125
X4.5675Y-4.2625
X4.6191Y-4.205
X4.6284Y-3.4353
X4.63Y-3.4125
X4.705Y-1.2625
X4.7278Y-1.2641
X4.7475Y-1.4609
X4.755Y-2.7625
X4.805Y-1.5125
X4.8066Y-2.705
X4.8159Y-4.1853
X4.8175Y-4.1625
X4.9425Y-5.0125
X4.9941Y-4.955
X5.0034Y-2.6853
X5.005Y-2.6625
X5.13Y-3.5125
X5.1816Y-3.455
X5.1909Y-4.9353
X5.1925Y-4.9125
X5.3175Y-4.2625
X5.3691Y-4.205
X5.3784Y-3.4353
X5.38Y-3.4125
X5.505Y-2.7625
X5.5566Y-2.705
X5.5659Y-4.1853
X5.5675Y-4.1625
X5.6925Y-5.0125
X5.7441Y-4.955
X5.7534Y-2.6853
X5.755Y-2.6625
X5.83Y-1.2625
X5.8528Y-1.2641
X5.8725Y-1.4609
X5.88Y-3.5125
X5.93Y-1.5125
X5.9316Y-3.455
X5.9409Y-4.9353
X5.9425Y-4.9125
X6.0675Y-4.2625
X6.1191Y-4.205
X6.1284Y-3.4353
X6.13Y-3.4125
X6.255Y-2.7625
X6.255Y-5.7625
X6.3066Y-2.705
X6.3066Y-5.705
X6.3159Y-4.1853
X6.3175Y-4.1625
X6.4425Y-5.0125
X6.4941Y-4.955
X6.5034Y-2.6853
X6.5034Y-5.6853
X6.505Y-2.6625
X6.505Y-5.6625
X6.58Y-1.2625
X6.6028Y-1.2641
X6.6225Y-1.4609
X6.63Y-3.5125
X6.68Y-1.5125
X6.6816Y-3.455
X6.6909Y-4.9353
X6.6925Y-4.9125
X6.8175Y-4.2625
X6.8691Y-4.205
X6.8784Y-3.4353
X6.88Y-3.4125
X7.005Y-2.7625
X7.0566Y-2.705
X7.0659Y-4.1853
X7.0675Y-4.1625
X7.1925Y-5.0125
X7.2441Y-4.955
X7.2534Y-2.6853
X7.255Y-2.6625
X7.33Y-1.2625
X7.3528Y-1.2641
X7.3725Y-1.4609
X7.38Y-3.5125
X7.43Y-1.5125
X7.4316Y-3.455
X7.4409Y-4.9353
X7.4425Y-4.9125
X7.5675Y-4.2625
X7.6191Y-4.205
X7.6284Y-3.4353
X7.63Y-3.4125
X7.755Y-2.7625
X7.8066Y-2.705
X7.8159Y-4.1853
X7.8175Y-4.1625
X7.9425Y-5.0125
X7.9941Y-4.955
X8.0034Y-2.6853
X8.005Y-2.6625
X8.08Y-1.2625
X8.1028Y-1.2641
X8.1225Y-1.4609
X8.13Y-3.5125
X8.18Y-1.5125
X8.1816Y-3.455
X8.1909Y-4.9353
X8.1925Y-4.9125
X8.3175Y-4.2625
X8.3691Y-4.205
X8.3784Y-3.4353
X8.38Y-3.4125
X8.505Y-2.7625
X8.5566Y-2.705
X8.5659Y-4.1853
X8.5675Y-4.1625
X8.6925Y-5.0125
X8.7441Y-4.955
X8.7534Y-2.6853
X8.755Y-2.6625
X8.88Y-3.5125
X8.9316Y-3.455
X8.9409Y-4.9353
X8.9425Y-4.9125
X9.0675Y-4.2625
X9.1191Y-4.205
X9.1284Y-3.4353
X9.13Y-3.4125
X9.205Y-1.2625
X9.2278Y-1.2641
X9.2475Y-1.4609
X9.255Y-2.7625
X9.255Y-5.7625
X9.305Y-1.5125
X9.3066Y-2.705
X9.3066Y-5.705
X9.3159Y-4.1853
X9.3175Y-4.1625
X9.4425Y-5.0125
X9.4941Y-4.955
X9.5034Y-2.6853
X9.5034Y-5.6853
X9.505Y-2.6625
X9.505Y-5.6625
X9.63Y-3.5125
X9.6816Y-3.455
X9.6909Y-4.9353
X9.6925Y-4.9125
X9.8175Y-4.2625
X9.8691Y-4.205
X9.8784Y-3.4353
X9.88Y-3.4125
X9.955Y-1.2625
X9.9778Y-1.2641
X9.9975Y-1.4609
X10.005Y-2.7625
X10.055Y-1.5125
X10.0566Y-2.705
X10.0659Y-4.1853
X10.0675Y-4.1625
X10.2534Y-2.6853
X10.255Y-2.6625
X10.2862Y-5.7625
X10.3378Y-5.705
X10.38Y-3.5125
X10.4316Y-3.455
X10.5347Y-5.6853
X10.5362Y-5.6625
X10.6284Y-3.4353
X10.63Y-3.4125
X10.705Y-1.2625
X10.7278Y-1.2641
X10.7475Y-1.4609
X10.805Y-1.5125
X10.8487Y-5.0125
X10.9003Y-4.955
X11.0362Y-4.2625
X11.0878Y-4.205
X11.0972Y-4.9353
X11.0987Y-4.9125
X11.13Y-2.7625
X11.1816Y-2.705
X11.2847Y-4.1853
X11.2862Y-4.1625
X11.3175Y-3.5125
X11.3175Y-5.7625
X11.3691Y-3.455
X11.3691Y-5.705
X11.3784Y-2.6853
X11.38Y-2.6625
X11.455Y-1.2625
X11.4778Y-1.2641
X11.4975Y-1.4609
X11.555Y-1.5125
X11.5659Y-3.4353
X11.5659Y-5.6853
X11.5675Y-3.4125
X11.5675Y-5.6625
X12.5425Y-1.2625
X12.5653Y-1.2641
X12.585Y-1.4609
X12.5925Y-2.7625
X12.5925Y-3.5125
X12.5925Y-5.7625
X12.6425Y-1.5125
X12.6441Y-2.705
X12.6441Y-3.455
X12.6441Y-5.705
X12.8409Y-2.6853
X12.8409Y-3.4353
X12.8409Y-5.6853
X12.8425Y-2.6625
X12.8425Y-3.4125
X12.8425Y-5.6625
X13.2925Y-1.2625
X13.3153Y-1.2641
X13.335Y-1.4609
X13.3425Y-2.7625
X13.3425Y-3.5125
X13.3425Y-5.0125
X13.3425Y-5.7625
X13.3925Y-1.5125
X13.3941Y-2.705
X13.3941Y-3.455
X13.3941Y-4.955
X13.3941Y-5.705
X13.5909Y-2.6853
X13.5909Y-3.4353
X13.5909Y-4.9353
X13.5909Y-5.6853
X13.5925Y-2.6625
X13.5925Y-3.4125
X13.5925Y-4.9125
X13.5925Y-5.6625
X14.0425Y-1.2625
X14.0653Y-1.2641
X14.085Y-1.4609
X14.0925Y-2.7625
X14.0925Y-3.5125
X14.0925Y-5.7625
X14.1425Y-1.5125
X14.1441Y-2.705
X14.1441Y-3.455
X14.1441Y-5.705
X14.3409Y-2.6853
X14.3409Y-3.4353
X14.3409Y-5.6853
X14.3425Y-2.6625
X14.3425Y-3.4125
X14.3425Y-5.6625
X15.18Y-2.7625
X15.18Y-3.5125
X15.18Y-4.2625
X15.18Y-5.0125
X15.18Y-5.7625
X15.2316Y-2.705
X15.2316Y-3.455
X15.2316Y-4.205
X15.2316Y-4.955
X15.2316Y-5.705
X15.4284Y-2.6853
X15.4284Y-3.4353
X15.4284Y-4.1853
X15.4284Y-4.9353
X15.4284Y-5.6853
X15.43Y-2.6625
X15.43Y-3.4125
X15.43Y-4.1625
X15.43Y-4.9125
X15.43Y-5.6625
X15.555Y-5.7625
X15.6066Y-5.705
X15.8034Y-5.6853
X15.805Y-5.6625
X15.93Y-2.7625
X15.93Y-3.5125
X15.93Y-4.2625
X15.93Y-5.0125
X15.98Y-6.0625
X15.9816Y-2.705
X15.9816Y-3.455
X15.9816Y-4.205
X15.9816Y-4.955
X15.9816Y-6.0397
X16.1784Y-2.6853
X16.1784Y-3.4353
X16.1784Y-4.1853
X16.1784Y-4.9353
X16.1784Y-6.02
X16.18Y-2.6625
X16.18Y-3.4125
X16.18Y-4.1625
X16.18Y-4.9125
X16.23Y-5.9625
X16.68Y-2.7625
X16.68Y-3.5125
X16.68Y-4.2625
X16.68Y-5.0125
X16.68Y-5.7625
X16.7316Y-2.705
X16.7316Y-3.455
X16.7316Y-4.205
X16.7316Y-4.955
X16.7316Y-5.705
X16.9284Y-2.6853
X16.9284Y-3.4353
X16.9284Y-4.1853
X16.9284Y-4.9353
X16.9284Y-5.6853
X16.93Y-2.6625
X16.93Y-3.4125
X16.93Y-4.1625
X16.93Y-4.9125
X16.93Y-5.6625
X17.38Y-1.2625
X17.38Y-5.3875
X17.4028Y-1.2641
X17.4028Y-5.3891
X17.4225Y-1.4609
X17.4225Y-5.5859
X17.43Y-2.7625
X17.43Y-3.5125
X17.43Y-4.2625
X17.43Y-5.0125
X17.48Y-1.5125
X17.48Y-5.6375
X17.48Y-6.0625
X17.4816Y-2.705
X17.4816Y-3.455
X17.4816Y-4.205
X17.4816Y-4.955
X17.4816Y-6.0397
X17.6784Y-2.6853
X17.6784Y-3.4353
X17.6784Y-4.1853
X17.6784Y-4.9353
X17.6784Y-6.02
X17.68Y-2.6625
X17.68Y-3.4125
X17.68Y-4.1625
X17.68Y-4.9125
X17.73Y-5.9625
T4
X0.9764Y-2.1549
X17.7834Y-2.1549
T5
X0.955Y-2.8625
X1.1425Y-3.6125
X1.1425Y-5.8625
X1.155Y-1.1625
X1.155Y-1.5625
X1.2363Y-4.3625
X1.355Y-2.8625
X1.4238Y-5.1125
X1.5425Y-3.6125
X1.5425Y-5.8625
X1.6362Y-4.3625
X1.705Y-2.8625
X1.8237Y-5.1125
X2.08Y-3.6125
X2.105Y-2.8625
X2.1738Y-5.8625
X2.2675Y-4.3625
X2.455Y-2.8625
X2.48Y-3.6125
X2.5737Y-5.8625
X2.6425Y-5.1125
X2.655Y-1.1625
X2.655Y-1.5625
X2.6675Y-4.3625
X2.83Y-3.6125
X2.855Y-2.8625
X3.0175Y-4.3625
X3.0425Y-5.1125
X3.205Y-2.8625
X3.205Y-5.8625
X3.23Y-3.6125
X3.3925Y-5.1125
X3.405Y-1.1625
X3.405Y-1.5625
X3.4175Y-4.3625
X3.58Y-3.6125
X3.605Y-2.8625
X3.605Y-5.8625
X3.7675Y-4.3625
X3.7925Y-5.1125
X3.955Y-2.8625
X3.98Y-3.6125
X4.1425Y-5.1125
X4.155Y-1.1625
X4.155Y-1.5625
X4.1675Y-4.3625
X4.33Y-3.6125
X4.355Y-2.8625
X4.5175Y-4.3625
X4.5425Y-5.1125
X4.705Y-2.8625
X4.73Y-3.6125
X4.8925Y-5.1125
X4.905Y-1.1625
X4.905Y-1.5625
X4.9175Y-4.3625
X5.08Y-3.6125
X5.105Y-2.8625
X5.2675Y-4.3625
X5.2925Y-5.1125
X5.455Y-2.8625
X5.48Y-3.6125
X5.6425Y-5.1125
X5.6675Y-4.3625
X5.83Y-3.6125
X5.855Y-2.8625
X6.0175Y-4.3625
X6.03Y-1.1625
X6.03Y-1.5625
X6.0425Y-5.1125
X6.205Y-2.8625
X6.205Y-5.8625
X6.23Y-3.6125
X6.3925Y-5.1125
X6.4175Y-4.3625
X6.58Y-3.6125
X6.605Y-2.8625
X6.605Y-5.8625
X6.7675Y-4.3625
X6.78Y-1.1625
X6.78Y-1.5625
X6.7925Y-5.1125
X6.955Y-2.8625
X6.98Y-3.6125
X7.1425Y-5.1125
X7.1675Y-4.3625
X7.33Y-3.6125
X7.355Y-2.8625
X7.5175Y-4.3625
X7.53Y-1.1625
X7.53Y-1.5625
X7.5425Y-5.1125
X7.705Y-2.8625
X7.73Y-3.6125
X7.8925Y-5.1125
X7.9175Y-4.3625
X8.08Y-3.6125
X8.105Y-2.8625
X8.2675Y-4.3625
X8.28Y-1.1625
X8.28Y-1.5625
X8.2925Y-5.1125
X8.455Y-2.8625
X8.48Y-3.6125
X8.6425Y-5.1125
X8.6675Y-4.3625
X8.83Y-3.6125
X8.855Y-2.8625
X9.0175Y-4.3625
X9.0425Y-5.1125
X9.205Y-2.8625
X9.205Y-5.8625
X9.23Y-3.6125
X9.3925Y-5.1125
X9.405Y-1.1625
X9.405Y-1.5625
X9.4175Y-4.3625
X9.58Y-3.6125
X9.605Y-2.8625
X9.605Y-5.8625
X9.7675Y-4.3625
X9.7925Y-5.1125
X9.955Y-2.8625
X9.98Y-3.6125
X10.155Y-1.1625
X10.155Y-1.5625
X10.1675Y-4.3625
X10.2363Y-5.8625
X10.33Y-3.6125
X10.355Y-2.8625
X10.6363Y-5.8625
X10.73Y-3.6125
X10.7988Y-5.1125
X10.905Y-1.1625
X10.905Y-1.5625
X10.9863Y-4.3625
X11.08Y-2.8625
X11.1988Y-5.1125
X11.2675Y-3.6125
X11.2675Y-5.8625
X11.3863Y-4.3625
X11.48Y-2.8625
X11.655Y-1.1625
X11.655Y-1.5625
X11.6675Y-3.6125
X11.6675Y-5.8625
X12.5425Y-2.8625
X12.5425Y-3.6125
X12.5425Y-5.8625
X12.7425Y-1.1625
X12.7425Y-1.5625
X12.9425Y-2.8625
X12.9425Y-3.6125
X12.9425Y-5.8625
X13.2925Y-2.8625
X13.2925Y-3.6125
X13.2925Y-5.1125
X13.2925Y-5.8625
X13.4925Y-1.1625
X13.4925Y-1.5625
X13.6925Y-2.8625
X13.6925Y-3.6125
X13.6925Y-5.1125
X13.6925Y-5.8625
X14.0425Y-2.8625
X14.0425Y-3.6125
X14.0425Y-5.8625
X14.2425Y-1.1625
X14.2425Y-1.5625
X14.4425Y-2.8625
X14.4425Y-3.6125
X14.4425Y-5.8625
X15.13Y-2.8625
X15.13Y-3.6125
X15.13Y-4.3625
X15.13Y-5.1125
X15.13Y-5.8625
X15.505Y-5.8625
X15.53Y-2.8625
X15.53Y-3.6125
X15.53Y-4.3625
X15.53Y-5.1125
X15.53Y-5.8625
X15.88Y-2.8625
X15.88Y-3.6125
X15.88Y-4.3625
X15.88Y-5.1125
X15.88Y-5.8625
X15.905Y-5.8625
X16.28Y-2.8625
X16.28Y-3.6125
X16.28Y-4.3625
X16.28Y-5.1125
X16.28Y-5.8625
X16.63Y-2.8625
X16.63Y-3.6125
X16.63Y-4.3625
X16.63Y-5.1125
X16.63Y-5.8625
X17.03Y-2.8625
X17.03Y-3.6125
X17.03Y-4.3625
X17.03Y-5.1125
X17.03Y-5.8625
X17.38Y-2.8625
X17.38Y-3.6125
X17.38Y-4.3625
X17.38Y-5.1125
X17.38Y-5.8625
X17.58Y-1.1625
X17.58Y-1.5625
X17.58Y-5.2875
X17.58Y-5.6875
X17.78Y-2.8625
X17.78Y-3.6125
X17.78Y-4.3625
X17.78Y-5.1125
X17.78Y-5.8625
T6
X1.1538Y-4.8375
X2.0938Y-4.8375
X4.4365Y-6.1375
X8.3735Y-6.1375
X10.5288Y-4.8375
X10.7163Y-4.0875
X10.81Y-2.5875
X11.4688Y-4.8375
X11.6562Y-4.0875
X11.75Y-2.5875
X15.235Y-6.1375
X16.175Y-6.1375
X17.855Y-5.0175
X17.855Y-5.9575
T7
X1.1538Y-5.4375
X1.155Y-1.3625
X1.155Y-2.8625
X1.3425Y-3.6125
X1.3425Y-5.8625
X1.4363Y-4.3625
X1.6238Y-5.1125
X1.905Y-2.8625
X2.0938Y-5.4375
X2.28Y-3.6125
X2.3737Y-5.8625
X2.4675Y-4.3625
X2.655Y-1.3625
X2.655Y-2.8625
X2.8425Y-5.1125
X3.03Y-3.6125
X3.2175Y-4.3625
X3.405Y-1.3625
X3.405Y-2.8625
X3.405Y-5.8625
X3.5925Y-5.1125
X3.78Y-3.6125
X3.9675Y-4.3625
X4.155Y-1.3625
X4.155Y-2.8625
X4.3425Y-5.1125
X4.4365Y-5.5375
X4.53Y-3.6125
X4.7175Y-4.3625
X4.905Y-1.3625
X4.905Y-2.8625
X5.0925Y-5.1125
X5.28Y-3.6125
X5.4675Y-4.3625
X5.655Y-2.8625
X5.8425Y-5.1125
X6.03Y-1.3625
X6.03Y-3.6125
X6.2175Y-4.3625
X6.405Y-2.8625
X6.405Y-5.8625
X6.5925Y-5.1125
X6.78Y-1.3625
X6.78Y-3.6125
X6.9675Y-4.3625
X7.155Y-2.8625
X7.3425Y-5.1125
X7.53Y-1.3625
X7.53Y-3.6125
X7.7175Y-4.3625
X7.905Y-2.8625
X8.0925Y-5.1125
X8.28Y-1.3625
X8.28Y-3.6125
X8.3735Y-5.5375
X8.4675Y-4.3625
X8.655Y-2.8625
X8.8425Y-5.1125
X9.03Y-3.6125
X9.2175Y-4.3625
X9.405Y-1.3625
X9.405Y-2.8625
X9.405Y-5.8625
X9.5925Y-5.1125
X9.78Y-3.6125
X9.9675Y-4.3625
X10.155Y-1.3625
X10.155Y-2.8625
X10.4362Y-5.8625
X10.5288Y-5.4375
X10.53Y-3.6125
X10.7163Y-4.6875
X10.81Y-3.1875
X10.905Y-1.3625
X10.9987Y-5.1125
X11.1862Y-4.3625
X11.28Y-2.8625
X11.4675Y-3.6125
X11.4675Y-5.8625
X11.4688Y-5.4375
X11.655Y-1.3625
X11.6562Y-4.6875
X11.75Y-3.1875
X12.7425Y-1.3625
X12.7425Y-2.8625
X12.7425Y-3.6125
X12.7425Y-5.8625
X13.4925Y-1.3625
X13.4925Y-2.8625
X13.4925Y-3.6125
X13.4925Y-5.1125
X13.4925Y-5.8625
X14.2425Y-1.3625
X14.2425Y-2.8625
X14.2425Y-3.6125
X14.2425Y-5.8625
X15.235Y-5.5375
X15.33Y-2.8625
X15.33Y-3.6125
X15.33Y-4.3625
X15.33Y-5.1125
X15.33Y-5.8625
X15.705Y-5.8625
X16.08Y-2.8625
X16.08Y-3.6125
X16.08Y-4.3625
X16.08Y-5.1125
X16.08Y-5.8625
X16.175Y-5.5375
X16.83Y-2.8625
X16.83Y-3.6125
X16.83Y-4.3625
X16.83Y-5.1125
X16.83Y-5.8625
X17.255Y-5.0175
X17.255Y-5.9575
X17.58Y-1.3625
X17.58Y-2.8625
X17.58Y-3.6125
X17.58Y-4.3625
X17.58Y-5.1125
X17.58Y-5.4875
X17.58Y-5.8625
T0
M30
